<?xml version="1.0" encoding="iso-8859-1"?>
<!-- Generator: Adobe Illustrator 19.0.0, SVG Export Plug-In . SVG Version: 6.00 Build 0)  -->
<svg version="1.1" id="Capa_1" xmlns="http://www.w3.org/2000/svg" xmlns:xlink="http://www.w3.org/1999/xlink" x="0px" y="0px"
	 viewBox="0 0 58 58" style="enable-background:new 0 0 58 58;" xml:space="preserve">
<path style="fill:#EAD8BB;" d="M12,0C9.694,0,7.781,1.758,7.53,4L7.5,5c0,2.2,1.8,4,4,4h1h3h2l2-4h12l-1.961,3.921
	C29.521,8.958,29.548,9,29.588,9h0.211H50.5V0H12z"/>
<path style="fill:#6B4842;" d="M29.5,9v26.201c0,0.505-0.665,0.69-0.925,0.256L23.5,27l-5.075,8.458
	c-0.26,0.433-0.925,0.249-0.925-0.256V9h-6c-2.2,0-4-1.8-4-4v48.958C7.5,56.19,9.31,58,11.542,58H50.5V9H29.5z"/>
<path style="fill:#513531;" d="M12.5,9h-1c-2.2,0-4-1.8-4-4v48.958C7.5,56.19,9.31,58,11.542,58H12.5V9z"/>
<path style="fill:#D3BEA1;" d="M50.5,2h-9c-0.553,0-1,0.447-1,1s0.447,1,1,1h9V2z"/>
<path style="fill:#D3BEA1;" d="M50.5,5h-8c-0.553,0-1,0.447-1,1s0.447,1,1,1h8V5z"/>
<path style="fill:#DD352E;" d="M19.5,5l-2,4v26.201c0,0.505,0.666,0.69,0.925,0.256L23.5,27l5.075,8.458
	c0.26,0.433,0.925,0.249,0.925-0.256V9l2-4H19.5z"/>
<polygon style="fill:#B02721;" points="19.5,5 17.5,9 29.5,9 31.5,5 "/>
<g>
</g>
<g>
</g>
<g>
</g>
<g>
</g>
<g>
</g>
<g>
</g>
<g>
</g>
<g>
</g>
<g>
</g>
<g>
</g>
<g>
</g>
<g>
</g>
<g>
</g>
<g>
</g>
<g>
</g>
</svg>
