<?xml version="1.0" encoding="iso-8859-1"?>
<!-- Generator: Adobe Illustrator 19.0.0, SVG Export Plug-In . SVG Version: 6.00 Build 0)  -->
<svg version="1.1" id="Capa_1" xmlns="http://www.w3.org/2000/svg" xmlns:xlink="http://www.w3.org/1999/xlink" x="0px" y="0px"
	 viewBox="0 0 53 53" style="enable-background:new 0 0 53 53;" xml:space="preserve">
<path style="fill:#E7ECED;" d="M12.821,46.638c10.701,1.847,16.659,1.847,27.36,0L49.671,45l0,0c-4.685-4.657-7.317-10.415-7.317-17
	v-9c0.038-6.047-3.957-10.478-7.946-12.301c-4.999-2.285-10.815-2.294-15.806,0.008C14.648,8.53,10.367,12.958,10.329,19v9
	c0,6.585-2.315,12.343-7,17l0,0L12.821,46.638z"/>
<path style="fill:#FFFFFF;" d="M15.329,20c-0.002,0-0.004,0-0.006,0c-0.552-0.004-0.997-0.454-0.994-1.006
	c0.03-4.682,3.752-7.643,5.948-8.654c3.849-1.775,8.594-1.772,12.469-0.002c0.502,0.229,0.723,0.822,0.494,1.325
	c-0.23,0.502-0.823,0.724-1.326,0.493c-3.353-1.533-7.469-1.537-10.799,0c-1.767,0.814-4.762,3.173-4.785,6.85
	C16.326,19.557,15.879,20,15.329,20z"/>
<path style="fill:#C7CAC7;" d="M30.329,5.381V4c0-2.209-1.791-4-4-4s-4,1.791-4,4v1.453C24.958,4.862,27.69,4.841,30.329,5.381z"/>
<path style="fill:#C7CAC7;" d="M18.235,47.46c1.445,3.268,4.602,5.54,8.277,5.54c3.676,0,6.834-2.273,8.278-5.543
	C28.862,48.209,24.159,48.21,18.235,47.46z"/>
<g>
</g>
<g>
</g>
<g>
</g>
<g>
</g>
<g>
</g>
<g>
</g>
<g>
</g>
<g>
</g>
<g>
</g>
<g>
</g>
<g>
</g>
<g>
</g>
<g>
</g>
<g>
</g>
<g>
</g>
</svg>
