<?xml version="1.0" encoding="iso-8859-1"?>
<!-- Generator: Adobe Illustrator 19.0.0, SVG Export Plug-In . SVG Version: 6.00 Build 0)  -->
<svg version="1.1" id="Capa_1" xmlns="http://www.w3.org/2000/svg" xmlns:xlink="http://www.w3.org/1999/xlink" x="0px" y="0px"
	 viewBox="0 0 57.157 57.157" style="enable-background:new 0 0 57.157 57.157;" xml:space="preserve">
<g>
	<path style="fill:#7383BF;" d="M15.804,51.517l-3.933,3.933c-0.391,0.391-0.391,1.023,0,1.414c0.195,0.195,0.451,0.293,0.707,0.293
		s0.512-0.098,0.707-0.293l3.933-3.933c0.391-0.391,0.391-1.023,0-1.414S16.195,51.126,15.804,51.517z"/>
	<path style="fill:#7383BF;" d="M45.285,55.45l-3.963-3.963c-0.391-0.391-1.023-0.391-1.414,0s-0.391,1.023,0,1.414l3.963,3.963
		c0.195,0.195,0.451,0.293,0.707,0.293s0.512-0.098,0.707-0.293C45.676,56.473,45.676,55.84,45.285,55.45z"/>
</g>
<path style="fill:#424A60;" d="M47.303,11.129c0.024-0.02,0.053-0.028,0.076-0.05l3-3c0.391-0.391,0.391-1.023,0-1.414
	s-1.023-0.391-1.414,0l-3,3c-0.031,0.031-0.043,0.071-0.069,0.104c-4.598-4.11-10.664-6.612-17.317-6.612S15.86,5.659,11.261,9.768
	c-0.026-0.033-0.038-0.073-0.069-0.104l-3-3c-0.391-0.391-1.023-0.391-1.414,0s-0.391,1.023,0,1.414l3,3
	c0.022,0.022,0.052,0.03,0.076,0.05c-4.502,4.675-7.275,11.026-7.275,18.028c0,14.359,11.641,26,26,26s26-11.641,26-26
	C54.578,22.154,51.805,15.803,47.303,11.129z"/>
<circle style="fill:#E7ECED;" cx="28.578" cy="29.157" r="22"/>
<circle style="fill:#FFFFFF;" cx="28.578" cy="29.157" r="15"/>
<g>
	<path style="fill:#FFFFFF;" d="M28.578,6.157c-0.552,0-1,0.447-1,1v2c0,0.553,0.448,1,1,1s1-0.447,1-1v-2
		C29.578,6.604,29.131,6.157,28.578,6.157z"/>
	<path style="fill:#FFFFFF;" d="M28.578,48.157c-0.552,0-1,0.447-1,1v2c0,0.553,0.448,1,1,1s1-0.447,1-1v-2
		C29.578,48.604,29.131,48.157,28.578,48.157z"/>
	<path style="fill:#FFFFFF;" d="M50.578,28.157h-2c-0.552,0-1,0.447-1,1s0.448,1,1,1h2c0.552,0,1-0.447,1-1
		S51.131,28.157,50.578,28.157z"/>
	<path style="fill:#FFFFFF;" d="M9.578,29.157c0-0.553-0.448-1-1-1h-2c-0.552,0-1,0.447-1,1s0.448,1,1,1h2
		C9.131,30.157,9.578,29.709,9.578,29.157z"/>
	<path style="fill:#FFFFFF;" d="M18.445,9.604c-0.277-0.478-0.888-0.644-1.366-0.366c-0.478,0.276-0.642,0.888-0.366,1.366l1,1.732
		c0.186,0.32,0.521,0.5,0.867,0.5c0.169,0,0.341-0.043,0.499-0.134c0.478-0.276,0.642-0.888,0.366-1.366L18.445,9.604z"/>
	<path style="fill:#FFFFFF;" d="M39.445,45.977c-0.277-0.478-0.888-0.643-1.366-0.366c-0.478,0.276-0.642,0.888-0.366,1.366l1,1.732
		c0.186,0.32,0.521,0.5,0.867,0.5c0.169,0,0.341-0.043,0.499-0.134c0.478-0.276,0.642-0.888,0.366-1.366L39.445,45.977z"/>
	<path style="fill:#FFFFFF;" d="M11.758,18.29l-1.732-1c-0.479-0.276-1.09-0.111-1.366,0.366c-0.276,0.479-0.112,1.09,0.366,1.366
		l1.732,1c0.158,0.091,0.33,0.134,0.499,0.134c0.346,0,0.682-0.18,0.867-0.5C12.4,19.178,12.236,18.567,11.758,18.29z"/>
	<path style="fill:#FFFFFF;" d="M48.131,39.29l-1.732-1c-0.48-0.278-1.09-0.111-1.366,0.366c-0.276,0.479-0.112,1.09,0.366,1.366
		l1.732,1c0.158,0.091,0.33,0.134,0.499,0.134c0.346,0,0.682-0.18,0.867-0.5C48.773,40.178,48.609,39.567,48.131,39.29z"/>
	<path style="fill:#FFFFFF;" d="M10.758,38.29l-1.732,1c-0.478,0.276-0.642,0.888-0.366,1.366c0.186,0.32,0.521,0.5,0.867,0.5
		c0.169,0,0.341-0.043,0.499-0.134l1.732-1c0.478-0.276,0.642-0.888,0.366-1.366C11.847,38.179,11.237,38.012,10.758,38.29z"/>
	<path style="fill:#FFFFFF;" d="M45.9,20.157c0.169,0,0.341-0.043,0.499-0.134l1.732-1c0.478-0.276,0.642-0.888,0.366-1.366
		c-0.277-0.478-0.888-0.643-1.366-0.366l-1.732,1c-0.478,0.276-0.642,0.888-0.366,1.366C45.218,19.977,45.554,20.157,45.9,20.157z"
		/>
	<path style="fill:#FFFFFF;" d="M19.078,45.611c-0.481-0.276-1.09-0.111-1.366,0.366l-1,1.732c-0.276,0.479-0.112,1.09,0.366,1.366
		c0.158,0.091,0.33,0.134,0.499,0.134c0.346,0,0.682-0.18,0.867-0.5l1-1.732C19.72,46.498,19.556,45.887,19.078,45.611z"/>
	<path style="fill:#FFFFFF;" d="M40.078,9.238c-0.48-0.277-1.09-0.111-1.366,0.366l-1,1.732c-0.276,0.479-0.112,1.09,0.366,1.366
		c0.158,0.091,0.33,0.134,0.499,0.134c0.346,0,0.682-0.18,0.867-0.5l1-1.732C40.72,10.125,40.556,9.514,40.078,9.238z"/>
</g>
<path style="fill:#424A60;" d="M39.578,28.157h-7.142c-0.364-1.399-1.459-2.494-2.858-2.858V15.157c0-0.553-0.448-1-1-1
	s-1,0.447-1,1v10.142c-1.72,0.447-3,1.999-3,3.858c0,2.206,1.794,4,4,4c1.858,0,3.411-1.28,3.858-3h7.142c0.552,0,1-0.447,1-1
	S40.131,28.157,39.578,28.157z M28.578,31.157c-1.103,0-2-0.897-2-2s0.897-2,2-2s2,0.897,2,2S29.681,31.157,28.578,31.157z"/>
<path style="fill:#7383BF;" d="M54.493,2.086c2.781,2.781,2.781,7.29,0,10.071L44.421,2.086C47.203-0.695,51.711-0.695,54.493,2.086
	z"/>
<path style="fill:#7383BF;" d="M2.664,2.086c-2.781,2.781-2.781,7.29,0,10.071L12.735,2.086C9.954-0.695,5.445-0.695,2.664,2.086z"
	/>
<g>
</g>
<g>
</g>
<g>
</g>
<g>
</g>
<g>
</g>
<g>
</g>
<g>
</g>
<g>
</g>
<g>
</g>
<g>
</g>
<g>
</g>
<g>
</g>
<g>
</g>
<g>
</g>
<g>
</g>
</svg>
