<?xml version="1.0" encoding="iso-8859-1"?>
<!-- Generator: Adobe Illustrator 19.0.0, SVG Export Plug-In . SVG Version: 6.00 Build 0)  -->
<svg version="1.1" id="Capa_1" xmlns="http://www.w3.org/2000/svg" xmlns:xlink="http://www.w3.org/1999/xlink" x="0px" y="0px"
	 viewBox="0 0 56 56" style="enable-background:new 0 0 56 56;" xml:space="preserve">
<rect x="8" y="5" style="fill:#366DB6;" width="40" height="46"/>
<g>
	<rect x="48" y="9" style="fill:#A485BE;" width="4" height="38"/>
	<rect x="4" y="9" style="fill:#A485BE;" width="4" height="38"/>
</g>
<g>
	<rect x="52" y="13" style="fill:#A4E869;" width="4" height="30"/>
	<rect y="13" style="fill:#A4E869;" width="4" height="30"/>
</g>
<circle style="fill:#183351;" cx="16" cy="13" r="1"/>
<circle style="fill:#183351;" cx="13" cy="10" r="1"/>
<circle style="fill:#183351;" cx="19" cy="10" r="1"/>
<circle style="fill:#183351;" cx="13" cy="16" r="1"/>
<circle style="fill:#183351;" cx="19" cy="16" r="1"/>
<circle style="fill:#183351;" cx="22" cy="13" r="1"/>
<circle style="fill:#183351;" cx="28" cy="13" r="1"/>
<circle style="fill:#183351;" cx="25" cy="10" r="1"/>
<circle style="fill:#183351;" cx="31" cy="10" r="1"/>
<circle style="fill:#183351;" cx="25" cy="16" r="1"/>
<circle style="fill:#183351;" cx="31" cy="16" r="1"/>
<circle style="fill:#183351;" cx="34" cy="13" r="1"/>
<circle style="fill:#183351;" cx="40" cy="13" r="1"/>
<circle style="fill:#183351;" cx="37" cy="10" r="1"/>
<circle style="fill:#183351;" cx="43" cy="10" r="1"/>
<circle style="fill:#183351;" cx="37" cy="16" r="1"/>
<circle style="fill:#183351;" cx="43" cy="16" r="1"/>
<circle style="fill:#183351;" cx="16" cy="19" r="1"/>
<circle style="fill:#183351;" cx="16" cy="25" r="1"/>
<circle style="fill:#183351;" cx="13" cy="22" r="1"/>
<circle style="fill:#183351;" cx="19" cy="22" r="1"/>
<circle style="fill:#183351;" cx="13" cy="28" r="1"/>
<circle style="fill:#183351;" cx="19" cy="28" r="1"/>
<circle style="fill:#183351;" cx="22" cy="19" r="1"/>
<circle style="fill:#183351;" cx="28" cy="19" r="1"/>
<circle style="fill:#183351;" cx="22" cy="25" r="1"/>
<circle style="fill:#183351;" cx="28" cy="25" r="1"/>
<circle style="fill:#183351;" cx="25" cy="22" r="1"/>
<circle style="fill:#183351;" cx="31" cy="22" r="1"/>
<circle style="fill:#183351;" cx="25" cy="28" r="1"/>
<circle style="fill:#183351;" cx="31" cy="28" r="1"/>
<circle style="fill:#183351;" cx="34" cy="19" r="1"/>
<circle style="fill:#183351;" cx="40" cy="19" r="1"/>
<circle style="fill:#183351;" cx="34" cy="25" r="1"/>
<circle style="fill:#183351;" cx="40" cy="25" r="1"/>
<circle style="fill:#183351;" cx="37" cy="22" r="1"/>
<circle style="fill:#183351;" cx="43" cy="22" r="1"/>
<circle style="fill:#183351;" cx="37" cy="28" r="1"/>
<circle style="fill:#183351;" cx="43" cy="28" r="1"/>
<circle style="fill:#183351;" cx="16" cy="31" r="1"/>
<circle style="fill:#183351;" cx="16" cy="37" r="1"/>
<circle style="fill:#183351;" cx="13" cy="34" r="1"/>
<circle style="fill:#183351;" cx="19" cy="34" r="1"/>
<circle style="fill:#183351;" cx="13" cy="40" r="1"/>
<circle style="fill:#183351;" cx="19" cy="40" r="1"/>
<circle style="fill:#183351;" cx="22" cy="31" r="1"/>
<circle style="fill:#183351;" cx="28" cy="31" r="1"/>
<circle style="fill:#183351;" cx="22" cy="37" r="1"/>
<circle style="fill:#183351;" cx="28" cy="37" r="1"/>
<circle style="fill:#183351;" cx="25" cy="34" r="1"/>
<circle style="fill:#183351;" cx="31" cy="34" r="1"/>
<circle style="fill:#183351;" cx="25" cy="40" r="1"/>
<circle style="fill:#183351;" cx="31" cy="40" r="1"/>
<circle style="fill:#183351;" cx="34" cy="31" r="1"/>
<circle style="fill:#183351;" cx="40" cy="31" r="1"/>
<circle style="fill:#183351;" cx="34" cy="37" r="1"/>
<circle style="fill:#183351;" cx="40" cy="37" r="1"/>
<circle style="fill:#183351;" cx="37" cy="34" r="1"/>
<circle style="fill:#183351;" cx="43" cy="34" r="1"/>
<circle style="fill:#183351;" cx="37" cy="40" r="1"/>
<circle style="fill:#183351;" cx="43" cy="40" r="1"/>
<circle style="fill:#183351;" cx="16" cy="43" r="1"/>
<circle style="fill:#183351;" cx="13" cy="46" r="1"/>
<circle style="fill:#183351;" cx="19" cy="46" r="1"/>
<circle style="fill:#183351;" cx="22" cy="43" r="1"/>
<circle style="fill:#183351;" cx="28" cy="43" r="1"/>
<circle style="fill:#183351;" cx="25" cy="46" r="1"/>
<circle style="fill:#183351;" cx="31" cy="46" r="1"/>
<circle style="fill:#183351;" cx="34" cy="43" r="1"/>
<circle style="fill:#183351;" cx="40" cy="43" r="1"/>
<circle style="fill:#183351;" cx="37" cy="46" r="1"/>
<circle style="fill:#183351;" cx="43" cy="46" r="1"/>
<g>
</g>
<g>
</g>
<g>
</g>
<g>
</g>
<g>
</g>
<g>
</g>
<g>
</g>
<g>
</g>
<g>
</g>
<g>
</g>
<g>
</g>
<g>
</g>
<g>
</g>
<g>
</g>
<g>
</g>
</svg>
