<?xml version="1.0" encoding="iso-8859-1"?>
<!-- Generator: Adobe Illustrator 19.0.0, SVG Export Plug-In . SVG Version: 6.00 Build 0)  -->
<svg version="1.1" id="Capa_1" xmlns="http://www.w3.org/2000/svg" xmlns:xlink="http://www.w3.org/1999/xlink" x="0px" y="0px"
	 viewBox="0 0 55 55" style="enable-background:new 0 0 55 55;" xml:space="preserve">
<path style="fill:#EFCE4A;" d="M21.66,24H2.34C1.048,24,0,22.952,0,21.66V2.34C0,1.048,1.048,0,2.34,0h19.32
	C22.952,0,24,1.048,24,2.34v19.32C24,22.952,22.952,24,21.66,24z"/>
<path style="fill:#7FABDA;" d="M51.66,24H32.34C31.048,24,30,22.952,30,21.66V2.34C30,1.048,31.048,0,32.34,0h19.32
	C52.952,0,54,1.048,54,2.34v19.32C54,22.952,52.952,24,51.66,24z"/>
<path style="fill:#D75A4A;" d="M21.66,54H2.34C1.048,54,0,52.952,0,51.66V32.34C0,31.048,1.048,30,2.34,30h19.32
	c1.292,0,2.34,1.048,2.34,2.34v19.32C24,52.952,22.952,54,21.66,54z"/>
<line style="fill:none;stroke:#23A24D;stroke-width:2;stroke-linecap:round;stroke-miterlimit:10;" x1="42" y1="30" x2="42" y2="54"/>
<line style="fill:none;stroke:#23A24D;stroke-width:2;stroke-linecap:round;stroke-miterlimit:10;" x1="30" y1="42" x2="54" y2="42"/>
<g>
</g>
<g>
</g>
<g>
</g>
<g>
</g>
<g>
</g>
<g>
</g>
<g>
</g>
<g>
</g>
<g>
</g>
<g>
</g>
<g>
</g>
<g>
</g>
<g>
</g>
<g>
</g>
<g>
</g>
</svg>
