<?xml version="1.0" encoding="iso-8859-1"?>
<!-- Generator: Adobe Illustrator 19.0.0, SVG Export Plug-In . SVG Version: 6.00 Build 0)  -->
<svg version="1.1" id="Capa_1" xmlns="http://www.w3.org/2000/svg" xmlns:xlink="http://www.w3.org/1999/xlink" x="0px" y="0px"
	 viewBox="0 0 58 58" style="enable-background:new 0 0 58 58;" xml:space="preserve">
<path style="fill:#424A60;" d="M53.168,58H4.832C3.82,58,3,57.18,3,56.168V1.832C3,0.82,3.82,0,4.832,0h48.335
	C54.18,0,55,0.82,55,1.832v54.335C55,57.18,54.18,58,53.168,58z"/>
<path style="fill:#E7ECED;" d="M34.495,17h-10.99C21.572,17,20,15.428,20,13.495V12c0-0.553,0.447-1,1-1s1,0.447,1,1v1.495
	C22,14.325,22.675,15,23.505,15h10.99C35.325,15,36,14.325,36,13.495V12c0-0.553,0.447-1,1-1s1,0.447,1,1v1.495
	C38,15.428,36.428,17,34.495,17z"/>
<path style="fill:#E7ECED;" d="M34.495,46h-10.99C21.572,46,20,44.428,20,42.495V41c0-0.553,0.447-1,1-1s1,0.447,1,1v1.495
	C22,43.325,22.675,44,23.505,44h10.99C35.325,44,36,43.325,36,42.495V41c0-0.553,0.447-1,1-1s1,0.447,1,1v1.495
	C38,44.428,36.428,46,34.495,46z"/>
<rect x="3" y="28" style="fill:#2B313F;" width="52" height="2"/>
<g>
</g>
<g>
</g>
<g>
</g>
<g>
</g>
<g>
</g>
<g>
</g>
<g>
</g>
<g>
</g>
<g>
</g>
<g>
</g>
<g>
</g>
<g>
</g>
<g>
</g>
<g>
</g>
<g>
</g>
</svg>
