<?xml version="1.0" encoding="iso-8859-1"?>
<!-- Generator: Adobe Illustrator 19.0.0, SVG Export Plug-In . SVG Version: 6.00 Build 0)  -->
<svg version="1.1" id="Capa_1" xmlns="http://www.w3.org/2000/svg" xmlns:xlink="http://www.w3.org/1999/xlink" x="0px" y="0px"
	 viewBox="0 0 58 58" style="enable-background:new 0 0 58 58;" xml:space="preserve">
<path style="fill:#996B52;" d="M58,17H0V7.311C0,7.139,0.139,7,0.311,7h57.378C57.861,7,58,7.139,58,7.311V17z"/>
<path style="fill:#6C4127;" d="M57.778,7H0.222C0.135,7,0.088,6.898,0.145,6.831L6,0h46l5.855,6.831C57.912,6.898,57.865,7,57.778,7
	z"/>
<rect x="3" y="17" style="fill:#935F42;" width="52" height="41"/>
<rect x="18" y="23" style="fill:#6C4127;" width="22" height="8"/>
<rect x="15" y="38" style="fill:#EDEADA;" width="28" height="12"/>
<g>
	<path style="fill:#CEC9AE;" d="M26,45h-5c-0.552,0-1,0.447-1,1s0.448,1,1,1h5c0.552,0,1-0.447,1-1S26.552,45,26,45z"/>
	<path style="fill:#CEC9AE;" d="M26,43h11c0.552,0,1-0.447,1-1s-0.448-1-1-1H26c-0.552,0-1,0.447-1,1S25.448,43,26,43z"/>
	<path style="fill:#CEC9AE;" d="M21,43c0.26,0,0.52-0.11,0.71-0.29C21.89,42.52,22,42.26,22,42c0-0.261-0.11-0.521-0.29-0.71
		c-0.38-0.37-1.04-0.37-1.42,0C20.11,41.479,20,41.739,20,42c0,0.27,0.11,0.52,0.29,0.71C20.48,42.89,20.73,43,21,43z"/>
	<path style="fill:#CEC9AE;" d="M30.29,45.29C30.11,45.479,30,45.739,30,46c0,0.26,0.11,0.52,0.29,0.71C30.48,46.89,30.74,47,31,47
		c0.26,0,0.52-0.11,0.71-0.29C31.89,46.52,32,46.26,32,46c0-0.261-0.11-0.521-0.29-0.71C31.34,44.92,30.66,44.92,30.29,45.29z"/>
	<path style="fill:#CEC9AE;" d="M37,45h-1c-0.552,0-1,0.447-1,1s0.448,1,1,1h1c0.552,0,1-0.447,1-1S37.552,45,37,45z"/>
</g>
<g>
</g>
<g>
</g>
<g>
</g>
<g>
</g>
<g>
</g>
<g>
</g>
<g>
</g>
<g>
</g>
<g>
</g>
<g>
</g>
<g>
</g>
<g>
</g>
<g>
</g>
<g>
</g>
<g>
</g>
</svg>
