<?xml version="1.0" encoding="iso-8859-1"?>
<!-- Generator: Adobe Illustrator 19.0.0, SVG Export Plug-In . SVG Version: 6.00 Build 0)  -->
<svg version="1.1" id="Capa_1" xmlns="http://www.w3.org/2000/svg" xmlns:xlink="http://www.w3.org/1999/xlink" x="0px" y="0px"
	 viewBox="0 0 58 58" style="enable-background:new 0 0 58 58;" xml:space="preserve">
<path style="fill:#B1B7BC;" d="M58,17.01H0V3.046C0,1.916,0.916,1,2.046,1h53.908C57.084,1,58,1.916,58,3.046V17.01z"/>
<rect x="3" y="17.01" style="fill:#E7ECED;" width="52" height="39.99"/>
<path style="fill:#424A60;" d="M38,13.01H20c-2.209,0-4-1.791-4-4v0c0-2.209,1.791-4,4-4h18c2.209,0,4,1.791,4,4v0
	C42,11.219,40.209,13.01,38,13.01z"/>
<rect x="3" y="52" style="fill:#57ABC1;" width="52" height="5"/>
<rect x="15" y="25" style="fill:#FFFFFF;" width="28" height="14"/>
<g>
	<path style="fill:#C7CAC7;" d="M19,31h6c0.553,0,1-0.447,1-1s-0.447-1-1-1h-6c-0.553,0-1,0.447-1,1S18.447,31,19,31z"/>
	<path style="fill:#C7CAC7;" d="M29,31c0.26,0,0.52-0.11,0.71-0.29C29.89,30.52,30,30.26,30,30c0-0.261-0.11-0.521-0.29-0.71
		c-0.38-0.37-1.05-0.37-1.42,0C28.109,29.479,28,29.739,28,30c0,0.27,0.109,0.52,0.29,0.71C28.479,30.89,28.729,31,29,31z"/>
	<path style="fill:#C7CAC7;" d="M39,33H23c-0.553,0-1,0.447-1,1s0.447,1,1,1h16c0.553,0,1-0.447,1-1S39.553,33,39,33z"/>
	<path style="fill:#C7CAC7;" d="M18.29,33.29C18.109,33.479,18,33.739,18,34c0,0.26,0.109,0.52,0.29,0.71
		C18.479,34.89,18.729,35,19,35c0.27,0,0.52-0.11,0.71-0.29C19.89,34.52,20,34.26,20,34c0-0.261-0.11-0.521-0.29-0.71
		C19.34,32.92,18.67,32.92,18.29,33.29z"/>
</g>
<rect x="3" y="17" style="fill:#D7D7E2;" width="52" height="5"/>
<g>
</g>
<g>
</g>
<g>
</g>
<g>
</g>
<g>
</g>
<g>
</g>
<g>
</g>
<g>
</g>
<g>
</g>
<g>
</g>
<g>
</g>
<g>
</g>
<g>
</g>
<g>
</g>
<g>
</g>
</svg>
