<?xml version="1.0" encoding="iso-8859-1"?>
<!-- Generator: Adobe Illustrator 19.0.0, SVG Export Plug-In . SVG Version: 6.00 Build 0)  -->
<svg version="1.1" id="Capa_1" xmlns="http://www.w3.org/2000/svg" xmlns:xlink="http://www.w3.org/1999/xlink" x="0px" y="0px"
	 viewBox="0 0 58 58" style="enable-background:new 0 0 58 58;" xml:space="preserve">
<rect x="16.5" style="fill:#D8A852;" width="10" height="4"/>
<path style="fill:#424A60;" d="M34.5,34l2-3.464V6.464C36.5,5.103,35.397,4,34.036,4H8.964C7.603,4,6.5,5.103,6.5,6.464v49.072
	C6.5,56.897,7.603,58,8.964,58h25.072c1.361,0,2.464-1.103,2.464-2.464V37.464L34.5,34z"/>
<path style="fill:#43B05C;" d="M21.5,28c-4.625-15.375-15-11-15-11v38.536C6.5,56.897,7.603,58,8.964,58h25.072
	c1.361,0,2.464-1.103,2.464-2.464V37.464L35.5,36C35.5,36,26.125,43.375,21.5,28z"/>
<path style="fill:#292F3A;" d="M34.5,33h-2.586L29.5,30.586V28c0-0.553-0.447-1-1-1s-1,0.447-1,1v2h-2c-0.553,0-1,0.447-1,1
	s0.447,1,1,1h2.586l2.155,2.155L27.934,38H26.5c-0.553,0-1,0.447-1,1s0.447,1,1,1h1v1c0,0.553,0.447,1,1,1s1-0.447,1-1v-1.723
	L32.066,35H34.5c0.553,0,1-0.447,1-1S35.053,33,34.5,33z"/>
<circle style="fill:#A4E869;" cx="10.5" cy="22" r="1"/>
<circle style="fill:#A4E869;" cx="7.5" cy="19" r="1"/>
<circle style="fill:#A4E869;" cx="13.5" cy="19" r="1"/>
<circle style="fill:#A4E869;" cx="7.5" cy="25" r="1"/>
<circle style="fill:#A4E869;" cx="13.5" cy="25" r="1"/>
<circle style="fill:#A4E869;" cx="16.5" cy="22" r="1"/>
<circle style="fill:#A4E869;" cx="19.5" cy="25" r="1"/>
<circle style="fill:#A4E869;" cx="10.5" cy="28" r="1"/>
<circle style="fill:#A4E869;" cx="10.5" cy="34" r="1"/>
<circle style="fill:#A4E869;" cx="7.5" cy="31" r="1"/>
<circle style="fill:#A4E869;" cx="13.5" cy="31" r="1"/>
<circle style="fill:#A4E869;" cx="7.5" cy="37" r="1"/>
<circle style="fill:#A4E869;" cx="13.5" cy="37" r="1"/>
<circle style="fill:#A4E869;" cx="16.5" cy="28" r="1"/>
<circle style="fill:#A4E869;" cx="16.5" cy="34" r="1"/>
<circle style="fill:#A4E869;" cx="22.5" cy="34" r="1"/>
<circle style="fill:#A4E869;" cx="19.5" cy="31" r="1"/>
<circle style="fill:#43B05C;" cx="40.5" cy="36" r="1"/>
<circle style="fill:#43B05C;" cx="42.5" cy="43" r="1"/>
<circle style="fill:#43B05C;" cx="42.5" cy="39" r="1"/>
<circle style="fill:#43B05C;" cx="44.5" cy="46" r="1"/>
<circle style="fill:#43B05C;" cx="45.5" cy="49" r="1"/>
<circle style="fill:#43B05C;" cx="48.5" cy="53" r="1"/>
<circle style="fill:#43B05C;" cx="46.5" cy="43" r="1"/>
<circle style="fill:#43B05C;" cx="46.5" cy="39" r="1"/>
<circle style="fill:#43B05C;" cx="48.5" cy="47" r="1"/>
<circle style="fill:#43B05C;" cx="45.5" cy="53" r="1"/>
<circle style="fill:#43B05C;" cx="50.5" cy="50" r="1"/>
<circle style="fill:#43B05C;" cx="49.5" cy="57" r="1"/>
<circle style="fill:#A4E869;" cx="19.5" cy="37" r="1"/>
<circle style="fill:#A4E869;" cx="10.5" cy="40" r="1"/>
<circle style="fill:#A4E869;" cx="10.5" cy="46" r="1"/>
<circle style="fill:#A4E869;" cx="7.5" cy="43" r="1"/>
<circle style="fill:#A4E869;" cx="13.5" cy="43" r="1"/>
<circle style="fill:#A4E869;" cx="7.5" cy="49" r="1"/>
<circle style="fill:#A4E869;" cx="13.5" cy="49" r="1"/>
<circle style="fill:#A4E869;" cx="16.5" cy="40" r="1"/>
<circle style="fill:#A4E869;" cx="22.5" cy="40" r="1"/>
<circle style="fill:#A4E869;" cx="16.5" cy="46" r="1"/>
<circle style="fill:#A4E869;" cx="22.5" cy="46" r="1"/>
<circle style="fill:#A4E869;" cx="19.5" cy="43" r="1"/>
<circle style="fill:#A4E869;" cx="25.5" cy="43" r="1"/>
<circle style="fill:#A4E869;" cx="19.5" cy="49" r="1"/>
<circle style="fill:#A4E869;" cx="25.5" cy="49" r="1"/>
<circle style="fill:#A4E869;" cx="34.5" cy="40" r="1"/>
<circle style="fill:#A4E869;" cx="28.5" cy="46" r="1"/>
<circle style="fill:#A4E869;" cx="34.5" cy="46" r="1"/>
<circle style="fill:#A4E869;" cx="31.5" cy="43" r="1"/>
<circle style="fill:#A4E869;" cx="31.5" cy="49" r="1"/>
<circle style="fill:#A4E869;" cx="10.5" cy="52" r="1"/>
<circle style="fill:#A4E869;" cx="7.5" cy="55" r="1"/>
<circle style="fill:#A4E869;" cx="13.5" cy="55" r="1"/>
<circle style="fill:#A4E869;" cx="16.5" cy="52" r="1"/>
<circle style="fill:#A4E869;" cx="22.5" cy="52" r="1"/>
<circle style="fill:#A4E869;" cx="19.5" cy="55" r="1"/>
<circle style="fill:#A4E869;" cx="25.5" cy="55" r="1"/>
<circle style="fill:#A4E869;" cx="28.5" cy="52" r="1"/>
<circle style="fill:#A4E869;" cx="34.5" cy="52" r="1"/>
<circle style="fill:#A4E869;" cx="31.5" cy="55" r="1"/>
<path style="fill:#292F3A;" d="M34.036,6C34.292,6,34.5,6.208,34.5,6.464v49.072c0,0.256-0.208,0.464-0.464,0.464H8.964
	C8.708,56,8.5,55.792,8.5,55.536V6.464C8.5,6.208,8.708,6,8.964,6H34.036 M34.036,4H8.964C7.603,4,6.5,5.103,6.5,6.464v49.072
	C6.5,56.897,7.603,58,8.964,58h25.072c1.361,0,2.464-1.103,2.464-2.464V6.464C36.5,5.103,35.397,4,34.036,4L34.036,4z"/>
<g>
</g>
<g>
</g>
<g>
</g>
<g>
</g>
<g>
</g>
<g>
</g>
<g>
</g>
<g>
</g>
<g>
</g>
<g>
</g>
<g>
</g>
<g>
</g>
<g>
</g>
<g>
</g>
<g>
</g>
</svg>
