<?xml version="1.0" encoding="iso-8859-1"?>
<!-- Generator: Adobe Illustrator 19.0.0, SVG Export Plug-In . SVG Version: 6.00 Build 0)  -->
<svg version="1.1" id="Capa_1" xmlns="http://www.w3.org/2000/svg" xmlns:xlink="http://www.w3.org/1999/xlink" x="0px" y="0px"
	 viewBox="0 0 58 58" style="enable-background:new 0 0 58 58;" xml:space="preserve">
<path style="fill:#424A60;" d="M41.536,58H16.464C15.103,58,14,56.897,14,55.536V6.464C14,5.103,15.103,4,16.464,4h25.072
	C42.897,4,44,5.103,44,6.464v49.072C44,56.897,42.897,58,41.536,58z"/>
<rect x="24" style="fill:#D8A852;" width="10" height="4"/>
<path style="fill:#43B05C;" d="M41.536,58H16.464C15.103,58,14,56.897,14,55.536V41.464C14,40.103,15.103,39,16.464,39h25.072
	C42.897,39,44,40.103,44,41.464v14.072C44,56.897,42.897,58,41.536,58z"/>
<g>
	<circle style="fill:#A4E869;" cx="17" cy="52" r="1"/>
	<circle style="fill:#A4E869;" cx="20" cy="55" r="1"/>
	<circle style="fill:#A4E869;" cx="23" cy="52" r="1"/>
	<circle style="fill:#A4E869;" cx="29" cy="52" r="1"/>
	<circle style="fill:#A4E869;" cx="26" cy="55" r="1"/>
	<circle style="fill:#A4E869;" cx="32" cy="55" r="1"/>
	<circle style="fill:#A4E869;" cx="35" cy="52" r="1"/>
	<circle style="fill:#A4E869;" cx="41" cy="52" r="1"/>
	<circle style="fill:#A4E869;" cx="38" cy="55" r="1"/>
	<circle style="fill:#A4E869;" cx="17" cy="46" r="1"/>
	<circle style="fill:#A4E869;" cx="20" cy="49" r="1"/>
	<circle style="fill:#A4E869;" cx="23" cy="46" r="1"/>
	<circle style="fill:#A4E869;" cx="29" cy="46" r="1"/>
	<circle style="fill:#A4E869;" cx="26" cy="49" r="1"/>
	<circle style="fill:#A4E869;" cx="32" cy="49" r="1"/>
	<circle style="fill:#A4E869;" cx="35" cy="46" r="1"/>
	<circle style="fill:#A4E869;" cx="41" cy="46" r="1"/>
	<circle style="fill:#A4E869;" cx="38" cy="49" r="1"/>
	<circle style="fill:#A4E869;" cx="17" cy="40" r="1"/>
	<circle style="fill:#A4E869;" cx="20" cy="43" r="1"/>
	<circle style="fill:#A4E869;" cx="23" cy="40" r="1"/>
	<circle style="fill:#A4E869;" cx="29" cy="40" r="1"/>
	<circle style="fill:#A4E869;" cx="26" cy="43" r="1"/>
	<circle style="fill:#A4E869;" cx="32" cy="43" r="1"/>
	<circle style="fill:#A4E869;" cx="35" cy="40" r="1"/>
	<circle style="fill:#A4E869;" cx="41" cy="40" r="1"/>
	<circle style="fill:#A4E869;" cx="38" cy="43" r="1"/>
</g>
<path style="fill:#292F3A;" d="M41.536,6C41.792,6,42,6.208,42,6.464v49.072C42,55.792,41.792,56,41.536,56H16.464
	C16.208,56,16,55.792,16,55.536V6.464C16,6.208,16.208,6,16.464,6H41.536 M41.536,4H16.464C15.103,4,14,5.103,14,6.464v49.072
	C14,56.897,15.103,58,16.464,58h25.072C42.897,58,44,56.897,44,55.536V6.464C44,5.103,42.897,4,41.536,4L41.536,4z"/>
<g>
</g>
<g>
</g>
<g>
</g>
<g>
</g>
<g>
</g>
<g>
</g>
<g>
</g>
<g>
</g>
<g>
</g>
<g>
</g>
<g>
</g>
<g>
</g>
<g>
</g>
<g>
</g>
<g>
</g>
</svg>
