<?xml version="1.0" encoding="iso-8859-1"?>
<!-- Generator: Adobe Illustrator 19.0.0, SVG Export Plug-In . SVG Version: 6.00 Build 0)  -->
<svg version="1.1" id="Capa_1" xmlns="http://www.w3.org/2000/svg" xmlns:xlink="http://www.w3.org/1999/xlink" x="0px" y="0px"
	 viewBox="0 0 58 58" style="enable-background:new 0 0 58 58;" xml:space="preserve">
<path style="fill:#424A60;" d="M41.536,58H16.464C15.103,58,14,56.897,14,55.536V6.464C14,5.103,15.103,4,16.464,4h25.072
	C42.897,4,44,5.103,44,6.464v49.072C44,56.897,42.897,58,41.536,58z"/>
<rect x="24" style="fill:#D8A852;" width="10" height="4"/>
<path style="fill:#EFCE4A;" d="M36,29h-4V16.068c0.012-0.058-0.064-0.092-0.1-0.046L22,32h5l0.002,13.929
	c-0.016,0.059,0.06,0.097,0.098,0.05L36,29z"/>
<path style="fill:#EA6248;" d="M41.536,4H16.464C15.103,4,14,5.103,14,6.464V13h30V6.464C44,5.103,42.897,4,41.536,4z"/>
<g>
</g>
<g>
</g>
<g>
</g>
<g>
</g>
<g>
</g>
<g>
</g>
<g>
</g>
<g>
</g>
<g>
</g>
<g>
</g>
<g>
</g>
<g>
</g>
<g>
</g>
<g>
</g>
<g>
</g>
</svg>
