<?xml version="1.0" encoding="iso-8859-1"?>
<!-- Generator: Adobe Illustrator 19.0.0, SVG Export Plug-In . SVG Version: 6.00 Build 0)  -->
<svg version="1.1" id="Capa_1" xmlns="http://www.w3.org/2000/svg" xmlns:xlink="http://www.w3.org/1999/xlink" x="0px" y="0px"
	 viewBox="0 0 52 52" style="enable-background:new 0 0 52 52;" xml:space="preserve">
<circle style="fill:#7383BF;" cx="11" cy="38.32" r="11"/>
<g>
	<path style="fill:#424A60;" d="M14.264,2.688c-3.343,0.151-6.116,2.664-6.909,5.915l-5.93,24.313
		C3.314,29.577,6.891,27.32,11,27.32c6.075,0,11,4.925,11,11V10.073C22,5.877,18.503,2.497,14.264,2.688z"/>
</g>
<rect x="22" y="15.32" style="fill:#363E4B;" width="8" height="13"/>
<circle style="fill:#7383BF;" cx="41" cy="38.32" r="11"/>
<g>
	<path style="fill:#424A60;" d="M30,38.76v-0.44c0,0.149,0.016,0.293,0.022,0.44H30z"/>
	<path style="fill:#424A60;" d="M37.736,2.688c3.343,0.151,6.116,2.664,6.909,5.915l5.93,24.313
		C48.686,29.577,45.109,27.32,41,27.32c-6.075,0-11,4.925-11,11V10.073C30,5.877,33.497,2.497,37.736,2.688z"/>
</g>
<circle style="fill:#7FABDA;" cx="11" cy="38.32" r="8"/>
<circle style="fill:#7FABDA;" cx="41" cy="38.32" r="8"/>
<path style="fill:#A1C8EC;" d="M35.299,43.929l11.309-11.309c-0.989-0.973-2.231-1.684-3.617-2.039l-9.731,9.731
	C33.616,41.697,34.326,42.94,35.299,43.929z"/>
<path style="fill:#A1C8EC;" d="M13.754,30.817L3.497,41.074c0.479,1.305,1.283,2.45,2.322,3.335l11.27-11.271
	C16.205,32.1,15.059,31.296,13.754,30.817z"/>
<rect x="24" y="15.32" style="fill:#424A60;" width="4.023" height="13"/>
<path style="fill:#556080;" d="M34,29.835c1.902-1.571,4.341-2.515,7-2.515c0.282,0,0.554,0.036,0.831,0.057L37.996,2.723
	c-0.088-0.007-0.172-0.031-0.26-0.035C36.385,2.627,35.111,2.931,34,3.507V29.835z"/>
<path style="fill:#556080;" d="M11,27.32c2.659,0,5.098,0.944,7,2.515V3.507c-1.111-0.575-2.385-0.88-3.736-0.819
	c-0.089,0.004-0.172,0.028-0.26,0.035l-3.835,24.654C10.446,27.356,10.718,27.32,11,27.32z"/>
<g>
</g>
<g>
</g>
<g>
</g>
<g>
</g>
<g>
</g>
<g>
</g>
<g>
</g>
<g>
</g>
<g>
</g>
<g>
</g>
<g>
</g>
<g>
</g>
<g>
</g>
<g>
</g>
<g>
</g>
</svg>
