<?xml version="1.0" encoding="iso-8859-1"?>
<!-- Generator: Adobe Illustrator 19.0.0, SVG Export Plug-In . SVG Version: 6.00 Build 0)  -->
<svg version="1.1" id="Capa_1" xmlns="http://www.w3.org/2000/svg" xmlns:xlink="http://www.w3.org/1999/xlink" x="0px" y="0px"
	 viewBox="0 0 57 57" style="enable-background:new 0 0 57 57;" xml:space="preserve">
<path style="fill:#226BAC;" d="M6,0C2.686,0,0,2.686,0,6v45c0-3.314,2.686-6,6-6s6,2.686,6,6V6C12,2.686,9.314,0,6,0z"/>
<path style="fill:#3083C9;" d="M12,7v44c0-3.314-2.686-6-6-6s-6,2.686-6,6v0.06C0,54.34,2.66,57,5.94,57H57V7H12z"/>
<path style="fill:#7FABDA;" d="M52,41h-3c-0.553,0-1-0.447-1-1s0.447-1,1-1h1v-0.617c0-0.553,0.447-1,1-1s1,0.447,1,1V41z M45,41h-2
	c-0.553,0-1-0.447-1-1s0.447-1,1-1h2c0.553,0,1,0.447,1,1S45.553,41,45,41z M39,41h-2c-0.553,0-1-0.447-1-1s0.447-1,1-1h2
	c0.553,0,1,0.447,1,1S39.553,41,39,41z M33,41h-2c-0.553,0-1-0.447-1-1s0.447-1,1-1h2c0.553,0,1,0.447,1,1S33.553,41,33,41z M27,41
	h-2c-0.553,0-1-0.447-1-1s0.447-1,1-1h2c0.553,0,1,0.447,1,1S27.553,41,27,41z M21,41h-2c-0.553,0-1-0.447-1-1s0.447-1,1-1h2
	c0.553,0,1,0.447,1,1S21.553,41,21,41z M17,39c-0.553,0-1-0.447-1-1v-2c0-0.553,0.447-1,1-1s1,0.447,1,1v2
	C18,38.553,17.553,39,17,39z M51,35.383c-0.553,0-1-0.447-1-1v-2c0-0.553,0.447-1,1-1s1,0.447,1,1v2
	C52,34.936,51.553,35.383,51,35.383z M17,33c-0.553,0-1-0.447-1-1v-2c0-0.553,0.447-1,1-1s1,0.447,1,1v2C18,32.553,17.553,33,17,33z
	 M51,29.383c-0.553,0-1-0.447-1-1v-2c0-0.553,0.447-1,1-1s1,0.447,1,1v2C52,28.936,51.553,29.383,51,29.383z M17,27
	c-0.553,0-1-0.447-1-1v-2c0-0.553,0.447-1,1-1s1,0.447,1,1v2C18,26.553,17.553,27,17,27z M50.495,23.644
	c-0.199,0-0.4-0.06-0.575-0.183l-1.635-1.153c-0.451-0.318-0.56-0.942-0.241-1.394c0.319-0.451,0.942-0.559,1.394-0.241l1.635,1.153
	c0.451,0.318,0.56,0.942,0.241,1.394C51.118,23.496,50.81,23.644,50.495,23.644z M19.452,22.27c-0.314,0-0.623-0.147-0.818-0.423
	c-0.318-0.451-0.211-1.075,0.24-1.395l1.634-1.153c0.453-0.317,1.076-0.21,1.395,0.24c0.318,0.451,0.211,1.075-0.24,1.395
	l-1.634,1.153C19.853,22.21,19.651,22.27,19.452,22.27z M45.593,20.184c-0.199,0-0.4-0.06-0.576-0.183l-1.634-1.153
	c-0.451-0.319-0.559-0.943-0.24-1.395c0.319-0.45,0.941-0.558,1.395-0.24l1.634,1.153c0.451,0.319,0.559,0.943,0.24,1.395
	C46.216,20.036,45.907,20.184,45.593,20.184z M24.354,18.81c-0.314,0-0.623-0.147-0.818-0.423c-0.318-0.451-0.211-1.075,0.24-1.395
	l1.634-1.153c0.453-0.316,1.075-0.209,1.395,0.24c0.318,0.451,0.211,1.075-0.24,1.395l-1.634,1.153
	C24.754,18.75,24.553,18.81,24.354,18.81z M40.691,16.724c-0.199,0-0.4-0.06-0.576-0.183l-1.634-1.153
	c-0.451-0.319-0.559-0.943-0.24-1.395c0.319-0.45,0.941-0.558,1.395-0.24l1.634,1.153c0.451,0.319,0.559,0.943,0.24,1.395
	C41.314,16.576,41.006,16.724,40.691,16.724z M29.256,15.35c-0.314,0-0.623-0.147-0.818-0.423c-0.318-0.451-0.211-1.075,0.24-1.395
	l1.634-1.153c0.454-0.318,1.075-0.209,1.395,0.24c0.318,0.451,0.211,1.075-0.24,1.395l-1.634,1.153
	C29.656,15.29,29.455,15.35,29.256,15.35z M35.789,13.264c-0.199,0-0.4-0.06-0.576-0.183l-1.634-1.153
	c-0.451-0.319-0.559-0.943-0.24-1.395c0.319-0.449,0.941-0.557,1.395-0.24l1.634,1.153c0.451,0.319,0.559,0.943,0.24,1.395
	C36.412,13.116,36.104,13.264,35.789,13.264z"/>
<rect x="41" y="46" style="fill:none;stroke:#EFCE4A;stroke-width:2;stroke-linecap:round;stroke-miterlimit:10;" width="11" height="6"/>
<path style="fill:#7FABDA;" d="M30,36h-2c-0.553,0-1-0.447-1-1s0.447-1,1-1h1v-1c0-0.553,0.447-1,1-1s1,0.447,1,1v2
	C31,35.553,30.553,36,30,36z M24,36h-2c-0.553,0-1-0.447-1-1s0.447-1,1-1h2c0.553,0,1,0.447,1,1S24.553,36,24,36z M22,32
	c-0.553,0-1-0.447-1-1v-2c0-0.553,0.447-1,1-1s1,0.447,1,1v2C23,31.553,22.553,32,22,32z M30,30c-0.553,0-1-0.447-1-1v-2
	c0-0.553,0.447-1,1-1s1,0.447,1,1v2C31,29.553,30.553,30,30,30z M26,28h-2c-0.553,0-1-0.447-1-1s0.447-1,1-1h2c0.553,0,1,0.447,1,1
	S26.553,28,26,28z"/>
<path style="fill:#7FABDA;" d="M46,36h-2c-0.553,0-1-0.447-1-1s0.447-1,1-1h1v-1c0-0.553,0.447-1,1-1s1,0.447,1,1v2
	C47,35.553,46.553,36,46,36z M40,36h-2c-0.553,0-1-0.447-1-1s0.447-1,1-1h2c0.553,0,1,0.447,1,1S40.553,36,40,36z M38,32
	c-0.553,0-1-0.447-1-1v-2c0-0.553,0.447-1,1-1s1,0.447,1,1v2C39,31.553,38.553,32,38,32z M46,30c-0.553,0-1-0.447-1-1v-2
	c0-0.553,0.447-1,1-1s1,0.447,1,1v2C47,29.553,46.553,30,46,30z M42,28h-2c-0.553,0-1-0.447-1-1s0.447-1,1-1h2c0.553,0,1,0.447,1,1
	S42.553,28,42,28z"/>
<line style="fill:none;stroke:#C6E2F7;stroke-width:2;stroke-linecap:round;stroke-miterlimit:10;" x1="37" y1="46" x2="32" y2="46"/>
<line style="fill:none;stroke:#C6E2F7;stroke-width:2;stroke-linecap:round;stroke-miterlimit:10;" x1="37" y1="49" x2="30" y2="49"/>
<line style="fill:none;stroke:#C6E2F7;stroke-width:2;stroke-linecap:round;stroke-miterlimit:10;" x1="37" y1="52" x2="27" y2="52"/>
<g>
</g>
<g>
</g>
<g>
</g>
<g>
</g>
<g>
</g>
<g>
</g>
<g>
</g>
<g>
</g>
<g>
</g>
<g>
</g>
<g>
</g>
<g>
</g>
<g>
</g>
<g>
</g>
<g>
</g>
</svg>
