<?xml version="1.0" encoding="iso-8859-1"?>
<!-- Generator: Adobe Illustrator 19.0.0, SVG Export Plug-In . SVG Version: 6.00 Build 0)  -->
<svg version="1.1" id="Capa_1" xmlns="http://www.w3.org/2000/svg" xmlns:xlink="http://www.w3.org/1999/xlink" x="0px" y="0px"
	 viewBox="0 0 56 56" style="enable-background:new 0 0 56 56;" xml:space="preserve">
<rect style="fill:#EBBA16;" width="28" height="28"/>
<rect x="28" style="fill:#ED8A19;" width="28" height="28"/>
<rect y="28" style="fill:#ED8A19;" width="28" height="28"/>
<rect x="28" y="28" style="fill:#556080;" width="28" height="28"/>
<path style="fill:#FFFFFF;" d="M48,46H36c-0.552,0-1-0.447-1-1s0.448-1,1-1h12c0.552,0,1,0.447,1,1S48.552,46,48,46z"/>
<path style="fill:#FFFFFF;" d="M48,40H36c-0.552,0-1-0.447-1-1s0.448-1,1-1h12c0.552,0,1,0.447,1,1S48.552,40,48,40z"/>
<path style="fill:#FFFFFF;" d="M14,43c-0.256,0-0.512-0.098-0.707-0.293c-0.391-0.391-0.391-1.023,0-1.414l5-5
	c0.391-0.391,1.023-0.391,1.414,0s0.391,1.023,0,1.414l-5,5C14.512,42.902,14.256,43,14,43z"/>
<path style="fill:#FFFFFF;" d="M9,48c-0.256,0-0.512-0.098-0.707-0.293c-0.391-0.391-0.391-1.023,0-1.414l5-5
	c0.391-0.391,1.023-0.391,1.414,0s0.391,1.023,0,1.414l-5,5C9.512,47.902,9.256,48,9,48z"/>
<path style="fill:#FFFFFF;" d="M19,48c-0.256,0-0.512-0.098-0.707-0.293l-5-5c-0.391-0.391-0.391-1.023,0-1.414s1.023-0.391,1.414,0
	l5,5c0.391,0.391,0.391,1.023,0,1.414C19.512,47.902,19.256,48,19,48z"/>
<path style="fill:#FFFFFF;" d="M14,43c-0.256,0-0.512-0.098-0.707-0.293l-5-5c-0.391-0.391-0.391-1.023,0-1.414s1.023-0.391,1.414,0
	l5,5c0.391,0.391,0.391,1.023,0,1.414C14.512,42.902,14.256,43,14,43z"/>
<path style="fill:#FFFFFF;" d="M20,15H8c-0.552,0-1-0.447-1-1s0.448-1,1-1h12c0.552,0,1,0.447,1,1S20.552,15,20,15z"/>
<path style="fill:#FFFFFF;" d="M14,21c-0.552,0-1-0.447-1-1V8c0-0.553,0.448-1,1-1s1,0.447,1,1v12C15,20.553,14.552,21,14,21z"/>
<path style="fill:#FFFFFF;" d="M48,15H36c-0.552,0-1-0.447-1-1s0.448-1,1-1h12c0.552,0,1,0.447,1,1S48.552,15,48,15z"/>
<g>
</g>
<g>
</g>
<g>
</g>
<g>
</g>
<g>
</g>
<g>
</g>
<g>
</g>
<g>
</g>
<g>
</g>
<g>
</g>
<g>
</g>
<g>
</g>
<g>
</g>
<g>
</g>
<g>
</g>
</svg>
