<?xml version="1.0" encoding="iso-8859-1"?>
<!-- Generator: Adobe Illustrator 19.0.0, SVG Export Plug-In . SVG Version: 6.00 Build 0)  -->
<svg version="1.1" id="Capa_1" xmlns="http://www.w3.org/2000/svg" xmlns:xlink="http://www.w3.org/1999/xlink" x="0px" y="0px"
	 viewBox="0 0 57 57" style="enable-background:new 0 0 57 57;" xml:space="preserve">
<rect x="0.5" y="18" style="fill:#E7ECED;" width="56" height="39"/>
<polygon style="fill:#23A24D;" points="41.5,5 15.5,5 0.5,5 0.5,18 56.5,18 56.5,5 "/>
<circle style="fill:#38454F;" cx="19.5" cy="9" r="2"/>
<circle style="fill:#38454F;" cx="25.5" cy="9" r="2"/>
<circle style="fill:#38454F;" cx="31.5" cy="9" r="2"/>
<circle style="fill:#38454F;" cx="37.5" cy="9" r="2"/>
<path style="fill:#AFB6BB;" d="M37.5,0c-1.13,0-2.162,0.391-3,1.025c0.534,0.405,0.979,0.912,1.315,1.495
	C36.296,2.192,36.876,2,37.5,2c1.654,0,3,1.346,3,3s-1.346,3-3,3c-0.553,0-1,0.447-1,1s0.447,1,1,1c2.757,0,5-2.243,5-5
	S40.257,0,37.5,0z"/>
<path style="fill:#839594;" d="M33.185,2.52C32.761,3.254,32.5,4.093,32.5,5h2C34.5,3.97,33.978,3.061,33.185,2.52z"/>
<path style="fill:#839594;" d="M27.185,2.52C26.761,3.254,26.5,4.093,26.5,5h2C28.5,3.97,27.978,3.061,27.185,2.52z"/>
<path style="fill:#AFB6BB;" d="M35.815,2.52c-0.337-0.583-0.781-1.09-1.315-1.495C33.662,0.391,32.63,0,31.5,0s-2.162,0.391-3,1.025
	c0.534,0.405,0.979,0.912,1.315,1.495C30.296,2.192,30.876,2,31.5,2s1.204,0.192,1.685,0.52C33.978,3.061,34.5,3.97,34.5,5
	c0,1.654-1.346,3-3,3c-0.553,0-1,0.447-1,1s0.447,1,1,1c2.757,0,5-2.243,5-5C36.5,4.093,36.239,3.254,35.815,2.52z"/>
<path style="fill:#839594;" d="M21.185,2.52C20.761,3.254,20.5,4.093,20.5,5h2C22.5,3.97,21.978,3.061,21.185,2.52z"/>
<path style="fill:#AFB6BB;" d="M29.815,2.52c-0.337-0.583-0.781-1.09-1.315-1.495C27.662,0.391,26.63,0,25.5,0s-2.162,0.391-3,1.025
	c0.534,0.405,0.979,0.912,1.315,1.495C24.296,2.192,24.876,2,25.5,2s1.204,0.192,1.685,0.52C27.978,3.061,28.5,3.97,28.5,5
	c0,1.654-1.346,3-3,3c-0.553,0-1,0.447-1,1s0.447,1,1,1c2.757,0,5-2.243,5-5C30.5,4.093,30.239,3.254,29.815,2.52z"/>
<path style="fill:#AFB6BB;" d="M23.815,2.52c-0.337-0.583-0.781-1.09-1.315-1.495C21.662,0.391,20.63,0,19.5,0c-2.757,0-5,2.243-5,5
	h2c0-1.654,1.346-3,3-3c0.624,0,1.204,0.192,1.685,0.52C21.978,3.061,22.5,3.97,22.5,5c0,1.654-1.346,3-3,3c-0.553,0-1,0.447-1,1
	s0.447,1,1,1c2.757,0,5-2.243,5-5C24.5,4.093,24.239,3.254,23.815,2.52z"/>
<path style="fill:#556080;" d="M18.5,51c-0.552,0-1-0.447-1-1V24c0-0.553,0.448-1,1-1s1,0.447,1,1v26C19.5,50.553,19.052,51,18.5,51
	z"/>
<path style="fill:#556080;" d="M22.5,51h-8c-0.552,0-1-0.447-1-1s0.448-1,1-1h8c0.552,0,1,0.447,1,1S23.052,51,22.5,51z"/>
<path style="fill:#556080;" d="M12.5,31c-0.256,0-0.512-0.098-0.707-0.293c-0.391-0.391-0.391-1.023,0-1.414l6-6
	c0.391-0.391,1.023-0.391,1.414,0s0.391,1.023,0,1.414l-6,6C13.012,30.902,12.756,31,12.5,31z"/>
<path style="fill:#556080;" d="M37.5,37c-3.86,0-7-3.141-7-7s3.14-7,7-7s7,3.141,7,7S41.36,37,37.5,37z M37.5,25
	c-2.757,0-5,2.243-5,5s2.243,5,5,5s5-2.243,5-5S40.257,25,37.5,25z"/>
<path style="fill:#556080;" d="M37.5,51c-3.86,0-7-3.141-7-7c0-0.553,0.448-1,1-1s1,0.447,1,1c0,2.757,2.243,5,5,5s5-2.243,5-5V30
	c0-0.553,0.448-1,1-1s1,0.447,1,1v14C44.5,47.859,41.36,51,37.5,51z"/>
<g>
</g>
<g>
</g>
<g>
</g>
<g>
</g>
<g>
</g>
<g>
</g>
<g>
</g>
<g>
</g>
<g>
</g>
<g>
</g>
<g>
</g>
<g>
</g>
<g>
</g>
<g>
</g>
<g>
</g>
</svg>
