<?xml version="1.0" encoding="iso-8859-1"?>
<!-- Generator: Adobe Illustrator 19.0.0, SVG Export Plug-In . SVG Version: 6.00 Build 0)  -->
<svg version="1.1" id="Capa_1" xmlns="http://www.w3.org/2000/svg" xmlns:xlink="http://www.w3.org/1999/xlink" x="0px" y="0px"
	 viewBox="0 0 57 57" style="enable-background:new 0 0 57 57;" xml:space="preserve">
<rect x="0.5" y="18" style="fill:#E7ECED;" width="56" height="39"/>
<g>
	<path style="fill:#424A60;" d="M22.5,50h-3V25c0-0.13-0.026-0.26-0.077-0.382c-0.101-0.245-0.296-0.44-0.541-0.541
		c-0.244-0.101-0.519-0.101-0.764,0c-0.123,0.051-0.234,0.125-0.326,0.217l-5.999,5.999c-0.391,0.391-0.391,1.023,0,1.414
		C11.988,31.902,12.244,32,12.5,32s0.512-0.098,0.707-0.293l4.293-4.293V50h-3c-0.553,0-1,0.447-1,1s0.447,1,1,1h8
		c0.553,0,1-0.447,1-1S23.053,50,22.5,50z"/>
	<path style="fill:#424A60;" d="M41.216,36.921C43.185,35.681,44.5,33.494,44.5,31c0-3.859-3.141-7-7-7s-7,3.141-7,7
		c0,2.494,1.315,4.681,3.284,5.921C31.24,38.262,29.5,40.93,29.5,44c0,4.411,3.589,8,8,8s8-3.589,8-8
		C45.5,40.93,43.76,38.262,41.216,36.921z M32.5,31c0-2.757,2.243-5,5-5s5,2.243,5,5s-2.243,5-5,5S32.5,33.757,32.5,31z M37.5,50
		c-3.309,0-6-2.691-6-6s2.691-6,6-6s6,2.691,6,6S40.809,50,37.5,50z"/>
</g>
<polygon style="fill:#424A60;" points="41.5,5 15.5,5 0.5,5 0.5,18 56.5,18 56.5,5 "/>
<circle style="fill:#38454F;" cx="19.5" cy="9" r="2"/>
<circle style="fill:#38454F;" cx="25.5" cy="9" r="2"/>
<circle style="fill:#38454F;" cx="31.5" cy="9" r="2"/>
<circle style="fill:#38454F;" cx="37.5" cy="9" r="2"/>
<path style="fill:#AFB6BB;" d="M37.5,0c-1.13,0-2.162,0.391-3,1.025c0.534,0.405,0.979,0.912,1.315,1.495
	C36.296,2.192,36.876,2,37.5,2c1.654,0,3,1.346,3,3s-1.346,3-3,3c-0.553,0-1,0.447-1,1s0.447,1,1,1c2.757,0,5-2.243,5-5
	S40.257,0,37.5,0z"/>
<path style="fill:#839594;" d="M33.185,2.52C32.761,3.254,32.5,4.093,32.5,5h2C34.5,3.97,33.978,3.061,33.185,2.52z"/>
<path style="fill:#839594;" d="M27.185,2.52C26.761,3.254,26.5,4.093,26.5,5h2C28.5,3.97,27.978,3.061,27.185,2.52z"/>
<path style="fill:#AFB6BB;" d="M35.815,2.52c-0.337-0.583-0.781-1.09-1.315-1.495C33.662,0.391,32.63,0,31.5,0s-2.162,0.391-3,1.025
	c0.534,0.405,0.979,0.912,1.315,1.495C30.296,2.192,30.876,2,31.5,2s1.204,0.192,1.685,0.52C33.978,3.061,34.5,3.97,34.5,5
	c0,1.654-1.346,3-3,3c-0.553,0-1,0.447-1,1s0.447,1,1,1c2.757,0,5-2.243,5-5C36.5,4.093,36.239,3.254,35.815,2.52z"/>
<path style="fill:#839594;" d="M21.185,2.52C20.761,3.254,20.5,4.093,20.5,5h2C22.5,3.97,21.978,3.061,21.185,2.52z"/>
<path style="fill:#AFB6BB;" d="M29.815,2.52c-0.337-0.583-0.781-1.09-1.315-1.495C27.662,0.391,26.63,0,25.5,0s-2.162,0.391-3,1.025
	c0.534,0.405,0.979,0.912,1.315,1.495C24.296,2.192,24.876,2,25.5,2s1.204,0.192,1.685,0.52C27.978,3.061,28.5,3.97,28.5,5
	c0,1.654-1.346,3-3,3c-0.553,0-1,0.447-1,1s0.447,1,1,1c2.757,0,5-2.243,5-5C30.5,4.093,30.239,3.254,29.815,2.52z"/>
<path style="fill:#AFB6BB;" d="M23.815,2.52c-0.337-0.583-0.781-1.09-1.315-1.495C21.662,0.391,20.63,0,19.5,0c-2.757,0-5,2.243-5,5
	h2c0-1.654,1.346-3,3-3c0.624,0,1.204,0.192,1.685,0.52C21.978,3.061,22.5,3.97,22.5,5c0,1.654-1.346,3-3,3c-0.553,0-1,0.447-1,1
	s0.447,1,1,1c2.757,0,5-2.243,5-5C24.5,4.093,24.239,3.254,23.815,2.52z"/>
<g>
</g>
<g>
</g>
<g>
</g>
<g>
</g>
<g>
</g>
<g>
</g>
<g>
</g>
<g>
</g>
<g>
</g>
<g>
</g>
<g>
</g>
<g>
</g>
<g>
</g>
<g>
</g>
<g>
</g>
</svg>
