<?xml version="1.0" encoding="iso-8859-1"?>
<!-- Generator: Adobe Illustrator 19.0.0, SVG Export Plug-In . SVG Version: 6.00 Build 0)  -->
<svg version="1.1" id="Capa_1" xmlns="http://www.w3.org/2000/svg" xmlns:xlink="http://www.w3.org/1999/xlink" x="0px" y="0px"
	 viewBox="0 0 58 58" style="enable-background:new 0 0 58 58;" xml:space="preserve">
<polygon style="fill:#14A085;" points="0,3.5 0,54.5 51,54.5 51,21.5 51,5.5 51,3.5 "/>
<path style="fill:#EFCE4A;" d="M26,39.5c-0.256,0-0.512-0.098-0.707-0.293c-0.391-0.391-0.391-1.023,0-1.414l31-31
	c0.391-0.391,1.023-0.391,1.414,0s0.391,1.023,0,1.414l-31,31C26.512,39.402,26.256,39.5,26,39.5z"/>
<path style="fill:#EFCE4A;" d="M26,39.5c-0.256,0-0.512-0.098-0.707-0.293L11.516,25.43c-0.391-0.391-0.391-1.023,0-1.414
	s1.023-0.391,1.414,0l13.777,13.777c0.391,0.391,0.391,1.023,0,1.414C26.512,39.402,26.256,39.5,26,39.5z"/>
<g>
</g>
<g>
</g>
<g>
</g>
<g>
</g>
<g>
</g>
<g>
</g>
<g>
</g>
<g>
</g>
<g>
</g>
<g>
</g>
<g>
</g>
<g>
</g>
<g>
</g>
<g>
</g>
<g>
</g>
</svg>
