<?xml version="1.0" encoding="iso-8859-1"?>
<!-- Generator: Adobe Illustrator 19.0.0, SVG Export Plug-In . SVG Version: 6.00 Build 0)  -->
<svg version="1.1" id="Capa_1" xmlns="http://www.w3.org/2000/svg" xmlns:xlink="http://www.w3.org/1999/xlink" x="0px" y="0px"
	 viewBox="0 0 58 58" style="enable-background:new 0 0 58 58;" xml:space="preserve">
<circle style="fill:#23A24D;" cx="29" cy="29" r="29"/>
<path style="fill:#EBD6BD;" d="M29,0C21.243,0,14.204,3.051,9,8.011V26l19.951,24.993C28.971,51.009,29,50.995,29,50.97
	c0,0.025,0.029,0.04,0.049,0.023L49,26V8.011C43.796,3.051,36.757,0,29,0z"/>
<path style="fill:#4C4C4C;" d="M29,35c-3.748,0-7.093,1.72-9.294,4.412l9.245,11.581C28.971,51.009,29,50.995,29,50.97
	c0,0.025,0.029,0.04,0.049,0.023l9.245-11.581C36.093,36.72,32.748,35,29,35z"/>
<path style="fill:#EBBA16;" d="M29,0c-3.516,0-6.883,0.633-10,1.78V18l9.951,7.961C28.971,25.977,29,25.962,29,25.937
	c0,0.025,0.029,0.04,0.049,0.024L39,18V1.78C35.883,0.633,32.516,0,29,0z"/>
<path style="fill:#ED8A19;" d="M9.432,25.654L19,18V1.78C15.241,3.164,11.845,5.3,9,8.011v17.435
	C9,25.669,9.258,25.793,9.432,25.654z"/>
<path style="fill:#ED8A19;" d="M39,18l9.568,7.654C48.742,25.793,49,25.669,49,25.446V8.011C46.155,5.3,42.759,3.164,39,1.78V18z"/>
<g>
</g>
<g>
</g>
<g>
</g>
<g>
</g>
<g>
</g>
<g>
</g>
<g>
</g>
<g>
</g>
<g>
</g>
<g>
</g>
<g>
</g>
<g>
</g>
<g>
</g>
<g>
</g>
<g>
</g>
</svg>
