<?xml version="1.0" encoding="iso-8859-1"?>
<!-- Generator: Adobe Illustrator 19.0.0, SVG Export Plug-In . SVG Version: 6.00 Build 0)  -->
<svg version="1.1" id="Capa_1" xmlns="http://www.w3.org/2000/svg" xmlns:xlink="http://www.w3.org/1999/xlink" x="0px" y="0px"
	 viewBox="0 0 58 58" style="enable-background:new 0 0 58 58;" xml:space="preserve">
<rect style="fill:#556080;" width="58" height="58"/>
<g>
	<path style="fill:#7383BF;" d="M11,6c-0.552,0-1,0.447-1,1v32c0,0.553,0.448,1,1,1s1-0.447,1-1V7C12,6.447,11.552,6,11,6z"/>
	<path style="fill:#7383BF;" d="M47,18c-0.552,0-1,0.447-1,1v32c0,0.553,0.448,1,1,1s1-0.447,1-1V19C48,18.447,47.552,18,47,18z"/>
	<path style="fill:#7383BF;" d="M29,6c-0.552,0-1,0.447-1,1v15c0,0.553,0.448,1,1,1s1-0.447,1-1V7C30,6.447,29.552,6,29,6z"/>
	<path style="fill:#7383BF;" d="M29,33c-0.552,0-1,0.447-1,1v17c0,0.553,0.448,1,1,1s1-0.447,1-1V34C30,33.447,29.552,33,29,33z"/>
</g>
<circle style="fill:#AFB6BB;" cx="11" cy="47" r="6"/>
<circle style="fill:#AFB6BB;" cx="47" cy="15" r="6"/>
<circle style="fill:#AFB6BB;" cx="29" cy="30" r="6"/>
<circle style="fill:#E7ECED;" cx="11" cy="45" r="6"/>
<circle style="fill:#E7ECED;" cx="47" cy="13" r="6"/>
<circle style="fill:#E7ECED;" cx="29" cy="28" r="6"/>
<g>
</g>
<g>
</g>
<g>
</g>
<g>
</g>
<g>
</g>
<g>
</g>
<g>
</g>
<g>
</g>
<g>
</g>
<g>
</g>
<g>
</g>
<g>
</g>
<g>
</g>
<g>
</g>
<g>
</g>
</svg>
