<?xml version="1.0" encoding="iso-8859-1"?>
<!-- Generator: Adobe Illustrator 19.0.0, SVG Export Plug-In . SVG Version: 6.00 Build 0)  -->
<svg version="1.1" id="Capa_1" xmlns="http://www.w3.org/2000/svg" xmlns:xlink="http://www.w3.org/1999/xlink" x="0px" y="0px"
	 viewBox="0 0 58 58" style="enable-background:new 0 0 58 58;" xml:space="preserve">
<rect x="0" y="0" style="fill:#556080;" width="58" height="58"/>
<g>
	<path style="fill:#424A60;" d="M21,11h32c0.553,0,1-0.447,1-1s-0.447-1-1-1H21c-0.553,0-1,0.447-1,1S20.447,11,21,11z"/>
	<path style="fill:#424A60;" d="M5,11h4c0.553,0,1-0.447,1-1S9.553,9,9,9H5c-0.553,0-1,0.447-1,1S4.447,11,5,11z"/>
	<path style="fill:#424A60;" d="M53,28H35c-0.553,0-1,0.447-1,1s0.447,1,1,1h18c0.553,0,1-0.447,1-1S53.553,28,53,28z"/>
	<path style="fill:#424A60;" d="M5,30h18c0.553,0,1-0.447,1-1s-0.447-1-1-1H5c-0.553,0-1,0.447-1,1S4.447,30,5,30z"/>
	<path style="fill:#424A60;" d="M37,47H5c-0.553,0-1,0.447-1,1s0.447,1,1,1h32c0.553,0,1-0.447,1-1S37.553,47,37,47z"/>
	<path style="fill:#424A60;" d="M53,47h-4c-0.553,0-1,0.447-1,1s0.447,1,1,1h4c0.553,0,1-0.447,1-1S53.553,47,53,47z"/>
</g>
<rect x="9" y="5" style="fill:#424A60;" width="12" height="10"/>
<rect x="23" y="24" style="fill:#424A60;" width="12" height="10"/>
<rect x="37" y="43" style="fill:#424A60;" width="12" height="10"/>
<rect x="9" y="3" style="fill:#E7ECED;" width="12" height="10"/>
<rect x="23" y="22" style="fill:#E7ECED;" width="12" height="10"/>
<rect x="37" y="41" style="fill:#E7ECED;" width="12" height="10"/>
<g>
</g>
<g>
</g>
<g>
</g>
<g>
</g>
<g>
</g>
<g>
</g>
<g>
</g>
<g>
</g>
<g>
</g>
<g>
</g>
<g>
</g>
<g>
</g>
<g>
</g>
<g>
</g>
<g>
</g>
</svg>
