<?xml version="1.0" encoding="iso-8859-1"?>
<!-- Generator: Adobe Illustrator 19.0.0, SVG Export Plug-In . SVG Version: 6.00 Build 0)  -->
<svg version="1.1" id="Capa_1" xmlns="http://www.w3.org/2000/svg" xmlns:xlink="http://www.w3.org/1999/xlink" x="0px" y="0px"
	 viewBox="0 0 56 56" style="enable-background:new 0 0 56 56;" xml:space="preserve">
<g>
	<path style="fill:#949493;" d="M14,9h40c0.553,0,1-0.447,1-1s-0.447-1-1-1H14c-0.552,0-1,0.447-1,1S13.448,9,14,9z"/>
	<path style="fill:#949493;" d="M42,49H2c-0.552,0-1,0.447-1,1s0.448,1,1,1h40c0.552,0,1-0.447,1-1S42.552,49,42,49z"/>
	<path style="fill:#949493;" d="M54,28H35c-0.552,0-1,0.447-1,1s0.448,1,1,1h19c0.553,0,1-0.447,1-1S54.553,28,54,28z"/>
	<path style="fill:#949493;" d="M2,30h20c0.552,0,1-0.447,1-1s-0.448-1-1-1H2c-0.552,0-1,0.447-1,1S1.448,30,2,30z"/>
</g>
<circle style="fill:#C7CAC7;" cx="8" cy="8" r="6"/>
<circle style="fill:#C7CAC7;" cx="28.207" cy="28.793" r="6.207"/>
<circle style="fill:#C7CAC7;" cx="48" cy="50" r="6"/>
<circle style="fill:#E7ECED;" cx="8" cy="6" r="6"/>
<circle style="fill:#E7ECED;" cx="28.207" cy="26.793" r="6.207"/>
<circle style="fill:#E7ECED;" cx="48" cy="48" r="6"/>
<g>
</g>
<g>
</g>
<g>
</g>
<g>
</g>
<g>
</g>
<g>
</g>
<g>
</g>
<g>
</g>
<g>
</g>
<g>
</g>
<g>
</g>
<g>
</g>
<g>
</g>
<g>
</g>
<g>
</g>
</svg>
