<?xml version="1.0" encoding="iso-8859-1"?>
<!-- Generator: Adobe Illustrator 19.0.0, SVG Export Plug-In . SVG Version: 6.00 Build 0)  -->
<svg version="1.1" id="Capa_1" xmlns="http://www.w3.org/2000/svg" xmlns:xlink="http://www.w3.org/1999/xlink" x="0px" y="0px"
	 viewBox="0 0 58 58" style="enable-background:new 0 0 58 58;" xml:space="preserve">
<g>
	<path style="fill:#556080;" d="M5,2C4.447,2,4,2.447,4,3v36c0,0.553,0.447,1,1,1s1-0.447,1-1V3C6,2.447,5.553,2,5,2z"/>
	<path style="fill:#556080;" d="M5,50c-0.553,0-1,0.447-1,1v4c0,0.553,0.447,1,1,1s1-0.447,1-1v-4C6,50.447,5.553,50,5,50z"/>
	<path style="fill:#556080;" d="M21,2c-0.553,0-1,0.447-1,1v26c0,0.553,0.447,1,1,1s1-0.447,1-1V3C22,2.447,21.553,2,21,2z"/>
	<path style="fill:#556080;" d="M21,40c-0.553,0-1,0.447-1,1v14c0,0.553,0.447,1,1,1s1-0.447,1-1V41C22,40.447,21.553,40,21,40z"/>
	<path style="fill:#556080;" d="M37,2c-0.553,0-1,0.447-1,1v16c0,0.553,0.447,1,1,1s1-0.447,1-1V3C38,2.447,37.553,2,37,2z"/>
	<path style="fill:#556080;" d="M37,30c-0.553,0-1,0.447-1,1v24c0,0.553,0.447,1,1,1s1-0.447,1-1V31C38,30.447,37.553,30,37,30z"/>
	<path style="fill:#556080;" d="M53,18c-0.553,0-1,0.447-1,1v36c0,0.553,0.447,1,1,1s1-0.447,1-1V19C54,18.447,53.553,18,53,18z"/>
	<path style="fill:#556080;" d="M53,2c-0.553,0-1,0.447-1,1v4c0,0.553,0.447,1,1,1s1-0.447,1-1V3C54,2.447,53.553,2,53,2z"/>
</g>
<rect y="41" style="fill:#C7CAC7;" width="10" height="12"/>
<rect x="16" y="31" style="fill:#C7CAC7;" width="10" height="12"/>
<rect x="32" y="21" style="fill:#C7CAC7;" width="10" height="12"/>
<rect x="48" y="9" style="fill:#C7CAC7;" width="10" height="12"/>
<rect y="39" style="fill:#E7ECED;" width="10" height="12"/>
<rect x="16" y="29" style="fill:#E7ECED;" width="10" height="12"/>
<rect x="32" y="19" style="fill:#E7ECED;" width="10" height="12"/>
<rect x="48" y="7" style="fill:#E7ECED;" width="10" height="12"/>
<g>
	<path style="fill:#FFFFFF;" d="M22,32h-2c-0.553,0-1,0.447-1,1s0.447,1,1,1h2c0.553,0,1-0.447,1-1S22.553,32,22,32z"/>
	<path style="fill:#FFFFFF;" d="M38,26h-2c-0.553,0-1,0.447-1,1s0.447,1,1,1h2c0.553,0,1-0.447,1-1S38.553,26,38,26z"/>
	<path style="fill:#FFFFFF;" d="M38,22h-2c-0.553,0-1,0.447-1,1s0.447,1,1,1h2c0.553,0,1-0.447,1-1S38.553,22,38,22z"/>
	<path style="fill:#FFFFFF;" d="M54,14h-2c-0.553,0-1,0.447-1,1s0.447,1,1,1h2c0.553,0,1-0.447,1-1S54.553,14,54,14z"/>
	<path style="fill:#FFFFFF;" d="M52,12h2c0.553,0,1-0.447,1-1s-0.447-1-1-1h-2c-0.553,0-1,0.447-1,1S51.447,12,52,12z"/>
	<path style="fill:#FFFFFF;" d="M22,36h-2c-0.553,0-1,0.447-1,1s0.447,1,1,1h2c0.553,0,1-0.447,1-1S22.553,36,22,36z"/>
	<path style="fill:#FFFFFF;" d="M6,42H4c-0.553,0-1,0.447-1,1s0.447,1,1,1h2c0.553,0,1-0.447,1-1S6.553,42,6,42z"/>
	<path style="fill:#FFFFFF;" d="M6,46H4c-0.553,0-1,0.447-1,1s0.447,1,1,1h2c0.553,0,1-0.447,1-1S6.553,46,6,46z"/>
</g>
<g>
</g>
<g>
</g>
<g>
</g>
<g>
</g>
<g>
</g>
<g>
</g>
<g>
</g>
<g>
</g>
<g>
</g>
<g>
</g>
<g>
</g>
<g>
</g>
<g>
</g>
<g>
</g>
<g>
</g>
</svg>
