<?xml version="1.0" encoding="iso-8859-1"?>
<!-- Generator: Adobe Illustrator 19.0.0, SVG Export Plug-In . SVG Version: 6.00 Build 0)  -->
<svg version="1.1" id="Capa_1" xmlns="http://www.w3.org/2000/svg" xmlns:xlink="http://www.w3.org/1999/xlink" x="0px" y="0px"
	 viewBox="0 0 58 58" style="enable-background:new 0 0 58 58;" xml:space="preserve">
<rect style="fill:#424A60;" width="58" height="58"/>
<g>
	<path style="fill:#7383BF;" d="M10,4C9.448,4,9,4.447,9,5v32c0,0.553,0.448,1,1,1s1-0.447,1-1V5C11,4.447,10.552,4,10,4z"/>
	<path style="fill:#7383BF;" d="M10,48c-0.552,0-1,0.447-1,1v4c0,0.553,0.448,1,1,1s1-0.447,1-1v-4C11,48.447,10.552,48,10,48z"/>
	<path style="fill:#7383BF;" d="M29,4c-0.552,0-1,0.447-1,1v18c0,0.553,0.448,1,1,1s1-0.447,1-1V5C30,4.447,29.552,4,29,4z"/>
	<path style="fill:#7383BF;" d="M29,34c-0.552,0-1,0.447-1,1v18c0,0.553,0.448,1,1,1s1-0.447,1-1V35C30,34.447,29.552,34,29,34z"/>
	<path style="fill:#7383BF;" d="M48,20c-0.552,0-1,0.447-1,1v32c0,0.553,0.448,1,1,1s1-0.447,1-1V21C49,20.447,48.552,20,48,20z"/>
	<path style="fill:#7383BF;" d="M48,4c-0.552,0-1,0.447-1,1v4c0,0.553,0.448,1,1,1s1-0.447,1-1V5C49,4.447,48.552,4,48,4z"/>
</g>
<rect x="5" y="37" style="fill:#C7CAC7;" width="10" height="12"/>
<rect x="24" y="23" style="fill:#C7CAC7;" width="10" height="12"/>
<rect x="43" y="9" style="fill:#C7CAC7;" width="10" height="12"/>
<rect x="5" y="35" style="fill:#E7ECED;" width="10" height="12"/>
<rect x="24" y="21" style="fill:#E7ECED;" width="10" height="12"/>
<rect x="43" y="7" style="fill:#E7ECED;" width="10" height="12"/>
<g>
</g>
<g>
</g>
<g>
</g>
<g>
</g>
<g>
</g>
<g>
</g>
<g>
</g>
<g>
</g>
<g>
</g>
<g>
</g>
<g>
</g>
<g>
</g>
<g>
</g>
<g>
</g>
<g>
</g>
</svg>
