<?xml version="1.0" encoding="iso-8859-1"?>
<!-- Generator: Adobe Illustrator 19.0.0, SVG Export Plug-In . SVG Version: 6.00 Build 0)  -->
<svg version="1.1" id="Capa_1" xmlns="http://www.w3.org/2000/svg" xmlns:xlink="http://www.w3.org/1999/xlink" x="0px" y="0px"
	 viewBox="0 0 57 57" style="enable-background:new 0 0 57 57;" xml:space="preserve">
<path style="fill:#556080;" d="M6,43.5c-0.553,0-1-0.447-1-1v-40c0-0.553,0.447-1,1-1s1,0.447,1,1v40C7,43.053,6.553,43.5,6,43.5z"
	/>
<path style="fill:#556080;" d="M21,31.5c-0.553,0-1-0.447-1-1v-28c0-0.553,0.447-1,1-1s1,0.447,1,1v28
	C22,31.053,21.553,31.5,21,31.5z"/>
<path style="fill:#556080;" d="M36,19.5c-0.553,0-1-0.447-1-1v-16c0-0.553,0.447-1,1-1s1,0.447,1,1v16
	C37,19.053,36.553,19.5,36,19.5z"/>
<path style="fill:#556080;" d="M51,7.5c-0.553,0-1-0.447-1-1v-4c0-0.553,0.447-1,1-1s1,0.447,1,1v4C52,7.053,51.553,7.5,51,7.5z"/>
<path style="fill:#556080;" d="M21,55.5c-0.553,0-1-0.447-1-1v-12c0-0.553,0.447-1,1-1s1,0.447,1,1v12
	C22,55.053,21.553,55.5,21,55.5z"/>
<path style="fill:#556080;" d="M36,55.5c-0.553,0-1-0.447-1-1v-24c0-0.553,0.447-1,1-1s1,0.447,1,1v24
	C37,55.053,36.553,55.5,36,55.5z"/>
<path style="fill:#556080;" d="M51,55.5c-0.553,0-1-0.447-1-1v-36c0-0.553,0.447-1,1-1s1,0.447,1,1v36
	C52,55.053,51.553,55.5,51,55.5z"/>
<circle style="fill:#C7CAC7;" cx="6" cy="48.5" r="6"/>
<circle style="fill:#C7CAC7;" cx="21" cy="36.5" r="6"/>
<circle style="fill:#C7CAC7;" cx="51" cy="12.5" r="6"/>
<circle style="fill:#E7ECED;" cx="6" cy="46.5" r="6"/>
<circle style="fill:#E7ECED;" cx="21" cy="34.5" r="6"/>
<circle style="fill:#C7CAC7;" cx="36" cy="24.5" r="6"/>
<circle style="fill:#E7ECED;" cx="36" cy="22.5" r="6"/>
<circle style="fill:#E7ECED;" cx="51" cy="10.5" r="6"/>
<path style="fill:#FFFFFF;" d="M52,9.5h-2c-0.553,0-1-0.447-1-1s0.447-1,1-1h2c0.553,0,1,0.447,1,1S52.553,9.5,52,9.5z"/>
<path style="fill:#FFFFFF;" d="M37,21.5h-2c-0.553,0-1-0.447-1-1s0.447-1,1-1h2c0.553,0,1,0.447,1,1S37.553,21.5,37,21.5z"/>
<path style="fill:#FFFFFF;" d="M37,25.5h-2c-0.553,0-1-0.447-1-1s0.447-1,1-1h2c0.553,0,1,0.447,1,1S37.553,25.5,37,25.5z"/>
<path style="fill:#FFFFFF;" d="M22,33.5h-2c-0.553,0-1-0.447-1-1s0.447-1,1-1h2c0.553,0,1,0.447,1,1S22.553,33.5,22,33.5z"/>
<path style="fill:#FFFFFF;" d="M22,37.5h-2c-0.553,0-1-0.447-1-1s0.447-1,1-1h2c0.553,0,1,0.447,1,1S22.553,37.5,22,37.5z"/>
<path style="fill:#FFFFFF;" d="M7,45.5H5c-0.553,0-1-0.447-1-1s0.447-1,1-1h2c0.553,0,1,0.447,1,1S7.553,45.5,7,45.5z"/>
<path style="fill:#FFFFFF;" d="M7,49.5H5c-0.553,0-1-0.447-1-1s0.447-1,1-1h2c0.553,0,1,0.447,1,1S7.553,49.5,7,49.5z"/>
<path style="fill:#FFFFFF;" d="M52,13.5h-2c-0.553,0-1-0.447-1-1s0.447-1,1-1h2c0.553,0,1,0.447,1,1S52.553,13.5,52,13.5z"/>
<g>
</g>
<g>
</g>
<g>
</g>
<g>
</g>
<g>
</g>
<g>
</g>
<g>
</g>
<g>
</g>
<g>
</g>
<g>
</g>
<g>
</g>
<g>
</g>
<g>
</g>
<g>
</g>
<g>
</g>
</svg>
