<?xml version="1.0" encoding="iso-8859-1"?>
<!-- Generator: Adobe Illustrator 19.0.0, SVG Export Plug-In . SVG Version: 6.00 Build 0)  -->
<svg version="1.1" id="Capa_1" xmlns="http://www.w3.org/2000/svg" xmlns:xlink="http://www.w3.org/1999/xlink" x="0px" y="0px"
	 viewBox="0 0 58 58" style="enable-background:new 0 0 58 58;" xml:space="preserve">
<rect x="0" y="0" style="fill:#E7ECED;" width="58" height="58"/>
<g>
	<path style="fill:#556080;" d="M19,12h32c0.553,0,1-0.447,1-1s-0.447-1-1-1H19c-0.553,0-1,0.447-1,1S18.447,12,19,12z"/>
	<path style="fill:#556080;" d="M39,46H7c-0.553,0-1,0.447-1,1s0.447,1,1,1h32c0.553,0,1-0.447,1-1S39.553,46,39,46z"/>
	<path style="fill:#556080;" d="M51,28H36c-0.553,0-1,0.447-1,1s0.447,1,1,1h15c0.553,0,1-0.447,1-1S51.553,28,51,28z"/>
	<path style="fill:#556080;" d="M7,30h17c0.553,0,1-0.447,1-1s-0.447-1-1-1H7c-0.553,0-1,0.447-1,1S6.447,30,7,30z"/>
</g>
<circle style="fill:#C7CAC7;" cx="13" cy="13" r="6"/>
<circle style="fill:#C7CAC7;" cx="45" cy="49" r="6"/>
<circle style="fill:#C7CAC7;" cx="30" cy="31" r="6"/>
<circle style="fill:#FFFFFF;" cx="13" cy="11" r="6"/>
<circle style="fill:#FFFFFF;" cx="45" cy="47" r="6"/>
<circle style="fill:#FFFFFF;" cx="30" cy="29" r="6"/>
<g>
</g>
<g>
</g>
<g>
</g>
<g>
</g>
<g>
</g>
<g>
</g>
<g>
</g>
<g>
</g>
<g>
</g>
<g>
</g>
<g>
</g>
<g>
</g>
<g>
</g>
<g>
</g>
<g>
</g>
</svg>
