<?xml version="1.0" encoding="iso-8859-1"?>
<!-- Generator: Adobe Illustrator 19.0.0, SVG Export Plug-In . SVG Version: 6.00 Build 0)  -->
<svg version="1.1" id="Capa_1" xmlns="http://www.w3.org/2000/svg" xmlns:xlink="http://www.w3.org/1999/xlink" x="0px" y="0px"
	 viewBox="0 0 54 54" style="enable-background:new 0 0 54 54;" xml:space="preserve">
<path style="fill:#7383BF;" d="M53,10H17c-0.553,0-1-0.447-1-1s0.447-1,1-1h36c0.553,0,1,0.447,1,1S53.553,10,53,10z"/>
<path style="fill:#7383BF;" d="M5,10H1c-0.553,0-1-0.447-1-1s0.447-1,1-1h4c0.553,0,1,0.447,1,1S5.553,10,5,10z"/>
<path style="fill:#7383BF;" d="M53,29H33c-0.553,0-1-0.447-1-1s0.447-1,1-1h20c0.553,0,1,0.447,1,1S53.553,29,53,29z"/>
<path style="fill:#7383BF;" d="M21,29H1c-0.553,0-1-0.447-1-1s0.447-1,1-1h20c0.553,0,1,0.447,1,1S21.553,29,21,29z"/>
<path style="fill:#7383BF;" d="M37,48H1c-0.553,0-1-0.447-1-1s0.447-1,1-1h36c0.553,0,1,0.447,1,1S37.553,48,37,48z"/>
<path style="fill:#7383BF;" d="M53,48h-4c-0.553,0-1-0.447-1-1s0.447-1,1-1h4c0.553,0,1,0.447,1,1S53.553,48,53,48z"/>
<rect x="5" y="4" style="fill:#424A60;" width="12" height="10"/>
<rect x="21" y="23" style="fill:#424A60;" width="12" height="10"/>
<rect x="37" y="42" style="fill:#424A60;" width="12" height="10"/>
<rect x="5" y="2" style="fill:#556080;" width="12" height="10"/>
<rect x="21" y="21" style="fill:#556080;" width="12" height="10"/>
<rect x="37" y="40" style="fill:#556080;" width="12" height="10"/>
<g>
</g>
<g>
</g>
<g>
</g>
<g>
</g>
<g>
</g>
<g>
</g>
<g>
</g>
<g>
</g>
<g>
</g>
<g>
</g>
<g>
</g>
<g>
</g>
<g>
</g>
<g>
</g>
<g>
</g>
</svg>
