<?xml version="1.0" encoding="iso-8859-1"?>
<!-- Generator: Adobe Illustrator 19.0.0, SVG Export Plug-In . SVG Version: 6.00 Build 0)  -->
<svg version="1.1" id="Capa_1" xmlns="http://www.w3.org/2000/svg" xmlns:xlink="http://www.w3.org/1999/xlink" x="0px" y="0px"
	 viewBox="0 0 58 58" style="enable-background:new 0 0 58 58;" xml:space="preserve">
<polygon style="fill:#EDEADA;" points="51.5,14 37.5,0 6.5,0 6.5,58 51.5,58 "/>
<polygon style="fill:#CEC9AE;" points="37.5,0 37.5,14 51.5,14 "/>
<g>
	<path style="fill:#CEC9AE;" d="M15.5,16h9c0.553,0,1-0.447,1-1s-0.447-1-1-1h-9c-0.553,0-1,0.447-1,1S14.947,16,15.5,16z"/>
	<path style="fill:#CEC9AE;" d="M15.5,24h5c0.553,0,1-0.447,1-1s-0.447-1-1-1h-5c-0.553,0-1,0.447-1,1S14.947,24,15.5,24z"/>
	<path style="fill:#CEC9AE;" d="M37.5,22h-7c-0.553,0-1,0.447-1,1s0.447,1,1,1h7c0.553,0,1-0.447,1-1S38.053,22,37.5,22z"/>
	<path style="fill:#CEC9AE;" d="M24.79,22.3c-0.19,0.18-0.29,0.439-0.29,0.7c0,0.26,0.1,0.52,0.29,0.71
		C24.979,23.89,25.24,24,25.5,24s0.52-0.101,0.71-0.3c0.18-0.181,0.29-0.44,0.29-0.7c0-0.261-0.11-0.521-0.29-0.71
		C25.83,21.92,25.16,21.92,24.79,22.3z"/>
	<path style="fill:#CEC9AE;" d="M43.21,22.29c-0.38-0.37-1.04-0.37-1.42,0c-0.181,0.189-0.29,0.449-0.29,0.71
		c0,0.26,0.109,0.52,0.29,0.71C41.979,23.89,42.24,24,42.5,24s0.52-0.11,0.71-0.29c0.18-0.19,0.29-0.45,0.29-0.71
		C43.5,22.739,43.39,22.479,43.21,22.29z"/>
	<path style="fill:#CEC9AE;" d="M27.5,30h-7c-0.553,0-1,0.447-1,1s0.447,1,1,1h7c0.553,0,1-0.447,1-1S28.053,30,27.5,30z"/>
	<path style="fill:#CEC9AE;" d="M14.79,30.29C14.6,30.479,14.5,30.729,14.5,31c0,0.26,0.109,0.52,0.29,0.71
		C14.979,31.89,15.24,32,15.5,32s0.52-0.11,0.71-0.29c0.189-0.19,0.29-0.45,0.29-0.71c0-0.261-0.101-0.521-0.29-0.71
		C15.83,29.92,15.17,29.92,14.79,30.29z"/>
</g>
<g>
	<path style="fill:#7383BF;" d="M18.645,39.166c-2.191,1.141-2.928,3.321-3.196,5.582c-0.414-0.347-0.828-0.693-1.241-1.04
		c-0.981-0.822-2.404,0.585-1.414,1.415c0.935,0.783,1.871,1.567,2.806,2.351c0.662,0.555,1.676,0.211,1.707-0.707
		c0.073-2.167,0.177-4.743,2.348-5.873C20.799,40.298,19.787,38.572,18.645,39.166z"/>
	<path style="fill:#7383BF;" d="M27.983,44.25c-0.52-0.93-1.642-1.391-2.688-1.095c-1.365,0.386-2.981,2.042-3.936,0.106
		c-0.571-1.157-2.295-0.143-1.727,1.009c0.514,1.042,1.5,1.798,2.669,1.932c0.607,0.069,1.117-0.013,1.688-0.226
		c0.406-0.152,1.923-1.332,2.267-0.717C26.885,46.385,28.613,45.376,27.983,44.25z"/>
</g>
<path style="fill:#EBBA16;" d="M40.045,29.09L40.045,29.09c0.326,0.915,1.371,1.349,2.249,0.931l0,0
	c1.393-0.662,2.847,0.791,2.185,2.185l0,0c-0.417,0.877,0.016,1.923,0.931,2.249h0c1.454,0.517,1.454,2.573,0,3.09h0
	c-0.915,0.326-1.349,1.371-0.931,2.249l0,0c0.662,1.393-0.791,2.847-2.185,2.185l0,0c-0.877-0.417-1.923,0.016-2.249,0.931v0
	c-0.517,1.454-2.573,1.454-3.09,0v0c-0.326-0.915-1.371-1.349-2.249-0.931l0,0c-1.393,0.662-2.847-0.791-2.185-2.185l0,0
	c0.417-0.877-0.016-1.923-0.931-2.249h0c-1.454-0.517-1.454-2.573,0-3.09h0c0.915-0.326,1.349-1.371,0.931-2.249l0,0
	c-0.662-1.393,0.791-2.847,2.185-2.185l0,0c0.877,0.417,1.923-0.016,2.249-0.931v0C37.472,27.637,39.528,27.637,40.045,29.09z"/>
<path style="fill:#D75A4A;" d="M42.294,41.979c-0.878-0.417-1.923,0.016-2.249,0.931c-0.517,1.454-2.573,1.454-3.09,0
	c-0.326-0.916-1.371-1.349-2.249-0.931c-0.069,0.033-0.137,0.038-0.206,0.061V53l4-4l4,4V42.039
	C42.431,42.017,42.363,42.011,42.294,41.979z"/>
<g>
</g>
<g>
</g>
<g>
</g>
<g>
</g>
<g>
</g>
<g>
</g>
<g>
</g>
<g>
</g>
<g>
</g>
<g>
</g>
<g>
</g>
<g>
</g>
<g>
</g>
<g>
</g>
<g>
</g>
</svg>
