<?xml version="1.0" encoding="iso-8859-1"?>
<!-- Generator: Adobe Illustrator 19.0.0, SVG Export Plug-In . SVG Version: 6.00 Build 0)  -->
<svg version="1.1" id="Capa_1" xmlns="http://www.w3.org/2000/svg" xmlns:xlink="http://www.w3.org/1999/xlink" x="0px" y="0px"
	 viewBox="0 0 56 56" style="enable-background:new 0 0 56 56;" xml:space="preserve">
<rect x="40.5" y="0" style="fill:#4B6DAA;" width="14" height="36"/>
<circle style="fill:#D8A852;" cx="47.5" cy="9" r="4"/>
<path style="fill:#FBCE9D;" d="M2.5,30c0,2.209,1.791,4,4,4h9h3h3.602l-0.988,4.619c-0.754,3.524-0.552,7.819-0.104,10.836
	C21.458,52.472,24.16,56,26.987,56h0.239c2.41,0,3.274-2.659,3.274-6c0-16.25,8-16,8-16h2V2h-15h-10h-4c-2.209,0-4,1.791-4,4
	c0,2.209,1.791,4,4,4h-3c-2.209,0-4,1.791-4,4c0,2.209,1.791,4,4,4h-3c-2.209,0-4,1.791-4,4c0,2.493,1.613,3.442,4,3.796
	C6.663,25.969,8.776,26,9.5,26h-3C4.291,26,2.5,27.791,2.5,30z"/>
<path style="fill:#F7B563;" d="M19.5,10c0-0.553-0.448-1-1-1H8.88c0.703,0.615,1.613,1,2.62,1h-3c-1.008,0-1.917,0.385-2.62,1H18.5
	C19.052,11,19.5,10.553,19.5,10z"/>
<path style="fill:#F7B563;" d="M16.5,17H5.88c0.703,0.615,1.613,1,2.62,1h-3c-1.008,0-1.917,0.385-2.62,1H16.5c0.552,0,1-0.447,1-1
	S17.052,17,16.5,17z"/>
<path style="fill:#F7B563;" d="M16.5,25H3.044c0.657,0.403,1.488,0.653,2.456,0.796C6.663,25.969,8.776,26,9.5,26h-3
	c-1.008,0-1.917,0.385-2.62,1H16.5c0.552,0,1-0.447,1-1S17.052,25,16.5,25z"/>
<g>
</g>
<g>
</g>
<g>
</g>
<g>
</g>
<g>
</g>
<g>
</g>
<g>
</g>
<g>
</g>
<g>
</g>
<g>
</g>
<g>
</g>
<g>
</g>
<g>
</g>
<g>
</g>
<g>
</g>
</svg>
