<?xml version="1.0" encoding="iso-8859-1"?>
<!-- Generator: Adobe Illustrator 19.0.0, SVG Export Plug-In . SVG Version: 6.00 Build 0)  -->
<svg version="1.1" id="Capa_1" xmlns="http://www.w3.org/2000/svg" xmlns:xlink="http://www.w3.org/1999/xlink" x="0px" y="0px"
	 viewBox="0 0 42 42" style="enable-background:new 0 0 42 42;" xml:space="preserve">
<line style="fill:none;stroke:#C5411E;stroke-width:2;stroke-miterlimit:10;" x1="42" y1="21" x2="0" y2="21"/>
<path style="fill:none;stroke:#C5411E;stroke-width:2;stroke-miterlimit:10;" d="M21,12L21,12c-2.2,0-4-1.8-4-4v0c0-2.2,1.8-4,4-4h0
	c2.2,0,4,1.8,4,4v0C25,10.2,23.2,12,21,12z"/>
<path style="fill:none;stroke:#C5411E;stroke-width:2;stroke-miterlimit:10;" d="M21,38L21,38c-2.2,0-4-1.8-4-4v0c0-2.2,1.8-4,4-4h0
	c2.2,0,4,1.8,4,4v0C25,36.2,23.2,38,21,38z"/>
<g>
</g>
<g>
</g>
<g>
</g>
<g>
</g>
<g>
</g>
<g>
</g>
<g>
</g>
<g>
</g>
<g>
</g>
<g>
</g>
<g>
</g>
<g>
</g>
<g>
</g>
<g>
</g>
<g>
</g>
</svg>
