<?xml version="1.0" encoding="iso-8859-1"?>
<!-- Generator: Adobe Illustrator 19.0.0, SVG Export Plug-In . SVG Version: 6.00 Build 0)  -->
<svg version="1.1" id="Capa_1" xmlns="http://www.w3.org/2000/svg" xmlns:xlink="http://www.w3.org/1999/xlink" x="0px" y="0px"
	 viewBox="0 0 58.018 58.018" style="enable-background:new 0 0 58.018 58.018;" xml:space="preserve">
<polygon style="fill:#EDEADA;" points="24.192,39.492 16.414,41.613 18.536,33.835 48.362,4.009 0,4.009 0,58.009 54,58.009 
	54,9.685 "/>
<path style="fill:#F7E6A1;" d="M18.716,39.311c0.391,0.391,0.391,1.023,0,1.414l-0.358,0.358l5.793-1.58l-5.627-5.627l-1.58,5.792
	l0.358-0.358C17.693,38.92,18.326,38.92,18.716,39.311z"/>
<path style="fill:#424A60;" d="M18.358,41.083l0.358-0.358c0.391-0.391,0.391-1.023,0-1.414s-1.023-0.391-1.414,0l-0.358,0.358
	l-0.53,1.944L18.358,41.083z"/>
<polygon style="fill:#EBBA16;" points="51.062,12.622 45.406,6.965 18.536,33.835 18.524,33.876 24.151,39.503 24.192,39.492 "/>
<path style="fill:#ED7161;" d="M57.437,3.44l-2.85-2.85c-0.775-0.775-2.032-0.775-2.807,0l-3.546,3.546l5.657,5.657l3.546-3.546
	C58.212,5.472,58.212,4.215,57.437,3.44z"/>
<rect x="44.82" y="5.551" transform="matrix(0.7071 -0.7071 0.7071 0.7071 9.789 34.7337)" style="fill:#F7E6A1;" width="4" height="0"/>
<rect x="45.648" y="6.379" transform="matrix(0.7071 0.7071 -0.7071 0.7071 20.4667 -32.6524)" style="fill:#F7E6A1;" width="8" height="4"/>
<g>
</g>
<g>
</g>
<g>
</g>
<g>
</g>
<g>
</g>
<g>
</g>
<g>
</g>
<g>
</g>
<g>
</g>
<g>
</g>
<g>
</g>
<g>
</g>
<g>
</g>
<g>
</g>
<g>
</g>
</svg>
