<?xml version="1.0" encoding="iso-8859-1"?>
<!-- Generator: Adobe Illustrator 19.0.0, SVG Export Plug-In . SVG Version: 6.00 Build 0)  -->
<svg version="1.1" id="Capa_1" xmlns="http://www.w3.org/2000/svg" xmlns:xlink="http://www.w3.org/1999/xlink" x="0px" y="0px"
	 viewBox="0 0 58 58" style="enable-background:new 0 0 58 58;" xml:space="preserve">
<circle style="fill:#25AE88;" cx="29" cy="29" r="29"/>
<g>
	<polygon style="fill:#FFFFFF;" points="54,29 32,44 32,29.273 32,14 	"/>
	<path style="fill:#FFFFFF;" d="M32,45c-0.16,0-0.32-0.038-0.467-0.116C31.205,44.711,31,44.371,31,44V14
		c0-0.371,0.205-0.711,0.533-0.884c0.327-0.174,0.725-0.15,1.03,0.058l22,15C54.837,28.36,55,28.669,55,29s-0.163,0.64-0.437,0.826
		l-22,15C32.395,44.941,32.197,45,32,45z M33,15.893v26.215L52.225,29L33,15.893z"/>
</g>
<g>
	<polygon style="fill:#FFFFFF;" points="32,29 10,44 10,29.273 10,14 	"/>
	<path style="fill:#FFFFFF;" d="M10,45c-0.16,0-0.32-0.038-0.467-0.116C9.205,44.711,9,44.371,9,44V14
		c0-0.371,0.205-0.711,0.533-0.884c0.327-0.174,0.725-0.15,1.03,0.058l22,15C32.837,28.36,33,28.669,33,29s-0.163,0.64-0.437,0.826
		l-22,15C10.395,44.941,10.197,45,10,45z M11,15.893v26.215L30.225,29L11,15.893z"/>
</g>
<g>
</g>
<g>
</g>
<g>
</g>
<g>
</g>
<g>
</g>
<g>
</g>
<g>
</g>
<g>
</g>
<g>
</g>
<g>
</g>
<g>
</g>
<g>
</g>
<g>
</g>
<g>
</g>
<g>
</g>
</svg>
