<?xml version="1.0" encoding="iso-8859-1"?>
<!-- Generator: Adobe Illustrator 19.0.0, SVG Export Plug-In . SVG Version: 6.00 Build 0)  -->
<svg version="1.1" id="Capa_1" xmlns="http://www.w3.org/2000/svg" xmlns:xlink="http://www.w3.org/1999/xlink" x="0px" y="0px"
	 viewBox="0 0 58 58" style="enable-background:new 0 0 58 58;" xml:space="preserve">
<polygon style="fill:#7383BF;" points="49,35 49,52 52,52 52,49 58,49 58,17 0,17 0,49 6,49 6,52 9,52 9,35 "/>
<rect x="6" y="41" style="fill:#556080;" width="46" height="11"/>
<rect y="17" style="fill:#556080;" width="58" height="18"/>
<polygon style="fill:#EDEADA;" points="49,0 49,7 49,17 9,17 9,0 "/>
<circle style="fill:#88C057;" cx="49" cy="26" r="4"/>
<path style="fill:#CEC9AE;" d="M35,8H17c-0.553,0-1-0.447-1-1s0.447-1,1-1h18c0.553,0,1,0.447,1,1S35.553,8,35,8z"/>
<path style="fill:#CEC9AE;" d="M41,13H17c-0.553,0-1-0.447-1-1s0.447-1,1-1h24c0.553,0,1,0.447,1,1S41.553,13,41,13z"/>
<path style="fill:#FFFFFF;" d="M8,23H5c-0.553,0-1-0.447-1-1s0.447-1,1-1h3c0.553,0,1,0.447,1,1S8.553,23,8,23z"/>
<path style="fill:#FFFFFF;" d="M8,27H5c-0.553,0-1-0.447-1-1s0.447-1,1-1h3c0.553,0,1,0.447,1,1S8.553,27,8,27z"/>
<path style="fill:#FFFFFF;" d="M8,31H5c-0.553,0-1-0.447-1-1s0.447-1,1-1h3c0.553,0,1,0.447,1,1S8.553,31,8,31z"/>
<path style="fill:#FFFFFF;" d="M15,23h-3c-0.553,0-1-0.447-1-1s0.447-1,1-1h3c0.553,0,1,0.447,1,1S15.553,23,15,23z"/>
<path style="fill:#FFFFFF;" d="M15,27h-3c-0.553,0-1-0.447-1-1s0.447-1,1-1h3c0.553,0,1,0.447,1,1S15.553,27,15,27z"/>
<path style="fill:#FFFFFF;" d="M15,31h-3c-0.553,0-1-0.447-1-1s0.447-1,1-1h3c0.553,0,1,0.447,1,1S15.553,31,15,31z"/>
<path style="fill:#FFFFFF;" d="M22,23h-3c-0.553,0-1-0.447-1-1s0.447-1,1-1h3c0.553,0,1,0.447,1,1S22.553,23,22,23z"/>
<path style="fill:#FFFFFF;" d="M22,27h-3c-0.553,0-1-0.447-1-1s0.447-1,1-1h3c0.553,0,1,0.447,1,1S22.553,27,22,27z"/>
<path style="fill:#FFFFFF;" d="M22,31h-3c-0.553,0-1-0.447-1-1s0.447-1,1-1h3c0.553,0,1,0.447,1,1S22.553,31,22,31z"/>
<rect x="9" y="35" style="fill:#EDEADA;" width="40" height="23"/>
<path style="fill:#CEC9AE;" d="M41,44H17c-0.553,0-1-0.447-1-1s0.447-1,1-1h24c0.553,0,1,0.447,1,1S41.553,44,41,44z"/>
<path style="fill:#CEC9AE;" d="M41,49H17c-0.553,0-1-0.447-1-1s0.447-1,1-1h24c0.553,0,1,0.447,1,1S41.553,49,41,49z"/>
<polygon style="fill:#E2DFD5;" points="49,15 49,15.824 49,17 9,17 9,15 "/>
<g>
</g>
<g>
</g>
<g>
</g>
<g>
</g>
<g>
</g>
<g>
</g>
<g>
</g>
<g>
</g>
<g>
</g>
<g>
</g>
<g>
</g>
<g>
</g>
<g>
</g>
<g>
</g>
<g>
</g>
</svg>
