<?xml version="1.0" encoding="iso-8859-1"?>
<!-- Generator: Adobe Illustrator 19.0.0, SVG Export Plug-In . SVG Version: 6.00 Build 0)  -->
<svg version="1.1" id="Capa_1" xmlns="http://www.w3.org/2000/svg" xmlns:xlink="http://www.w3.org/1999/xlink" x="0px" y="0px"
	 viewBox="0 0 58 58" style="enable-background:new 0 0 58 58;" xml:space="preserve">
<polygon style="fill:#EDEADA;" points="52,19 38,5 11,5 11,58 52,58 "/>
<polygon style="fill:#C1BCA4;" points="11,5 38,5 47,14 47,0 6,0 6,53 11,53 "/>
<g>
	<path style="fill:#CEC9AE;" d="M19,26h25c0.552,0,1-0.447,1-1s-0.448-1-1-1H19c-0.552,0-1,0.447-1,1S18.448,26,19,26z"/>
	<path style="fill:#CEC9AE;" d="M19,18h10c0.552,0,1-0.447,1-1s-0.448-1-1-1H19c-0.552,0-1,0.447-1,1S18.448,18,19,18z"/>
	<path style="fill:#CEC9AE;" d="M44,32H19c-0.552,0-1,0.447-1,1s0.448,1,1,1h25c0.552,0,1-0.447,1-1S44.552,32,44,32z"/>
	<path style="fill:#CEC9AE;" d="M44,40H19c-0.552,0-1,0.447-1,1s0.448,1,1,1h25c0.552,0,1-0.447,1-1S44.552,40,44,40z"/>
	<path style="fill:#CEC9AE;" d="M44,48H19c-0.552,0-1,0.447-1,1s0.448,1,1,1h25c0.552,0,1-0.447,1-1S44.552,48,44,48z"/>
</g>
<polygon style="fill:#CEC9AE;" points="38,5 38,19 52,19 "/>
<g>
</g>
<g>
</g>
<g>
</g>
<g>
</g>
<g>
</g>
<g>
</g>
<g>
</g>
<g>
</g>
<g>
</g>
<g>
</g>
<g>
</g>
<g>
</g>
<g>
</g>
<g>
</g>
<g>
</g>
</svg>
