<?xml version="1.0" encoding="iso-8859-1"?>
<!-- Generator: Adobe Illustrator 19.0.0, SVG Export Plug-In . SVG Version: 6.00 Build 0)  -->
<svg version="1.1" id="Capa_1" xmlns="http://www.w3.org/2000/svg" xmlns:xlink="http://www.w3.org/1999/xlink" x="0px" y="0px"
	 viewBox="0 0 59 59" style="enable-background:new 0 0 59 59;" xml:space="preserve">
<polygon style="fill:#EDEADA;" points="49,20 34,5 11,5 11,55 49,55 "/>
<circle style="fill:#FFFFFF;stroke:#7383BF;stroke-width:2;stroke-linecap:round;stroke-miterlimit:10;" cx="31.453" cy="37.453" r="10.828"/>
<line style="fill:none;stroke:#7383BF;stroke-width:2;stroke-linecap:round;stroke-miterlimit:10;" x1="39.244" y1="45.244" x2="52" y2="58"/>
<path style="fill:#CEC9AE;" d="M31.625,35h-6c-0.553,0-1-0.447-1-1s0.447-1,1-1h6c0.553,0,1,0.447,1,1S32.178,35,31.625,35z"/>
<path style="fill:#CEC9AE;" d="M37.625,41h-12c-0.553,0-1-0.447-1-1s0.447-1,1-1h12c0.553,0,1,0.447,1,1S38.178,41,37.625,41z"/>
<polygon style="fill:#E2DBBF;" points="11,5 34,5 44,15 44,0 6,0 6,50 11,50 "/>
<path style="fill:#CEC9AE;" d="M48.712,20H34V5.288c0-0.106,0.129-0.16,0.204-0.084l14.592,14.592
	C48.871,19.871,48.818,20,48.712,20z"/>
<g>
</g>
<g>
</g>
<g>
</g>
<g>
</g>
<g>
</g>
<g>
</g>
<g>
</g>
<g>
</g>
<g>
</g>
<g>
</g>
<g>
</g>
<g>
</g>
<g>
</g>
<g>
</g>
<g>
</g>
</svg>
