<?xml version="1.0" encoding="iso-8859-1"?>
<!-- Generator: Adobe Illustrator 19.0.0, SVG Export Plug-In . SVG Version: 6.00 Build 0)  -->
<svg version="1.1" id="Capa_1" xmlns="http://www.w3.org/2000/svg" xmlns:xlink="http://www.w3.org/1999/xlink" x="0px" y="0px"
	 viewBox="0 0 58 58" style="enable-background:new 0 0 58 58;" xml:space="preserve">
<path style="fill:none;stroke:#424A60;stroke-width:2;stroke-linecap:round;stroke-miterlimit:10;" d="M47,47
	c0,5.527,4.473,10,10,10"/>
<path style="fill:#424A60;" d="M28,16c-2.106,0-4.083,0.546-5.804,1.499C22.863,20.086,25.205,22,28,22s5.137-1.914,5.804-4.501
	C32.083,16.546,30.106,16,28,16z"/>
<path style="fill:#424A60;" d="M28,40c2.106,0,4.083-0.546,5.804-1.499C33.137,35.914,30.795,34,28,34s-5.137,1.914-5.804,4.501
	C23.917,39.454,25.894,40,28,40z"/>
<path style="fill:#424A60;" d="M40,28c0-2.106-0.546-4.083-1.499-5.803C35.914,22.863,34,25.205,34,28s1.914,5.137,4.501,5.803
	C39.454,32.083,40,30.106,40,28z"/>
<path style="fill:#424A60;" d="M17.499,22.197C16.546,23.917,16,25.894,16,28s0.546,4.083,1.499,5.803
	C20.086,33.137,22,30.795,22,28S20.086,22.863,17.499,22.197z"/>
<path style="fill:#C7CAC7;" d="M28,0C12.536,0,0,12.536,0,28c0,15.464,12.536,28,28,28s28-12.536,28-28C56,12.536,43.464,0,28,0z
	 M28,10c3.314,0,6,2.686,6,6s-2.686,6-6,6s-6-2.686-6-6S24.686,10,28,10z M16,34c-3.314,0-6-2.686-6-6s2.686-6,6-6s6,2.686,6,6
	S19.314,34,16,34z M28,46c-3.314,0-6-2.686-6-6s2.686-6,6-6s6,2.686,6,6S31.314,46,28,46z M40,34c-3.314,0-6-2.686-6-6s2.686-6,6-6
	s6,2.686,6,6S43.314,34,40,34z"/>
<path style="fill:#E7ECED;" d="M28,4C14.745,4,4,14.745,4,28s10.745,24,24,24s24-10.745,24-24S41.255,4,28,4z M28,10
	c3.314,0,6,2.686,6,6s-2.686,6-6,6s-6-2.686-6-6S24.686,10,28,10z M16,34c-3.314,0-6-2.686-6-6s2.686-6,6-6s6,2.686,6,6
	S19.314,34,16,34z M28,46c-3.314,0-6-2.686-6-6s2.686-6,6-6s6,2.686,6,6S31.314,46,28,46z M40,34c-3.314,0-6-2.686-6-6s2.686-6,6-6
	s6,2.686,6,6S43.314,34,40,34z"/>
<g>
</g>
<g>
</g>
<g>
</g>
<g>
</g>
<g>
</g>
<g>
</g>
<g>
</g>
<g>
</g>
<g>
</g>
<g>
</g>
<g>
</g>
<g>
</g>
<g>
</g>
<g>
</g>
<g>
</g>
</svg>
