<?xml version="1.0" encoding="iso-8859-1"?>
<!-- Generator: Adobe Illustrator 19.0.0, SVG Export Plug-In . SVG Version: 6.00 Build 0)  -->
<svg version="1.1" id="Capa_1" xmlns="http://www.w3.org/2000/svg" xmlns:xlink="http://www.w3.org/1999/xlink" x="0px" y="0px"
	 viewBox="0 0 60 60" style="enable-background:new 0 0 60 60;" xml:space="preserve">
<line style="fill:none;stroke:#659C35;stroke-width:2;stroke-linecap:round;stroke-miterlimit:10;" x1="30.028" y1="1" x2="30.028" y2="11"/>
<line style="fill:none;stroke:#659C35;stroke-width:2;stroke-linecap:round;stroke-miterlimit:10;" x1="30.028" y1="11" x2="34.028" y2="7"/>
<line style="fill:none;stroke:#659C35;stroke-width:2;stroke-linecap:round;stroke-miterlimit:10;" x1="30.028" y1="11" x2="26.028" y2="7"/>
<line style="fill:none;stroke:#659C35;stroke-width:2;stroke-linecap:round;stroke-miterlimit:10;" x1="30.028" y1="59" x2="30.028" y2="49"/>
<line style="fill:none;stroke:#659C35;stroke-width:2;stroke-linecap:round;stroke-miterlimit:10;" x1="30.028" y1="49" x2="26.028" y2="53"/>
<line style="fill:none;stroke:#659C35;stroke-width:2;stroke-linecap:round;stroke-miterlimit:10;" x1="30.028" y1="49" x2="34.028" y2="53"/>
<path style="fill:#E7ECED;" d="M57.972,29.642l-7.234,7.234c-11.517,11.517-30.19,11.517-41.707,0l-7.004-7.004l7.234-7.234
	c11.517-11.517,30.19-11.517,41.707,0L57.972,29.642z"/>
<circle style="fill:#3083C9;" cx="29.67" cy="29.783" r="11.813"/>
<path style="fill:#FFFFFF;" d="M22.857,31c-0.552,0-1-0.448-1-1c0-3.86,3.14-7,7-7c0.552,0,1,0.448,1,1s-0.448,1-1,1
	c-2.757,0-5,2.243-5,5C23.857,30.552,23.41,31,22.857,31z"/>
<g>
</g>
<g>
</g>
<g>
</g>
<g>
</g>
<g>
</g>
<g>
</g>
<g>
</g>
<g>
</g>
<g>
</g>
<g>
</g>
<g>
</g>
<g>
</g>
<g>
</g>
<g>
</g>
<g>
</g>
</svg>
