<?xml version="1.0" encoding="iso-8859-1"?>
<!-- Generator: Adobe Illustrator 19.0.0, SVG Export Plug-In . SVG Version: 6.00 Build 0)  -->
<svg version="1.1" id="Capa_1" xmlns="http://www.w3.org/2000/svg" xmlns:xlink="http://www.w3.org/1999/xlink" x="0px" y="0px"
	 viewBox="0 0 59 59" style="enable-background:new 0 0 59 59;" xml:space="preserve">
<polygon style="fill:#7383BF;" points="25.5,15 20.5,8 0.5,8 0.5,15 0.5,59 58.5,59 58.5,22 30.5,22 "/>
<polygon style="fill:#EBBA16;" points="30.5,22 58.5,22 58.5,15 25.5,15 "/>
<polygon style="fill:#556080;" points="58.5,11 28.5,11 23.5,4 3.5,4 3.5,8 20.5,8 25.5,15 58.5,15 "/>
<polygon style="fill:#424A60;" points="58.5,7 31.5,7 26.5,0 6.5,0 6.5,4 23.5,4 28.5,11 58.5,11 "/>
<rect x="27.5" y="36" style="fill:#EDEADA;" width="26" height="18"/>
<g>
	<rect x="32.5" y="40" style="fill:#CEC9AE;" width="10" height="2"/>
	<rect x="32.5" y="44" style="fill:#CEC9AE;" width="16" height="2"/>
	<rect x="32.5" y="48" style="fill:#CEC9AE;" width="16" height="2"/>
</g>
<g>
</g>
<g>
</g>
<g>
</g>
<g>
</g>
<g>
</g>
<g>
</g>
<g>
</g>
<g>
</g>
<g>
</g>
<g>
</g>
<g>
</g>
<g>
</g>
<g>
</g>
<g>
</g>
<g>
</g>
</svg>
