<?xml version="1.0" encoding="iso-8859-1"?>
<!-- Generator: Adobe Illustrator 19.0.0, SVG Export Plug-In . SVG Version: 6.00 Build 0)  -->
<svg version="1.1" id="Capa_1" xmlns="http://www.w3.org/2000/svg" xmlns:xlink="http://www.w3.org/1999/xlink" x="0px" y="0px"
	 viewBox="0 0 58 58" style="enable-background:new 0 0 58 58;" xml:space="preserve">
<polygon style="fill:#556080;" points="25,10.5 20,3.5 0,3.5 0,10.5 0,54.5 58,54.5 58,17.5 30,17.5 "/>
<polygon style="fill:#3C4451;" points="30,17.5 58,17.5 58,10.5 25,10.5 "/>
<path style="fill:none;stroke:#424A60;stroke-width:2;stroke-linecap:round;stroke-miterlimit:10;" d="M24,35.5v-7
	c0-2.761,2.239-5,5-5h0c2.761,0,5,2.239,5,5v7"/>
<rect x="20" y="33.5" style="fill:#7383BF;" width="18" height="14"/>
<path style="fill:#424A60;" d="M32,39.5c0-1.657-1.343-3-3-3s-3,1.343-3,3c0,1.304,0.837,2.403,2,2.816V44.5c0,0.553,0.447,1,1,1
	s1-0.447,1-1v-2.184C31.163,41.903,32,40.804,32,39.5z"/>
<g>
</g>
<g>
</g>
<g>
</g>
<g>
</g>
<g>
</g>
<g>
</g>
<g>
</g>
<g>
</g>
<g>
</g>
<g>
</g>
<g>
</g>
<g>
</g>
<g>
</g>
<g>
</g>
<g>
</g>
</svg>
