<?xml version="1.0" encoding="iso-8859-1"?>
<!-- Generator: Adobe Illustrator 19.0.0, SVG Export Plug-In . SVG Version: 6.00 Build 0)  -->
<svg version="1.1" id="Capa_1" xmlns="http://www.w3.org/2000/svg" xmlns:xlink="http://www.w3.org/1999/xlink" x="0px" y="0px"
	 viewBox="0 0 57.912 57.912" style="enable-background:new 0 0 57.912 57.912;" xml:space="preserve">
<path style="fill:#F7B563;" d="M52.723,55.956H5.189c-0.134,0-0.248-0.098-0.268-0.23L0.003,23.268
	c-0.025-0.164,0.102-0.312,0.268-0.312h57.37c0.166,0,0.293,0.148,0.268,0.312l-4.918,32.458
	C52.971,55.858,52.857,55.956,52.723,55.956z"/>
<g>
	<path style="fill:#B5885B;" d="M54,22.956V7.724c0-0.424-0.344-0.768-0.768-0.768H22.435c-0.27,0-0.52-0.141-0.658-0.373
		l-2.553-4.255c-0.139-0.231-0.389-0.373-0.658-0.373H4.768C4.344,1.956,4,2.3,4,2.724v20.232H54z"/>
</g>
<rect x="7" y="18.956" style="fill:#FFFFFF;" width="44" height="4"/>
<rect x="8" y="15.956" style="fill:#E7ECED;" width="42" height="3"/>
<rect x="9" y="12.956" style="fill:#C7CAC7;" width="40" height="3"/>
<polygon style="fill:#424A60;" points="2.38,38.956 3.185,44.269 8.498,38.956 "/>
<polygon style="fill:#EFCE4A;" points="11.326,38.956 8.498,38.956 3.185,44.269 3.557,46.725 4.106,50.347 15.498,38.956 "/>
<polygon style="fill:#424A60;" points="18.326,38.956 15.498,38.956 4.106,50.347 4.198,50.956 6.326,50.956 11.498,50.956 
	23.498,38.956 "/>
<polygon style="fill:#EFCE4A;" points="26.326,38.956 23.498,38.956 11.498,50.956 14.326,50.956 19.498,50.956 31.498,38.956 "/>
<polygon style="fill:#424A60;" points="34.326,38.956 31.498,38.956 19.498,50.956 22.326,50.956 27.498,50.956 39.498,38.956 "/>
<polygon style="fill:#EFCE4A;" points="42.326,38.956 39.498,38.956 27.498,50.956 30.326,50.956 35.498,50.956 47.498,38.956 "/>
<polygon style="fill:#424A60;" points="50.326,38.956 47.498,38.956 35.498,50.956 38.326,50.956 43.498,50.956 55.498,38.956 "/>
<polygon style="fill:#EFCE4A;" points="55.498,38.956 43.498,50.956 46.326,50.956 53.713,50.956 55.033,42.249 55.532,38.956 "/>
<g>
</g>
<g>
</g>
<g>
</g>
<g>
</g>
<g>
</g>
<g>
</g>
<g>
</g>
<g>
</g>
<g>
</g>
<g>
</g>
<g>
</g>
<g>
</g>
<g>
</g>
<g>
</g>
<g>
</g>
</svg>
