<?xml version="1.0" encoding="iso-8859-1"?>
<!-- Generator: Adobe Illustrator 19.0.0, SVG Export Plug-In . SVG Version: 6.00 Build 0)  -->
<svg version="1.1" id="Capa_1" xmlns="http://www.w3.org/2000/svg" xmlns:xlink="http://www.w3.org/1999/xlink" x="0px" y="0px"
	 viewBox="0 0 57.912 57.912" style="enable-background:new 0 0 57.912 57.912;" xml:space="preserve">
<path style="fill:#F7B563;" d="M52.723,55.956H5.189c-0.134,0-0.248-0.098-0.268-0.23L0.003,23.268
	c-0.025-0.164,0.102-0.312,0.268-0.312h57.37c0.166,0,0.293,0.148,0.268,0.312l-4.918,32.458
	C52.971,55.858,52.857,55.956,52.723,55.956z"/>
<g>
	<path style="fill:#B5885B;" d="M53.956,22.956V7.724c0-0.424-0.344-0.768-0.768-0.768H22.391c-0.27,0-0.52-0.141-0.658-0.373
		L19.18,2.329c-0.139-0.231-0.389-0.373-0.658-0.373H4.724C4.3,1.956,3.956,2.3,3.956,2.724v20.232H53.956z"/>
</g>
<rect x="7.956" y="15.956" style="fill:#FFFFFF;" width="42" height="7"/>
<g>
</g>
<g>
</g>
<g>
</g>
<g>
</g>
<g>
</g>
<g>
</g>
<g>
</g>
<g>
</g>
<g>
</g>
<g>
</g>
<g>
</g>
<g>
</g>
<g>
</g>
<g>
</g>
<g>
</g>
</svg>
