<?xml version="1.0" encoding="iso-8859-1"?>
<!-- Generator: Adobe Illustrator 19.0.0, SVG Export Plug-In . SVG Version: 6.00 Build 0)  -->
<svg version="1.1" id="Capa_1" xmlns="http://www.w3.org/2000/svg" xmlns:xlink="http://www.w3.org/1999/xlink" x="0px" y="0px"
	 viewBox="0 0 52 52" style="enable-background:new 0 0 52 52;" xml:space="preserve">
<path style="fill:#E7ECED;" d="M40.271,52H11.729C10.222,52,9,50.778,9,49.271V13h34v36.271C43,50.778,41.778,52,40.271,52z"/>
<path style="fill:#C7D0D3;" d="M45,13H7V9.557C7,8.145,8.145,7,9.557,7h32.886C43.855,7,45,8.145,45,9.557V13z"/>
<path style="fill:#FFFFFF;stroke:#556080;stroke-width:2;stroke-linecap:round;stroke-miterlimit:10;" d="M20,7V3c0-1.1,0.9-2,2-2h8
	c1.1,0,2,0.9,2,2v4H20z"/>
<g>
	<circle style="fill:#C7D0D3;" cx="14" cy="21" r="1"/>
	<circle style="fill:#C7D0D3;" cx="14" cy="27" r="1"/>
	<circle style="fill:#C7D0D3;" cx="17" cy="18" r="1"/>
	<circle style="fill:#C7D0D3;" cx="23" cy="18" r="1"/>
	<circle style="fill:#C7D0D3;" cx="17" cy="24" r="1"/>
	<circle style="fill:#C7D0D3;" cx="23" cy="24" r="1"/>
	<circle style="fill:#C7D0D3;" cx="20" cy="21" r="1"/>
	<circle style="fill:#C7D0D3;" cx="26" cy="21" r="1"/>
	<circle style="fill:#C7D0D3;" cx="20" cy="27" r="1"/>
	<circle style="fill:#C7D0D3;" cx="26" cy="27" r="1"/>
	<circle style="fill:#C7D0D3;" cx="29" cy="18" r="1"/>
	<circle style="fill:#C7D0D3;" cx="35" cy="18" r="1"/>
	<circle style="fill:#C7D0D3;" cx="29" cy="24" r="1"/>
	<circle style="fill:#C7D0D3;" cx="35" cy="24" r="1"/>
	<circle style="fill:#C7D0D3;" cx="32" cy="21" r="1"/>
	<circle style="fill:#C7D0D3;" cx="38" cy="21" r="1"/>
	<circle style="fill:#C7D0D3;" cx="32" cy="27" r="1"/>
	<circle style="fill:#C7D0D3;" cx="38" cy="27" r="1"/>
	<circle style="fill:#C7D0D3;" cx="14" cy="33" r="1"/>
	<circle style="fill:#C7D0D3;" cx="14" cy="39" r="1"/>
	<circle style="fill:#C7D0D3;" cx="17" cy="30" r="1"/>
	<circle style="fill:#C7D0D3;" cx="23" cy="30" r="1"/>
	<circle style="fill:#C7D0D3;" cx="17" cy="36" r="1"/>
	<circle style="fill:#C7D0D3;" cx="23" cy="36" r="1"/>
	<circle style="fill:#C7D0D3;" cx="20" cy="33" r="1"/>
	<circle style="fill:#C7D0D3;" cx="26" cy="33" r="1"/>
	<circle style="fill:#C7D0D3;" cx="20" cy="39" r="1"/>
	<circle style="fill:#C7D0D3;" cx="26" cy="39" r="1"/>
	<circle style="fill:#C7D0D3;" cx="29" cy="30" r="1"/>
	<circle style="fill:#C7D0D3;" cx="35" cy="30" r="1"/>
	<circle style="fill:#C7D0D3;" cx="29" cy="36" r="1"/>
	<circle style="fill:#C7D0D3;" cx="35" cy="36" r="1"/>
	<circle style="fill:#C7D0D3;" cx="32" cy="33" r="1"/>
	<circle style="fill:#C7D0D3;" cx="38" cy="33" r="1"/>
	<circle style="fill:#C7D0D3;" cx="32" cy="39" r="1"/>
	<circle style="fill:#C7D0D3;" cx="38" cy="39" r="1"/>
	<circle style="fill:#C7D0D3;" cx="14" cy="45" r="1"/>
	<circle style="fill:#C7D0D3;" cx="17" cy="42" r="1"/>
	<circle style="fill:#C7D0D3;" cx="23" cy="42" r="1"/>
	<circle style="fill:#C7D0D3;" cx="17" cy="48" r="1"/>
	<circle style="fill:#C7D0D3;" cx="23" cy="48" r="1"/>
	<circle style="fill:#C7D0D3;" cx="20" cy="45" r="1"/>
	<circle style="fill:#C7D0D3;" cx="26" cy="45" r="1"/>
	<circle style="fill:#C7D0D3;" cx="29" cy="42" r="1"/>
	<circle style="fill:#C7D0D3;" cx="35" cy="42" r="1"/>
	<circle style="fill:#C7D0D3;" cx="29" cy="48" r="1"/>
	<circle style="fill:#C7D0D3;" cx="35" cy="48" r="1"/>
	<circle style="fill:#C7D0D3;" cx="32" cy="45" r="1"/>
	<circle style="fill:#C7D0D3;" cx="38" cy="45" r="1"/>
</g>
<g>
</g>
<g>
</g>
<g>
</g>
<g>
</g>
<g>
</g>
<g>
</g>
<g>
</g>
<g>
</g>
<g>
</g>
<g>
</g>
<g>
</g>
<g>
</g>
<g>
</g>
<g>
</g>
<g>
</g>
</svg>
