<?xml version="1.0" encoding="iso-8859-1"?>
<!-- Generator: Adobe Illustrator 19.0.0, SVG Export Plug-In . SVG Version: 6.00 Build 0)  -->
<svg version="1.1" id="Capa_1" xmlns="http://www.w3.org/2000/svg" xmlns:xlink="http://www.w3.org/1999/xlink" x="0px" y="0px"
	 viewBox="0 0 57 57" style="enable-background:new 0 0 57 57;" xml:space="preserve">
<rect x="1" y="13.002" style="fill:#CB465F;" width="55" height="12"/>
<rect x="6" y="25.002" style="fill:#EF4D4D;" width="46" height="30"/>
<path style="fill:#EBBA16;" d="M56,12.002H41.741C42.556,10.837,43,9.453,43,7.995c0-1.875-0.726-3.633-2.043-4.95
	c-2.729-2.729-7.17-2.729-9.899,0l-2.829,2.829l-2.828-2.829c-2.729-2.729-7.17-2.729-9.899,0c-1.317,1.317-2.043,3.075-2.043,4.95
	c0,1.458,0.444,2.842,1.259,4.007H1c-0.552,0-1,0.447-1,1s0.448,1,1,1h27v24H6c-0.552,0-1,0.447-1,1s0.448,1,1,1h22v15
	c0,0.553,0.448,1,1,1s1-0.447,1-1v-15h22c0.552,0,1-0.447,1-1s-0.448-1-1-1H30v-24h26c0.552,0,1-0.447,1-1S56.552,12.002,56,12.002z
	 M32.472,4.459c1.95-1.949,5.122-1.949,7.071,0C40.482,5.399,41,6.654,41,7.995c0,1.34-0.518,2.596-1.457,3.535l-0.472,0.472H24.929
	l4.006-4.006l0.001-0.001l0.001-0.001L32.472,4.459z M16.916,11.53c-0.939-0.939-1.457-2.195-1.457-3.535
	c0-1.341,0.518-2.596,1.457-3.536c1.95-1.949,5.122-1.949,7.071,0l2.828,2.829l-3.536,3.536c-0.331,0.331-0.622,0.735-0.898,1.179
	h-4.994L16.916,11.53z"/>
<g>
</g>
<g>
</g>
<g>
</g>
<g>
</g>
<g>
</g>
<g>
</g>
<g>
</g>
<g>
</g>
<g>
</g>
<g>
</g>
<g>
</g>
<g>
</g>
<g>
</g>
<g>
</g>
<g>
</g>
</svg>
