<?xml version="1.0" encoding="iso-8859-1"?>
<!-- Generator: Adobe Illustrator 19.0.0, SVG Export Plug-In . SVG Version: 6.00 Build 0)  -->
<svg version="1.1" id="Capa_1" xmlns="http://www.w3.org/2000/svg" xmlns:xlink="http://www.w3.org/1999/xlink" x="0px" y="0px"
	 viewBox="0 0 56 56" style="enable-background:new 0 0 56 56;" xml:space="preserve">
<g>
	<g>
		<path style="fill:#7383BF;" d="M17.609,3h-0.5c-0.552,0-1-0.447-1-1s0.448-1,1-1h0.5c0.552,0,1,0.447,1,1S18.162,3,17.609,3z"/>
		<path style="fill:#7383BF;" d="M2,14.188c-0.552,0-1-0.447-1-1v-0.977c0-0.553,0.448-1,1-1s1,0.447,1,1v0.977
			C3,13.741,2.552,14.188,2,14.188z M2,9.304c-0.552,0-1-0.447-1-1V7.326c0-0.553,0.448-1,1-1s1,0.447,1,1v0.978
			C3,8.856,2.552,9.304,2,9.304z M2.958,4.639c-0.22,0-0.441-0.072-0.626-0.221C1.901,4.072,1.833,3.442,2.179,3.012
			C2.43,2.699,2.715,2.416,3.025,2.168c0.431-0.344,1.061-0.273,1.405,0.159c0.344,0.432,0.273,1.061-0.159,1.405
			C4.076,3.888,3.896,4.067,3.737,4.266C3.54,4.511,3.25,4.639,2.958,4.639z M13.201,3h-0.977c-0.552,0-1-0.447-1-1s0.448-1,1-1
			h0.977c0.552,0,1,0.447,1,1S13.753,3,13.201,3z M8.316,3H7.339c-0.552,0-1-0.447-1-1s0.448-1,1-1h0.977c0.552,0,1,0.447,1,1
			S8.868,3,8.316,3z"/>
		<path style="fill:#7383BF;" d="M2,18.609c-0.552,0-1-0.447-1-1v-0.5c0-0.553,0.448-1,1-1s1,0.447,1,1v0.5
			C3,18.162,2.552,18.609,2,18.609z"/>
	</g>
	<g>
		<path style="fill:#7383BF;" d="M54,18.609c-0.552,0-1-0.447-1-1v-0.5c0-0.553,0.448-1,1-1s1,0.447,1,1v0.5
			C55,18.162,54.552,18.609,54,18.609z"/>
		<path style="fill:#7383BF;" d="M54,14.201c-0.552,0-1-0.447-1-1v-0.977c0-0.553,0.448-1,1-1s1,0.447,1,1v0.977
			C55,13.754,54.552,14.201,54,14.201z M54,9.316c-0.552,0-1-0.447-1-1V7.339c0-0.553,0.448-1,1-1s1,0.447,1,1v0.978
			C55,8.869,54.552,9.316,54,9.316z M53.05,4.648c-0.294,0-0.585-0.129-0.783-0.377c-0.156-0.196-0.335-0.376-0.532-0.533
			c-0.431-0.346-0.5-0.976-0.154-1.406c0.346-0.431,0.976-0.498,1.406-0.154c0.312,0.251,0.596,0.536,0.845,0.848
			c0.344,0.432,0.273,1.061-0.159,1.405C53.489,4.577,53.269,4.648,53.05,4.648z M48.673,3h-0.977c-0.552,0-1-0.447-1-1s0.448-1,1-1
			h0.977c0.552,0,1,0.447,1,1S49.226,3,48.673,3z M43.789,3h-0.977c-0.552,0-1-0.447-1-1s0.448-1,1-1h0.977c0.552,0,1,0.447,1,1
			S44.341,3,43.789,3z"/>
		<path style="fill:#7383BF;" d="M38.891,3h-0.5c-0.552,0-1-0.447-1-1s0.448-1,1-1h0.5c0.552,0,1,0.447,1,1S39.443,3,38.891,3z"/>
	</g>
	<g>
		<path style="fill:#7383BF;" d="M38.891,55h-0.5c-0.552,0-1-0.447-1-1s0.448-1,1-1h0.5c0.552,0,1,0.447,1,1S39.443,55,38.891,55z"
			/>
		<path style="fill:#7383BF;" d="M48.661,55h-0.977c-0.552,0-1-0.447-1-1s0.448-1,1-1h0.977c0.552,0,1,0.447,1,1
			S49.213,55,48.661,55z M43.776,55h-0.977c-0.552,0-1-0.447-1-1s0.448-1,1-1h0.977c0.552,0,1,0.447,1,1S44.328,55,43.776,55z
			 M52.352,54.05c-0.294,0-0.585-0.129-0.783-0.377c-0.344-0.432-0.273-1.061,0.159-1.405c0.195-0.155,0.375-0.335,0.534-0.533
			c0.346-0.429,0.977-0.497,1.406-0.152c0.431,0.346,0.499,0.976,0.153,1.406c-0.251,0.313-0.536,0.596-0.847,0.844
			C52.791,53.979,52.571,54.05,52.352,54.05z M54,49.674c-0.552,0-1-0.447-1-1v-0.978c0-0.553,0.448-1,1-1s1,0.447,1,1v0.978
			C55,49.227,54.552,49.674,54,49.674z M54,44.788c-0.552,0-1-0.447-1-1v-0.977c0-0.553,0.448-1,1-1s1,0.447,1,1v0.977
			C55,44.341,54.552,44.788,54,44.788z"/>
		<path style="fill:#7383BF;" d="M54,39.891c-0.552,0-1-0.447-1-1v-0.5c0-0.553,0.448-1,1-1s1,0.447,1,1v0.5
			C55,39.443,54.552,39.891,54,39.891z"/>
	</g>
	<g>
		<path style="fill:#7383BF;" d="M2,39.891c-0.552,0-1-0.447-1-1v-0.5c0-0.553,0.448-1,1-1s1,0.447,1,1v0.5
			C3,39.443,2.552,39.891,2,39.891z"/>
		<path style="fill:#7383BF;" d="M13.188,55h-0.977c-0.552,0-1-0.447-1-1s0.448-1,1-1h0.977c0.552,0,1,0.447,1,1
			S13.741,55,13.188,55z M8.304,55H7.327c-0.552,0-1-0.447-1-1s0.448-1,1-1h0.977c0.552,0,1,0.447,1,1S8.856,55,8.304,55z
			 M3.638,54.042c-0.22,0-0.441-0.072-0.625-0.22c-0.312-0.251-0.596-0.536-0.845-0.848c-0.344-0.432-0.273-1.061,0.159-1.405
			c0.431-0.343,1.061-0.273,1.405,0.159c0.156,0.196,0.335,0.376,0.532,0.533c0.431,0.346,0.5,0.976,0.154,1.406
			C4.221,53.914,3.931,54.042,3.638,54.042z M2,49.661c-0.552,0-1-0.447-1-1v-0.978c0-0.553,0.448-1,1-1s1,0.447,1,1v0.978
			C3,49.214,2.552,49.661,2,49.661z M2,44.775c-0.552,0-1-0.447-1-1v-0.977c0-0.553,0.448-1,1-1s1,0.447,1,1v0.977
			C3,44.328,2.552,44.775,2,44.775z"/>
		<path style="fill:#7383BF;" d="M17.609,55h-0.5c-0.552,0-1-0.447-1-1s0.448-1,1-1h0.5c0.552,0,1,0.447,1,1S18.162,55,17.609,55z"
			/>
	</g>
</g>
<path style="fill:#EFCE4A;" d="M28,0C12.536,0,0,12.536,0,28s12.536,28,28,28s28-12.536,28-28S43.464,0,28,0z M28,42.56
	c-8.041,0-14.56-6.519-14.56-14.56S19.959,13.44,28,13.44S42.56,19.959,42.56,28S36.041,42.56,28,42.56z"/>
<g>
	<path style="fill:#ED8A19;" d="M21.392,0.805c-0.134-0.536-0.678-0.86-1.213-0.728c-0.536,0.134-0.861,0.677-0.728,1.212
		l3.261,13.045c0.114,0.455,0.521,0.758,0.969,0.758c0.081,0,0.162-0.01,0.244-0.03c0.536-0.134,0.861-0.677,0.728-1.212
		L21.392,0.805z"/>
	<path style="fill:#ED8A19;" d="M35.821,0.077c-0.533-0.133-1.079,0.191-1.213,0.728L31.347,13.85
		c-0.134,0.535,0.192,1.078,0.728,1.212c0.082,0.021,0.163,0.03,0.244,0.03c0.448,0,0.855-0.303,0.969-0.758l3.261-13.045
		C36.683,0.754,36.357,0.211,35.821,0.077z"/>
	<path style="fill:#ED8A19;" d="M33.288,41.666c-0.134-0.537-0.679-0.858-1.213-0.728c-0.536,0.134-0.861,0.677-0.728,1.212
		l3.261,13.045c0.114,0.455,0.521,0.758,0.969,0.758c0.081,0,0.162-0.01,0.244-0.03c0.536-0.134,0.861-0.677,0.728-1.212
		L33.288,41.666z"/>
	<path style="fill:#ED8A19;" d="M23.925,40.938c-0.535-0.131-1.078,0.19-1.213,0.728l-3.261,13.045
		c-0.134,0.535,0.192,1.078,0.728,1.212c0.082,0.021,0.163,0.03,0.244,0.03c0.448,0,0.855-0.303,0.969-0.758l3.261-13.045
		C24.787,41.615,24.461,41.072,23.925,40.938z"/>
	<path style="fill:#ED8A19;" d="M41.908,24.683c0.081,0,0.162-0.01,0.244-0.03l13.045-3.261c0.536-0.134,0.861-0.677,0.728-1.212
		c-0.134-0.537-0.678-0.863-1.213-0.728l-13.045,3.261c-0.536,0.134-0.861,0.677-0.728,1.212
		C41.052,24.38,41.46,24.683,41.908,24.683z"/>
	<path style="fill:#ED8A19;" d="M55.196,34.608l-13.045-3.261c-0.533-0.133-1.078,0.191-1.213,0.728
		c-0.134,0.535,0.192,1.078,0.728,1.212l13.045,3.261c0.082,0.021,0.163,0.03,0.244,0.03c0.448,0,0.855-0.303,0.969-0.758
		C56.058,35.285,55.732,34.742,55.196,34.608z"/>
	<path style="fill:#ED8A19;" d="M13.849,31.348L0.804,34.608c-0.536,0.134-0.861,0.677-0.728,1.212
		c0.114,0.455,0.521,0.758,0.969,0.758c0.081,0,0.162-0.01,0.244-0.03l13.045-3.261c0.536-0.134,0.861-0.677,0.728-1.212
		C14.927,31.539,14.383,31.215,13.849,31.348z"/>
	<path style="fill:#ED8A19;" d="M14.334,22.713L1.289,19.452c-0.533-0.136-1.079,0.19-1.213,0.728
		c-0.134,0.535,0.192,1.078,0.728,1.212l13.045,3.261c0.082,0.021,0.163,0.03,0.244,0.03c0.448,0,0.855-0.303,0.969-0.758
		C15.195,23.39,14.87,22.847,14.334,22.713z"/>
</g>
<g>
</g>
<g>
</g>
<g>
</g>
<g>
</g>
<g>
</g>
<g>
</g>
<g>
</g>
<g>
</g>
<g>
</g>
<g>
</g>
<g>
</g>
<g>
</g>
<g>
</g>
<g>
</g>
<g>
</g>
</svg>
