<?xml version="1.0" encoding="iso-8859-1"?>
<!-- Generator: Adobe Illustrator 19.0.0, SVG Export Plug-In . SVG Version: 6.00 Build 0)  -->
<svg version="1.1" id="Capa_1" xmlns="http://www.w3.org/2000/svg" xmlns:xlink="http://www.w3.org/1999/xlink" x="0px" y="0px"
	 viewBox="0 0 60 60" style="enable-background:new 0 0 60 60;" xml:space="preserve">
<path style="fill:#E6E6E6;" d="M41.857,22.096C43.82,20.786,45,18.582,45,16.222V5H15v11.222c0,2.36,1.18,4.564,3.143,5.874
	l9.319,6.843C27.8,29.187,28,29.581,28,30l0,0c0,0.419-0.2,0.813-0.537,1.061l-9.319,6.843C16.18,39.214,15,41.418,15,43.778V55h30
	V43.778c0-2.36-1.18-4.564-3.143-5.874l-9.319-6.843C32.2,30.813,32,30.419,32,30l0,0c0-0.419,0.2-0.813,0.537-1.061L41.857,22.096z
	"/>
<rect x="10" y="55" style="fill:#9E6C53;" width="40" height="4"/>
<rect x="10" y="1" style="fill:#9E6C53;" width="40" height="4"/>
<g>
	<path style="fill:#8A5336;" d="M54,58h-4H6c-0.552,0-1,0.447-1,1s0.448,1,1,1h44h4c0.552,0,1-0.447,1-1S54.552,58,54,58z"/>
	<path style="fill:#8A5336;" d="M6,2h44h4c0.552,0,1-0.447,1-1s-0.448-1-1-1h-4H6C5.448,0,5,0.447,5,1S5.448,2,6,2z"/>
</g>
<path style="fill:#EBBA16;" d="M40.192,19.6C41.324,18.845,42,17.582,42,16.223v0c0-1.306-0.889-2.445-2.156-2.762L24.791,9.698
	C21.342,8.835,18,11.444,18,15v1.223c0,1.359,0.676,2.622,1.808,3.377L29,26.346v15.877c0,3.63-3.764,6.036-7.058,4.511l0,0
	c-1.774-0.821-3.922,0.394-3.941,2.349c0,0.014,0,0.027,0,0.041V55h24V43.777c0-0.014,0-0.027,0-0.041
	c-0.019-1.931-1.889-3.322-3.791-2.991l-2.049,0.357C33.466,41.571,31,39.497,31,36.763V26.346L40.192,19.6z"/>
<g>
</g>
<g>
</g>
<g>
</g>
<g>
</g>
<g>
</g>
<g>
</g>
<g>
</g>
<g>
</g>
<g>
</g>
<g>
</g>
<g>
</g>
<g>
</g>
<g>
</g>
<g>
</g>
<g>
</g>
</svg>
