<?xml version="1.0" encoding="iso-8859-1"?>
<!-- Generator: Adobe Illustrator 19.0.0, SVG Export Plug-In . SVG Version: 6.00 Build 0)  -->
<svg version="1.1" id="Capa_1" xmlns="http://www.w3.org/2000/svg" xmlns:xlink="http://www.w3.org/1999/xlink" x="0px" y="0px"
	 viewBox="0 0 58 58" style="enable-background:new 0 0 58 58;" xml:space="preserve">
<g>
	<path style="fill:#7FABDA;" d="M30.5,10h-12c-0.552,0-1,0.447-1,1s0.448,1,1,1h12c0.552,0,1-0.447,1-1S31.052,10,30.5,10z"/>
	<path style="fill:#7FABDA;" d="M18.5,6h12c0.552,0,1-0.447,1-1s-0.448-1-1-1h-12c-0.552,0-1,0.447-1,1S17.948,6,18.5,6z"/>
	<path style="fill:#7FABDA;" d="M30.5,17h-17c-0.552,0-1,0.447-1,1s0.448,1,1,1h17c0.552,0,1-0.447,1-1S31.052,17,30.5,17z"/>
	<path style="fill:#7FABDA;" d="M30.5,24h-22c-0.552,0-1,0.447-1,1s0.448,1,1,1h22c0.552,0,1-0.447,1-1S31.052,24,30.5,24z"/>
	<path style="fill:#7FABDA;" d="M30.5,31h-26c-0.552,0-1,0.447-1,1s0.448,1,1,1h26c0.552,0,1-0.447,1-1S31.052,31,30.5,31z"/>
	<path style="fill:#7FABDA;" d="M30.5,38h-20c-0.552,0-1,0.447-1,1s0.448,1,1,1h20c0.552,0,1-0.447,1-1S31.052,38,30.5,38z"/>
	<path style="fill:#7FABDA;" d="M30.5,45h-14c-0.552,0-1,0.447-1,1s0.448,1,1,1h14c0.552,0,1-0.447,1-1S31.052,45,30.5,45z"/>
	<path style="fill:#7FABDA;" d="M30.5,52h-14c-0.552,0-1,0.447-1,1s0.448,1,1,1h14c0.552,0,1-0.447,1-1S31.052,52,30.5,52z"/>
</g>
<path style="fill:#23A24D;" d="M52.5,0h-24v4h24c1.105,0,2-0.896,2-2S53.605,0,52.5,0z"/>
<path style="fill:#23A24D;" d="M52.5,54h-24v4h24c1.105,0,2-0.896,2-2S53.605,54,52.5,54z"/>
<path style="fill:#7FABDA;" d="M36.872,27.817C42.78,24.351,46.5,17.979,46.5,11V4h-18v50h18v-7c0-6.979-3.72-13.351-9.628-16.817
	C35.972,29.655,35.972,28.345,36.872,27.817z"/>
<g>
</g>
<g>
</g>
<g>
</g>
<g>
</g>
<g>
</g>
<g>
</g>
<g>
</g>
<g>
</g>
<g>
</g>
<g>
</g>
<g>
</g>
<g>
</g>
<g>
</g>
<g>
</g>
<g>
</g>
</svg>
