<?xml version="1.0" encoding="iso-8859-1"?>
<!-- Generator: Adobe Illustrator 19.0.0, SVG Export Plug-In . SVG Version: 6.00 Build 0)  -->
<svg version="1.1" id="Capa_1" xmlns="http://www.w3.org/2000/svg" xmlns:xlink="http://www.w3.org/1999/xlink" x="0px" y="0px"
	 viewBox="0 0 60 60" style="enable-background:new 0 0 60 60;" xml:space="preserve">
<path style="fill:#B02721;" d="M53.792,28.028L30,9.688L6.208,28.028c-1.228,0.946-2.974,0.801-4.028-0.335l0,0
	c-1.195-1.287-1.033-3.32,0.35-4.402l25.43-19.895L30,1.5l2.041,1.896l25.43,19.895c1.383,1.082,1.545,3.115,0.35,4.402l0,0
	C56.766,28.829,55.02,28.974,53.792,28.028z"/>
<path style="fill:#B02721;" d="M53.792,28.028L30,9.688L6.208,28.028c-1.228,0.946-2.974,0.801-4.028-0.335l0,0
	c-1.195-1.287-1.033-3.32,0.35-4.402l25.43-19.895L30,1.5l2.041,1.896l25.43,19.895c1.383,1.082,1.545,3.115,0.35,4.402l0,0
	C56.766,28.829,55.02,28.974,53.792,28.028z"/>
<polygon style="fill:#E0E1E2;" points="30,9.688 7,27.417 7,27.5 7,57.5 53,57.5 53,27.5 53,27.417 "/>
<g>
	<path style="fill:#E0E1E2;" d="M59,47.5c-0.553,0-1,0.448-1,1v1h-1v-1c0-0.552-0.447-1-1-1s-1,0.448-1,1v1h-2c-0.553,0-1,0.448-1,1
		s0.447,1,1,1h2v3h-2c-0.553,0-1,0.448-1,1s0.447,1,1,1h2v1c0,0.552,0.447,1,1,1s1-0.448,1-1v-1h1v1c0,0.552,0.447,1,1,1
		s1-0.448,1-1v-9C60,47.948,59.553,47.5,59,47.5z M57,54.5v-3h1v3H57z"/>
	<path style="fill:#E0E1E2;" d="M7,51.5c0.553,0,1-0.448,1-1s-0.447-1-1-1H5v-1c0-0.552-0.447-1-1-1s-1,0.448-1,1v1H2v-1
		c0-0.552-0.447-1-1-1s-1,0.448-1,1v9c0,0.552,0.447,1,1,1s1-0.448,1-1v-1h1v1c0,0.552,0.447,1,1,1s1-0.448,1-1v-1h2
		c0.553,0,1-0.448,1-1s-0.447-1-1-1H5v-3H7z M3,54.5H2v-3h1V54.5z"/>
</g>
<rect x="15" y="26.5" style="fill:#556080;" width="12" height="8"/>
<rect x="15" y="40.5" style="fill:#556080;" width="12" height="10"/>
<rect x="33" y="26.5" style="fill:#556080;" width="12" height="8"/>
<rect x="33" y="40.5" style="fill:#556080;" width="12" height="17"/>
<rect x="33" y="26.5" style="fill:#7383BF;" width="12" height="6"/>
<rect x="15" y="26.5" style="fill:#7383BF;" width="12" height="2.765"/>
<polygon style="fill:#7383BF;" points="22,44.5 22,40.5 20,40.5 20,44.5 15,44.5 15,46.5 20,46.5 20,50.5 22,50.5 22,46.5 27,46.5 
	27,44.5 "/>
<g>
</g>
<g>
</g>
<g>
</g>
<g>
</g>
<g>
</g>
<g>
</g>
<g>
</g>
<g>
</g>
<g>
</g>
<g>
</g>
<g>
</g>
<g>
</g>
<g>
</g>
<g>
</g>
<g>
</g>
</svg>
