<?xml version="1.0" encoding="iso-8859-1"?>
<!-- Generator: Adobe Illustrator 19.0.0, SVG Export Plug-In . SVG Version: 6.00 Build 0)  -->
<svg version="1.1" id="Capa_1" xmlns="http://www.w3.org/2000/svg" xmlns:xlink="http://www.w3.org/1999/xlink" x="0px" y="0px"
	 viewBox="0 0 59 59" style="enable-background:new 0 0 59 59;" xml:space="preserve">
<line style="fill:none;stroke:#424A60;stroke-width:2;stroke-linecap:round;stroke-miterlimit:10;" x1="32.5" y1="5" x2="35.5" y2="1"/>
<path style="fill:#E7ECED;" d="M46.5,5h-34c-1.1,0-2,0.9-2,2v50c0,1.1,0.9,2,2,2h34c1.1,0,2-0.9,2-2V7C48.5,5.9,47.6,5,46.5,5z
	 M29.5,14c-1.657,0-3-1.343-3-3s1.343-3,3-3s3,1.343,3,3S31.157,14,29.5,14z"/>
<line style="fill:none;stroke:#424A60;stroke-width:2;stroke-linecap:round;stroke-miterlimit:10;" x1="24.5" y1="1" x2="29.5" y2="11"/>
<rect x="20.5" y="18" style="fill:#EFCE4A;" width="18" height="18"/>
<path style="fill:#424A60;" d="M39.5,43h-20c-0.553,0-1-0.447-1-1s0.447-1,1-1h20c0.553,0,1,0.447,1,1S40.053,43,39.5,43z"/>
<path style="fill:#424A60;" d="M39.5,48h-20c-0.553,0-1-0.447-1-1s0.447-1,1-1h20c0.553,0,1,0.447,1,1S40.053,48,39.5,48z"/>
<path style="fill:#424A60;" d="M39.5,53h-20c-0.553,0-1-0.447-1-1s0.447-1,1-1h20c0.553,0,1,0.447,1,1S40.053,53,39.5,53z"/>
<g>
	<circle style="fill:#DC691D;" cx="29.5" cy="26" r="4"/>
	<path style="fill:#DC691D;" d="M29.5,30c-2.761,0-5,2.239-5,5v1h10v-1C34.5,32.239,32.261,30,29.5,30z"/>
</g>
<g>
</g>
<g>
</g>
<g>
</g>
<g>
</g>
<g>
</g>
<g>
</g>
<g>
</g>
<g>
</g>
<g>
</g>
<g>
</g>
<g>
</g>
<g>
</g>
<g>
</g>
<g>
</g>
<g>
</g>
</svg>
