<?xml version="1.0" encoding="iso-8859-1"?>
<!-- Generator: Adobe Illustrator 19.0.0, SVG Export Plug-In . SVG Version: 6.00 Build 0)  -->
<svg version="1.1" id="Capa_1" xmlns="http://www.w3.org/2000/svg" xmlns:xlink="http://www.w3.org/1999/xlink" x="0px" y="0px"
	 viewBox="0 0 58 58" style="enable-background:new 0 0 58 58;" xml:space="preserve">
<path style="fill:#E7ECED;" d="M35,14v4.687C35,19.412,34.412,20,33.687,20h-9.375C23.588,20,23,19.412,23,18.687V14H3.678
	C1.647,14,0,15.647,0,17.678v32.644C0,52.353,1.647,54,3.678,54h50.644C56.353,54,58,52.353,58,50.322V17.678
	C58,15.647,56.353,14,54.322,14H35z"/>
<path style="fill:#424A60;" d="M33.687,4h-9.375C23.588,4,23,4.588,23,5.313v13.375C23,19.412,23.588,20,24.313,20h9.375
	C34.412,20,35,19.412,35,18.687V5.313C35,4.588,34.412,4,33.687,4z M29,13c-1.657,0-3-1.343-3-3s1.343-3,3-3s3,1.343,3,3
	S30.657,13,29,13z"/>
<path style="fill:#26B99A;" d="M22.186,42.156l-3.767-1.924C18.162,40.1,18,39.836,18,39.547v-1.153
	c1.933-0.833,3.044-2.451,3.585-4.475C22.4,33.666,23,32.912,23,32.017v-1c0-0.766-0.441-1.427-1.078-1.763
	c-0.441-3.761-2.927-5.283-6.922-5.283c-0.189,0-0.375,0.007-0.557,0.022c-1.358,0.108-2.732-0.147-3.862-0.909
	c-0.47-0.316-0.865-0.653-1.143-1.006c-0.127-0.161-0.38-0.058-0.357,0.145c0.04,0.35,0.1,0.758,0.188,1.204
	c0.33,1.66,0.133,1.418-0.509,2.984c-0.355,0.866-0.584,1.827-0.69,2.845C7.438,29.595,7,30.254,7,31.017v1
	c0,0.895,0.6,1.649,1.415,1.902c0.541,2.023,1.651,3.642,3.585,4.475v1.145c0,0.293-0.166,0.56-0.429,0.69L7.71,42.13
	C6.656,42.705,6,43.81,6,45.01v0.916c0,0,0,0.269,0,0.409c0,1.13,4.029,1.682,9,1.682s9-0.552,9-1.682c0-0.14,0-0.409,0-0.409
	v-0.836C24,43.848,23.298,42.712,22.186,42.156z"/>
<g>
	<path style="fill:#AFB6BB;" d="M51.29,43.29C51.109,43.479,51,43.74,51,44s0.1,0.52,0.29,0.71C51.479,44.89,51.74,45,52,45
		s0.52-0.11,0.71-0.29C52.89,44.52,53,44.26,53,44s-0.11-0.521-0.29-0.71C52.34,42.93,51.67,42.92,51.29,43.29z"/>
	<path style="fill:#AFB6BB;" d="M30,28.018h10c0.553,0,1-0.447,1-1s-0.447-1-1-1H30c-0.553,0-1,0.447-1,1S29.447,28.018,30,28.018z"
		/>
	<path style="fill:#AFB6BB;" d="M31,43.018h-1c-0.553,0-1,0.447-1,1s0.447,1,1,1h1c0.553,0,1-0.447,1-1S31.553,43.018,31,43.018z"/>
	<path style="fill:#AFB6BB;" d="M37,43.018h-2c-0.553,0-1,0.447-1,1s0.447,1,1,1h2c0.553,0,1-0.447,1-1S37.553,43.018,37,43.018z"/>
	<path style="fill:#AFB6BB;" d="M42,43.018h-1c-0.553,0-1,0.447-1,1s0.447,1,1,1h1c0.553,0,1-0.447,1-1S42.553,43.018,42,43.018z"/>
	<path style="fill:#AFB6BB;" d="M48,43.018h-2c-0.553,0-1,0.447-1,1s0.447,1,1,1h2c0.553,0,1-0.447,1-1S48.553,43.018,48,43.018z"/>
	<path style="fill:#AFB6BB;" d="M30,34.018h22c0.553,0,1-0.447,1-1s-0.447-1-1-1H30c-0.553,0-1,0.447-1,1S29.447,34.018,30,34.018z"
		/>
	<path style="fill:#AFB6BB;" d="M52,38.018H30c-0.553,0-1,0.447-1,1s0.447,1,1,1h22c0.553,0,1-0.447,1-1S52.553,38.018,52,38.018z"
		/>
</g>
<g>
</g>
<g>
</g>
<g>
</g>
<g>
</g>
<g>
</g>
<g>
</g>
<g>
</g>
<g>
</g>
<g>
</g>
<g>
</g>
<g>
</g>
<g>
</g>
<g>
</g>
<g>
</g>
<g>
</g>
</svg>
