<?xml version="1.0" encoding="iso-8859-1"?>
<!-- Generator: Adobe Illustrator 19.0.0, SVG Export Plug-In . SVG Version: 6.00 Build 0)  -->
<svg version="1.1" id="Capa_1" xmlns="http://www.w3.org/2000/svg" xmlns:xlink="http://www.w3.org/1999/xlink" x="0px" y="0px"
	 viewBox="0 0 59 59" style="enable-background:new 0 0 59 59;" xml:space="preserve">
<path style="fill:#424A60;" d="M31.499,7c-0.219,0-0.44-0.071-0.624-0.219c-0.432-0.346-0.501-0.975-0.156-1.406l4-5
	c0.345-0.43,0.976-0.501,1.405-0.156c0.432,0.346,0.501,0.975,0.156,1.406l-4,5C32.083,6.871,31.792,7,31.499,7z"/>
<path style="fill:#E7ECED;" d="M46.5,5h-34c-1.1,0-2,0.9-2,2v50c0,1.1,0.9,2,2,2h34c1.1,0,2-0.9,2-2V7C48.5,5.9,47.6,5,46.5,5z
	 M29.5,14c-1.657,0-3-1.343-3-3s1.343-3,3-3s3,1.343,3,3S31.157,14,29.5,14z"/>
<circle style="fill:#424A60;" cx="29.5" cy="36" r="12"/>
<path style="fill:#7383BF;" d="M33.284,41.261c0.748-0.874,1.216-1.994,1.216-3.234V34c0-2.761-2.239-5-5-5s-5,2.239-5,5v4.027
	c0,1.24,0.468,2.36,1.216,3.234l-5.803,1.934C22.102,46.108,25.576,48,29.5,48s7.398-1.892,9.587-4.804L33.284,41.261z"/>
<path style="fill:#424A60;" d="M29.501,12c-0.367,0-0.72-0.202-0.896-0.553l-5-10c-0.247-0.494-0.047-1.095,0.447-1.342
	c0.496-0.245,1.095-0.047,1.342,0.447l5,10c0.247,0.494,0.047,1.095-0.447,1.342C29.804,11.966,29.651,12,29.501,12z"/>
<g>
	<circle style="fill:#424A60;" cx="29.5" cy="19" r="1"/>
	<circle style="fill:#424A60;" cx="33.3" cy="19" r="1"/>
	<circle style="fill:#424A60;" cx="25.7" cy="19" r="1"/>
	<circle style="fill:#424A60;" cx="18.099" cy="19" r="1"/>
	<circle style="fill:#424A60;" cx="14.3" cy="19" r="1"/>
	<circle style="fill:#424A60;" cx="44.7" cy="19" r="1"/>
	<circle style="fill:#424A60;" cx="37.099" cy="19" r="1"/>
	<circle style="fill:#424A60;" cx="40.9" cy="19" r="1"/>
	<circle style="fill:#424A60;" cx="21.9" cy="19" r="1"/>
	<circle style="fill:#424A60;" cx="21.9" cy="54" r="1"/>
	<circle style="fill:#424A60;" cx="18.099" cy="54" r="1"/>
	<circle style="fill:#424A60;" cx="14.3" cy="54" r="1"/>
	<circle style="fill:#424A60;" cx="37.099" cy="54" r="1"/>
	<circle style="fill:#424A60;" cx="40.9" cy="54" r="1"/>
	<circle style="fill:#424A60;" cx="44.7" cy="54" r="1"/>
	<circle style="fill:#424A60;" cx="29.5" cy="54" r="1"/>
	<circle style="fill:#424A60;" cx="33.3" cy="54" r="1"/>
	<circle style="fill:#424A60;" cx="25.7" cy="54" r="1"/>
</g>
<g>
</g>
<g>
</g>
<g>
</g>
<g>
</g>
<g>
</g>
<g>
</g>
<g>
</g>
<g>
</g>
<g>
</g>
<g>
</g>
<g>
</g>
<g>
</g>
<g>
</g>
<g>
</g>
<g>
</g>
</svg>
