<?xml version="1.0" encoding="iso-8859-1"?>
<!-- Generator: Adobe Illustrator 19.0.0, SVG Export Plug-In . SVG Version: 6.00 Build 0)  -->
<svg version="1.1" id="Capa_1" xmlns="http://www.w3.org/2000/svg" xmlns:xlink="http://www.w3.org/1999/xlink" x="0px" y="0px"
	 viewBox="0 0 54.451 54.451" style="enable-background:new 0 0 54.451 54.451;" xml:space="preserve">
<path style="fill:#E7ECED;" d="M34.944,20.083l5.119,5.119l-17.017-0.046L23,8.14l5.119,5.119
	c5.444-5.782,10.483-5.951,10.483-5.951C41.456,7.046,43.914,7.445,46,8.151V4.226H0v46h46V13.611
	C38.281,14.631,34.944,20.083,34.944,20.083z"/>
<path style="fill:#ED8A19;" d="M28.119,13.258L23,8.14l0.046,17.017l17.017,0.046l-5.119-5.119c0,0,5.712-9.359,19.507-5.857
	c0,0-5.318-7.884-15.849-6.919C38.602,7.307,33.562,7.477,28.119,13.258z"/>
<g>
</g>
<g>
</g>
<g>
</g>
<g>
</g>
<g>
</g>
<g>
</g>
<g>
</g>
<g>
</g>
<g>
</g>
<g>
</g>
<g>
</g>
<g>
</g>
<g>
</g>
<g>
</g>
<g>
</g>
</svg>
