<?xml version="1.0" encoding="iso-8859-1"?>
<!-- Generator: Adobe Illustrator 19.0.0, SVG Export Plug-In . SVG Version: 6.00 Build 0)  -->
<svg version="1.1" id="Capa_1" xmlns="http://www.w3.org/2000/svg" xmlns:xlink="http://www.w3.org/1999/xlink" x="0px" y="0px"
	 viewBox="0 0 58 58" style="enable-background:new 0 0 58 58;" xml:space="preserve">
<circle style="fill:#7383BF;stroke:#556080;stroke-width:2;stroke-linecap:round;stroke-miterlimit:10;" cx="29" cy="29" r="28"/>
<line style="fill:none;stroke:#556080;stroke-width:2;stroke-linecap:round;stroke-miterlimit:10;" x1="29" y1="57" x2="29" y2="1"/>
<path style="fill:none;stroke:#556080;stroke-width:2;stroke-linecap:round;stroke-miterlimit:10;" d="M29,1
	c-0.214,0-0.426,0.011-0.639,0.016C20.213,7.616,15,17.697,15,29s5.213,21.384,13.361,27.984C28.574,56.989,28.786,57,29,57"/>
<path style="fill:none;stroke:#556080;stroke-width:2;stroke-linecap:round;stroke-miterlimit:10;" d="M8.698,9.728
	C14.478,13.683,21.468,16,29,16s14.522-2.317,20.302-6.272"/>
<path style="fill:none;stroke:#556080;stroke-width:2;stroke-linecap:round;stroke-miterlimit:10;" d="M49.862,47.67
	C43.975,43.475,36.779,41,29,41s-14.975,2.475-20.862,6.67"/>
<path style="fill:none;stroke:#556080;stroke-width:2;stroke-linecap:round;stroke-miterlimit:10;" d="M29,57
	c0.214,0,0.426-0.011,0.639-0.016C37.787,50.384,43,40.303,43,29S37.787,7.616,29.639,1.016C29.426,1.011,29.214,1,29,1"/>
<line style="fill:none;stroke:#556080;stroke-width:2;stroke-linecap:round;stroke-miterlimit:10;" x1="1" y1="29" x2="57" y2="29"/>
<g>
</g>
<g>
</g>
<g>
</g>
<g>
</g>
<g>
</g>
<g>
</g>
<g>
</g>
<g>
</g>
<g>
</g>
<g>
</g>
<g>
</g>
<g>
</g>
<g>
</g>
<g>
</g>
<g>
</g>
</svg>
