<?xml version="1.0" encoding="iso-8859-1"?>
<!-- Generator: Adobe Illustrator 19.0.0, SVG Export Plug-In . SVG Version: 6.00 Build 0)  -->
<svg version="1.1" id="Capa_1" xmlns="http://www.w3.org/2000/svg" xmlns:xlink="http://www.w3.org/1999/xlink" x="0px" y="0px"
	 viewBox="0 0 58 58" style="enable-background:new 0 0 58 58;" xml:space="preserve">
<path style="fill:#D8A852;" d="M41,0c-9.374,0-17,7.626-17,17c0,3.195,0.902,6.175,2.441,8.731L0.586,51.586
	c-0.781,0.781-0.781,2.047,0,2.828C0.977,54.805,1.488,55,2,55s1.023-0.195,1.414-0.586L7,50.828l6.586,6.586
	C13.977,57.805,14.488,58,15,58s1.023-0.195,1.414-0.586c0.781-0.781,0.781-2.047,0-2.828L9.828,48L12,45.828l4.586,4.586
	C16.977,50.805,17.488,51,18,51s1.023-0.195,1.414-0.586c0.781-0.781,0.781-2.047,0-2.828L14.828,43L17,40.828l6.586,6.586
	C23.977,47.805,24.488,48,25,48s1.023-0.195,1.414-0.586c0.781-0.781,0.781-2.047,0-2.828L19.828,38l9.075-9.075
	C31.988,32.054,36.269,34,41,34c9.374,0,17-7.626,17-17S50.374,0,41,0z M41,30c-7.168,0-13-5.832-13-13S33.832,4,41,4
	s13,5.832,13,13S48.168,30,41,30z"/>
<g>
</g>
<g>
</g>
<g>
</g>
<g>
</g>
<g>
</g>
<g>
</g>
<g>
</g>
<g>
</g>
<g>
</g>
<g>
</g>
<g>
</g>
<g>
</g>
<g>
</g>
<g>
</g>
<g>
</g>
</svg>
