<?xml version="1.0" encoding="iso-8859-1"?>
<!-- Generator: Adobe Illustrator 19.0.0, SVG Export Plug-In . SVG Version: 6.00 Build 0)  -->
<svg version="1.1" id="Capa_1" xmlns="http://www.w3.org/2000/svg" xmlns:xlink="http://www.w3.org/1999/xlink" x="0px" y="0px"
	 viewBox="0 0 56 56" style="enable-background:new 0 0 56 56;" xml:space="preserve">
<rect x="1.5" y="20" style="fill:#4B6DAA;" width="14" height="36"/>
<circle style="fill:#D8A852;" cx="8.5" cy="47" r="4"/>
<path style="fill:#FBCE9D;" d="M53.5,26c0-2.209-1.791-4-4-4h-9h-3h-3.602l0.988-4.619c0.754-3.524,0.552-7.819,0.104-10.836
	C34.542,3.528,31.84,0,29.013,0h-0.239C26.364,0,25.5,2.659,25.5,6c0,16.25-8,16-8,16h-2v32h15h10h4c2.209,0,4-1.791,4-4
	c0-2.209-1.791-4-4-4h3c2.209,0,4-1.791,4-4c0-2.209-1.791-4-4-4h3c2.209,0,4-1.791,4-4c0-2.493-1.613-3.442-4-3.796
	C49.337,30.031,47.224,30,46.5,30h3C51.709,30,53.5,28.209,53.5,26z"/>
<path style="fill:#F7B563;" d="M52.12,29H39.5c-0.552,0-1,0.447-1,1s0.448,1,1,1h13.456c-0.657-0.403-1.488-0.653-2.456-0.796
	C49.337,30.031,47.224,30,46.5,30h3C50.508,30,51.417,29.615,52.12,29z"/>
<path style="fill:#F7B563;" d="M53.12,37H39.5c-0.552,0-1,0.447-1,1s0.448,1,1,1h10.621c-0.703-0.615-1.613-1-2.621-1h3
	C51.508,38,52.417,37.615,53.12,37z"/>
<path style="fill:#F7B563;" d="M50.12,45H37.5c-0.552,0-1,0.447-1,1s0.448,1,1,1h9.621c-0.703-0.615-1.613-1-2.621-1h3
	C48.508,46,49.417,45.615,50.12,45z"/>
<g>
</g>
<g>
</g>
<g>
</g>
<g>
</g>
<g>
</g>
<g>
</g>
<g>
</g>
<g>
</g>
<g>
</g>
<g>
</g>
<g>
</g>
<g>
</g>
<g>
</g>
<g>
</g>
<g>
</g>
</svg>
