<?xml version="1.0" encoding="iso-8859-1"?>
<!-- Generator: Adobe Illustrator 19.0.0, SVG Export Plug-In . SVG Version: 6.00 Build 0)  -->
<svg version="1.1" id="Capa_1" xmlns="http://www.w3.org/2000/svg" xmlns:xlink="http://www.w3.org/1999/xlink" x="0px" y="0px"
	 viewBox="0 0 57.654 57.654" style="enable-background:new 0 0 57.654 57.654;" xml:space="preserve">
<path style="fill:none;stroke:#25AE88;stroke-width:2;stroke-linecap:round;stroke-miterlimit:10;" d="M28.827,28.827L28.827,28.827
	c-4.276-4.276-4.276-11.273,0-15.55l9.071-9.071c4.276-4.276,11.273-4.276,15.549,0l0,0c4.276,4.276,4.276,11.273,0,15.549
	l-9.071,9.071C40.101,33.103,33.103,33.103,28.827,28.827z"/>
<path style="fill:none;stroke:#25AE88;stroke-width:2;stroke-linecap:round;stroke-miterlimit:10;" d="M4.207,53.447L4.207,53.447
	c-4.276-4.276-4.276-11.273,0-15.55l9.071-9.071c4.276-4.276,11.273-4.276,15.549,0l0,0c4.276,4.276,4.276,11.273,0,15.549
	l-9.071,9.071C15.48,57.723,8.483,57.723,4.207,53.447z"/>
<line style="fill:none;stroke:#25AE88;stroke-width:2;stroke-linecap:round;stroke-miterlimit:10;" x1="38.158" y1="19.496" x2="19.496" y2="38.158"/>
<path style="fill:none;stroke:#25AE88;stroke-width:2;stroke-linecap:round;stroke-miterlimit:10;" d="M28.827,28.827L28.827,28.827
	c-4.276-4.276-4.276-11.273,0-15.55l9.071-9.071c4.276-4.276,11.273-4.276,15.549,0l0,0c4.276,4.276,4.276,11.273,0,15.549
	l-9.071,9.071C40.101,33.103,33.103,33.103,28.827,28.827z"/>
<path style="fill:none;stroke:#25AE88;stroke-width:2;stroke-linecap:round;stroke-miterlimit:10;" d="M4.207,53.447L4.207,53.447
	c-4.276-4.276-4.276-11.273,0-15.55l9.071-9.071c4.276-4.276,11.273-4.276,15.549,0l0,0c4.276,4.276,4.276,11.273,0,15.549
	l-9.071,9.071C15.48,57.723,8.483,57.723,4.207,53.447z"/>
<line style="fill:none;stroke:#25AE88;stroke-width:2;stroke-linecap:round;stroke-miterlimit:10;" x1="38.158" y1="19.496" x2="19.496" y2="38.158"/>
<g>
</g>
<g>
</g>
<g>
</g>
<g>
</g>
<g>
</g>
<g>
</g>
<g>
</g>
<g>
</g>
<g>
</g>
<g>
</g>
<g>
</g>
<g>
</g>
<g>
</g>
<g>
</g>
<g>
</g>
</svg>
