<?xml version="1.0" encoding="iso-8859-1"?>
<!-- Generator: Adobe Illustrator 19.0.0, SVG Export Plug-In . SVG Version: 6.00 Build 0)  -->
<svg version="1.1" id="Capa_1" xmlns="http://www.w3.org/2000/svg" xmlns:xlink="http://www.w3.org/1999/xlink" x="0px" y="0px"
	 viewBox="0 0 58 58" style="enable-background:new 0 0 58 58;" xml:space="preserve">
<path style="fill:#C7CAC7;stroke:#C7CAC7;stroke-width:2;stroke-miterlimit:10;" d="M40,28c-1.104,0-2-0.896-2-2V13.601
	C38,8.858,33.738,5,28.5,5S19,8.858,19,13.601v3.22c0,1.104-0.896,2-2,2s-2-0.896-2-2v-3.22C15,6.652,21.056,1,28.5,1
	S42,6.652,42,13.601V26C42,27.104,41.104,28,40,28z"/>
<rect x="8" y="26" style="fill:#7383BF;" width="42" height="32"/>
<rect x="29" y="26" style="fill:#6879AF;" width="21" height="32"/>
<polygon style="fill:#EBBA16;" points="42.586,57 49,50.586 49,47 43.414,47 33.414,57 "/>
<polygon style="fill:#4F5970;" points="9,47 9,54.586 16.586,47 "/>
<polygon style="fill:#424A60;" points="30.586,57 40.586,47 31.414,47 21.414,57 "/>
<path style="fill:#EACC18;" d="M28.586,47h-9.172l-9.707,9.707C9.512,56.902,9.256,57,9,57h9.586L28.586,47z"/>
<polygon style="fill:#424A60;" points="49,57 49,53.414 45.414,57 "/>
<polygon style="fill:#4F5970;" points="29,49.414 21.414,57 29,57 "/>
<g>
</g>
<g>
</g>
<g>
</g>
<g>
</g>
<g>
</g>
<g>
</g>
<g>
</g>
<g>
</g>
<g>
</g>
<g>
</g>
<g>
</g>
<g>
</g>
<g>
</g>
<g>
</g>
<g>
</g>
</svg>
