<?xml version="1.0" encoding="iso-8859-1"?>
<!-- Generator: Adobe Illustrator 19.0.0, SVG Export Plug-In . SVG Version: 6.00 Build 0)  -->
<svg version="1.1" id="Capa_1" xmlns="http://www.w3.org/2000/svg" xmlns:xlink="http://www.w3.org/1999/xlink" x="0px" y="0px"
	 viewBox="0 0 60 60" style="enable-background:new 0 0 60 60;" xml:space="preserve">
<path style="fill:none;stroke:#949493;stroke-width:2;stroke-linecap:round;stroke-miterlimit:10;" d="M25,15v-1
	c0-2.761,2.239-5,5-5h0c2.761,0,5,2.239,5,5v8"/>
<path style="fill:none;stroke:#38454F;stroke-width:2;stroke-linecap:round;stroke-linejoin:round;stroke-miterlimit:10;" d="M30,53
	C15.641,53,4,41.359,4,27S15.641,1,30,1s26,11.641,26,26c0,7.135-2.874,13.599-7.528,18.297"/>
<line style="fill:none;stroke:#38454F;stroke-width:2;stroke-linecap:round;stroke-linejoin:round;stroke-miterlimit:10;" x1="30" y1="53" x2="24" y2="59"/>
<line style="fill:none;stroke:#38454F;stroke-width:2;stroke-linecap:round;stroke-linejoin:round;stroke-miterlimit:10;" x1="30" y1="53" x2="24" y2="47"/>
<rect x="20" y="22" style="fill:#EB7937;" width="20" height="17"/>
<path style="fill:#FFFFFF;" d="M33,29c0-1.657-1.343-3-3-3s-3,1.343-3,3c0,1.317,0.854,2.424,2.035,2.827
	C29.024,31.885,29,31.939,29,32v3c0,0.553,0.448,1,1,1s1-0.447,1-1v-3c0-0.061-0.024-0.115-0.035-0.173
	C32.146,31.424,33,30.317,33,29z"/>
<g>
</g>
<g>
</g>
<g>
</g>
<g>
</g>
<g>
</g>
<g>
</g>
<g>
</g>
<g>
</g>
<g>
</g>
<g>
</g>
<g>
</g>
<g>
</g>
<g>
</g>
<g>
</g>
<g>
</g>
</svg>
