<?xml version="1.0" encoding="iso-8859-1"?>
<!-- Generator: Adobe Illustrator 19.0.0, SVG Export Plug-In . SVG Version: 6.00 Build 0)  -->
<svg version="1.1" id="Capa_1" xmlns="http://www.w3.org/2000/svg" xmlns:xlink="http://www.w3.org/1999/xlink" x="0px" y="0px"
	 viewBox="0 0 59 59" style="enable-background:new 0 0 59 59;" xml:space="preserve">
<path style="fill:#424A60;" d="M46,41.5H26c-6.627,0-12-5.373-12-12v0c0-6.627,5.373-12,12-12h20v-14H26c-14.359,0-26,11.641-26,26
	v0c0,14.359,11.641,26,26,26h20V41.5z"/>
<g>
	<path style="fill:#C7CAC7;" d="M53,7.5h1c0.552,0,1-0.447,1-1s-0.448-1-1-1h-1c-0.552,0-1,0.447-1,1S52.448,7.5,53,7.5z"/>
	<path style="fill:#C7CAC7;" d="M49,7.5h1c0.552,0,1-0.447,1-1s-0.448-1-1-1h-1c-0.552,0-1,0.447-1,1S48.448,7.5,49,7.5z"/>
	<path style="fill:#C7CAC7;" d="M57,7.5h1c0.552,0,1-0.447,1-1s-0.448-1-1-1h-1c-0.552,0-1,0.447-1,1S56.448,7.5,57,7.5z"/>
	<path style="fill:#C7CAC7;" d="M54,13.5h-1c-0.552,0-1,0.447-1,1s0.448,1,1,1h1c0.552,0,1-0.447,1-1S54.552,13.5,54,13.5z"/>
	<path style="fill:#C7CAC7;" d="M49,15.5h1c0.552,0,1-0.447,1-1s-0.448-1-1-1h-1c-0.552,0-1,0.447-1,1S48.448,15.5,49,15.5z"/>
	<path style="fill:#C7CAC7;" d="M58,13.5h-1c-0.552,0-1,0.447-1,1s0.448,1,1,1h1c0.552,0,1-0.447,1-1S58.552,13.5,58,13.5z"/>
	<path style="fill:#C7CAC7;" d="M50,10.5c0,0.553,0.448,1,1,1h1c0.552,0,1-0.447,1-1s-0.448-1-1-1h-1C50.448,9.5,50,9.947,50,10.5z"
		/>
	<path style="fill:#C7CAC7;" d="M54,10.5c0,0.553,0.448,1,1,1h1c0.552,0,1-0.447,1-1s-0.448-1-1-1h-1C54.448,9.5,54,9.947,54,10.5z"
		/>
	<path style="fill:#C7CAC7;" d="M54,44.5h-1c-0.552,0-1,0.447-1,1s0.448,1,1,1h1c0.552,0,1-0.447,1-1S54.552,44.5,54,44.5z"/>
	<path style="fill:#C7CAC7;" d="M49,46.5h1c0.552,0,1-0.447,1-1s-0.448-1-1-1h-1c-0.552,0-1,0.447-1,1S48.448,46.5,49,46.5z"/>
	<path style="fill:#C7CAC7;" d="M58,44.5h-1c-0.552,0-1,0.447-1,1s0.448,1,1,1h1c0.552,0,1-0.447,1-1S58.552,44.5,58,44.5z"/>
	<path style="fill:#C7CAC7;" d="M54,52.5h-1c-0.552,0-1,0.447-1,1s0.448,1,1,1h1c0.552,0,1-0.447,1-1S54.552,52.5,54,52.5z"/>
	<path style="fill:#C7CAC7;" d="M50,52.5h-1c-0.552,0-1,0.447-1,1s0.448,1,1,1h1c0.552,0,1-0.447,1-1S50.552,52.5,50,52.5z"/>
	<path style="fill:#C7CAC7;" d="M58,52.5h-1c-0.552,0-1,0.447-1,1s0.448,1,1,1h1c0.552,0,1-0.447,1-1S58.552,52.5,58,52.5z"/>
	<path style="fill:#C7CAC7;" d="M53,49.5c0-0.553-0.448-1-1-1h-1c-0.552,0-1,0.447-1,1s0.448,1,1,1h1C52.552,50.5,53,50.053,53,49.5
		z"/>
	<path style="fill:#C7CAC7;" d="M57,49.5c0-0.553-0.448-1-1-1h-1c-0.552,0-1,0.447-1,1s0.448,1,1,1h1C56.552,50.5,57,50.053,57,49.5
		z"/>
</g>
<rect x="32" y="3.5" style="fill:#EBBA16;" width="14" height="14"/>
<rect x="32" y="41.5" style="fill:#EBBA16;" width="14" height="14"/>
<g>
</g>
<g>
</g>
<g>
</g>
<g>
</g>
<g>
</g>
<g>
</g>
<g>
</g>
<g>
</g>
<g>
</g>
<g>
</g>
<g>
</g>
<g>
</g>
<g>
</g>
<g>
</g>
<g>
</g>
</svg>
