<?xml version="1.0" encoding="iso-8859-1"?>
<!-- Generator: Adobe Illustrator 19.0.0, SVG Export Plug-In . SVG Version: 6.00 Build 0)  -->
<svg version="1.1" id="Capa_1" xmlns="http://www.w3.org/2000/svg" xmlns:xlink="http://www.w3.org/1999/xlink" x="0px" y="0px"
	 viewBox="0 0 58 58" style="enable-background:new 0 0 58 58;" xml:space="preserve">
<path style="fill:#424A60;" d="M58,41H26c-6.627,0-12-5.373-12-12v0c0-6.627,5.373-12,12-12h32V3H26C11.641,3,0,14.641,0,29v0
	c0,14.359,11.641,26,26,26h32V41z"/>
<rect x="44" y="3" style="fill:#DD352E;" width="14" height="14"/>
<rect x="44" y="41" style="fill:#EFCE4A;" width="14" height="14"/>
<path style="fill:#FFFFFF;" d="M54,11h-6c-0.553,0-1-0.447-1-1s0.447-1,1-1h6c0.553,0,1,0.447,1,1S54.553,11,54,11z"/>
<path style="fill:#FFFFFF;" d="M51,14c-0.553,0-1-0.447-1-1V7c0-0.553,0.447-1,1-1s1,0.447,1,1v6C52,13.553,51.553,14,51,14z"/>
<path style="fill:#FFFFFF;" d="M54,49h-6c-0.553,0-1-0.447-1-1s0.447-1,1-1h6c0.553,0,1,0.447,1,1S54.553,49,54,49z"/>
<g>
</g>
<g>
</g>
<g>
</g>
<g>
</g>
<g>
</g>
<g>
</g>
<g>
</g>
<g>
</g>
<g>
</g>
<g>
</g>
<g>
</g>
<g>
</g>
<g>
</g>
<g>
</g>
<g>
</g>
</svg>
