<?xml version="1.0" encoding="iso-8859-1"?>
<!-- Generator: Adobe Illustrator 19.0.0, SVG Export Plug-In . SVG Version: 6.00 Build 0)  -->
<svg version="1.1" id="Capa_1" xmlns="http://www.w3.org/2000/svg" xmlns:xlink="http://www.w3.org/1999/xlink" x="0px" y="0px"
	 viewBox="0 0 58 58" style="enable-background:new 0 0 58 58;" xml:space="preserve">
<polygon style="fill:#D6C990;" points="0,30.588 0,53.5 2.785,52.386 12.291,42.88 "/>
<polygon style="fill:#D6C990;" points="15,9.519 11.415,5.934 0,10.5 0,15.032 15,30.032 "/>
<polygon style="fill:#F7E6A1;" points="29,26.171 29,23.519 15,9.519 15,30.032 20.069,35.101 "/>
<polygon style="fill:#7383BF;" points="29,44.032 29,41.727 27.848,42.88 "/>
<polygon style="fill:#6472A0;" points="38.104,32.623 29,41.727 29,44.032 35.628,50.66 43,47.5 43,37.519 "/>
<polygon style="fill:#D6C990;" points="43,12.171 43,4.5 30.776,9.739 38.104,17.067 "/>
<polygon style="fill:#D6C990;" points="30.326,24.845 29,23.519 29,26.171 "/>
<polygon style="fill:#F7E6A1;" points="48.23,6.941 43,4.5 43,12.171 "/>
<polygon style="fill:#7383BF;" points="58,36.963 58,12.727 45.882,24.845 "/>
<polygon style="fill:#7383BF;" points="43,47.5 58,53.5 58,52.519 43,37.519 "/>
<polygon style="fill:#D1AF43;" points="15,40.171 15,30.032 0,15.032 0,30.588 12.291,42.88 "/>
<polygon style="fill:#EFCE4A;" points="20.759,49.968 29,53.5 29,44.032 27.848,42.88 "/>
<polygon style="fill:#EFCE4A;" points="15,30.032 15,40.171 20.069,35.101 "/>
<polygon style="fill:#D1AF43;" points="29,53.5 35.628,50.66 29,44.032 "/>
<polygon style="fill:#D1AF43;" points="15,4.5 11.415,5.934 15,9.519 "/>
<polygon style="fill:#EFCE4A;" points="29,10.5 15,4.5 15,9.519 29,23.519 "/>
<polygon style="fill:#D1AF43;" points="29,23.519 30.326,24.845 38.104,17.067 30.776,9.739 29,10.5 "/>
<polygon style="fill:#D1AF43;" points="43,37.519 43,27.727 38.104,32.623 "/>
<polygon style="fill:#EFCE4A;" points="45.882,24.845 43,27.727 43,37.519 58,52.519 58,36.963 "/>
<polygon style="fill:#D1AF43;" points="15,45.588 12.291,42.88 2.785,52.386 15,47.5 "/>
<polygon style="fill:#EFCE4A;" points="15,47.5 18.345,48.934 15,45.588 "/>
<polygon style="fill:#EFCE4A;" points="20.069,35.101 27.848,42.88 29,41.727 29,26.171 "/>
<polygon style="fill:#D1AF43;" points="43,12.171 38.104,17.067 43,21.963 "/>
<polygon style="fill:#D1AF43;" points="29,26.171 29,41.727 38.104,32.623 30.326,24.845 "/>
<polygon style="fill:#EFCE4A;" points="43,21.963 45.882,24.845 58,12.727 58,11.5 48.23,6.941 43,12.171 "/>
<polygon style="fill:#D1AF43;" points="12.291,42.88 15,45.588 15,40.171 "/>
<polygon style="fill:#EFCE4A;" points="20.069,35.101 15,40.171 15,45.588 18.345,48.934 20.759,49.968 27.848,42.88 "/>
<polygon style="fill:#D1AF43;" points="38.104,17.067 30.326,24.845 38.104,32.623 43,27.727 43,21.963 "/>
<polygon style="fill:#EFCE4A;" points="43,27.727 45.882,24.845 43,21.963 "/>
<g>
</g>
<g>
</g>
<g>
</g>
<g>
</g>
<g>
</g>
<g>
</g>
<g>
</g>
<g>
</g>
<g>
</g>
<g>
</g>
<g>
</g>
<g>
</g>
<g>
</g>
<g>
</g>
<g>
</g>
</svg>
