<?xml version="1.0" encoding="iso-8859-1"?>
<!-- Generator: Adobe Illustrator 19.0.0, SVG Export Plug-In . SVG Version: 6.00 Build 0)  -->
<svg version="1.1" id="Capa_1" xmlns="http://www.w3.org/2000/svg" xmlns:xlink="http://www.w3.org/1999/xlink" x="0px" y="0px"
	 viewBox="0 0 53 53" style="enable-background:new 0 0 53 53;" xml:space="preserve">
<polygon style="fill:#43B05C;" points="18,23.243 2.256,7.499 0,8 0,51 2.099,50.534 18,34.632 "/>
<polygon style="fill:#48A0DC;" points="9.372,48.917 18,47 18,40.289 "/>
<polygon style="fill:#43B05C;" points="18,4 6.884,6.47 18,17.586 "/>
<polygon style="fill:#43B05C;" points="49.449,3.184 35,8 35,17.632 "/>
<polygon style="fill:#48A0DC;" points="35,23.289 35,50 53,43 53,5.289 "/>
<polygon style="fill:#3D994F;" points="26.523,26.109 35,17.632 35,8 18,4 18,17.586 "/>
<polygon style="fill:#3D994F;" points="18,23.243 18,34.632 23.695,28.938 "/>
<polygon style="fill:#4393BF;" points="18,40.289 18,47 35,50 35,23.289 "/>
<polygon style="fill:#EFCE4A;" points="18,17.586 6.884,6.47 2.256,7.499 18,23.243 "/>
<polygon style="fill:#EFCE4A;" points="18,34.632 2.099,50.534 9.372,48.917 18,40.289 "/>
<polygon style="fill:#EFCE4A;" points="35,23.289 53,5.289 53,2 49.449,3.184 35,17.632 "/>
<polygon style="fill:#D6B445;" points="26.523,26.109 18,17.586 18,23.243 23.695,28.938 18,34.632 18,40.289 35,23.289 35,17.632 
	"/>
<g>
</g>
<g>
</g>
<g>
</g>
<g>
</g>
<g>
</g>
<g>
</g>
<g>
</g>
<g>
</g>
<g>
</g>
<g>
</g>
<g>
</g>
<g>
</g>
<g>
</g>
<g>
</g>
<g>
</g>
</svg>
