<?xml version="1.0" encoding="iso-8859-1"?>
<!-- Generator: Adobe Illustrator 19.0.0, SVG Export Plug-In . SVG Version: 6.00 Build 0)  -->
<svg version="1.1" id="Capa_1" xmlns="http://www.w3.org/2000/svg" xmlns:xlink="http://www.w3.org/1999/xlink" x="0px" y="0px"
	 viewBox="0 0 59 59" style="enable-background:new 0 0 59 59;" xml:space="preserve">
<polygon style="fill:#556080;" points="38,43.5 5,33.1 5,25.9 38,15.5 "/>
<path style="fill:none;stroke:#AFB6BB;stroke-width:2;stroke-linecap:round;stroke-miterlimit:10;" d="M21.276,43.384L9.86,39.685
	c-1.256-0.407-1.95-1.767-1.544-3.023l0,0c0.407-1.256,1.767-1.95,3.023-1.544l11.416,3.698c1.256,0.407,1.95,1.767,1.544,3.023l0,0
	C23.892,43.096,22.532,43.79,21.276,43.384z"/>
<path style="fill:#424A60;" d="M2.5,36.5L2.5,36.5C1.125,36.5,0,35.375,0,34v-9c0-1.375,1.125-2.5,2.5-2.5h0
	C3.875,22.5,5,23.625,5,25v9C5,35.375,3.875,36.5,2.5,36.5z"/>
<path style="fill:#424A60;" d="M41,48.5L41,48.5c-1.65,0-3-1.35-3-3v-32c0-1.65,1.35-3,3-3h0c1.65,0,3,1.35,3,3v32
	C44,47.15,42.65,48.5,41,48.5z"/>
<path style="fill:#C7CAC7;" d="M58,30.5h-1c-0.553,0-1-0.447-1-1s0.447-1,1-1h1c0.553,0,1,0.447,1,1S58.553,30.5,58,30.5z M54,30.5
	h-1c-0.553,0-1-0.447-1-1s0.447-1,1-1h1c0.553,0,1,0.447,1,1S54.553,30.5,54,30.5z M50,30.5h-1c-0.553,0-1-0.447-1-1s0.447-1,1-1h1
	c0.553,0,1,0.447,1,1S50.553,30.5,50,30.5z"/>
<path style="fill:#C7CAC7;" d="M49,18.864c-0.256,0-0.512-0.098-0.707-0.293c-0.391-0.391-0.391-1.023,0-1.414L49,16.45
	c0.391-0.391,1.023-0.391,1.414,0s0.391,1.023,0,1.414l-0.707,0.707C49.512,18.767,49.256,18.864,49,18.864z M51.828,16.036
	c-0.256,0-0.512-0.098-0.707-0.293c-0.391-0.391-0.391-1.023,0-1.414l0.707-0.707c0.391-0.391,1.023-0.391,1.414,0
	s0.391,1.023,0,1.414l-0.707,0.707C52.34,15.938,52.084,16.036,51.828,16.036z M54.657,13.207c-0.256,0-0.512-0.098-0.707-0.293
	c-0.391-0.391-0.391-1.023,0-1.414l0.707-0.707c0.391-0.391,1.023-0.391,1.414,0s0.391,1.023,0,1.414l-0.707,0.707
	C55.169,13.109,54.913,13.207,54.657,13.207z"/>
<path style="fill:#C7CAC7;" d="M49,24.864c-0.419,0-0.809-0.265-0.948-0.684c-0.175-0.523,0.107-1.09,0.632-1.265l0.948-0.316
	c0.523-0.176,1.09,0.108,1.265,0.632s-0.107,1.09-0.632,1.265l-0.948,0.316C49.212,24.848,49.104,24.864,49,24.864z M52.795,23.6
	c-0.419,0-0.809-0.265-0.948-0.684c-0.175-0.523,0.107-1.09,0.632-1.265l0.948-0.316c0.524-0.176,1.09,0.108,1.265,0.632
	s-0.107,1.09-0.632,1.265l-0.948,0.316C53.007,23.583,52.899,23.6,52.795,23.6z M56.59,22.334c-0.419,0-0.81-0.265-0.949-0.685
	c-0.174-0.523,0.109-1.09,0.634-1.265l0.948-0.315c0.522-0.172,1.09,0.109,1.265,0.634c0.174,0.523-0.109,1.09-0.634,1.265
	l-0.948,0.315C56.801,22.317,56.694,22.334,56.59,22.334z"/>
<path style="fill:#C7CAC7;" d="M55.364,48.5c-0.256,0-0.512-0.098-0.707-0.293L53.95,47.5c-0.391-0.391-0.391-1.023,0-1.414
	s1.023-0.391,1.414,0l0.707,0.707c0.391,0.391,0.391,1.023,0,1.414C55.876,48.402,55.62,48.5,55.364,48.5z M52.535,45.671
	c-0.256,0-0.512-0.098-0.707-0.293l-0.707-0.707c-0.391-0.391-0.391-1.023,0-1.414s1.023-0.391,1.414,0l0.707,0.707
	c0.391,0.391,0.391,1.023,0,1.414C53.047,45.573,52.791,45.671,52.535,45.671z M49.707,42.843c-0.256,0-0.512-0.098-0.707-0.293
	l-0.707-0.707c-0.391-0.391-0.391-1.023,0-1.414s1.023-0.391,1.414,0l0.707,0.707c0.391,0.391,0.391,1.023,0,1.414
	C50.219,42.745,49.963,42.843,49.707,42.843z"/>
<path style="fill:#C7CAC7;" d="M57.538,38.981c-0.104,0-0.211-0.017-0.315-0.051l-0.948-0.315c-0.524-0.175-0.808-0.741-0.634-1.265
	c0.174-0.524,0.742-0.807,1.265-0.634l0.948,0.315c0.524,0.175,0.808,0.741,0.634,1.265C58.348,38.717,57.957,38.981,57.538,38.981z
	 M53.743,37.717c-0.104,0-0.212-0.017-0.316-0.052l-0.948-0.316c-0.524-0.175-0.807-0.741-0.632-1.265s0.742-0.809,1.265-0.632
	l0.948,0.316c0.524,0.175,0.807,0.741,0.632,1.265C54.552,37.452,54.162,37.717,53.743,37.717z M49.948,36.452
	c-0.104,0-0.212-0.017-0.316-0.052l-0.948-0.316c-0.524-0.175-0.807-0.741-0.632-1.265s0.741-0.809,1.265-0.632l0.948,0.316
	c0.524,0.175,0.807,0.741,0.632,1.265C50.757,36.188,50.367,36.452,49.948,36.452z"/>
<g>
</g>
<g>
</g>
<g>
</g>
<g>
</g>
<g>
</g>
<g>
</g>
<g>
</g>
<g>
</g>
<g>
</g>
<g>
</g>
<g>
</g>
<g>
</g>
<g>
</g>
<g>
</g>
<g>
</g>
</svg>
