<?xml version="1.0" encoding="iso-8859-1"?>
<!-- Generator: Adobe Illustrator 19.0.0, SVG Export Plug-In . SVG Version: 6.00 Build 0)  -->
<svg version="1.1" id="Capa_1" xmlns="http://www.w3.org/2000/svg" xmlns:xlink="http://www.w3.org/1999/xlink" x="0px" y="0px"
	 viewBox="0 0 58 58" style="enable-background:new 0 0 58 58;" xml:space="preserve">
<rect x="8" y="6" style="fill:#EF6129;" width="42" height="46"/>
<g>
	<rect x="50" y="10" style="fill:#EBBA16;" width="4" height="38"/>
	<rect x="4" y="10" style="fill:#EBBA16;" width="4" height="38"/>
</g>
<g>
	<rect x="54" y="14" style="fill:#EFCE4A;" width="4" height="30"/>
	<rect y="14" style="fill:#EFCE4A;" width="4" height="30"/>
</g>
<path style="fill:#FFFFFF;" d="M43.649,12.24c-0.222-0.19-0.515-0.273-0.805-0.228l-19,3C23.358,15.089,23,15.508,23,16v3.286V22
	v13.68C21.831,34.642,20.246,34,18.5,34c-3.584,0-6.5,2.691-6.5,6s2.916,6,6.5,6c3.533,0,6.411-2.617,6.492-5.861
	C24.993,40.126,25,40.115,25,40.102V22.854l17-2.684v9.511C40.831,28.642,39.246,28,37.5,28c-3.584,0-6.5,2.691-6.5,6s2.916,6,6.5,6
	s6.5-2.691,6.5-6V19v-5v-1C44,12.708,43.872,12.43,43.649,12.24z"/>
<g>
</g>
<g>
</g>
<g>
</g>
<g>
</g>
<g>
</g>
<g>
</g>
<g>
</g>
<g>
</g>
<g>
</g>
<g>
</g>
<g>
</g>
<g>
</g>
<g>
</g>
<g>
</g>
<g>
</g>
</svg>
