<?xml version="1.0" encoding="iso-8859-1"?>
<!-- Generator: Adobe Illustrator 19.0.0, SVG Export Plug-In . SVG Version: 6.00 Build 0)  -->
<svg version="1.1" id="Capa_1" xmlns="http://www.w3.org/2000/svg" xmlns:xlink="http://www.w3.org/1999/xlink" x="0px" y="0px"
	 viewBox="0 0 57 57" style="enable-background:new 0 0 57 57;" xml:space="preserve">
<path style="fill:none;stroke:#556080;stroke-width:2;stroke-linecap:round;stroke-miterlimit:10;" d="M44,28v6
	c0,8.271-6.729,15-15,15s-15-6.729-15-15v-6"/>
<line style="fill:none;stroke:#556080;stroke-width:2;stroke-linecap:round;stroke-miterlimit:10;" x1="29" y1="49" x2="29" y2="56"/>
<polyline style="fill:none;stroke:#556080;stroke-width:2;stroke-linecap:round;stroke-miterlimit:10;" points="35,56 29,56 23,56 
	"/>
<path style="fill:#C7CAC7;" d="M29,44L29,44c-5.5,0-10-4.5-10-10V10c0-5.5,4.5-10,10-10h0c5.5,0,10,4.5,10,10v24
	C39,39.5,34.5,44,29,44z"/>
<path style="fill:#AFB6BB;" d="M39,34V10c0-5.5-4.5-10-10-10v44C34.5,44,39,39.5,39,34z"/>
<line style="fill:none;stroke:#D75A4A;stroke-width:2;stroke-linecap:round;stroke-miterlimit:10;" x1="6" y1="49" x2="51" y2="4"/>
<g>
</g>
<g>
</g>
<g>
</g>
<g>
</g>
<g>
</g>
<g>
</g>
<g>
</g>
<g>
</g>
<g>
</g>
<g>
</g>
<g>
</g>
<g>
</g>
<g>
</g>
<g>
</g>
<g>
</g>
</svg>
