<?xml version="1.0" encoding="iso-8859-1"?>
<!-- Generator: Adobe Illustrator 19.0.0, SVG Export Plug-In . SVG Version: 6.00 Build 0)  -->
<svg version="1.1" id="Capa_1" xmlns="http://www.w3.org/2000/svg" xmlns:xlink="http://www.w3.org/1999/xlink" x="0px" y="0px"
	 viewBox="0 0 58 58" style="enable-background:new 0 0 58 58;" xml:space="preserve">
<path style="fill:#CEC9AE;" d="M6.005,58L6.005,58c-2.75,0-5-2.25-5-5V30h10v23C11.005,55.75,8.755,58,6.005,58z"/>
<rect x="11.005" style="fill:#CEC9AE;" width="45.99" height="11"/>
<path style="fill:#EDEADA;" d="M11.005,35v7v11c0,2.75-2.25,5-5,5h5h6h35c2.756,0,4.99-2.234,4.99-4.99V13h-45.99V35z"/>
<rect x="11.005" y="11" style="fill:#F4F3ED;" width="45.99" height="2"/>
<rect x="17.005" y="16" style="fill:#61B872;" width="12" height="12"/>
<path style="fill:#CEC9AE;" d="M51.005,17h-16c-0.553,0-1-0.447-1-1s0.447-1,1-1h16c0.553,0,1,0.447,1,1S51.558,17,51.005,17z"/>
<path style="fill:#CEC9AE;" d="M51.005,23h-16c-0.553,0-1-0.447-1-1s0.447-1,1-1h16c0.553,0,1,0.447,1,1S51.558,23,51.005,23z"/>
<path style="fill:#CEC9AE;" d="M51.005,29h-16c-0.553,0-1-0.447-1-1s0.447-1,1-1h16c0.553,0,1,0.447,1,1S51.558,29,51.005,29z"/>
<path style="fill:#CEC9AE;" d="M51.005,35h-33c-0.553,0-1-0.447-1-1s0.447-1,1-1h33c0.553,0,1,0.447,1,1S51.558,35,51.005,35z"/>
<path style="fill:#CEC9AE;" d="M33.005,41h-15c-0.553,0-1-0.447-1-1s0.447-1,1-1h15c0.553,0,1,0.447,1,1S33.558,41,33.005,41z"/>
<path style="fill:#CEC9AE;" d="M33.005,47h-15c-0.553,0-1-0.447-1-1s0.447-1,1-1h15c0.553,0,1,0.447,1,1S33.558,47,33.005,47z"/>
<path style="fill:#CEC9AE;" d="M33.005,53h-15c-0.553,0-1-0.447-1-1s0.447-1,1-1h15c0.553,0,1,0.447,1,1S33.558,53,33.005,53z"/>
<rect x="39.005" y="40" style="fill:#F7B563;" width="12" height="12"/>
<rect x="23.005" y="4" style="fill:#8E8872;" width="22" height="4"/>
<g>
</g>
<g>
</g>
<g>
</g>
<g>
</g>
<g>
</g>
<g>
</g>
<g>
</g>
<g>
</g>
<g>
</g>
<g>
</g>
<g>
</g>
<g>
</g>
<g>
</g>
<g>
</g>
<g>
</g>
</svg>
