<?xml version="1.0" encoding="iso-8859-1"?>
<!-- Generator: Adobe Illustrator 19.0.0, SVG Export Plug-In . SVG Version: 6.00 Build 0)  -->
<svg version="1.1" id="Capa_1" xmlns="http://www.w3.org/2000/svg" xmlns:xlink="http://www.w3.org/1999/xlink" x="0px" y="0px"
	 viewBox="0 0 56 56" style="enable-background:new 0 0 56 56;" xml:space="preserve">
<path style="fill:#6B4842;" d="M51.503,56H17.5V0.003h34.003C53.158,0.003,54.5,1.345,54.5,3v50.003
	C54.5,54.658,53.158,56,51.503,56z"/>
<rect x="43.5" y="0.003" style="fill:#BFA380;" width="5" height="55.997"/>
<rect x="6.5" style="fill:#BE6E41;" width="11" height="56"/>
<circle style="fill:#6B4842;" cx="10.5" cy="45" r="2"/>
<circle style="fill:#6B4842;" cx="10.5" cy="39" r="2"/>
<circle style="fill:#6B4842;" cx="10.5" cy="33" r="2"/>
<circle style="fill:#6B4842;" cx="10.5" cy="27" r="2"/>
<path style="fill:#D8A852;" d="M1.5,27c0,1.13,0.391,2.162,1.025,3c0.405-0.534,0.912-0.979,1.495-1.315
	C3.692,28.204,3.5,27.624,3.5,27c0-1.654,1.346-3,3-3s3,1.346,3,3c0,0.553,0.447,1,1,1s1-0.447,1-1c0-2.757-2.243-5-5-5
	S1.5,24.243,1.5,27z"/>
<path style="fill:#A37F46;" d="M4.02,31.315C4.754,31.739,5.593,32,6.5,32v-2C5.47,30,4.561,30.522,4.02,31.315z"/>
<path style="fill:#A37F46;" d="M4.02,37.315C4.754,37.739,5.593,38,6.5,38v-2C5.47,36,4.561,36.522,4.02,37.315z"/>
<path style="fill:#D8A852;" d="M4.02,28.685C3.437,29.021,2.93,29.466,2.525,30C1.891,30.838,1.5,31.87,1.5,33s0.391,2.162,1.025,3
	c0.405-0.534,0.912-0.979,1.495-1.315C3.692,34.204,3.5,33.624,3.5,33s0.192-1.204,0.52-1.685C4.561,30.522,5.47,30,6.5,30
	c1.654,0,3,1.346,3,3c0,0.553,0.447,1,1,1s1-0.447,1-1c0-2.757-2.243-5-5-5C5.593,28,4.754,28.261,4.02,28.685z"/>
<path style="fill:#A37F46;" d="M4.02,43.315C4.754,43.739,5.593,44,6.5,44v-2C5.47,42,4.561,42.522,4.02,43.315z"/>
<path style="fill:#D8A852;" d="M4.02,34.685C3.437,35.021,2.93,35.466,2.525,36C1.891,36.838,1.5,37.87,1.5,39s0.391,2.162,1.025,3
	c0.405-0.534,0.912-0.979,1.495-1.315C3.692,40.204,3.5,39.624,3.5,39s0.192-1.204,0.52-1.685C4.561,36.522,5.47,36,6.5,36
	c1.654,0,3,1.346,3,3c0,0.553,0.447,1,1,1s1-0.447,1-1c0-2.757-2.243-5-5-5C5.593,34,4.754,34.261,4.02,34.685z"/>
<circle style="fill:#6B4842;" cx="10.5" cy="21" r="2"/>
<circle style="fill:#6B4842;" cx="10.5" cy="15" r="2"/>
<circle style="fill:#6B4842;" cx="10.5" cy="9" r="2"/>
<path style="fill:#D8A852;" d="M1.5,9c0,1.13,0.391,2.162,1.025,3c0.405-0.534,0.912-0.979,1.495-1.315
	C3.692,10.204,3.5,9.624,3.5,9c0-1.654,1.346-3,3-3s3,1.346,3,3c0,0.553,0.447,1,1,1s1-0.447,1-1c0-2.757-2.243-5-5-5
	S1.5,6.243,1.5,9z"/>
<path style="fill:#A37F46;" d="M4.02,13.315C4.754,13.739,5.593,14,6.5,14v-2C5.47,12,4.561,12.522,4.02,13.315z"/>
<path style="fill:#A37F46;" d="M4.02,19.315C4.754,19.739,5.593,20,6.5,20v-2C5.47,18,4.561,18.522,4.02,19.315z"/>
<path style="fill:#D8A852;" d="M4.02,10.685C3.437,11.021,2.93,11.466,2.525,12C1.891,12.838,1.5,13.87,1.5,15s0.391,2.162,1.025,3
	c0.405-0.534,0.912-0.979,1.495-1.315C3.692,16.204,3.5,15.624,3.5,15s0.192-1.204,0.52-1.685C4.561,12.522,5.47,12,6.5,12
	c1.654,0,3,1.346,3,3c0,0.553,0.447,1,1,1s1-0.447,1-1c0-2.757-2.243-5-5-5C5.593,10,4.754,10.261,4.02,10.685z"/>
<path style="fill:#A37F46;" d="M4.02,25.315C4.754,25.739,5.593,26,6.5,26v-2C5.47,24,4.561,24.522,4.02,25.315z"/>
<path style="fill:#D8A852;" d="M4.02,16.685C3.437,17.021,2.93,17.466,2.525,18C1.891,18.838,1.5,19.87,1.5,21s0.391,2.162,1.025,3
	c0.405-0.534,0.912-0.979,1.495-1.315C3.692,22.204,3.5,21.624,3.5,21s0.192-1.204,0.52-1.685C4.561,18.522,5.47,18,6.5,18
	c1.654,0,3,1.346,3,3c0,0.553,0.447,1,1,1s1-0.447,1-1c0-2.757-2.243-5-5-5C5.593,16,4.754,16.261,4.02,16.685z"/>
<path style="fill:#D8A852;" d="M4.02,40.685C3.437,41.021,2.93,41.466,2.525,42C1.891,42.838,1.5,43.87,1.5,45c0,2.757,2.243,5,5,5
	v-2c-1.654,0-3-1.346-3-3c0-0.624,0.192-1.204,0.52-1.685C4.561,42.522,5.47,42,6.5,42c1.654,0,3,1.346,3,3c0,0.553,0.447,1,1,1
	s1-0.447,1-1c0-2.757-2.243-5-5-5C5.593,40,4.754,40.261,4.02,40.685z"/>
<g>
</g>
<g>
</g>
<g>
</g>
<g>
</g>
<g>
</g>
<g>
</g>
<g>
</g>
<g>
</g>
<g>
</g>
<g>
</g>
<g>
</g>
<g>
</g>
<g>
</g>
<g>
</g>
<g>
</g>
</svg>
