<?xml version="1.0" encoding="iso-8859-1"?>
<!-- Generator: Adobe Illustrator 19.0.0, SVG Export Plug-In . SVG Version: 6.00 Build 0)  -->
<svg version="1.1" id="Capa_1" xmlns="http://www.w3.org/2000/svg" xmlns:xlink="http://www.w3.org/1999/xlink" x="0px" y="0px"
	 viewBox="0 0 59 59" style="enable-background:new 0 0 59 59;" xml:space="preserve">
<path style="fill:#556080;" d="M39.503,52H1.5V0.003h38.003C41.158,0.003,42.5,1.345,42.5,3v46.003C42.5,50.658,41.158,52,39.503,52
	z"/>
<rect x="31.5" y="0.003" style="fill:#D75A4A;" width="5" height="51.997"/>
<g>
	<rect x="1.5" y="17.01" style="fill:#424A60;" width="30" height="18"/>
	<rect x="36.5" y="17.01" style="fill:#424A60;" width="6" height="18"/>
</g>
<polygon style="fill:#EBBA16;" points="11.5,57 8.5,55 5.5,57 5.5,52 11.5,52 "/>
<rect x="49.5" y="7" style="fill:#E0E1E2;" width="4" height="4"/>
<path style="fill:#D75A4A;" d="M53.5,0h-2.015c-0.274,0-0.535,0.056-0.773,0.156c-0.119,0.05-0.232,0.111-0.337,0.183
	C49.847,0.696,49.5,1.3,49.5,1.985V7h4V0z"/>
<path style="fill:#D75A4A;" d="M55.515,0L55.515,0c0.274,0,0.535,0.056,0.773,0.156C56.05,0.056,55.789,0,55.515,0z"/>
<rect x="53.5" y="11" style="fill:#DB7B1B;" width="4" height="38"/>
<rect x="53.5" y="7" style="fill:#C4C4C4;" width="4" height="4"/>
<path style="fill:#D75A4A;" d="M57.5,1.985L57.5,1.985c0-0.685-0.347-1.289-0.875-1.646C57.153,0.696,57.5,1.3,57.5,1.985z"/>
<path style="fill:#B74C44;" d="M57.5,7V1.985c0-0.685-0.347-1.289-0.875-1.646c-0.105-0.071-0.219-0.133-0.337-0.183
	C56.05,0.056,55.789,0,55.515,0H53.5v7H57.5z"/>
<polygon style="fill:#EBD6BD;" points="57.5,49 49.5,49 53.5,56 "/>
<path style="fill:#4C4C4C;" d="M52.5,58c0,0.553,0.447,1,1,1s1-0.447,1-1v-4h-2V58z"/>
<rect x="49.5" y="11" style="fill:#ED8A19;" width="4" height="38"/>
<g>
</g>
<g>
</g>
<g>
</g>
<g>
</g>
<g>
</g>
<g>
</g>
<g>
</g>
<g>
</g>
<g>
</g>
<g>
</g>
<g>
</g>
<g>
</g>
<g>
</g>
<g>
</g>
<g>
</g>
</svg>
