<?xml version="1.0" encoding="iso-8859-1"?>
<!-- Generator: Adobe Illustrator 19.0.0, SVG Export Plug-In . SVG Version: 6.00 Build 0)  -->
<svg version="1.1" id="Capa_1" xmlns="http://www.w3.org/2000/svg" xmlns:xlink="http://www.w3.org/1999/xlink" x="0px" y="0px"
	 viewBox="0 0 59 59" style="enable-background:new 0 0 59 59;" xml:space="preserve">
<rect x="0.5" style="fill:#BFA380;" width="44" height="58"/>
<rect x="0.5" style="fill:#6B5B4B;" width="8" height="58"/>
<rect x="15.5" y="10" style="fill:#EDEADA;" width="22" height="12"/>
<rect x="19.5" y="13" style="fill:#CEC9AE;" width="14" height="2"/>
<rect x="19.5" y="17" style="fill:#CEC9AE;" width="14" height="2"/>
<rect x="50.5" y="7" style="fill:#E0E1E2;" width="4" height="4"/>
<path style="fill:#D75A4A;" d="M54.5,0h-2.015c-0.274,0-0.535,0.056-0.773,0.156c-0.119,0.05-0.232,0.111-0.337,0.183
	C50.847,0.696,50.5,1.3,50.5,1.985V7h4V0z"/>
<path style="fill:#D75A4A;" d="M56.515,0L56.515,0c0.274,0,0.535,0.056,0.773,0.156C57.05,0.056,56.789,0,56.515,0z"/>
<rect x="54.5" y="11" style="fill:#DB7B1B;" width="4" height="38"/>
<rect x="54.5" y="7" style="fill:#C4C4C4;" width="4" height="4"/>
<path style="fill:#D75A4A;" d="M58.5,1.985L58.5,1.985c0-0.685-0.347-1.289-0.875-1.646C58.153,0.696,58.5,1.3,58.5,1.985z"/>
<path style="fill:#B74C44;" d="M58.5,7V1.985c0-0.685-0.347-1.289-0.875-1.646c-0.105-0.071-0.219-0.133-0.337-0.183
	C57.05,0.056,56.789,0,56.515,0H54.5v7H58.5z"/>
<polygon style="fill:#EBD6BD;" points="58.5,49 50.5,49 54.5,56 "/>
<path style="fill:#4C4C4C;" d="M53.5,58c0,0.553,0.447,1,1,1s1-0.447,1-1v-4h-2V58z"/>
<rect x="50.5" y="11" style="fill:#ED8A19;" width="4" height="38"/>
<g>
</g>
<g>
</g>
<g>
</g>
<g>
</g>
<g>
</g>
<g>
</g>
<g>
</g>
<g>
</g>
<g>
</g>
<g>
</g>
<g>
</g>
<g>
</g>
<g>
</g>
<g>
</g>
<g>
</g>
</svg>
