<?xml version="1.0" encoding="iso-8859-1"?>
<!-- Generator: Adobe Illustrator 19.0.0, SVG Export Plug-In . SVG Version: 6.00 Build 0)  -->
<svg version="1.1" id="Capa_1" xmlns="http://www.w3.org/2000/svg" xmlns:xlink="http://www.w3.org/1999/xlink" x="0px" y="0px"
	 viewBox="0 0 58 58" style="enable-background:new 0 0 58 58;" xml:space="preserve">
<polygon style="fill:#EDEADA;" points="42,5 16,5 3,5 3,58 55,58 55,5 "/>
<circle style="fill:#918553;" cx="20" cy="9" r="2"/>
<circle style="fill:#918553;" cx="26" cy="9" r="2"/>
<circle style="fill:#918553;" cx="32" cy="9" r="2"/>
<circle style="fill:#918553;" cx="38" cy="9" r="2"/>
<path style="fill:#D8A852;" d="M38,0c-1.13,0-2.162,0.391-3,1.025c0.534,0.405,0.979,0.912,1.315,1.495C36.796,2.192,37.376,2,38,2
	c1.654,0,3,1.346,3,3s-1.346,3-3,3c-0.553,0-1,0.447-1,1s0.447,1,1,1c2.757,0,5-2.243,5-5S40.757,0,38,0z"/>
<path style="fill:#A37F46;" d="M33.685,2.52C33.261,3.254,33,4.093,33,5h2C35,3.97,34.478,3.061,33.685,2.52z"/>
<path style="fill:#A37F46;" d="M27.685,2.52C27.261,3.254,27,4.093,27,5h2C29,3.97,28.478,3.061,27.685,2.52z"/>
<path style="fill:#D8A852;" d="M36.315,2.52C35.979,1.937,35.534,1.43,35,1.025C34.162,0.391,33.13,0,32,0s-2.162,0.391-3,1.025
	c0.534,0.405,0.979,0.912,1.315,1.495C30.796,2.192,31.376,2,32,2s1.204,0.192,1.685,0.52C34.478,3.061,35,3.97,35,5
	c0,1.654-1.346,3-3,3c-0.553,0-1,0.447-1,1s0.447,1,1,1c2.757,0,5-2.243,5-5C37,4.093,36.739,3.254,36.315,2.52z"/>
<path style="fill:#A37F46;" d="M21.685,2.52C21.261,3.254,21,4.093,21,5h2C23,3.97,22.478,3.061,21.685,2.52z"/>
<path style="fill:#D8A852;" d="M30.315,2.52C29.979,1.937,29.534,1.43,29,1.025C28.162,0.391,27.13,0,26,0s-2.162,0.391-3,1.025
	c0.534,0.405,0.979,0.912,1.315,1.495C24.796,2.192,25.376,2,26,2s1.204,0.192,1.685,0.52C28.478,3.061,29,3.97,29,5
	c0,1.654-1.346,3-3,3c-0.553,0-1,0.447-1,1s0.447,1,1,1c2.757,0,5-2.243,5-5C31,4.093,30.739,3.254,30.315,2.52z"/>
<path style="fill:#D8A852;" d="M24.315,2.52C23.979,1.937,23.534,1.43,23,1.025C22.162,0.391,21.13,0,20,0c-2.757,0-5,2.243-5,5h2
	c0-1.654,1.346-3,3-3c0.624,0,1.204,0.192,1.685,0.52C22.478,3.061,23,3.97,23,5c0,1.654-1.346,3-3,3c-0.553,0-1,0.447-1,1
	s0.447,1,1,1c2.757,0,5-2.243,5-5C25,4.093,24.739,3.254,24.315,2.52z"/>
<rect x="3" y="16" style="fill:#CEC9AE;" width="52" height="2"/>
<rect x="3" y="26" style="fill:#CEC9AE;" width="52" height="2"/>
<rect x="3" y="36" style="fill:#CEC9AE;" width="52" height="2"/>
<rect x="3" y="46" style="fill:#CEC9AE;" width="40" height="2"/>
<polygon style="fill:#EDD87E;" points="43,58 43,46 55,46 "/>
<polygon style="fill:#918553;" points="55,46 55,58 43,58 "/>
<rect x="10" y="5" style="fill:#E54C4C;" width="2" height="53"/>
<g>
</g>
<g>
</g>
<g>
</g>
<g>
</g>
<g>
</g>
<g>
</g>
<g>
</g>
<g>
</g>
<g>
</g>
<g>
</g>
<g>
</g>
<g>
</g>
<g>
</g>
<g>
</g>
<g>
</g>
</svg>
