<?xml version="1.0" encoding="iso-8859-1"?>
<!-- Generator: Adobe Illustrator 19.0.0, SVG Export Plug-In . SVG Version: 6.00 Build 0)  -->
<svg version="1.1" id="Capa_1" xmlns="http://www.w3.org/2000/svg" xmlns:xlink="http://www.w3.org/1999/xlink" x="0px" y="0px"
	 viewBox="0 0 59 59" style="enable-background:new 0 0 59 59;" xml:space="preserve">
<rect x="24.5" style="fill:#303644;" width="9" height="5"/>
<polygon style="fill:#424A60;" points="37.5,2 33.5,2 33.5,5 24.5,5 24.5,2 20.5,2 5.5,2 5.5,58 52.5,58 52.5,2 "/>
<polygon style="fill:#EDEADA;" points="40.5,5 40.5,8 17.5,8 17.5,5 8.5,5 8.5,55 49.5,55 49.5,5 "/>
<g>
	<path style="fill:#CEC9AE;" d="M15.5,17h9c0.553,0,1-0.447,1-1s-0.447-1-1-1h-9c-0.553,0-1,0.447-1,1S14.947,17,15.5,17z"/>
	<path style="fill:#CEC9AE;" d="M15.5,25h5c0.553,0,1-0.447,1-1s-0.447-1-1-1h-5c-0.553,0-1,0.447-1,1S14.947,25,15.5,25z"/>
	<path style="fill:#CEC9AE;" d="M37.5,23h-7c-0.553,0-1,0.447-1,1s0.447,1,1,1h7c0.553,0,1-0.447,1-1S38.053,23,37.5,23z"/>
	<path style="fill:#CEC9AE;" d="M24.79,23.29C24.6,23.479,24.5,23.729,24.5,24c0,0.27,0.109,0.52,0.29,0.71
		C24.979,24.89,25.229,25,25.5,25c0.27,0,0.52-0.101,0.71-0.29c0.18-0.19,0.29-0.45,0.29-0.71c0-0.261-0.11-0.521-0.29-0.71
		C25.83,22.92,25.17,22.92,24.79,23.29z"/>
	<path style="fill:#CEC9AE;" d="M43.21,23.29c-0.37-0.37-1.04-0.37-1.42,0C41.6,23.479,41.5,23.729,41.5,24
		c0,0.27,0.109,0.52,0.29,0.71C41.979,24.89,42.229,25,42.5,25c0.27,0,0.52-0.11,0.71-0.29c0.18-0.19,0.29-0.45,0.29-0.71
		C43.5,23.739,43.39,23.479,43.21,23.29z"/>
	<path style="fill:#CEC9AE;" d="M27.5,31h-7c-0.553,0-1,0.447-1,1s0.447,1,1,1h7c0.553,0,1-0.447,1-1S28.053,31,27.5,31z"/>
	<path style="fill:#CEC9AE;" d="M14.79,31.29c-0.181,0.189-0.29,0.439-0.29,0.71c0,0.27,0.109,0.52,0.29,0.71
		C14.979,32.89,15.229,33,15.5,33c0.27,0,0.52-0.11,0.71-0.29c0.18-0.19,0.29-0.45,0.29-0.71c0-0.261-0.11-0.521-0.29-0.71
		C15.84,30.92,15.16,30.92,14.79,31.29z"/>
</g>
<g>
	<path style="fill:#7383BF;" d="M18.645,40.166c-2.191,1.141-2.928,3.321-3.196,5.582c-0.414-0.347-0.828-0.693-1.241-1.04
		c-0.981-0.822-2.404,0.585-1.414,1.415c0.935,0.783,1.871,1.567,2.806,2.351c0.662,0.555,1.676,0.211,1.707-0.707
		c0.073-2.167,0.177-4.743,2.348-5.873C20.799,41.298,19.787,39.572,18.645,40.166z"/>
	<path style="fill:#7383BF;" d="M27.983,45.25c-0.52-0.93-1.642-1.391-2.688-1.095c-1.365,0.386-2.981,2.042-3.936,0.106
		c-0.571-1.157-2.295-0.143-1.727,1.009c0.514,1.042,1.5,1.798,2.669,1.932c0.607,0.069,1.117-0.013,1.688-0.226
		c0.406-0.152,1.923-1.332,2.267-0.717C26.885,47.385,28.613,46.376,27.983,45.25z"/>
</g>
<line style="fill:none;stroke:#FC3952;stroke-width:2;stroke-linecap:round;stroke-miterlimit:10;" x1="52.5" y1="38" x2="32.5" y2="58"/>
<polygon style="fill:#7383BF;" points="33.5,2 33.5,5 24.5,5 24.5,2 17.5,2 17.5,8 40.5,8 40.5,2 "/>
<g>
</g>
<g>
</g>
<g>
</g>
<g>
</g>
<g>
</g>
<g>
</g>
<g>
</g>
<g>
</g>
<g>
</g>
<g>
</g>
<g>
</g>
<g>
</g>
<g>
</g>
<g>
</g>
<g>
</g>
</svg>
