<?xml version="1.0" encoding="iso-8859-1"?>
<!-- Generator: Adobe Illustrator 19.0.0, SVG Export Plug-In . SVG Version: 6.00 Build 0)  -->
<svg version="1.1" id="Capa_1" xmlns="http://www.w3.org/2000/svg" xmlns:xlink="http://www.w3.org/1999/xlink" x="0px" y="0px"
	 viewBox="0 0 59.999 59.999" style="enable-background:new 0 0 59.999 59.999;" xml:space="preserve">
<path style="fill:#E7ECED;" d="M57.972,29.64l-7.234,7.234c-11.517,11.517-30.19,11.517-41.707,0L2.027,29.87l7.234-7.234
	c11.517-11.517,30.19-11.517,41.707,0L57.972,29.64z"/>
<g>
	<path style="fill:#556080;" d="M25.857,5.999c0.256,0,0.512-0.098,0.707-0.293l2.293-2.293v7.586c0,0.552,0.448,1,1,1s1-0.448,1-1
		V3.413l2.293,2.293c0.195,0.195,0.451,0.293,0.707,0.293s0.512-0.098,0.707-0.293c0.391-0.391,0.391-1.023,0-1.414l-4-4
		c-0.092-0.092-0.203-0.165-0.325-0.216c-0.245-0.101-0.52-0.101-0.764,0c-0.122,0.051-0.233,0.124-0.325,0.216l-4,4
		c-0.391,0.391-0.391,1.023,0,1.414C25.345,5.901,25.601,5.999,25.857,5.999z"/>
	<path style="fill:#556080;" d="M33.15,54.292l-2.293,2.293v-7.586c0-0.552-0.448-1-1-1s-1,0.448-1,1v7.586l-2.293-2.293
		c-0.391-0.391-1.023-0.391-1.414,0s-0.391,1.023,0,1.414l4,4c0.092,0.092,0.203,0.165,0.325,0.216
		c0.122,0.051,0.252,0.077,0.382,0.077s0.26-0.027,0.382-0.077c0.122-0.051,0.233-0.124,0.325-0.216l4-4
		c0.391-0.391,0.391-1.023,0-1.414S33.54,53.901,33.15,54.292z"/>
</g>
<circle style="fill:#3083C9;" cx="29.67" cy="29.782" r="11.813"/>
<path style="fill:#FFFFFF;" d="M22.857,30.999c-0.552,0-1-0.448-1-1c0-3.86,3.14-7,7-7c0.552,0,1,0.448,1,1s-0.448,1-1,1
	c-2.757,0-5,2.243-5,5C23.857,30.551,23.409,30.999,22.857,30.999z"/>
<g>
</g>
<g>
</g>
<g>
</g>
<g>
</g>
<g>
</g>
<g>
</g>
<g>
</g>
<g>
</g>
<g>
</g>
<g>
</g>
<g>
</g>
<g>
</g>
<g>
</g>
<g>
</g>
<g>
</g>
</svg>
