<?xml version="1.0" encoding="iso-8859-1"?>
<!-- Generator: Adobe Illustrator 19.0.0, SVG Export Plug-In . SVG Version: 6.00 Build 0)  -->
<svg version="1.1" id="Capa_1" xmlns="http://www.w3.org/2000/svg" xmlns:xlink="http://www.w3.org/1999/xlink" x="0px" y="0px"
	 viewBox="0 0 58 58" style="enable-background:new 0 0 58 58;" xml:space="preserve">
<path style="fill:#556080;" d="M45,15.5l-4-10H17l-4,10H3.799C1.701,15.5,0,17.201,0,19.299v29.368C0,50.784,1.716,52.5,3.833,52.5
	h50.333c2.117,0,3.833-1.716,3.833-3.833V19.299c0-2.098-1.701-3.799-3.799-3.799H45z"/>
<circle style="fill:#424A60;stroke:#2B313D;stroke-width:2;stroke-linecap:round;stroke-miterlimit:10;" cx="29" cy="31.5" r="17"/>
<circle style="fill:#7383BF;" cx="29" cy="31.5" r="11"/>
<rect x="6" y="10.5" style="fill:#38454F;" width="4" height="5"/>
<circle style="fill:#EFCE4A;" cx="51" cy="22.5" r="3"/>
<path style="fill:#879AD8;" d="M32,31.5c0,3.595,1.418,6.778,3.6,8.785c2.667-2.007,4.4-5.19,4.4-8.785s-1.733-6.778-4.4-8.785
	C33.418,24.722,32,27.905,32,31.5z"/>
<path style="fill:#879AD8;" d="M18,31.5c0,3.595,1.733,6.778,4.4,8.785c2.182-2.007,3.6-5.19,3.6-8.785s-1.418-6.778-3.6-8.785
	C19.733,24.722,18,27.905,18,31.5z"/>
<path style="fill:#556080;" d="M29,43.5c-6.617,0-12-5.383-12-12s5.383-12,12-12s12,5.383,12,12S35.617,43.5,29,43.5z M29,21.5
	c-5.514,0-10,4.486-10,10s4.486,10,10,10s10-4.486,10-10S34.514,21.5,29,21.5z"/>
<circle style="fill:#4674E8;" cx="30.5" cy="28" r="3.5"/>
<circle style="fill:#BF4D90;" cx="28" cy="29.5" r="2"/>
<circle style="fill:#BCCEF7;" cx="25" cy="27.5" r="2"/>
<g>
</g>
<g>
</g>
<g>
</g>
<g>
</g>
<g>
</g>
<g>
</g>
<g>
</g>
<g>
</g>
<g>
</g>
<g>
</g>
<g>
</g>
<g>
</g>
<g>
</g>
<g>
</g>
<g>
</g>
</svg>
