<?xml version="1.0" encoding="iso-8859-1"?>
<!-- Generator: Adobe Illustrator 19.0.0, SVG Export Plug-In . SVG Version: 6.00 Build 0)  -->
<svg version="1.1" id="Capa_1" xmlns="http://www.w3.org/2000/svg" xmlns:xlink="http://www.w3.org/1999/xlink" x="0px" y="0px"
	 viewBox="0 0 60 60" style="enable-background:new 0 0 60 60;" xml:space="preserve">
<path style="fill:#25AE88;" d="M51.809,12.208C51.112,6.89,48.332,0,37.419,0S23.727,6.89,23.03,12.208
	c-0.382,2.915-0.168,5.876,0.439,8.752c3.336,15.813,11.581,25.293,13.532,27.36c0.229,0.242,0.609,0.242,0.837,0
	c1.951-2.067,10.197-11.547,13.532-27.36C51.977,18.084,52.191,15.123,51.809,12.208z M37.419,22c-4.66,0-8.438-3.778-8.438-8.438
	s3.778-8.438,8.438-8.438s8.438,3.778,8.438,8.438S42.079,22,37.419,22z"/>
<path style="fill:#EBBA16;" d="M36.97,23.705c-0.697-5.318-3.477-12.208-14.39-12.208s-13.692,6.89-14.39,12.208
	c-0.382,2.915-0.168,5.876,0.439,8.752c3.336,15.813,11.581,25.293,13.532,27.36c0.229,0.242,0.609,0.242,0.837,0
	c1.951-2.067,10.197-11.547,13.532-27.36C37.138,29.581,37.352,26.62,36.97,23.705z M22.581,33.498c-4.66,0-8.438-3.778-8.438-8.438
	s3.778-8.438,8.438-8.438s8.438,3.778,8.438,8.438S27.24,33.498,22.581,33.498z"/>
<g>
</g>
<g>
</g>
<g>
</g>
<g>
</g>
<g>
</g>
<g>
</g>
<g>
</g>
<g>
</g>
<g>
</g>
<g>
</g>
<g>
</g>
<g>
</g>
<g>
</g>
<g>
</g>
<g>
</g>
</svg>
