<?xml version="1.0" encoding="iso-8859-1"?>
<!-- Generator: Adobe Illustrator 19.0.0, SVG Export Plug-In . SVG Version: 6.00 Build 0)  -->
<svg version="1.1" id="Capa_1" xmlns="http://www.w3.org/2000/svg" xmlns:xlink="http://www.w3.org/1999/xlink" x="0px" y="0px"
	 viewBox="0 0 58 58" style="enable-background:new 0 0 58 58;" xml:space="preserve">
<circle style="fill:#3083C9;" cx="29" cy="29" r="29"/>
<g>
	<polygon style="fill:#FFFFFF;" points="22,29 44,44 44,29.273 44,14 	"/>
	<path style="fill:#FFFFFF;" d="M44,45c-0.197,0-0.394-0.059-0.563-0.174l-22-15C21.164,29.64,21,29.331,21,29
		s0.164-0.64,0.437-0.826l22-15c0.308-0.208,0.705-0.231,1.031-0.058C44.795,13.289,45,13.629,45,14v30
		c0,0.371-0.205,0.711-0.533,0.884C44.321,44.962,44.16,45,44,45z M23.775,29L43,42.107V15.893L23.775,29z"/>
</g>
<g>
	<rect x="13" y="14" style="fill:#FFFFFF;" width="5" height="30"/>
	<path style="fill:#FFFFFF;" d="M19,45h-7V13h7V45z M14,43h3V15h-3V43z"/>
</g>
<g>
</g>
<g>
</g>
<g>
</g>
<g>
</g>
<g>
</g>
<g>
</g>
<g>
</g>
<g>
</g>
<g>
</g>
<g>
</g>
<g>
</g>
<g>
</g>
<g>
</g>
<g>
</g>
<g>
</g>
</svg>
