<?xml version="1.0" encoding="iso-8859-1"?>
<!-- Generator: Adobe Illustrator 19.0.0, SVG Export Plug-In . SVG Version: 6.00 Build 0)  -->
<svg version="1.1" id="Capa_1" xmlns="http://www.w3.org/2000/svg" xmlns:xlink="http://www.w3.org/1999/xlink" x="0px" y="0px"
	 viewBox="0 0 58 58" style="enable-background:new 0 0 58 58;" xml:space="preserve">
<polygon style="fill:#C7CAC7;" points="49,35 49,52 52,52 52,49 58,49 58,17 0,17 0,49 6,49 6,52 9,52 9,35 "/>
<polygon style="fill:#556080;" points="58,35 58,17 0,17 0,35 9,35 49,35 "/>
<rect x="6" y="35" style="fill:#7383BF;" width="46" height="17"/>
<polygon style="fill:#EDEADA;" points="49,0 49,7 49,17 9,17 9,0 "/>
<polyline style="fill:#EDEADA;" points="49,35 49,58 9,58 9,35 "/>
<path style="fill:#CEC9AE;" d="M41,44H17c-0.553,0-1-0.447-1-1s0.447-1,1-1h24c0.553,0,1,0.447,1,1S41.553,44,41,44z"/>
<path style="fill:#CEC9AE;" d="M41,49H17c-0.553,0-1-0.447-1-1s0.447-1,1-1h24c0.553,0,1,0.447,1,1S41.553,49,41,49z"/>
<circle style="fill:#A4E869;" cx="49" cy="26" r="4"/>
<g>
</g>
<g>
</g>
<g>
</g>
<g>
</g>
<g>
</g>
<g>
</g>
<g>
</g>
<g>
</g>
<g>
</g>
<g>
</g>
<g>
</g>
<g>
</g>
<g>
</g>
<g>
</g>
<g>
</g>
</svg>
