<?xml version="1.0" encoding="iso-8859-1"?>
<!-- Generator: Adobe Illustrator 19.0.0, SVG Export Plug-In . SVG Version: 6.00 Build 0)  -->
<svg version="1.1" id="Capa_1" xmlns="http://www.w3.org/2000/svg" xmlns:xlink="http://www.w3.org/1999/xlink" x="0px" y="0px"
	 viewBox="0 0 51.012 51.012" style="enable-background:new 0 0 51.012 51.012;" xml:space="preserve">
<line style="fill:none;stroke:#E0E1E2;stroke-width:2;stroke-linecap:round;stroke-linejoin:round;stroke-miterlimit:10;" x1="35.729" y1="35.734" x2="50.006" y2="50.012"/>
<path style="fill:#EFCE4A;" d="M35,36.463L20.452,51.012c-3.585-9.003,0.535-18.15,0.535-18.15L7.527,17.039
	c0,0-4.386,0.704-7.522-1.785L15.26,0c0,0,2.508,3.117,1.768,7.607l15.785,13.43c0,0,8.493-4.385,18.15-0.537L35,36.463z"/>
<path style="fill:#EBBA16;" d="M20.987,32.861c0,0-0.036,0.084-0.086,0.205L33.037,20.93c-0.133,0.062-0.225,0.107-0.225,0.107
	L17.079,7.651l-9.476,9.476L20.987,32.861z"/>
<g>
</g>
<g>
</g>
<g>
</g>
<g>
</g>
<g>
</g>
<g>
</g>
<g>
</g>
<g>
</g>
<g>
</g>
<g>
</g>
<g>
</g>
<g>
</g>
<g>
</g>
<g>
</g>
<g>
</g>
</svg>
