<?xml version="1.0" encoding="iso-8859-1"?>
<!-- Generator: Adobe Illustrator 19.0.0, SVG Export Plug-In . SVG Version: 6.00 Build 0)  -->
<svg version="1.1" id="Capa_1" xmlns="http://www.w3.org/2000/svg" xmlns:xlink="http://www.w3.org/1999/xlink" x="0px" y="0px"
	 viewBox="0 0 57.951 57.951" style="enable-background:new 0 0 57.951 57.951;" xml:space="preserve">
<circle style="fill:#A4E869;" cx="28.965" cy="28.968" r="28"/>
<path style="fill:#88C057;" d="M28.965,57.951c-7.426,0-14.853-2.827-20.506-8.48C-1.698,39.313-2.851,23.011,5.778,11.552
	c0.332-0.44,0.958-0.531,1.4-0.197c0.441,0.332,0.529,0.959,0.197,1.4c-8.033,10.669-6.959,25.845,2.497,35.302
	c10.527,10.527,27.656,10.527,38.184,0s10.527-27.656,0-38.185C38.602,0.417,23.426-0.657,12.755,7.376
	c-0.442,0.334-1.068,0.243-1.4-0.197c-0.332-0.441-0.244-1.068,0.197-1.4c11.462-8.629,27.763-7.478,37.919,2.68
	c11.307,11.308,11.307,29.706,0,41.013C43.817,55.124,36.39,57.951,28.965,57.951z"/>
<path style="fill:#88C057;" d="M28.965,50.954c-5.634,0-11.268-2.145-15.557-6.434c-8.578-8.578-8.578-22.534,0-31.112
	s22.535-8.578,31.113,0c2.554,2.554,4.453,5.73,5.493,9.187c0.159,0.529-0.141,1.087-0.67,1.246c-0.53,0.159-1.087-0.143-1.246-0.67
	c-0.944-3.141-2.671-6.027-4.991-8.349c-7.798-7.798-20.487-7.798-28.285,0s-7.798,20.486,0,28.284
	c7.799,7.799,20.486,7.799,28.285,0c3.309-3.309,5.355-7.708,5.764-12.388c0.048-0.55,0.548-0.957,1.083-0.909
	c0.55,0.048,0.957,0.533,0.909,1.083c-0.449,5.147-2.701,9.987-6.342,13.628C40.232,48.809,34.598,50.954,28.965,50.954z"/>
<path style="fill:#88C057;" d="M28.965,42.958c-3.744,0-7.26-1.454-9.899-4.094s-4.094-6.155-4.094-9.899s1.454-7.26,4.094-9.899
	s6.155-4.094,9.899-4.094s7.26,1.454,9.899,4.094s4.094,6.155,4.094,9.899s-1.454,7.26-4.094,9.899S32.709,42.958,28.965,42.958z
	 M28.965,16.971c-3.21,0-6.224,1.246-8.485,3.508s-3.508,5.275-3.508,8.485s1.246,6.224,3.508,8.485s5.275,3.508,8.485,3.508
	s6.224-1.246,8.485-3.508s3.508-5.275,3.508-8.485s-1.246-6.224-3.508-8.485S32.175,16.971,28.965,16.971z"/>
<path style="fill:#EBBA16;" d="M28.965,29.965c-0.256,0-0.512-0.098-0.707-0.293c-0.391-0.391-0.391-1.023,0-1.414l22.5-22.5
	c0.391-0.391,1.023-0.391,1.414,0s0.391,1.023,0,1.414l-22.5,22.5C29.476,29.867,29.221,29.965,28.965,29.965z"/>
<circle style="fill:#7383BF;" cx="8.965" cy="8.964" r="4"/>
<circle style="fill:#CC4B4C;" cx="49.471" cy="26.843" r="4"/>
<g>
</g>
<g>
</g>
<g>
</g>
<g>
</g>
<g>
</g>
<g>
</g>
<g>
</g>
<g>
</g>
<g>
</g>
<g>
</g>
<g>
</g>
<g>
</g>
<g>
</g>
<g>
</g>
<g>
</g>
</svg>
