<?xml version="1.0" encoding="iso-8859-1"?>
<!-- Generator: Adobe Illustrator 19.0.0, SVG Export Plug-In . SVG Version: 6.00 Build 0)  -->
<svg version="1.1" id="Capa_1" xmlns="http://www.w3.org/2000/svg" xmlns:xlink="http://www.w3.org/1999/xlink" x="0px" y="0px"
	 viewBox="0 0 58 58" style="enable-background:new 0 0 58 58;" xml:space="preserve">
<path style="fill:#556080;" d="M55,49.5H33c-1.65,0-4,1.75-4,4v-46c0-1.65,1.35-3,3-3h23c1.65,0,3,1.35,3,3v39
	C58,48.15,56.65,49.5,55,49.5z"/>
<path style="fill:#7383BF;" d="M3,49.5h22c1.65,0,4,1.75,4,4v-46c0-1.65-1.35-3-3-3H3c-1.65,0-3,1.35-3,3l0,39
	C0,48.15,1.35,49.5,3,49.5z"/>
<g>
</g>
<g>
</g>
<g>
</g>
<g>
</g>
<g>
</g>
<g>
</g>
<g>
</g>
<g>
</g>
<g>
</g>
<g>
</g>
<g>
</g>
<g>
</g>
<g>
</g>
<g>
</g>
<g>
</g>
</svg>
