<?xml version="1.0" encoding="iso-8859-1"?>
<!-- Generator: Adobe Illustrator 19.0.0, SVG Export Plug-In . SVG Version: 6.00 Build 0)  -->
<svg version="1.1" id="Capa_1" xmlns="http://www.w3.org/2000/svg" xmlns:xlink="http://www.w3.org/1999/xlink" x="0px" y="0px"
	 viewBox="0 0 58 58" style="enable-background:new 0 0 58 58;" xml:space="preserve">
<polygon style="fill:#EDEADA;" points="51.5,14 37.5,0 6.5,0 6.5,58 51.5,58 "/>
<polygon style="fill:#CEC9AE;" points="37.5,0 37.5,14 51.5,14 "/>
<g>
	<path style="fill:#CEC9AE;" d="M33.5,34h-17c-0.552,0-1,0.447-1,1s0.448,1,1,1h17c0.552,0,1-0.447,1-1S34.052,34,33.5,34z"/>
	<path style="fill:#CEC9AE;" d="M44.5,30c0-0.553-0.448-1-1-1h-7c-0.552,0-1,0.447-1,1s0.448,1,1,1h7C44.052,31,44.5,30.553,44.5,30
		z"/>
	<path style="fill:#CEC9AE;" d="M21.5,31h10c0.552,0,1-0.447,1-1s-0.448-1-1-1h-10c-0.552,0-1,0.447-1,1S20.948,31,21.5,31z"/>
	<path style="fill:#CEC9AE;" d="M16.5,31c0.27,0,0.52-0.11,0.71-0.29c0.18-0.19,0.29-0.45,0.29-0.71c0-0.261-0.11-0.521-0.29-0.71
		c-0.37-0.37-1.06-0.36-1.42,0c-0.18,0.189-0.29,0.449-0.29,0.71c0,0.26,0.11,0.52,0.29,0.7C15.97,30.89,16.23,31,16.5,31z"/>
	<path style="fill:#CEC9AE;" d="M37.79,34.29c-0.18,0.189-0.29,0.439-0.29,0.71c0,0.27,0.1,0.52,0.29,0.71
		C37.98,35.89,38.24,36,38.5,36c0.26,0,0.52-0.11,0.71-0.29c0.19-0.19,0.29-0.44,0.29-0.71c0-0.261-0.11-0.521-0.29-0.71
		C38.83,33.92,38.17,33.92,37.79,34.29z"/>
	<path style="fill:#CEC9AE;" d="M42.79,34.29c-0.18,0.189-0.29,0.439-0.29,0.71c0,0.27,0.1,0.52,0.29,0.71
		C42.98,35.89,43.24,36,43.5,36c0.26,0,0.52-0.11,0.71-0.3c0.19-0.19,0.29-0.44,0.29-0.7c0-0.261-0.11-0.521-0.29-0.71
		C43.83,33.92,43.17,33.92,42.79,34.29z"/>
</g>
<g>
	<path style="fill:#7383BF;" d="M22.025,39.166c-2.191,1.141-2.928,3.321-3.196,5.582c-0.414-0.347-0.828-0.693-1.241-1.04
		c-0.981-0.822-2.404,0.585-1.414,1.415c0.935,0.783,1.871,1.567,2.806,2.351c0.662,0.555,1.676,0.211,1.707-0.707
		c0.073-2.167,0.177-4.743,2.348-5.873C24.179,40.298,23.167,38.572,22.025,39.166z"/>
	<path style="fill:#7383BF;" d="M37.363,44.25c-0.423-0.58-0.859-1.063-1.632-1.121c-1.457-0.11-3.958,1.975-4.992,0.132
		c-0.262-0.468-0.91-0.64-1.368-0.359c-1.416,0.869-3.267,2.119-4.756,0.5c-0.875-0.951-2.286,0.467-1.414,1.414
		c1.871,2.034,4.284,1.411,6.407,0.259c0.448,0.481,0.984,0.81,1.697,1.067c0.909,0.328,4.087-1.22,4.333-0.883
		C36.389,46.289,38.126,45.293,37.363,44.25z"/>
</g>
<path style="fill:#CEC9AE;" d="M26.093,21.092l-2.511-1.283c-0.171-0.088-0.279-0.264-0.279-0.457v-0.769
	c1.289-0.555,2.03-1.634,2.39-2.983c0.543-0.168,0.943-0.671,0.943-1.268v-0.667c0-0.511-0.294-0.951-0.718-1.175
	c-0.294-2.507-1.951-3.521-4.615-3.521c-0.126,0-0.25,0.005-0.371,0.015c-0.905,0.072-1.821-0.099-2.574-0.606
	c-0.313-0.211-0.577-0.435-0.762-0.67c-0.084-0.107-0.254-0.039-0.238,0.097c0.027,0.233,0.066,0.505,0.125,0.803
	c0.22,1.107,0.089,0.945-0.339,1.989c-0.237,0.578-0.389,1.218-0.46,1.897c-0.422,0.225-0.714,0.664-0.714,1.172v0.667
	c0,0.597,0.4,1.1,0.943,1.268c0.36,1.349,1.101,2.428,2.39,2.983v0.764c0,0.195-0.111,0.374-0.286,0.46l-2.574,1.268
	c-0.436,0.238-0.752,0.619-0.942,1.059C17.137,23.304,19.137,24,21.302,24c2.157,0,4.15-0.69,5.784-1.852
	C26.882,21.702,26.548,21.32,26.093,21.092z"/>
<g>
</g>
<g>
</g>
<g>
</g>
<g>
</g>
<g>
</g>
<g>
</g>
<g>
</g>
<g>
</g>
<g>
</g>
<g>
</g>
<g>
</g>
<g>
</g>
<g>
</g>
<g>
</g>
<g>
</g>
</svg>
