<?xml version="1.0" encoding="iso-8859-1"?>
<!-- Generator: Adobe Illustrator 19.0.0, SVG Export Plug-In . SVG Version: 6.00 Build 0)  -->
<svg version="1.1" id="Capa_1" xmlns="http://www.w3.org/2000/svg" xmlns:xlink="http://www.w3.org/1999/xlink" x="0px" y="0px"
	 viewBox="0 0 58 58" style="enable-background:new 0 0 58 58;" xml:space="preserve">
<circle style="fill:#25AE88;" cx="29" cy="29" r="29"/>
<g>
	<polygon style="fill:#FFFFFF;" points="4,29 26,44 26,29.273 26,14 	"/>
	<path style="fill:#FFFFFF;" d="M26,45c-0.197,0-0.395-0.059-0.563-0.174l-22-15C3.163,29.64,3,29.331,3,29s0.163-0.64,0.437-0.826
		l22-15c0.308-0.208,0.704-0.231,1.03-0.058C26.795,13.289,27,13.629,27,14v30c0,0.371-0.205,0.711-0.533,0.884
		C26.32,44.962,26.16,45,26,45z M5.775,29L25,42.107V15.893L5.775,29z"/>
</g>
<g>
	<polygon style="fill:#FFFFFF;" points="26,29 48,44 48,29.273 48,14 	"/>
	<path style="fill:#FFFFFF;" d="M48,45c-0.197,0-0.395-0.059-0.563-0.174l-22-15C25.163,29.64,25,29.331,25,29
		s0.163-0.64,0.437-0.826l22-15c0.307-0.208,0.704-0.231,1.03-0.058C48.795,13.289,49,13.629,49,14v30
		c0,0.371-0.205,0.711-0.533,0.884C48.32,44.962,48.16,45,48,45z M27.775,29L47,42.107V15.893L27.775,29z"/>
</g>
<g>
</g>
<g>
</g>
<g>
</g>
<g>
</g>
<g>
</g>
<g>
</g>
<g>
</g>
<g>
</g>
<g>
</g>
<g>
</g>
<g>
</g>
<g>
</g>
<g>
</g>
<g>
</g>
<g>
</g>
</svg>
