<?xml version="1.0" encoding="iso-8859-1"?>
<!-- Generator: Adobe Illustrator 19.0.0, SVG Export Plug-In . SVG Version: 6.00 Build 0)  -->
<svg version="1.1" id="Capa_1" xmlns="http://www.w3.org/2000/svg" xmlns:xlink="http://www.w3.org/1999/xlink" x="0px" y="0px"
	 viewBox="0 0 60 60" style="enable-background:new 0 0 60 60;" xml:space="preserve">
<path style="fill:#C7CAC7;" d="M31.045,58.431c-0.441,0-0.845-0.294-0.965-0.74c-0.144-0.533,0.172-1.082,0.706-1.226
	c0.252-0.067,0.494-0.168,0.719-0.3c0.477-0.276,1.089-0.116,1.368,0.36c0.278,0.478,0.116,1.09-0.361,1.368
	c-0.377,0.22-0.783,0.389-1.205,0.503C31.218,58.42,31.131,58.431,31.045,58.431z M28.012,58.041c-0.168,0-0.339-0.042-0.496-0.132
	c-0.379-0.217-0.728-0.483-1.038-0.791c-0.392-0.389-0.394-1.022-0.004-1.414c0.39-0.39,1.022-0.394,1.414-0.004
	c0.185,0.184,0.394,0.343,0.621,0.473c0.479,0.274,0.646,0.886,0.371,1.365C28.696,57.86,28.359,58.041,28.012,58.041z
	 M33.866,55.602c-0.085,0-0.172-0.011-0.258-0.034c-0.534-0.143-0.851-0.69-0.708-1.224C32.966,54.093,33,53.833,33,53.569
	c0-0.553,0.448-1.023,1-1.023s1,0.424,1,0.977v0.047c0,0.438-0.057,0.872-0.168,1.291C34.712,55.307,34.308,55.602,33.866,55.602z
	 M26,54.581c-0.552,0-1-0.436-1-0.988h1l-1-0.002c0-0.449,0.054-0.874,0.161-1.284c0.139-0.535,0.685-0.854,1.22-0.716
	c0.535,0.14,0.855,0.686,0.716,1.22C27.033,53.056,27,53.311,27,53.569C27,54.122,26.553,54.581,26,54.581z M32.799,51.711
	c-0.252,0-0.505-0.095-0.7-0.286c-0.187-0.183-0.397-0.342-0.626-0.471c-0.48-0.272-0.648-0.883-0.376-1.363
	c0.272-0.482,0.88-0.648,1.363-0.377c0.379,0.216,0.729,0.479,1.039,0.783c0.394,0.387,0.4,1.02,0.014,1.414
	C33.317,51.611,33.059,51.711,32.799,51.711z M27.974,51.12c-0.343,0-0.677-0.177-0.863-0.493c-0.28-0.477-0.121-1.089,0.355-1.369
	c0.376-0.221,0.78-0.393,1.2-0.508c0.534-0.145,1.083,0.166,1.23,0.698c0.147,0.532-0.166,1.083-0.698,1.229
	c-0.251,0.069-0.493,0.172-0.719,0.305C28.321,51.076,28.146,51.12,27.974,51.12z"/>
<path style="fill:#C7CAC7;" d="M22,54.569h-1c-0.552,0-1-0.447-1-1s0.448-1,1-1h1c0.552,0,1,0.447,1,1S22.552,54.569,22,54.569z
	 M18,54.569h-1c-0.552,0-1-0.447-1-1s0.448-1,1-1h1c0.552,0,1,0.447,1,1S18.552,54.569,18,54.569z M14,54.569h-1
	c-0.552,0-1-0.447-1-1s0.448-1,1-1h1c0.552,0,1,0.447,1,1S14.552,54.569,14,54.569z M10,54.569H9c-0.552,0-1-0.447-1-1s0.448-1,1-1
	h1c0.552,0,1,0.447,1,1S10.552,54.569,10,54.569z M6,54.569H5c-0.552,0-1-0.447-1-1s0.448-1,1-1h1c0.552,0,1,0.447,1,1
	S6.552,54.569,6,54.569z M2,54.569H1c-0.552,0-1-0.447-1-1s0.448-1,1-1h1c0.552,0,1,0.447,1,1S2.552,54.569,2,54.569z"/>
<path style="fill:#C7CAC7;" d="M59,54.569h-1c-0.552,0-1-0.447-1-1s0.448-1,1-1h1c0.552,0,1,0.447,1,1S59.552,54.569,59,54.569z
	 M55,54.569h-1c-0.552,0-1-0.447-1-1s0.448-1,1-1h1c0.552,0,1,0.447,1,1S55.552,54.569,55,54.569z M51,54.569h-1
	c-0.552,0-1-0.447-1-1s0.448-1,1-1h1c0.552,0,1,0.447,1,1S51.552,54.569,51,54.569z M47,54.569h-1c-0.552,0-1-0.447-1-1s0.448-1,1-1
	h1c0.552,0,1,0.447,1,1S47.552,54.569,47,54.569z M43,54.569h-1c-0.552,0-1-0.447-1-1s0.448-1,1-1h1c0.552,0,1,0.447,1,1
	S43.552,54.569,43,54.569z M39,54.569h-1c-0.552,0-1-0.447-1-1s0.448-1,1-1h1c0.552,0,1,0.447,1,1S39.552,54.569,39,54.569z"/>
<path style="fill:#C7CAC7;" d="M30,47.569c-0.552,0-1-0.447-1-1v-1c0-0.553,0.448-1,1-1s1,0.447,1,1v1
	C31,47.122,30.552,47.569,30,47.569z M30,43.569c-0.552,0-1-0.447-1-1v-1c0-0.553,0.448-1,1-1s1,0.447,1,1v1
	C31,43.122,30.552,43.569,30,43.569z"/>
<path style="fill:#CED8DB;" d="M4.608,20.569h50.783c1.993,0,3.608,1.616,3.608,3.608V35.96c0,1.993-1.616,3.608-3.608,3.608H4.608
	C2.616,39.569,1,37.953,1,35.96V24.177C1,22.184,2.616,20.569,4.608,20.569z"/>
<path style="fill:#E7ECED;" d="M4.608,1.569h50.783C57.384,1.569,59,3.184,59,5.177V16.96c0,1.993-1.616,3.608-3.608,3.608H4.608
	C2.616,20.569,1,18.953,1,16.96V5.177C1,3.184,2.616,1.569,4.608,1.569z"/>
<circle style="fill:#FFFFFF;" cx="10.5" cy="11.069" r="3.5"/>
<circle style="fill:#FFFFFF;" cx="50" cy="9.569" r="1"/>
<circle style="fill:#FFFFFF;" cx="46" cy="9.569" r="1"/>
<circle style="fill:#FFFFFF;" cx="52" cy="12.569" r="1"/>
<circle style="fill:#FFFFFF;" cx="48" cy="12.569" r="1"/>
<circle style="fill:#FFFFFF;" cx="42" cy="9.569" r="1"/>
<circle style="fill:#FFFFFF;" cx="44" cy="12.569" r="1"/>
<circle style="fill:#FFFFFF;" cx="38" cy="9.569" r="1"/>
<circle style="fill:#FFFFFF;" cx="40" cy="12.569" r="1"/>
<circle style="fill:#FFFFFF;" cx="34" cy="9.569" r="1"/>
<circle style="fill:#FFFFFF;" cx="36" cy="12.569" r="1"/>
<circle style="fill:#FFFFFF;" cx="10.5" cy="30.069" r="3.5"/>
<circle style="fill:#FFFFFF;" cx="50" cy="28.569" r="1"/>
<circle style="fill:#FFFFFF;" cx="46" cy="28.569" r="1"/>
<circle style="fill:#FFFFFF;" cx="52" cy="31.569" r="1"/>
<circle style="fill:#FFFFFF;" cx="48" cy="31.569" r="1"/>
<circle style="fill:#FFFFFF;" cx="42" cy="28.569" r="1"/>
<circle style="fill:#FFFFFF;" cx="44" cy="31.569" r="1"/>
<circle style="fill:#FFFFFF;" cx="38" cy="28.569" r="1"/>
<circle style="fill:#FFFFFF;" cx="40" cy="31.569" r="1"/>
<circle style="fill:#FFFFFF;" cx="34" cy="28.569" r="1"/>
<circle style="fill:#FFFFFF;" cx="36" cy="31.569" r="1"/>
<g>
</g>
<g>
</g>
<g>
</g>
<g>
</g>
<g>
</g>
<g>
</g>
<g>
</g>
<g>
</g>
<g>
</g>
<g>
</g>
<g>
</g>
<g>
</g>
<g>
</g>
<g>
</g>
<g>
</g>
</svg>
