<?xml version="1.0" encoding="iso-8859-1"?>
<!-- Generator: Adobe Illustrator 19.0.0, SVG Export Plug-In . SVG Version: 6.00 Build 0)  -->
<svg version="1.1" id="Capa_1" xmlns="http://www.w3.org/2000/svg" xmlns:xlink="http://www.w3.org/1999/xlink" x="0px" y="0px"
	 viewBox="0 0 61 61" style="enable-background:new 0 0 61 61;" xml:space="preserve">
<path style="fill:#CED8DB;" d="M4.608,21h50.783C57.384,21,59,22.616,59,24.608v11.783C59,38.384,57.384,40,55.392,40H4.608
	C2.616,40,1,38.384,1,36.392V24.608C1,22.616,2.616,21,4.608,21z"/>
<circle style="fill:none;stroke:#424A60;stroke-width:2;stroke-linecap:round;stroke-miterlimit:10;" cx="30" cy="54" r="4"/>
<path style="fill:#E7ECED;" d="M4.608,2h50.783C57.384,2,59,3.616,59,5.608v11.783C59,19.384,57.384,21,55.392,21H4.608
	C2.616,21,1,19.384,1,17.392V5.608C1,3.616,2.616,2,4.608,2z"/>
<line style="fill:none;stroke:#424A60;stroke-width:2;stroke-linecap:round;stroke-miterlimit:10;" x1="1" y1="54" x2="22" y2="54"/>
<line style="fill:none;stroke:#424A60;stroke-width:2;stroke-linecap:round;stroke-miterlimit:10;" x1="38" y1="54" x2="60" y2="54"/>
<line style="fill:none;stroke:#424A60;stroke-width:2;stroke-miterlimit:10;" x1="30" y1="40" x2="24.5" y2="45.5"/>
<line style="fill:none;stroke:#424A60;stroke-width:2;stroke-miterlimit:10;" x1="35.5" y1="44.5" x2="30" y2="50"/>
<circle style="fill:#FFFFFF;" cx="10.5" cy="11.5" r="3.5"/>
<circle style="fill:#FFFFFF;" cx="50" cy="10" r="1"/>
<circle style="fill:#FFFFFF;" cx="46" cy="10" r="1"/>
<circle style="fill:#FFFFFF;" cx="52" cy="13" r="1"/>
<circle style="fill:#FFFFFF;" cx="48" cy="13" r="1"/>
<circle style="fill:#FFFFFF;" cx="42" cy="10" r="1"/>
<circle style="fill:#FFFFFF;" cx="44" cy="13" r="1"/>
<circle style="fill:#FFFFFF;" cx="38" cy="10" r="1"/>
<circle style="fill:#FFFFFF;" cx="40" cy="13" r="1"/>
<circle style="fill:#FFFFFF;" cx="34" cy="10" r="1"/>
<circle style="fill:#FFFFFF;" cx="36" cy="13" r="1"/>
<circle style="fill:#FFFFFF;" cx="10.5" cy="30.5" r="3.5"/>
<circle style="fill:#FFFFFF;" cx="50" cy="29" r="1"/>
<circle style="fill:#FFFFFF;" cx="46" cy="29" r="1"/>
<circle style="fill:#FFFFFF;" cx="52" cy="32" r="1"/>
<circle style="fill:#FFFFFF;" cx="48" cy="32" r="1"/>
<circle style="fill:#FFFFFF;" cx="42" cy="29" r="1"/>
<circle style="fill:#FFFFFF;" cx="44" cy="32" r="1"/>
<circle style="fill:#FFFFFF;" cx="38" cy="29" r="1"/>
<circle style="fill:#FFFFFF;" cx="40" cy="32" r="1"/>
<circle style="fill:#FFFFFF;" cx="34" cy="29" r="1"/>
<circle style="fill:#FFFFFF;" cx="36" cy="32" r="1"/>
<g>
</g>
<g>
</g>
<g>
</g>
<g>
</g>
<g>
</g>
<g>
</g>
<g>
</g>
<g>
</g>
<g>
</g>
<g>
</g>
<g>
</g>
<g>
</g>
<g>
</g>
<g>
</g>
<g>
</g>
</svg>
