<?xml version="1.0" encoding="iso-8859-1"?>
<!-- Generator: Adobe Illustrator 19.0.0, SVG Export Plug-In . SVG Version: 6.00 Build 0)  -->
<svg version="1.1" id="Capa_1" xmlns="http://www.w3.org/2000/svg" xmlns:xlink="http://www.w3.org/1999/xlink" x="0px" y="0px"
	 viewBox="0 0 60 60" style="enable-background:new 0 0 60 60;" xml:space="preserve">
<g>
	<path style="fill:#ED8A19;" d="M59,16H56.95c-0.221-3.108-1.455-5.934-3.381-8.154l1.139-1.139c0.391-0.391,0.391-1.023,0-1.414
		s-1.023-0.391-1.414,0l-1.139,1.139c-2.22-1.926-5.047-3.16-8.154-3.381V1c0-0.553-0.448-1-1-1s-1,0.447-1,1v2.051
		c-3.108,0.221-5.934,1.455-8.154,3.381l-1.139-1.139c-0.391-0.391-1.023-0.391-1.414,0s-0.391,1.023,0,1.414l1.139,1.139
		c-1.926,2.22-3.16,5.047-3.381,8.154H27c-0.552,0-1,0.447-1,1s0.448,1,1,1h2.051c0.221,3.108,1.455,5.934,3.381,8.154l-1.139,1.139
		c-0.391,0.391-0.391,1.023,0,1.414C31.489,28.903,31.744,29,32,29s0.512-0.098,0.707-0.293l1.139-1.139
		c2.22,1.926,5.047,3.16,8.154,3.381V33c0,0.553,0.448,1,1,1s1-0.447,1-1v-2.051c3.108-0.221,5.934-1.455,8.154-3.381l1.198,1.198
		c0.195,0.195,0.451,0.293,0.707,0.293s0.512-0.098,0.707-0.293c0.391-0.391,0.391-1.023,0-1.414l-1.198-1.198
		c1.926-2.22,3.16-5.047,3.381-8.154H59c0.552,0,1-0.447,1-1S59.553,16,59,16z M43,29c-6.617,0-12-5.383-12-12S36.384,5,43,5
		s12,5.383,12,12S49.617,29,43,29z"/>
	<path style="fill:#ED8A19;" d="M43,13c-2.206,0-4,1.794-4,4s1.794,4,4,4s4-1.794,4-4S45.206,13,43,13z M43,19c-1.103,0-2-0.897-2-2
		s0.897-2,2-2s2,0.897,2,2S44.103,19,43,19z"/>
</g>
<path style="fill:#424A60;" d="M37.407,48.086l-1.595-0.708C36.568,45.392,37,43.248,37,41c0-1.948-0.321-3.821-0.896-5.579
	l1.258-0.489c0.515-0.2,0.77-0.779,0.57-1.294c-0.199-0.515-0.775-0.772-1.294-0.569l-1.267,0.492
	c-1.684-3.69-4.571-6.711-8.165-8.562l0.708-1.593c0.224-0.505-0.003-1.096-0.508-1.32c-0.506-0.223-1.095,0.004-1.32,0.508
	l-0.709,1.595C23.392,23.433,21.248,23,19,23c-1.948,0-3.82,0.321-5.579,0.896l-0.489-1.258c-0.2-0.515-0.781-0.771-1.294-0.569
	c-0.515,0.199-0.77,0.779-0.57,1.294l0.492,1.267c-3.69,1.684-6.71,4.571-8.561,8.165l-1.593-0.708
	c-0.505-0.223-1.095,0.004-1.32,0.508c-0.224,0.505,0.003,1.096,0.508,1.32l1.595,0.708C1.433,36.609,1,38.753,1,41
	c0,1.948,0.321,3.821,0.896,5.579l-1.258,0.489c-0.515,0.2-0.77,0.779-0.57,1.294C0.222,48.758,0.6,49,1.001,49
	c0.12,0,0.243-0.021,0.362-0.068l1.267-0.492c1.684,3.69,4.571,6.711,8.165,8.562l-0.708,1.593c-0.224,0.505,0.003,1.096,0.508,1.32
	C10.726,59.973,10.864,60,11,60c0.383,0,0.749-0.222,0.915-0.594l0.709-1.595C14.609,58.568,16.753,59,19,59
	c1.948,0,3.82-0.321,5.579-0.896l0.489,1.258C25.222,59.758,25.6,60,26,60c0.121,0,0.243-0.021,0.362-0.068
	c0.515-0.199,0.77-0.779,0.57-1.294l-0.492-1.267c3.69-1.684,6.71-4.571,8.561-8.165l1.593,0.708C36.726,49.973,36.864,50,37,50
	c0.383,0,0.749-0.222,0.915-0.594C38.139,48.902,37.911,48.311,37.407,48.086z M19,25c1.959,0,3.828,0.371,5.565,1.018l-4.91,11.048
	C19.441,37.031,19.224,37,19,37c-2.206,0-4,1.794-4,4c0,0.159,0.029,0.31,0.047,0.465l-11.289,4.39C3.269,44.323,3,42.693,3,41
	C3,32.178,10.178,25,19,25z M17.144,41.732c-0.001-0.003,0-0.006-0.002-0.009c-0.001-0.001-0.002-0.002-0.003-0.004
	C17.053,41.495,17,41.254,17,41c0-1.103,0.897-2,2-2c0.279,0,0.544,0.058,0.786,0.162c0.009,0.004,0.015,0.013,0.024,0.017
	c0.004,0.002,0.008,0.001,0.012,0.002C20.515,39.496,21,40.191,21,41c0,1.103-0.897,2-2,2C18.156,43,17.437,42.473,17.144,41.732z
	 M4.497,47.713l11.267-4.382C16.491,44.338,17.667,45,19,45c0.159,0,0.31-0.029,0.465-0.047l4.39,11.289
	C22.323,56.731,20.693,57,19,57C12.577,57,7.041,53.187,4.497,47.713z M25.714,55.504l-4.382-11.267C22.338,43.509,23,42.334,23,41
	c0-1.265-0.602-2.381-1.521-3.115l4.916-11.06C31.502,29.501,35,34.846,35,41C35,47.423,31.188,52.959,25.714,55.504z"/>
<g>
</g>
<g>
</g>
<g>
</g>
<g>
</g>
<g>
</g>
<g>
</g>
<g>
</g>
<g>
</g>
<g>
</g>
<g>
</g>
<g>
</g>
<g>
</g>
<g>
</g>
<g>
</g>
<g>
</g>
</svg>
