<?xml version="1.0" encoding="iso-8859-1"?>
<!-- Generator: Adobe Illustrator 19.0.0, SVG Export Plug-In . SVG Version: 6.00 Build 0)  -->
<svg version="1.1" id="Capa_1" xmlns="http://www.w3.org/2000/svg" xmlns:xlink="http://www.w3.org/1999/xlink" x="0px" y="0px"
	 viewBox="0 0 60 60" style="enable-background:new 0 0 60 60;" xml:space="preserve">
<path style="fill:#556080;" d="M30.023,56.004c-9.272,0-17.909-4.982-22.54-13.004C0.315,30.584,4.584,14.651,17,7.483
	c3.952-2.281,8.438-3.487,12.977-3.487c9.272,0,17.909,4.982,22.54,13.004C59.685,29.416,55.416,45.349,43,52.517
	C39.048,54.798,34.562,56.004,30.023,56.004z M29.977,5.996c-4.188,0-8.328,1.113-11.977,3.22
	c-5.552,3.205-9.522,8.381-11.182,14.572C5.159,29.98,6.011,36.448,9.216,42c4.274,7.404,12.248,12.004,20.808,12.004
	c4.188,0,8.328-1.113,11.977-3.22c5.552-3.205,9.522-8.381,11.182-14.572c1.659-6.192,0.808-12.66-2.397-18.212
	C46.51,10.596,38.536,5.996,29.977,5.996z"/>
<g>
	<path style="fill:#556080;" d="M23.46,1.729c-0.142-0.534-0.689-0.849-1.225-0.707c-0.533,0.143-0.85,0.691-0.707,1.225
		l1.035,3.863c0.119,0.447,0.523,0.741,0.965,0.741c0.086,0,0.173-0.011,0.26-0.034c0.533-0.143,0.85-0.691,0.707-1.225L23.46,1.729
		z"/>
	<path style="fill:#556080;" d="M37.437,53.89c-0.143-0.534-0.691-0.85-1.225-0.707s-0.85,0.691-0.707,1.225l1.035,3.863
		c0.119,0.447,0.523,0.741,0.965,0.741c0.086,0,0.173-0.011,0.26-0.034c0.533-0.143,0.85-0.691,0.707-1.225L37.437,53.89z"/>
	<path style="fill:#556080;" d="M59,29h-4c-0.553,0-1,0.447-1,1s0.447,1,1,1h4c0.553,0,1-0.447,1-1S59.553,29,59,29z"/>
	<path style="fill:#556080;" d="M5,31c0.553,0,1-0.447,1-1s-0.447-1-1-1H1c-0.553,0-1,0.447-1,1s0.447,1,1,1H5z"/>
	<path style="fill:#556080;" d="M48.385,46.971c-0.391-0.391-1.023-0.391-1.414,0s-0.391,1.023,0,1.414l2.828,2.828
		c0.195,0.195,0.451,0.293,0.707,0.293s0.512-0.098,0.707-0.293c0.391-0.391,0.391-1.023,0-1.414L48.385,46.971z"/>
	<path style="fill:#556080;" d="M10.201,8.787c-0.391-0.391-1.023-0.391-1.414,0s-0.391,1.023,0,1.414l2.828,2.828
		c0.195,0.195,0.451,0.293,0.707,0.293s0.512-0.098,0.707-0.293c0.391-0.391,0.391-1.023,0-1.414L10.201,8.787z"/>
	<path style="fill:#556080;" d="M47.678,13.322c0.256,0,0.512-0.098,0.707-0.293l2.828-2.828c0.391-0.391,0.391-1.023,0-1.414
		s-1.023-0.391-1.414,0l-2.828,2.828c-0.391,0.391-0.391,1.023,0,1.414C47.166,13.225,47.422,13.322,47.678,13.322z"/>
	<path style="fill:#556080;" d="M11.615,46.971l-2.828,2.828c-0.391,0.391-0.391,1.023,0,1.414c0.195,0.195,0.451,0.293,0.707,0.293
		s0.512-0.098,0.707-0.293l2.828-2.828c0.391-0.391,0.391-1.023,0-1.414S12.006,46.58,11.615,46.971z"/>
	<path style="fill:#556080;" d="M16.366,4.386C16.089,3.905,15.476,3.743,15,4.02c-0.479,0.276-0.643,0.888-0.366,1.366l2,3.464
		c0.186,0.321,0.521,0.5,0.867,0.5c0.17,0,0.342-0.043,0.499-0.134c0.479-0.276,0.643-0.888,0.366-1.366L16.366,4.386z"/>
	<path style="fill:#556080;" d="M43.366,51.15c-0.276-0.48-0.89-0.644-1.366-0.366c-0.479,0.276-0.643,0.888-0.366,1.366l2,3.464
		c0.186,0.321,0.521,0.5,0.867,0.5c0.17,0,0.342-0.043,0.499-0.134c0.479-0.276,0.643-0.888,0.366-1.366L43.366,51.15z"/>
	<path style="fill:#556080;" d="M30,54c-0.553,0-1,0.447-1,1v4c0,0.553,0.447,1,1,1s1-0.447,1-1v-4C31,54.447,30.553,54,30,54z"/>
	<path style="fill:#556080;" d="M30,0c-0.553,0-1,0.447-1,1v4c0,0.553,0.447,1,1,1s1-0.447,1-1V1C31,0.447,30.553,0,30,0z"/>
	<path style="fill:#556080;" d="M4.386,16.366l3.464,2C8.007,18.457,8.179,18.5,8.349,18.5c0.346,0,0.682-0.179,0.867-0.5
		c0.276-0.479,0.112-1.09-0.366-1.366l-3.464-2C4.908,14.356,4.296,14.521,4.02,15C3.743,15.479,3.907,16.09,4.386,16.366z"/>
	<path style="fill:#556080;" d="M55.614,43.634l-3.464-2c-0.479-0.276-1.09-0.114-1.366,0.366c-0.276,0.479-0.112,1.09,0.366,1.366
		l3.464,2c0.157,0.091,0.329,0.134,0.499,0.134c0.346,0,0.682-0.179,0.867-0.5C56.257,44.521,56.093,43.91,55.614,43.634z"/>
	<path style="fill:#556080;" d="M1.729,23.46l3.863,1.035c0.087,0.023,0.174,0.034,0.26,0.034c0.441,0,0.846-0.294,0.965-0.741
		c0.143-0.533-0.174-1.082-0.707-1.225l-3.863-1.035c-0.531-0.14-1.082,0.174-1.225,0.707S1.196,23.317,1.729,23.46z"/>
	<path style="fill:#556080;" d="M58.271,36.54l-3.863-1.035c-0.532-0.142-1.082,0.173-1.225,0.707
		c-0.143,0.533,0.174,1.082,0.707,1.225l3.863,1.035c0.087,0.023,0.174,0.034,0.26,0.034c0.441,0,0.846-0.294,0.965-0.741
		C59.12,37.231,58.804,36.683,58.271,36.54z"/>
	<path style="fill:#556080;" d="M6.817,36.212c-0.143-0.534-0.691-0.85-1.225-0.707L1.729,36.54
		c-0.533,0.143-0.85,0.691-0.707,1.225c0.119,0.447,0.523,0.741,0.965,0.741c0.086,0,0.173-0.011,0.26-0.034l3.863-1.035
		C6.644,37.294,6.96,36.745,6.817,36.212z"/>
	<path style="fill:#556080;" d="M53.183,23.788c0.119,0.447,0.523,0.741,0.965,0.741c0.086,0,0.173-0.011,0.26-0.034l3.863-1.035
		c0.533-0.143,0.85-0.691,0.707-1.225s-0.689-0.848-1.225-0.707l-3.863,1.035C53.356,22.706,53.04,23.255,53.183,23.788z"/>
	<path style="fill:#556080;" d="M9.216,42c-0.277-0.48-0.891-0.643-1.366-0.366l-3.464,2C3.907,43.91,3.743,44.521,4.02,45
		c0.186,0.321,0.521,0.5,0.867,0.5c0.17,0,0.342-0.043,0.499-0.134l3.464-2C9.328,43.09,9.492,42.479,9.216,42z"/>
	<path style="fill:#556080;" d="M50.784,18c0.186,0.321,0.521,0.5,0.867,0.5c0.17,0,0.342-0.043,0.499-0.134l3.464-2
		c0.479-0.276,0.643-0.888,0.366-1.366c-0.277-0.479-0.891-0.644-1.366-0.366l-3.464,2C50.672,16.91,50.508,17.521,50.784,18z"/>
	<path style="fill:#556080;" d="M45,4.02c-0.478-0.276-1.09-0.114-1.366,0.366l-2,3.464C41.357,8.328,41.521,8.939,42,9.216
		c0.157,0.091,0.329,0.134,0.499,0.134c0.346,0,0.682-0.179,0.867-0.5l2-3.464C45.643,4.907,45.479,4.296,45,4.02z"/>
	<path style="fill:#556080;" d="M18,50.784c-0.478-0.277-1.09-0.114-1.366,0.366l-2,3.464c-0.276,0.479-0.112,1.09,0.366,1.366
		c0.157,0.091,0.329,0.134,0.499,0.134c0.346,0,0.682-0.179,0.867-0.5l2-3.464C18.643,51.672,18.479,51.061,18,50.784z"/>
	<path style="fill:#556080;" d="M37.765,1.022c-0.53-0.141-1.082,0.174-1.225,0.707l-1.035,3.863
		c-0.143,0.533,0.174,1.082,0.707,1.225c0.087,0.023,0.174,0.034,0.26,0.034c0.441,0,0.846-0.294,0.965-0.741l1.035-3.863
		C38.614,1.714,38.298,1.165,37.765,1.022z"/>
	<path style="fill:#556080;" d="M23.788,53.183c-0.531-0.142-1.082,0.173-1.225,0.707l-1.035,3.863
		c-0.143,0.533,0.174,1.082,0.707,1.225c0.087,0.023,0.174,0.034,0.26,0.034c0.441,0,0.846-0.294,0.965-0.741l1.035-3.863
		C24.638,53.874,24.321,53.325,23.788,53.183z"/>
</g>
<path style="fill:#556080;" d="M38.659,25.001c-2.761-4.782-8.876-6.421-13.658-3.659c-4.782,2.761-6.421,8.876-3.66,13.658
	c2.761,4.782,8.876,6.421,13.658,3.66C39.781,35.898,41.42,29.783,38.659,25.001z M32.5,34.329c-2.391,1.381-5.448,0.561-6.829-1.83
	c-1.381-2.391-0.561-5.448,1.83-6.829c2.391-1.381,5.448-0.561,6.829,1.83C35.71,29.892,34.891,32.949,32.5,34.329z"/>
<path style="fill:#556080;" d="M55.614,43.634L37.5,33.268c-0.479-0.276-1.09-0.114-1.366,0.366
	c-0.276,0.479-0.112,1.09,0.366,1.366l18.114,10.366c0.157,0.091,0.329,0.134,0.499,0.134c0.346,0,0.682-0.179,0.867-0.5
	C56.257,44.521,56.093,43.91,55.614,43.634z"/>
<path style="fill:#556080;" d="M23.866,33.634c-0.276-0.48-0.888-0.643-1.366-0.366L4.386,43.634l1,1.732L23.5,35
	C23.978,34.724,24.142,34.112,23.866,33.634z"/>
<rect x="29" y="5" style="fill:#556080;" width="2" height="17"/>
<g>
</g>
<g>
</g>
<g>
</g>
<g>
</g>
<g>
</g>
<g>
</g>
<g>
</g>
<g>
</g>
<g>
</g>
<g>
</g>
<g>
</g>
<g>
</g>
<g>
</g>
<g>
</g>
<g>
</g>
</svg>
