<?xml version="1.0" encoding="iso-8859-1"?>
<!-- Generator: Adobe Illustrator 19.0.0, SVG Export Plug-In . SVG Version: 6.00 Build 0)  -->
<svg version="1.1" id="Capa_1" xmlns="http://www.w3.org/2000/svg" xmlns:xlink="http://www.w3.org/1999/xlink" x="0px" y="0px"
	 viewBox="0 0 60 60" style="enable-background:new 0 0 60 60;" xml:space="preserve">
<path style="fill:#556080;" d="M59,31c0.553,0,1-0.447,1-1s-0.447-1-1-1h-3.04c-0.063-1.627-0.267-3.218-0.618-4.755l2.928-0.785
	c0.533-0.143,0.85-0.691,0.707-1.225c-0.142-0.533-0.69-0.848-1.225-0.707l-2.93,0.785c-0.034-0.109-0.058-0.222-0.094-0.331
	c-0.002-0.006,0-0.011-0.002-0.017c-0.002-0.006-0.007-0.01-0.01-0.017c-0.461-1.413-1.05-2.767-1.736-4.063l2.632-1.52
	c0.479-0.276,0.643-0.888,0.366-1.366c-0.277-0.479-0.891-0.644-1.366-0.366l-2.634,1.521c-0.857-1.356-1.841-2.622-2.927-3.794
	l2.159-2.159c0.391-0.391,0.391-1.023,0-1.414s-1.023-0.391-1.414,0l-2.159,2.159c-1.172-1.086-2.433-2.076-3.79-2.935l1.516-2.626
	C45.643,4.907,45.479,4.296,45,4.02c-0.478-0.276-1.09-0.114-1.366,0.366l-1.515,2.623c-1.405-0.744-2.89-1.352-4.433-1.831
	l0.785-2.93c0.143-0.533-0.174-1.082-0.707-1.225c-0.531-0.141-1.082,0.174-1.225,0.707l-0.785,2.929
	C34.217,4.309,32.628,4.103,31,4.041V1c0-0.553-0.447-1-1-1s-1,0.447-1,1v3.041c-1.628,0.062-3.217,0.268-4.755,0.618L23.46,1.729
	c-0.143-0.534-0.69-0.849-1.225-0.707c-0.533,0.143-0.85,0.691-0.707,1.225l0.785,2.93c-1.542,0.479-3.027,1.087-4.433,1.831
	l-1.515-2.623C16.089,3.905,15.476,3.743,15,4.02c-0.479,0.276-0.643,0.888-0.366,1.366l1.516,2.626
	c-1.356,0.858-2.618,1.848-3.79,2.934l-2.159-2.159c-0.391-0.391-1.023-0.391-1.414,0s-0.391,1.023,0,1.414l2.159,2.159
	c-1.085,1.172-2.07,2.438-2.927,3.794l-2.634-1.521C4.908,14.356,4.296,14.521,4.02,15c-0.276,0.479-0.112,1.09,0.366,1.366
	l2.632,1.52c-0.686,1.296-1.274,2.65-1.736,4.063c-0.002,0.006-0.007,0.01-0.01,0.017c-0.002,0.006,0,0.011-0.002,0.017
	c-0.035,0.108-0.06,0.221-0.094,0.331l-2.93-0.785c-0.531-0.14-1.082,0.174-1.225,0.707s0.174,1.082,0.707,1.225l2.928,0.785
	C4.307,25.782,4.103,27.373,4.04,29H1c-0.553,0-1,0.447-1,1s0.447,1,1,1h3.031c0.062,1.628,0.273,3.218,0.623,4.757L1.729,36.54
	c-0.533,0.143-0.85,0.691-0.707,1.225c0.119,0.447,0.523,0.741,0.965,0.741c0.086,0,0.173-0.011,0.26-0.034l2.916-0.781
	c0.479,1.543,1.102,3.023,1.846,4.428l-2.624,1.515C3.907,43.91,3.743,44.521,4.02,45c0.186,0.321,0.521,0.5,0.867,0.5
	c0.17,0,0.342-0.043,0.499-0.134l2.632-1.52c0.858,1.356,1.836,2.627,2.922,3.8l-2.153,2.153c-0.391,0.391-0.391,1.023,0,1.414
	c0.195,0.195,0.451,0.293,0.707,0.293s0.512-0.098,0.707-0.293l2.147-2.146c0.736,0.682,1.511,1.322,2.322,1.916
	c0.018,0.015,0.028,0.037,0.048,0.052c0.028,0.02,0.06,0.028,0.089,0.045c0.438,0.316,0.892,0.61,1.349,0.899l-1.522,2.635
	c-0.276,0.479-0.112,1.09,0.366,1.366c0.157,0.091,0.329,0.134,0.499,0.134c0.346,0,0.682-0.179,0.867-0.5l1.52-2.632
	c1.405,0.744,2.885,1.361,4.428,1.84l-0.785,2.93c-0.143,0.533,0.174,1.082,0.707,1.225c0.087,0.023,0.174,0.034,0.26,0.034
	c0.441,0,0.846-0.294,0.965-0.741l0.785-2.928c1.538,0.35,3.128,0.555,4.755,0.617V59c0,0.553,0.447,1,1,1s1-0.447,1-1v-3.04
	c1.628-0.062,3.218-0.267,4.756-0.617l0.784,2.928c0.119,0.447,0.523,0.741,0.965,0.741c0.086,0,0.173-0.011,0.26-0.034
	c0.533-0.143,0.85-0.691,0.707-1.225l-0.785-2.93c1.542-0.48,3.023-1.096,4.428-1.84l1.519,2.631c0.186,0.321,0.521,0.5,0.867,0.5
	c0.17,0,0.342-0.043,0.499-0.134c0.479-0.276,0.643-0.888,0.366-1.366l-1.522-2.635c0.457-0.29,0.912-0.583,1.349-0.9
	c0.029-0.017,0.061-0.025,0.088-0.045c0.02-0.014,0.029-0.036,0.048-0.052c0.811-0.594,1.586-1.234,2.322-1.916l2.147,2.146
	c0.195,0.195,0.451,0.293,0.707,0.293s0.512-0.098,0.707-0.293c0.391-0.391,0.391-1.023,0-1.414l-2.153-2.153
	c1.086-1.172,2.064-2.443,2.922-3.8l2.632,1.52c0.157,0.091,0.329,0.134,0.499,0.134c0.346,0,0.682-0.179,0.867-0.5
	c0.276-0.479,0.112-1.09-0.366-1.366l-2.624-1.515c0.745-1.406,1.367-2.885,1.846-4.428l2.916,0.781
	c0.087,0.023,0.174,0.034,0.26,0.034c0.441,0,0.846-0.294,0.965-0.741c0.143-0.533-0.174-1.082-0.707-1.225l-2.924-0.783
	c0.35-1.539,0.561-3.128,0.623-4.757H59z M30,54c-4.907,0-9.474-1.483-13.279-4.021l7.658-10.541C26.026,40.423,27.945,41,30,41
	s3.974-0.577,5.622-1.562l7.658,10.541C39.474,52.517,34.907,54,30,54z M30,28c1.103,0,2,0.897,2,2s-0.897,2-2,2s-2-0.897-2-2
	S28.897,28,30,28z M31,19.051V6.025c9.861,0.407,18.204,6.788,21.495,15.614l-12.388,4.026C38.546,22.042,35.094,19.422,31,19.051z
	 M29,19.051c-4.094,0.371-7.546,2.991-9.107,6.614L7.505,21.639C10.796,12.813,19.139,6.432,29,6.025V19.051z M6,30
	c0-2.237,0.314-4.401,0.89-6.458l12.39,4.026C19.102,28.352,19,29.164,19,30c0,3.293,1.462,6.244,3.761,8.262l-7.655,10.537
	C9.564,44.399,6,37.61,6,30z M44.893,48.799l-7.655-10.537C39.538,36.244,41,33.293,41,30c0-0.836-0.102-1.648-0.28-2.431
	l12.39-4.026C53.686,25.599,54,27.763,54,30C54,37.61,50.436,44.399,44.893,48.799z"/>
<g>
</g>
<g>
</g>
<g>
</g>
<g>
</g>
<g>
</g>
<g>
</g>
<g>
</g>
<g>
</g>
<g>
</g>
<g>
</g>
<g>
</g>
<g>
</g>
<g>
</g>
<g>
</g>
<g>
</g>
</svg>
