<?xml version="1.0" encoding="iso-8859-1"?>
<!-- Generator: Adobe Illustrator 19.0.0, SVG Export Plug-In . SVG Version: 6.00 Build 0)  -->
<svg version="1.1" id="Capa_1" xmlns="http://www.w3.org/2000/svg" xmlns:xlink="http://www.w3.org/1999/xlink" x="0px" y="0px"
	 viewBox="0 0 57 57" style="enable-background:new 0 0 57 57;" xml:space="preserve">
<circle style="fill:#7383BF;" cx="11" cy="28.456" r="9"/>
<circle style="fill:#7383BF;" cx="46" cy="48" r="9"/>
<circle style="fill:#7383BF;" cx="46" cy="9" r="9"/>
<g>
	<path style="fill:#424A60;" d="M19.017,25.36c0.176,0,0.354-0.046,0.515-0.144l18.908-11.388c0.473-0.285,0.625-0.899,0.34-1.372
		c-0.285-0.474-0.899-0.627-1.373-0.341L18.5,23.504c-0.473,0.285-0.625,0.899-0.34,1.372C18.347,25.188,18.677,25.36,19.017,25.36z
		"/>
	<path style="fill:#424A60;" d="M38.442,43.171L19.535,31.694c-0.472-0.287-1.087-0.138-1.374,0.336
		c-0.287,0.472-0.136,1.087,0.336,1.373L37.404,44.88c0.162,0.099,0.341,0.146,0.518,0.146c0.338,0,0.667-0.171,0.856-0.481
		C39.065,44.072,38.915,43.457,38.442,43.171z"/>
</g>
<g>
</g>
<g>
</g>
<g>
</g>
<g>
</g>
<g>
</g>
<g>
</g>
<g>
</g>
<g>
</g>
<g>
</g>
<g>
</g>
<g>
</g>
<g>
</g>
<g>
</g>
<g>
</g>
<g>
</g>
</svg>
