<?xml version="1.0" encoding="iso-8859-1"?>
<!-- Generator: Adobe Illustrator 19.0.0, SVG Export Plug-In . SVG Version: 6.00 Build 0)  -->
<svg version="1.1" id="Capa_1" xmlns="http://www.w3.org/2000/svg" xmlns:xlink="http://www.w3.org/1999/xlink" x="0px" y="0px"
	 viewBox="0 0 57 57" style="enable-background:new 0 0 57 57;" xml:space="preserve">
<g>
	<path style="fill:#424A60;" d="M42.111,8.847c-0.473-0.29-1.087-0.143-1.376,0.327c-0.29,0.471-0.143,1.086,0.327,1.376
		C48.224,14.96,52.5,22.604,52.5,31c0,2.067-0.271,4.137-0.805,6.152c-0.141,0.533,0.177,1.081,0.711,1.223
		c0.085,0.022,0.172,0.033,0.256,0.033c0.443,0,0.848-0.296,0.966-0.744C54.207,35.482,54.5,33.24,54.5,31
		C54.5,21.905,49.869,13.623,42.111,8.847z"/>
	<path style="fill:#424A60;" d="M37.671,53.182C34.756,54.388,31.671,55,28.5,55c-6.728,0-13.189-2.854-17.728-7.832
		c-0.372-0.408-1.003-0.437-1.413-0.065c-0.408,0.372-0.437,1.005-0.065,1.413C14.211,53.907,21.211,57,28.5,57
		c3.435,0,6.778-0.663,9.936-1.971c0.51-0.211,0.753-0.796,0.542-1.307C38.767,53.213,38.181,52.971,37.671,53.182z"/>
	<path style="fill:#424A60;" d="M22.784,7.687c0.537-0.132,0.865-0.673,0.734-1.209c-0.13-0.536-0.674-0.862-1.208-0.734
		C11.302,8.434,3.371,17.838,2.573,29.146c-0.039,0.551,0.376,1.029,0.927,1.067c0.024,0.002,0.048,0.003,0.071,0.003
		c0.521,0,0.959-0.402,0.997-0.93C5.305,18.85,12.625,10.169,22.784,7.687z"/>
</g>
<circle style="fill:#EBBA16;" cx="28.5" cy="6" r="6"/>
<circle style="fill:#7383BF;" cx="6.5" cy="43" r="6"/>
<circle style="fill:#43B05C;" cx="50.5" cy="43" r="6"/>
<g>
</g>
<g>
</g>
<g>
</g>
<g>
</g>
<g>
</g>
<g>
</g>
<g>
</g>
<g>
</g>
<g>
</g>
<g>
</g>
<g>
</g>
<g>
</g>
<g>
</g>
<g>
</g>
<g>
</g>
</svg>
