<?xml version="1.0" encoding="iso-8859-1"?>
<!-- Generator: Adobe Illustrator 19.0.0, SVG Export Plug-In . SVG Version: 6.00 Build 0)  -->
<svg version="1.1" id="Capa_1" xmlns="http://www.w3.org/2000/svg" xmlns:xlink="http://www.w3.org/1999/xlink" x="0px" y="0px"
	 viewBox="0 0 48 48" style="enable-background:new 0 0 48 48;" xml:space="preserve">
<g>
	<path style="fill:#EBBA16;" d="M27,13h10v7l11-8L37,4v7H27c-7.168,0-13,5.832-13,13c0,6.065-4.935,11-11,11H1c-0.553,0-1,0.447-1,1
		s0.447,1,1,1h2c7.168,0,13-5.832,13-13C16,17.935,20.935,13,27,13z"/>
	<path style="fill:#EBBA16;" d="M1,13h2c2.713,0,5.318,0.994,7.336,2.799c0.191,0.171,0.43,0.255,0.667,0.255
		c0.274,0,0.548-0.112,0.745-0.333c0.368-0.412,0.333-1.044-0.078-1.412C9.285,12.175,6.206,11,3,11H1c-0.553,0-1,0.447-1,1
		S0.447,13,1,13z"/>
	<path style="fill:#EBBA16;" d="M37,35H27c-2.685,0-5.27-0.976-7.278-2.748c-0.411-0.365-1.044-0.327-1.411,0.089
		c-0.365,0.414-0.326,1.046,0.089,1.411C20.773,35.847,23.828,37,27,37h10v7l11-8l-11-8V35z"/>
</g>
<g>
</g>
<g>
</g>
<g>
</g>
<g>
</g>
<g>
</g>
<g>
</g>
<g>
</g>
<g>
</g>
<g>
</g>
<g>
</g>
<g>
</g>
<g>
</g>
<g>
</g>
<g>
</g>
<g>
</g>
</svg>
