<?xml version="1.0" encoding="iso-8859-1"?>
<!-- Generator: Adobe Illustrator 19.0.0, SVG Export Plug-In . SVG Version: 6.00 Build 0)  -->
<svg version="1.1" id="Capa_1" xmlns="http://www.w3.org/2000/svg" xmlns:xlink="http://www.w3.org/1999/xlink" x="0px" y="0px"
	 viewBox="0 0 60 60" style="enable-background:new 0 0 60 60;" xml:space="preserve">
<line style="fill:none;stroke:#38454F;stroke-width:2;stroke-linecap:round;stroke-miterlimit:10;" x1="28.664" y1="4" x2="28.664" y2="1"/>
<line style="fill:none;stroke:#38454F;stroke-width:2;stroke-linecap:round;stroke-miterlimit:10;" x1="28.664" y1="59" x2="28.664" y2="40"/>
<line style="fill:none;stroke:#38454F;stroke-width:2;stroke-linecap:round;stroke-miterlimit:10;" x1="28.664" y1="20" x2="28.664" y2="24"/>
<path style="fill:#23A24D;" d="M48.553,20H10.061c-1.324,0-2.397-1.073-2.397-2.397V6.397C7.664,5.073,8.737,4,10.061,4h38.492
	l8.711,7.84c0.095,0.085,0.095,0.234,0,0.319L48.553,20z"/>
<path style="fill:#EBBA16;" d="M11.447,40h38.821c1.324,0,2.397-1.073,2.397-2.397V26.397c0-1.324-1.073-2.397-2.397-2.397H11.447
	l-8.711,7.84c-0.095,0.085-0.095,0.234,0,0.319L11.447,40z"/>
<g>
</g>
<g>
</g>
<g>
</g>
<g>
</g>
<g>
</g>
<g>
</g>
<g>
</g>
<g>
</g>
<g>
</g>
<g>
</g>
<g>
</g>
<g>
</g>
<g>
</g>
<g>
</g>
<g>
</g>
</svg>
