<?xml version="1.0" encoding="iso-8859-1"?>
<!-- Generator: Adobe Illustrator 19.0.0, SVG Export Plug-In . SVG Version: 6.00 Build 0)  -->
<svg version="1.1" id="Capa_1" xmlns="http://www.w3.org/2000/svg" xmlns:xlink="http://www.w3.org/1999/xlink" x="0px" y="0px"
	 viewBox="0 0 58 58" style="enable-background:new 0 0 58 58;" xml:space="preserve">
<circle style="fill:#3083C9;" cx="29" cy="29" r="29"/>
<g>
	<polygon style="fill:#FFFFFF;" points="36,29 14,44 14,29.273 14,14 	"/>
	<path style="fill:#FFFFFF;" d="M14,45c-0.16,0-0.321-0.038-0.467-0.116C13.205,44.711,13,44.371,13,44V14
		c0-0.371,0.205-0.711,0.533-0.884c0.327-0.174,0.724-0.15,1.031,0.058l22,15C36.836,28.36,37,28.669,37,29s-0.164,0.64-0.437,0.826
		l-22,15C14.394,44.941,14.197,45,14,45z M15,15.893v26.215L34.225,29L15,15.893z"/>
</g>
<g>
	<rect x="40" y="14" style="fill:#FFFFFF;" width="5" height="30"/>
	<path style="fill:#FFFFFF;" d="M46,45h-7V13h7V45z M41,43h3V15h-3V43z"/>
</g>
<g>
</g>
<g>
</g>
<g>
</g>
<g>
</g>
<g>
</g>
<g>
</g>
<g>
</g>
<g>
</g>
<g>
</g>
<g>
</g>
<g>
</g>
<g>
</g>
<g>
</g>
<g>
</g>
<g>
</g>
</svg>
