<?xml version="1.0" encoding="iso-8859-1"?>
<!-- Generator: Adobe Illustrator 19.0.0, SVG Export Plug-In . SVG Version: 6.00 Build 0)  -->
<svg version="1.1" id="Capa_1" xmlns="http://www.w3.org/2000/svg" xmlns:xlink="http://www.w3.org/1999/xlink" x="0px" y="0px"
	 viewBox="0 0 58 58" style="enable-background:new 0 0 58 58;" xml:space="preserve">
<path style="fill:#424A60;" d="M32.595,58H7.405C5.525,58,4,56.475,4,54.595V3.405C4,1.525,5.525,0,7.405,0h25.189
	C34.475,0,36,1.525,36,3.405v51.189C36,56.475,34.475,58,32.595,58z"/>
<rect x="4" y="6" style="fill:#E7ECED;" width="32" height="40"/>
<circle style="fill:#262B35;" cx="20" cy="52" r="3"/>
<path style="fill:#262B35;" d="M20,4h-4c-0.553,0-1-0.447-1-1s0.447-1,1-1h4c0.553,0,1,0.447,1,1S20.553,4,20,4z"/>
<path style="fill:#262B35;" d="M24,4h-1c-0.553,0-1-0.447-1-1s0.447-1,1-1h1c0.553,0,1,0.447,1,1S24.553,4,24,4z"/>
<polygon style="fill:#25AE88;" points="54,12 18,12 18,31 22,31 22,37 30,31 54,31 "/>
<g>
	<path style="fill:#57D8AB;" d="M24,20h10c0.552,0,1-0.447,1-1s-0.448-1-1-1H24c-0.552,0-1,0.447-1,1S23.448,20,24,20z"/>
	<path style="fill:#57D8AB;" d="M48,23H24c-0.552,0-1,0.447-1,1s0.448,1,1,1h24c0.552,0,1-0.447,1-1S48.552,23,48,23z"/>
</g>
<g>
</g>
<g>
</g>
<g>
</g>
<g>
</g>
<g>
</g>
<g>
</g>
<g>
</g>
<g>
</g>
<g>
</g>
<g>
</g>
<g>
</g>
<g>
</g>
<g>
</g>
<g>
</g>
<g>
</g>
</svg>
