<?xml version="1.0" encoding="iso-8859-1"?>
<!-- Generator: Adobe Illustrator 19.0.0, SVG Export Plug-In . SVG Version: 6.00 Build 0)  -->
<svg version="1.1" id="Capa_1" xmlns="http://www.w3.org/2000/svg" xmlns:xlink="http://www.w3.org/1999/xlink" x="0px" y="0px"
	 viewBox="0 0 58 58" style="enable-background:new 0 0 58 58;" xml:space="preserve">
<g>
	<path style="fill:#E7ECED;" d="M13,3.843C13,3.163,13.205,2.532,13.549,2L3.525,4.686C1.708,5.173,0.63,7.04,1.117,8.857
		l11.81,44.075C12.938,52.974,13,52.966,13,52.922V3.843z"/>
</g>
<g>
	<path style="fill:#E7ECED;" d="M45,2.843C45,2.163,44.795,1.532,44.451,1l10.024,2.686c1.817,0.487,2.895,2.354,2.408,4.171
		l-11.81,44.075C45.062,51.974,45,51.966,45,51.922V2.843z"/>
</g>
<path style="fill:#424A60;" d="M41.595,58H16.406C14.525,58,13,56.475,13,54.595V3.405C13,1.525,14.525,0,16.406,0h25.189
	C43.476,0,45,1.525,45,3.405v51.189C45,56.475,43.476,58,41.595,58z"/>
<rect x="13" y="6" style="fill:#A4E869;" width="32" height="40"/>
<circle style="fill:#262B35;" cx="29" cy="52" r="3"/>
<path style="fill:#262B35;" d="M29,4h-4c-0.553,0-1-0.447-1-1s0.447-1,1-1h4c0.553,0,1,0.447,1,1S29.553,4,29,4z"/>
<path style="fill:#262B35;" d="M33,4h-1c-0.553,0-1-0.447-1-1s0.447-1,1-1h1c0.553,0,1,0.447,1,1S33.553,4,33,4z"/>
<g>
</g>
<g>
</g>
<g>
</g>
<g>
</g>
<g>
</g>
<g>
</g>
<g>
</g>
<g>
</g>
<g>
</g>
<g>
</g>
<g>
</g>
<g>
</g>
<g>
</g>
<g>
</g>
<g>
</g>
</svg>
