<?xml version="1.0" encoding="iso-8859-1"?>
<!-- Generator: Adobe Illustrator 19.0.0, SVG Export Plug-In . SVG Version: 6.00 Build 0)  -->
<svg version="1.1" id="Capa_1" xmlns="http://www.w3.org/2000/svg" xmlns:xlink="http://www.w3.org/1999/xlink" x="0px" y="0px"
	 viewBox="0 0 58 58" style="enable-background:new 0 0 58 58;" xml:space="preserve">
<path style="fill:#424A60;" d="M41.595,58H16.405C14.525,58,13,56.475,13,54.595V3.405C13,1.525,14.525,0,16.405,0h25.189
	C43.475,0,45,1.525,45,3.405v51.189C45,56.475,43.475,58,41.595,58z"/>
<rect x="13" y="6" style="fill:#E7ECED;" width="32" height="40"/>
<circle style="fill:#262B35;" cx="29" cy="52" r="3"/>
<path style="fill:#262B35;" d="M29,4h-4c-0.553,0-1-0.447-1-1s0.447-1,1-1h4c0.553,0,1,0.447,1,1S29.553,4,29,4z"/>
<path style="fill:#262B35;" d="M33,4h-1c-0.553,0-1-0.447-1-1s0.447-1,1-1h1c0.553,0,1,0.447,1,1S33.553,4,33,4z"/>
<circle style="fill:#7383BF;" cx="29" cy="21" r="12"/>
<path style="fill:#424A60;" d="M31.932,28.567c-0.447-0.224-0.73-0.681-0.73-1.181v-1.358c0.097-0.111,0.209-0.253,0.327-0.421
	c0.472-0.666,0.828-1.399,1.076-2.168c0.444-0.137,0.771-0.547,0.771-1.034v-1.449c0-0.319-0.142-0.604-0.362-0.803v-2.096
	c0,0,0.43-3.261-3.986-3.261s-3.986,3.261-3.986,3.261v2.096c-0.221,0.199-0.362,0.484-0.362,0.803v1.449
	c0,0.382,0.201,0.718,0.501,0.912c0.362,1.577,1.311,2.711,1.311,2.711v1.325c0,0.483-0.264,0.928-0.688,1.159l-3.233,1.763
	c-0.221,0.12-0.418,0.271-0.597,0.439C23.951,32.146,26.373,33,29,33c2.623,0,5.041-0.851,7.016-2.278
	c-0.186-0.165-0.393-0.309-0.622-0.424L31.932,28.567z"/>
<rect x="16" y="37" style="fill:#AFB6BB;" width="26" height="6"/>
<rect x="16" y="37" style="fill:#61B872;" width="6" height="6"/>
<g>
</g>
<g>
</g>
<g>
</g>
<g>
</g>
<g>
</g>
<g>
</g>
<g>
</g>
<g>
</g>
<g>
</g>
<g>
</g>
<g>
</g>
<g>
</g>
<g>
</g>
<g>
</g>
<g>
</g>
</svg>
