<?xml version="1.0" encoding="iso-8859-1"?>
<!-- Generator: Adobe Illustrator 19.0.0, SVG Export Plug-In . SVG Version: 6.00 Build 0)  -->
<svg version="1.1" id="Capa_1" xmlns="http://www.w3.org/2000/svg" xmlns:xlink="http://www.w3.org/1999/xlink" x="0px" y="0px"
	 viewBox="0 0 58 58" style="enable-background:new 0 0 58 58;" xml:space="preserve">
<path style="fill:#424A60;" d="M53.595,58H28.405C26.525,58,25,56.475,25,54.595V3.405C25,1.525,26.525,0,28.405,0h25.189
	C55.475,0,57,1.525,57,3.405v51.189C57,56.475,55.475,58,53.595,58z"/>
<rect x="25" y="6" style="fill:#E7ECED;" width="32" height="40"/>
<circle style="fill:#262B35;" cx="41" cy="52" r="3"/>
<path style="fill:#262B35;" d="M41,4h-4c-0.553,0-1-0.447-1-1s0.447-1,1-1h4c0.553,0,1,0.447,1,1S41.553,4,41,4z"/>
<path style="fill:#262B35;" d="M45,4h-1c-0.553,0-1-0.447-1-1s0.447-1,1-1h1c0.553,0,1,0.447,1,1S45.553,4,45,4z"/>
<line style="fill:none;stroke:#556080;stroke-width:2;stroke-linecap:round;stroke-miterlimit:10;" x1="19.366" y1="34.727" x2="2" y2="51"/>
<circle style="fill:#7FABDA;stroke:#556080;stroke-width:2;stroke-linecap:round;stroke-miterlimit:10;" cx="29" cy="26" r="13"/>
<g>
</g>
<g>
</g>
<g>
</g>
<g>
</g>
<g>
</g>
<g>
</g>
<g>
</g>
<g>
</g>
<g>
</g>
<g>
</g>
<g>
</g>
<g>
</g>
<g>
</g>
<g>
</g>
<g>
</g>
</svg>
