<?xml version="1.0" encoding="iso-8859-1"?>
<!-- Generator: Adobe Illustrator 19.0.0, SVG Export Plug-In . SVG Version: 6.00 Build 0)  -->
<svg version="1.1" id="Capa_1" xmlns="http://www.w3.org/2000/svg" xmlns:xlink="http://www.w3.org/1999/xlink" x="0px" y="0px"
	 viewBox="0 0 58 58" style="enable-background:new 0 0 58 58;" xml:space="preserve">
<rect x="25.677" y="47" style="fill:#C8D2D6;" width="24" height="11"/>
<path style="fill:#E7ECED;" d="M41.677,58h-16V47h9.426c3.631,0,6.574,2.943,6.574,6.574V58z"/>
<circle style="fill:#7383BF;" cx="35.177" cy="52.5" r="2.5"/>
<path style="fill:#FBCE9D;" d="M33.581,10.702c1.233-0.542,2.096-1.77,2.096-3.202c0-1.933-1.567-3.5-3.5-3.5
	c-1.433,0-2.661,0.863-3.202,2.096L33.581,10.702z"/>
<path style="fill:#FBCE9D;" d="M38.581,15.702c1.233-0.542,2.096-1.77,2.096-3.202c0-1.933-1.567-3.5-3.5-3.5
	c-1.433,0-2.661,0.863-3.202,2.096L38.581,15.702z"/>
<path style="fill:#FBCE9D;" d="M43.581,20.702c1.233-0.542,2.096-1.77,2.096-3.202c0-1.933-1.567-3.5-3.5-3.5
	c-1.433,0-2.661,0.863-3.202,2.096L43.581,20.702z"/>
<path style="fill:#FBCE9D;" d="M48.581,25.702c1.233-0.542,2.096-1.77,2.096-3.202c0-1.933-1.567-3.5-3.5-3.5
	c-1.433,0-2.661,0.863-3.202,2.096L48.581,25.702z"/>
<path style="fill:#FBCE9D;" d="M28.177,33h-10c-1.925,0-3.5-1.575-3.5-3.5v0c0-1.925,1.575-3.5,3.5-3.5h10
	c1.925,0,3.5,1.575,3.5,3.5v0C31.677,31.425,30.102,33,28.177,33z"/>
<g>
	<path style="fill:#F7B563;" d="M48.813,31.563l-11.12,11.12c-0.896,0.896-2.349,0.896-3.244,0L24.767,33h-6.589
		c-0.578,0.283-2.155-0.738-1.55-0.219l10.812,10.77c0.074,0.074,0.16,0.127,0.238,0.194V47h20v-4.51c1.819-1.369,3-3.538,3-5.99
		C50.677,34.607,49.97,32.883,48.813,31.563z"/>
</g>
<path style="fill:#424A60;" d="M25.769,2.889L10.212,18.446l7.592,7.592C17.929,26.025,18.05,26,18.177,26h10
	c1.925,0,3.5,1.575,3.5,3.5s-1.575,3.5-3.5,3.5h-3.411l6.355,6.355l15.556-15.557L25.769,2.889z"/>
<g>
	<path style="fill:#E7ECED;" d="M25.769,2.889l-2.217-2.217c-0.896-0.896-2.349-0.896-3.244,0L7.995,12.984
		c-0.896,0.896-0.896,2.349,0,3.245l2.217,2.217L25.769,2.889z"/>
	<path style="fill:#E7ECED;" d="M50.005,27.126l-3.328-3.328L31.121,39.355l3.327,3.327c0.896,0.896,2.349,0.896,3.244,0
		l12.312-12.312C50.901,29.475,50.901,28.022,50.005,27.126z"/>
</g>
<circle style="fill:#FFFFFF;" cx="41.177" cy="33.5" r="2"/>
<path style="fill:#424A60;" d="M15.677,11c-0.256,0-0.512-0.098-0.707-0.293c-0.391-0.391-0.391-1.023,0-1.414l2-2
	c0.391-0.391,1.023-0.391,1.414,0s0.391,1.023,0,1.414l-2,2C16.189,10.902,15.933,11,15.677,11z"/>
<g>
</g>
<g>
</g>
<g>
</g>
<g>
</g>
<g>
</g>
<g>
</g>
<g>
</g>
<g>
</g>
<g>
</g>
<g>
</g>
<g>
</g>
<g>
</g>
<g>
</g>
<g>
</g>
<g>
</g>
</svg>
