<?xml version="1.0" encoding="iso-8859-1"?>
<!-- Generator: Adobe Illustrator 19.0.0, SVG Export Plug-In . SVG Version: 6.00 Build 0)  -->
<svg version="1.1" id="Capa_1" xmlns="http://www.w3.org/2000/svg" xmlns:xlink="http://www.w3.org/1999/xlink" x="0px" y="0px"
	 viewBox="0 0 58 58" style="enable-background:new 0 0 58 58;" xml:space="preserve">
<path style="fill:#7FABDA;" d="M54.595,27H32v27.594C32,56.475,30.475,58,28.595,58h26C56.475,58,58,56.475,58,54.594V30.405
	C58,28.525,56.475,27,54.595,27z"/>
<path style="fill:none;stroke:#88C057;stroke-width:2;stroke-linecap:round;stroke-miterlimit:10;" d="M51,14
	c0-6.633-5.367-12-12-12"/>
<line style="fill:none;stroke:#88C057;stroke-width:2;stroke-linecap:round;stroke-miterlimit:10;" x1="45" y1="13" x2="51" y2="19"/>
<line style="fill:none;stroke:#88C057;stroke-width:2;stroke-linecap:round;stroke-miterlimit:10;" x1="51" y1="19" x2="57" y2="13"/>
<line style="fill:none;stroke:#88C057;stroke-width:2;stroke-linecap:round;stroke-miterlimit:10;" x1="51" y1="19" x2="51" y2="14"/>
<path style="fill:#E7ECED;" d="M28.595,58H3.405C1.525,58,0,56.475,0,54.595V3.405C0,1.525,1.525,0,3.405,0h25.189
	C30.475,0,32,1.525,32,3.405v51.189C32,56.475,30.475,58,28.595,58z"/>
<circle style="fill:#FFFFFF;" cx="16" cy="53" r="3"/>
<path style="fill:#424A60;" d="M16,4h-4c-0.553,0-1-0.447-1-1s0.447-1,1-1h4c0.553,0,1,0.447,1,1S16.553,4,16,4z"/>
<path style="fill:#424A60;" d="M20,4h-1c-0.553,0-1-0.447-1-1s0.447-1,1-1h1c0.553,0,1,0.447,1,1S20.553,4,20,4z"/>
<rect x="0" y="6" style="fill:#424A60;" width="32" height="42"/>
<path style="fill:#E7ECED;" d="M54.595,27H52v31h2.595C56.475,58,58,56.476,58,54.595V30.405C58,28.524,56.475,27,54.595,27z"/>
<g>
</g>
<g>
</g>
<g>
</g>
<g>
</g>
<g>
</g>
<g>
</g>
<g>
</g>
<g>
</g>
<g>
</g>
<g>
</g>
<g>
</g>
<g>
</g>
<g>
</g>
<g>
</g>
<g>
</g>
</svg>
