<?xml version="1.0" encoding="iso-8859-1"?>
<!-- Generator: Adobe Illustrator 19.0.0, SVG Export Plug-In . SVG Version: 6.00 Build 0)  -->
<svg version="1.1" id="Capa_1" xmlns="http://www.w3.org/2000/svg" xmlns:xlink="http://www.w3.org/1999/xlink" x="0px" y="0px"
	 viewBox="0 0 58 58" style="enable-background:new 0 0 58 58;" xml:space="preserve">
<path style="fill:#E7ECED;" d="M30.595,58H5.405C3.525,58,2,56.475,2,54.595V3.405C2,1.525,3.525,0,5.405,0h25.189
	C32.475,0,34,1.525,34,3.405v51.189C34,56.475,32.475,58,30.595,58z"/>
<circle style="fill:#FFFFFF;" cx="18" cy="53" r="3"/>
<path style="fill:#424A60;" d="M18,4h-4c-0.553,0-1-0.447-1-1s0.447-1,1-1h4c0.553,0,1,0.447,1,1S18.553,4,18,4z"/>
<path style="fill:#424A60;" d="M22,4h-1c-0.553,0-1-0.447-1-1s0.447-1,1-1h1c0.553,0,1,0.447,1,1S22.553,4,22,4z"/>
<rect x="2" y="6" style="fill:#424A60;" width="32" height="42"/>
<line style="fill:none;stroke:#EBBA16;stroke-width:2;stroke-linecap:round;stroke-miterlimit:10;" x1="17" y1="26" x2="55" y2="26"/>
<line style="fill:none;stroke:#EBBA16;stroke-width:2;stroke-linecap:round;stroke-miterlimit:10;" x1="43" y1="14" x2="55" y2="26"/>
<line style="fill:none;stroke:#EBBA16;stroke-width:2;stroke-linecap:round;stroke-miterlimit:10;" x1="43" y1="38" x2="55" y2="26"/>
<g>
</g>
<g>
</g>
<g>
</g>
<g>
</g>
<g>
</g>
<g>
</g>
<g>
</g>
<g>
</g>
<g>
</g>
<g>
</g>
<g>
</g>
<g>
</g>
<g>
</g>
<g>
</g>
<g>
</g>
</svg>
