<?xml version="1.0" encoding="iso-8859-1"?>
<!-- Generator: Adobe Illustrator 19.0.0, SVG Export Plug-In . SVG Version: 6.00 Build 0)  -->
<svg version="1.1" id="Capa_1" xmlns="http://www.w3.org/2000/svg" xmlns:xlink="http://www.w3.org/1999/xlink" x="0px" y="0px"
	 viewBox="0 0 59 59" style="enable-background:new 0 0 59 59;" xml:space="preserve">
<path style="fill:#556080;" d="M11.115,14.615c-0.256,0-0.512-0.098-0.707-0.293l-3.535-3.535c-0.391-0.391-0.391-1.023,0-1.414
	s1.023-0.391,1.414,0l3.535,3.535c0.391,0.391,0.391,1.023,0,1.414C11.627,14.517,11.371,14.615,11.115,14.615z"/>
<path style="fill:#556080;" d="M47.885,14.615c-0.256,0-0.512-0.098-0.707-0.293c-0.391-0.391-0.391-1.023,0-1.414l3.535-3.535
	c0.391-0.391,1.023-0.391,1.414,0s0.391,1.023,0,1.414l-3.535,3.535C48.396,14.517,48.141,14.615,47.885,14.615z"/>
<circle style="fill:#FFFFFF;" cx="29.5" cy="32" r="26"/>
<path style="fill:#424A60;" d="M31.5,5.082V3H34c0.828,0,1.5-0.672,1.5-1.5l0,0C35.5,0.672,34.828,0,34,0h-9
	c-0.828,0-1.5,0.672-1.5,1.5l0,0C23.5,2.328,24.171,3,25,3h2.5v2.082C13.544,6.11,2.5,17.785,2.5,32c0,14.888,12.112,27,27,27
	s27-12.112,27-27C56.5,17.785,45.456,6.11,31.5,5.082z M29.5,57c-13.785,0-25-11.215-25-25s11.215-25,25-25s25,11.215,25,25
	S43.285,57,29.5,57z"/>
<rect x="3.165" y="5.666" transform="matrix(0.707 -0.7072 0.7072 0.707 -4.3218 6.8985)" style="fill:#DC691D;" width="6" height="5.999"/>
<rect x="49.834" y="5.665" transform="matrix(0.7071 -0.7071 0.7071 0.7071 9.3477 39.8979)" style="fill:#14A085;" width="6.001" height="6"/>
<g>
	<path style="fill:#424A60;" d="M29.5,5c-0.553,0-1,0.447-1,1v3c0,0.553,0.447,1,1,1s1-0.447,1-1V6C30.5,5.447,30.053,5,29.5,5z"/>
	<path style="fill:#424A60;" d="M29.5,54c-0.553,0-1,0.447-1,1v3c0,0.553,0.447,1,1,1s1-0.447,1-1v-3C30.5,54.447,30.053,54,29.5,54
		z"/>
	<path style="fill:#424A60;" d="M55.5,31h-3c-0.553,0-1,0.447-1,1s0.447,1,1,1h3c0.553,0,1-0.447,1-1S56.053,31,55.5,31z"/>
	<path style="fill:#424A60;" d="M6.5,33c0.553,0,1-0.447,1-1s-0.447-1-1-1h-3c-0.553,0-1,0.447-1,1s0.447,1,1,1H6.5z"/>
	<path style="fill:#424A60;" d="M45.764,16.736c0.256,0,0.512-0.098,0.707-0.293l2.121-2.121c0.391-0.391,0.391-1.023,0-1.414
		s-1.023-0.391-1.414,0l-2.121,2.121c-0.391,0.391-0.391,1.023,0,1.414C45.252,16.638,45.508,16.736,45.764,16.736z"/>
	<path style="fill:#424A60;" d="M12.529,47.556l-2.121,2.121c-0.391,0.391-0.391,1.023,0,1.414c0.195,0.195,0.451,0.293,0.707,0.293
		s0.512-0.098,0.707-0.293l2.121-2.121c0.391-0.391,0.391-1.023,0-1.414S12.92,47.166,12.529,47.556z"/>
	<path style="fill:#424A60;" d="M46.471,47.556c-0.391-0.391-1.023-0.391-1.414,0s-0.391,1.023,0,1.414l2.121,2.121
		c0.195,0.195,0.451,0.293,0.707,0.293s0.512-0.098,0.707-0.293c0.391-0.391,0.391-1.023,0-1.414L46.471,47.556z"/>
	<path style="fill:#424A60;" d="M11.822,12.908c-0.391-0.391-1.023-0.391-1.414,0s-0.391,1.023,0,1.414l2.121,2.121
		c0.195,0.195,0.451,0.293,0.707,0.293s0.512-0.098,0.707-0.293c0.391-0.391,0.391-1.023,0-1.414L11.822,12.908z"/>
	<path style="fill:#424A60;" d="M23.736,6.627c-0.143-0.533-0.689-0.85-1.225-0.707c-0.533,0.143-0.85,0.691-0.707,1.225
		l0.776,2.898c0.119,0.446,0.523,0.741,0.965,0.741c0.086,0,0.173-0.011,0.26-0.034c0.533-0.143,0.85-0.691,0.707-1.225
		L23.736,6.627z"/>
	<path style="fill:#424A60;" d="M36.419,53.958c-0.143-0.534-0.691-0.852-1.225-0.707c-0.533,0.143-0.85,0.691-0.707,1.225
		l0.776,2.897c0.119,0.447,0.523,0.741,0.965,0.741c0.086,0,0.173-0.011,0.26-0.034c0.533-0.143,0.85-0.691,0.707-1.225
		L36.419,53.958z"/>
	<path style="fill:#424A60;" d="M50.75,26.306c0.12,0.447,0.523,0.741,0.965,0.741c0.086,0,0.173-0.011,0.26-0.034l2.898-0.777
		c0.533-0.143,0.851-0.691,0.707-1.225c-0.144-0.534-0.691-0.849-1.225-0.707l-2.898,0.777
		C50.924,25.224,50.606,25.773,50.75,26.306z"/>
	<path style="fill:#424A60;" d="M8.25,37.694c-0.142-0.534-0.69-0.852-1.225-0.707l-2.898,0.776
		c-0.533,0.143-0.85,0.691-0.707,1.225c0.119,0.447,0.523,0.741,0.965,0.741c0.086,0,0.173-0.011,0.26-0.034l2.898-0.776
		C8.076,38.776,8.392,38.227,8.25,37.694z"/>
	<path style="fill:#424A60;" d="M43,8.617c-0.478-0.277-1.09-0.112-1.366,0.366l-1.5,2.599c-0.276,0.479-0.112,1.09,0.366,1.366
		c0.157,0.091,0.329,0.134,0.499,0.134c0.346,0,0.682-0.18,0.867-0.5l1.5-2.599C43.642,9.505,43.478,8.893,43,8.617z"/>
	<path style="fill:#424A60;" d="M18.5,51.052c-0.478-0.277-1.09-0.114-1.366,0.366l-1.5,2.598c-0.276,0.479-0.112,1.09,0.366,1.366
		c0.157,0.091,0.329,0.134,0.499,0.134c0.346,0,0.682-0.179,0.867-0.5l1.5-2.598C19.142,51.94,18.978,51.329,18.5,51.052z"/>
	<path style="fill:#424A60;" d="M52.516,44.134l-2.598-1.5c-0.478-0.277-1.09-0.114-1.366,0.366
		c-0.276,0.479-0.112,1.09,0.366,1.366l2.598,1.5C51.674,45.957,51.846,46,52.016,46c0.346,0,0.682-0.179,0.867-0.5
		C53.159,45.021,52.995,44.41,52.516,44.134z"/>
	<path style="fill:#424A60;" d="M6.483,19.866l2.598,1.5C9.238,21.457,9.41,21.5,9.58,21.5c0.346,0,0.682-0.179,0.867-0.5
		c0.276-0.479,0.112-1.09-0.366-1.366l-2.598-1.5c-0.478-0.277-1.09-0.113-1.366,0.366C5.841,18.978,6.005,19.59,6.483,19.866z"/>
	<path style="fill:#424A60;" d="M17.366,8.983C17.089,8.505,16.475,8.34,16,8.617c-0.479,0.276-0.643,0.888-0.366,1.366l1.5,2.599
		c0.186,0.32,0.521,0.5,0.867,0.5c0.17,0,0.342-0.043,0.499-0.134c0.479-0.276,0.643-0.888,0.366-1.366L17.366,8.983z"/>
	<path style="fill:#424A60;" d="M41.866,51.419c-0.277-0.48-0.89-0.644-1.366-0.366c-0.479,0.276-0.643,0.888-0.366,1.366l1.5,2.598
		c0.186,0.321,0.521,0.5,0.867,0.5c0.17,0,0.342-0.043,0.499-0.134c0.479-0.276,0.643-0.888,0.366-1.366L41.866,51.419z"/>
	<path style="fill:#424A60;" d="M48.553,21c0.186,0.321,0.521,0.5,0.867,0.5c0.17,0,0.342-0.043,0.499-0.134l2.598-1.5
		c0.479-0.276,0.643-0.888,0.366-1.366c-0.277-0.479-0.89-0.644-1.366-0.366l-2.598,1.5C48.44,19.91,48.276,20.521,48.553,21z"/>
	<path style="fill:#424A60;" d="M10.447,43c-0.277-0.48-0.89-0.644-1.366-0.366l-2.598,1.5C6.005,44.41,5.841,45.021,6.117,45.5
		C6.303,45.821,6.639,46,6.984,46c0.17,0,0.342-0.043,0.499-0.134l2.598-1.5C10.559,44.09,10.724,43.478,10.447,43z"/>
	<path style="fill:#424A60;" d="M36.488,5.92c-0.532-0.142-1.082,0.174-1.225,0.707l-0.776,2.898
		c-0.143,0.533,0.174,1.082,0.707,1.225c0.087,0.023,0.174,0.034,0.26,0.034c0.441,0,0.846-0.295,0.965-0.741l0.776-2.898
		C37.338,6.611,37.021,6.062,36.488,5.92z"/>
	<path style="fill:#424A60;" d="M23.806,53.251c-0.533-0.144-1.082,0.173-1.225,0.707l-0.776,2.897
		c-0.143,0.533,0.174,1.082,0.707,1.225c0.087,0.023,0.174,0.034,0.26,0.034c0.441,0,0.846-0.294,0.965-0.741l0.776-2.897
		C24.655,53.942,24.339,53.393,23.806,53.251z"/>
	<path style="fill:#424A60;" d="M54.873,37.763l-2.898-0.776c-0.531-0.144-1.082,0.174-1.225,0.707s0.174,1.082,0.707,1.225
		l2.898,0.776c0.087,0.023,0.174,0.034,0.26,0.034c0.441,0,0.846-0.295,0.965-0.741C55.723,38.455,55.406,37.906,54.873,37.763z"/>
	<path style="fill:#424A60;" d="M4.127,26.236l2.898,0.777c0.087,0.023,0.174,0.034,0.26,0.034c0.441,0,0.845-0.294,0.965-0.741
		c0.144-0.533-0.174-1.082-0.707-1.225l-2.898-0.777c-0.533-0.141-1.081,0.173-1.225,0.707C3.276,25.545,3.594,26.094,4.127,26.236z
		"/>
</g>
<path style="fill:#48A0DC;" d="M18.5,21L18.5,21l12.944,9.363c1.274,0.926,1.419,2.772,0.305,3.886l0,0
	c-1.114,1.114-2.959,0.969-3.886-0.305L18.5,21z"/>
<g>
</g>
<g>
</g>
<g>
</g>
<g>
</g>
<g>
</g>
<g>
</g>
<g>
</g>
<g>
</g>
<g>
</g>
<g>
</g>
<g>
</g>
<g>
</g>
<g>
</g>
<g>
</g>
<g>
</g>
</svg>
