<?xml version="1.0" encoding="iso-8859-1"?>
<!-- Generator: Adobe Illustrator 19.0.0, SVG Export Plug-In . SVG Version: 6.00 Build 0)  -->
<svg version="1.1" id="Capa_1" xmlns="http://www.w3.org/2000/svg" xmlns:xlink="http://www.w3.org/1999/xlink" x="0px" y="0px"
	 viewBox="0 0 60 60" style="enable-background:new 0 0 60 60;" xml:space="preserve">
<circle style="fill:#7383BF;" cx="30" cy="30" r="29"/>
<path style="fill:#556080;" d="M58.978,37.765c0.001-0.003,0-0.007,0.001-0.01C59.641,35.28,60,32.681,60,30
	s-0.359-5.28-1.022-7.755c-0.001-0.003,0-0.007,0-0.007c-0.002-0.007-0.005-0.01-0.006-0.014c-0.681-2.533-1.687-4.933-2.969-7.156
	c-0.011-0.022-0.011-0.047-0.023-0.069c-0.012-0.021-0.034-0.033-0.047-0.054c-1.298-2.228-2.869-4.277-4.677-6.094
	c-0.017-0.02-0.024-0.046-0.043-0.065s-0.045-0.026-0.065-0.043c-1.817-1.808-3.866-3.379-6.094-4.677
	C45.034,4.053,45.022,4.032,45,4.02c-0.022-0.013-0.047-0.013-0.07-0.023c-2.223-1.281-4.622-2.288-7.155-2.969
	c-0.004-0.001-0.007-0.004-0.01-0.005c-0.003-0.001-0.007,0-0.01,0C35.28,0.359,32.681,0,30,0s-5.28,0.359-7.755,1.022
	c-0.003,0.001-0.007,0-0.01,0c-0.004,0.001-0.007,0.004-0.01,0.005c-2.533,0.68-4.932,1.687-7.155,2.968
	C15.047,4.007,15.022,4.007,15,4.02c-0.022,0.012-0.034,0.034-0.054,0.047c-2.228,1.298-4.277,2.869-6.094,4.677
	c-0.02,0.017-0.046,0.024-0.065,0.043S8.761,8.832,8.744,8.852c-1.807,1.817-3.379,3.866-4.677,6.094
	C4.053,14.967,4.032,14.979,4.02,15c-0.013,0.022-0.012,0.046-0.023,0.069c-1.282,2.223-2.288,4.623-2.969,7.156
	c-0.001,0.004-0.004,0.006-0.005,0.01c0,0,0,0.007-0.001,0.01C0.359,24.72,0,27.319,0,30s0.359,5.28,1.022,7.755
	c0.001,0.003,0,0.007,0.001,0.01c0.001,0.005,0.005,0.008,0.006,0.013c0.681,2.532,1.687,4.931,2.968,7.154
	C4.007,44.954,4.007,44.978,4.02,45c0.018,0.031,0.044,0.055,0.065,0.083c1.295,2.216,2.86,4.256,4.66,6.064
	c0.017,0.02,0.024,0.046,0.043,0.065s0.045,0.026,0.065,0.043c1.816,1.807,3.864,3.377,6.091,4.675
	c0.021,0.015,0.034,0.037,0.057,0.05c0.034,0.02,0.071,0.029,0.107,0.044c2.213,1.271,4.599,2.27,7.118,2.947
	c0.004,0.001,0.007,0.004,0.01,0.005c0.005,0.001,0.01,0.001,0.015,0.002C24.724,59.642,27.32,60,30,60s5.276-0.358,7.75-1.021
	c0.005-0.001,0.01-0.001,0.015-0.002c0.004-0.001,0.007-0.004,0.01-0.005c2.519-0.677,4.905-1.676,7.118-2.947
	c0.036-0.015,0.073-0.024,0.107-0.044c0.023-0.013,0.036-0.036,0.057-0.05c2.226-1.298,4.275-2.868,6.091-4.675
	c0.02-0.017,0.046-0.024,0.065-0.043s0.026-0.045,0.043-0.065c1.799-1.809,3.365-3.848,4.66-6.064
	c0.021-0.029,0.047-0.052,0.065-0.083c0.013-0.022,0.012-0.046,0.023-0.069c1.281-2.222,2.287-4.621,2.968-7.154
	C58.973,37.773,58.976,37.77,58.978,37.765z M54.855,37.695l1.915,0.513c-0.526,1.713-1.215,3.356-2.044,4.912l-1.709-0.987
	c-0.478-0.276-1.09-0.113-1.366,0.366c-0.276,0.479-0.112,1.09,0.366,1.366l1.704,0.984c-0.947,1.508-2.033,2.919-3.241,4.216
	l-1.388-1.388c-0.391-0.391-1.023-0.391-1.414,0s-0.391,1.023,0,1.414l1.388,1.388c-1.297,1.208-2.708,2.294-4.216,3.241
	l-0.984-1.705c-0.277-0.479-0.89-0.643-1.366-0.366c-0.479,0.276-0.643,0.888-0.366,1.366l0.987,1.709
	c-1.557,0.829-3.199,1.518-4.912,2.044l-0.513-1.915c-0.143-0.534-0.689-0.851-1.225-0.707c-0.533,0.143-0.85,0.691-0.707,1.225
	l0.512,1.909c-1.705,0.392-3.468,0.628-5.275,0.692V54c0-0.553-0.447-1-1-1s-1,0.447-1,1v3.975c-1.807-0.064-3.57-0.3-5.275-0.692
	l0.512-1.909c0.143-0.533-0.174-1.082-0.707-1.225c-0.533-0.143-1.082,0.173-1.225,0.707l-0.513,1.915
	c-1.713-0.526-3.355-1.215-4.912-2.044l0.987-1.709c0.276-0.479,0.112-1.09-0.366-1.366s-1.089-0.112-1.366,0.366l-0.984,1.705
	c-1.508-0.947-2.919-2.033-4.216-3.241l1.388-1.388c0.391-0.391,0.391-1.023,0-1.414s-1.023-0.391-1.414,0L9.52,49.066
	c-1.208-1.297-2.294-2.708-3.241-4.216l1.704-0.984C8.462,43.59,8.626,42.979,8.35,42.5c-0.277-0.479-0.889-0.643-1.366-0.366
	l-1.709,0.987c-0.829-1.557-1.518-3.199-2.044-4.912l1.915-0.513c0.533-0.143,0.85-0.691,0.707-1.225
	c-0.142-0.534-0.69-0.852-1.225-0.707l-1.909,0.511C2.326,34.57,2.089,32.807,2.025,31H6c0.553,0,1-0.447,1-1s-0.447-1-1-1H2.025
	c0.064-1.807,0.3-3.57,0.692-5.275l1.909,0.511c0.087,0.023,0.174,0.034,0.26,0.034c0.441,0,0.846-0.294,0.965-0.741
	c0.143-0.533-0.174-1.082-0.707-1.225L3.23,21.792c0.526-1.713,1.215-3.356,2.044-4.912l1.709,0.987C7.141,17.957,7.312,18,7.482,18
	c0.346,0,0.682-0.179,0.867-0.5c0.276-0.479,0.112-1.09-0.366-1.366L6.279,15.15c0.947-1.508,2.033-2.919,3.241-4.216l1.388,1.388
	c0.195,0.195,0.451,0.293,0.707,0.293s0.512-0.098,0.707-0.293c0.391-0.391,0.391-1.023,0-1.414L10.934,9.52
	c1.297-1.208,2.708-2.294,4.216-3.241l0.984,1.704c0.186,0.321,0.521,0.5,0.867,0.5c0.17,0,0.342-0.043,0.499-0.134
	c0.479-0.276,0.643-0.888,0.366-1.366l-0.987-1.709c1.557-0.829,3.199-1.518,4.912-2.044l0.513,1.915
	c0.119,0.447,0.523,0.741,0.965,0.741c0.086,0,0.173-0.011,0.26-0.034c0.533-0.143,0.85-0.691,0.707-1.225l-0.512-1.909
	C25.43,2.326,27.193,2.089,29,2.025V6c0,0.553,0.447,1,1,1s1-0.447,1-1V2.025c1.807,0.064,3.57,0.3,5.275,0.692l-0.512,1.909
	c-0.143,0.533,0.174,1.082,0.707,1.225c0.087,0.023,0.174,0.034,0.26,0.034c0.441,0,0.846-0.294,0.965-0.741l0.513-1.915
	c1.713,0.526,3.356,1.215,4.912,2.044l-0.987,1.709c-0.276,0.479-0.112,1.09,0.366,1.366c0.157,0.091,0.329,0.134,0.499,0.134
	c0.346,0,0.682-0.179,0.867-0.5l0.984-1.704c1.508,0.947,2.919,2.033,4.216,3.241l-1.388,1.388c-0.391,0.391-0.391,1.023,0,1.414
	c0.195,0.195,0.451,0.293,0.707,0.293s0.512-0.098,0.707-0.293l1.388-1.388c1.208,1.297,2.294,2.708,3.241,4.216l-1.704,0.984
	c-0.479,0.276-0.643,0.888-0.366,1.366c0.186,0.321,0.521,0.5,0.867,0.5c0.17,0,0.342-0.043,0.499-0.134l1.709-0.987
	c0.829,1.557,1.518,3.199,2.044,4.912l-1.915,0.513c-0.533,0.143-0.85,0.691-0.707,1.225c0.119,0.447,0.523,0.741,0.965,0.741
	c0.086,0,0.173-0.011,0.26-0.034l1.909-0.511c0.392,1.705,0.629,3.468,0.692,5.275H54c-0.553,0-1,0.447-1,1s0.447,1,1,1h3.975
	c-0.064,1.807-0.3,3.57-0.692,5.275l-1.909-0.511c-0.532-0.143-1.082,0.173-1.225,0.707C54.006,37.004,54.322,37.553,54.855,37.695z
	"/>
<path style="fill:#FFFFFF;" d="M41,29h-7.142c-0.364-1.399-1.459-2.495-2.858-2.858V13c0-0.553-0.447-1-1-1s-1,0.447-1,1v13.142
	c-1.721,0.447-3,1.999-3,3.858c0,2.206,1.794,4,4,4c1.859,0,3.411-1.28,3.858-3H41c0.553,0,1-0.447,1-1S41.553,29,41,29z M30,32
	c-1.103,0-2-0.897-2-2s0.897-2,2-2s2,0.897,2,2S31.103,32,30,32z"/>
<circle style="fill:#556080;" cx="30" cy="43" r="7"/>
<path style="fill:#FFFFFF;" d="M30,44c-0.256,0-0.512-0.098-0.707-0.293l-3-3c-0.391-0.391-0.391-1.023,0-1.414s1.023-0.391,1.414,0
	l3,3c0.391,0.391,0.391,1.023,0,1.414C30.512,43.902,30.256,44,30,44z"/>
<g>
</g>
<g>
</g>
<g>
</g>
<g>
</g>
<g>
</g>
<g>
</g>
<g>
</g>
<g>
</g>
<g>
</g>
<g>
</g>
<g>
</g>
<g>
</g>
<g>
</g>
<g>
</g>
<g>
</g>
</svg>
