<?xml version="1.0" encoding="iso-8859-1"?>
<!-- Generator: Adobe Illustrator 19.0.0, SVG Export Plug-In . SVG Version: 6.00 Build 0)  -->
<svg version="1.1" id="Capa_1" xmlns="http://www.w3.org/2000/svg" xmlns:xlink="http://www.w3.org/1999/xlink" x="0px" y="0px"
	 viewBox="0 0 58 58" style="enable-background:new 0 0 58 58;" xml:space="preserve">
<line style="fill:none;stroke:#949493;stroke-width:2;stroke-linecap:round;stroke-miterlimit:10;" x1="28.5" y1="50" x2="28.5" y2="27"/>
<rect x="20.5" y="54" style="fill:#949493;" width="16" height="4"/>
<rect x="23.5" y="50" style="fill:#C7CAC7;" width="10" height="4"/>
<path style="fill:#23A24D;" d="M13.5,27h24.859c1.183,0,2.141-0.959,2.141-2.141v-5.718c0-1.183-0.959-2.141-2.141-2.141H13.5l-5,5
	L13.5,27z"/>
<line style="fill:none;stroke:#949493;stroke-width:2;stroke-linecap:round;stroke-miterlimit:10;" x1="28.5" y1="11" x2="28.5" y2="8"/>
<path style="fill:#43B05C;" d="M44.5,11H19.641c-1.183,0-2.141,0.959-2.141,2.141V17h20.859c1.183,0,2.141,0.959,2.141,2.141V21h4
	l5-5L44.5,11z"/>
<circle style="fill:#C7CAC7;" cx="28.5" cy="4" r="4"/>
<g>
</g>
<g>
</g>
<g>
</g>
<g>
</g>
<g>
</g>
<g>
</g>
<g>
</g>
<g>
</g>
<g>
</g>
<g>
</g>
<g>
</g>
<g>
</g>
<g>
</g>
<g>
</g>
<g>
</g>
</svg>
