<?xml version="1.0" encoding="iso-8859-1"?>
<!-- Generator: Adobe Illustrator 19.0.0, SVG Export Plug-In . SVG Version: 6.00 Build 0)  -->
<svg version="1.1" id="Capa_1" xmlns="http://www.w3.org/2000/svg" xmlns:xlink="http://www.w3.org/1999/xlink" x="0px" y="0px"
	 viewBox="0 0 59 59" style="enable-background:new 0 0 59 59;" xml:space="preserve">
<path style="fill:#C7CAC7;" d="M56.008,44.5H3.992C2.34,44.5,1,43.16,1,41.508V17.492C1,15.84,2.34,14.5,3.992,14.5h52.016
	C57.66,14.5,59,15.84,59,17.492v24.016C59,43.16,57.66,44.5,56.008,44.5z"/>
<path style="fill:#FFFFFF;stroke:#E7ECED;stroke-width:2;stroke-miterlimit:10;" d="M28.008,44.5H3.992C2.34,44.5,1,43.16,1,41.508
	V17.492C1,15.84,2.34,14.5,3.992,14.5h24.016C29.66,14.5,31,15.84,31,17.492v24.016C31,43.16,29.66,44.5,28.008,44.5z"/>
<line style="fill:none;stroke:#AFB6BB;stroke-width:2;stroke-linecap:round;stroke-miterlimit:10;" x1="13" y1="26.5" x2="13" y2="32.5"/>
<line style="fill:none;stroke:#AFB6BB;stroke-width:2;stroke-linecap:round;stroke-miterlimit:10;" x1="16" y1="26.5" x2="16" y2="32.5"/>
<line style="fill:none;stroke:#AFB6BB;stroke-width:2;stroke-linecap:round;stroke-miterlimit:10;" x1="19" y1="26.5" x2="19" y2="32.5"/>
<g>
</g>
<g>
</g>
<g>
</g>
<g>
</g>
<g>
</g>
<g>
</g>
<g>
</g>
<g>
</g>
<g>
</g>
<g>
</g>
<g>
</g>
<g>
</g>
<g>
</g>
<g>
</g>
<g>
</g>
</svg>
