<?xml version="1.0" encoding="iso-8859-1"?>
<!-- Generator: Adobe Illustrator 19.0.0, SVG Export Plug-In . SVG Version: 6.00 Build 0)  -->
<svg version="1.1" id="Capa_1" xmlns="http://www.w3.org/2000/svg" xmlns:xlink="http://www.w3.org/1999/xlink" x="0px" y="0px"
	 viewBox="0 0 59 59" style="enable-background:new 0 0 59 59;" xml:space="preserve">
<path style="fill:#61B872;" d="M2.992,14.5h52.016C56.66,14.5,58,15.84,58,17.492v24.016c0,1.652-1.34,2.992-2.992,2.992H2.992
	C1.34,44.5,0,43.16,0,41.508l0-24.016C0,15.84,1.34,14.5,2.992,14.5z"/>
<path style="fill:#FFFFFF;stroke:#E7ECED;stroke-width:2;stroke-miterlimit:10;" d="M30.992,14.5h24.016
	C56.66,14.5,58,15.84,58,17.492v24.016c0,1.652-1.34,2.992-2.992,2.992H30.992C29.34,44.5,28,43.16,28,41.508V17.492
	C28,15.84,29.34,14.5,30.992,14.5z"/>
<line style="fill:none;stroke:#AFB6BB;stroke-width:2;stroke-linecap:round;stroke-miterlimit:10;" x1="46" y1="32.5" x2="46" y2="26.5"/>
<line style="fill:none;stroke:#AFB6BB;stroke-width:2;stroke-linecap:round;stroke-miterlimit:10;" x1="43" y1="32.5" x2="43" y2="26.5"/>
<line style="fill:none;stroke:#AFB6BB;stroke-width:2;stroke-linecap:round;stroke-miterlimit:10;" x1="40" y1="32.5" x2="40" y2="26.5"/>
<g>
</g>
<g>
</g>
<g>
</g>
<g>
</g>
<g>
</g>
<g>
</g>
<g>
</g>
<g>
</g>
<g>
</g>
<g>
</g>
<g>
</g>
<g>
</g>
<g>
</g>
<g>
</g>
<g>
</g>
</svg>
