<?xml version="1.0" encoding="iso-8859-1"?>
<!-- Generator: Adobe Illustrator 19.0.0, SVG Export Plug-In . SVG Version: 6.00 Build 0)  -->
<svg version="1.1" id="Capa_1" xmlns="http://www.w3.org/2000/svg" xmlns:xlink="http://www.w3.org/1999/xlink" x="0px" y="0px"
	 viewBox="0 0 58 58" style="enable-background:new 0 0 58 58;" xml:space="preserve">
<path style="fill:none;stroke:#D8A852;stroke-width:4;stroke-linecap:round;stroke-linejoin:round;stroke-miterlimit:10;" d="
	M38,22.866V11.219C38,6.149,33.5,2,28,2s-10,4.149-10,9.219"/>
<circle style="fill:#E7ECED;" cx="29" cy="39" r="19"/>
<path style="fill:#C7CAC7;" d="M48,39c0-10.493-8.507-19-19-19v38C39.493,58,48,49.493,48,39z"/>
<path style="fill:#424A60;" d="M29,44L29,44c-1.65,0-3-1.35-3-3v-6c0-1.65,1.35-3,3-3h0c1.65,0,3,1.35,3,3v6
	C32,42.65,30.65,44,29,44z"/>
<g>
</g>
<g>
</g>
<g>
</g>
<g>
</g>
<g>
</g>
<g>
</g>
<g>
</g>
<g>
</g>
<g>
</g>
<g>
</g>
<g>
</g>
<g>
</g>
<g>
</g>
<g>
</g>
<g>
</g>
</svg>
