<?xml version="1.0" encoding="iso-8859-1"?>
<!-- Generator: Adobe Illustrator 19.0.0, SVG Export Plug-In . SVG Version: 6.00 Build 0)  -->
<svg version="1.1" id="Capa_1" xmlns="http://www.w3.org/2000/svg" xmlns:xlink="http://www.w3.org/1999/xlink" x="0px" y="0px"
	 viewBox="0 0 54 54" style="enable-background:new 0 0 54 54;" xml:space="preserve">
<path style="fill:#C7CAC7;" d="M41.771,54H12.229C8.789,54,6,51.211,6,47.771V28.229C6,24.789,8.789,22,12.229,22h29.542
	C45.211,22,48,24.789,48,28.229v19.542C48,51.211,45.211,54,41.771,54z"/>
<path style="fill:#E7ECED;" d="M41.771,22H27v32h14.771C45.211,54,48,51.211,48,47.771V28.229C48,24.789,45.211,22,41.771,22z"/>
<path style="fill:#4C4C4F;" d="M27,42L27,42c-1.65,0-3-1.35-3-3v-6c0-1.65,1.35-3,3-3h0c1.65,0,3,1.35,3,3v6
	C30,40.65,28.65,42,27,42z"/>
<path style="fill:#546A79;" d="M12,17.5c1.104,0,2-0.896,2-2C14,9.159,19.832,4,27,4s13,5.159,13,11.5V22h1.771
	c0.771,0,1.507,0.147,2.188,0.403C43.986,22.273,44,22.138,44,22v-6.5C44,6.953,36.374,0,27,0S10,6.953,10,15.5
	C10,16.604,10.896,17.5,12,17.5z"/>
<g>
</g>
<g>
</g>
<g>
</g>
<g>
</g>
<g>
</g>
<g>
</g>
<g>
</g>
<g>
</g>
<g>
</g>
<g>
</g>
<g>
</g>
<g>
</g>
<g>
</g>
<g>
</g>
<g>
</g>
</svg>
