<?xml version="1.0" encoding="iso-8859-1"?>
<!-- Generator: Adobe Illustrator 19.0.0, SVG Export Plug-In . SVG Version: 6.00 Build 0)  -->
<svg version="1.1" id="Capa_1" xmlns="http://www.w3.org/2000/svg" xmlns:xlink="http://www.w3.org/1999/xlink" x="0px" y="0px"
	 viewBox="0 0 58 58" style="enable-background:new 0 0 58 58;" xml:space="preserve">
<circle style="fill:#88C057;" cx="29" cy="29" r="29"/>
<path style="fill:#FBCE9D;" d="M52.932,45.376C52.275,38.985,46.876,34,40.311,34h-5.946C33.611,34,33,33.389,33,32.635V31.99
	c0-0.583,0.379-1.082,0.925-1.287c5.804-2.182,9.778-11.704,8.971-18.433C42.134,5.919,36.97,0.801,30.614,0.09
	c-0.517-0.058-1.029-0.086-1.535-0.088c-0.016,0-0.032-0.001-0.048-0.001C21.285-0.016,15,6.258,15,14
	c0,6.024,3.807,14.755,9.145,16.729C24.668,30.922,25,31.442,25,32v0.635C25,33.389,24.389,34,23.635,34h-5.946
	c-6.565,0-11.964,4.985-12.621,11.376C10.293,52.998,19.061,58,29,58S47.707,52.998,52.932,45.376z"/>
<path style="fill:#C5411E;" d="M33.492,6.61c3.715,1.021,7.213,3.306,9.453,6.322c-0.016-0.221-0.023-0.447-0.049-0.663
	C42.134,5.919,36.97,0.801,30.614,0.09c-0.517-0.058-1.029-0.086-1.535-0.088c-0.016,0-0.032-0.001-0.048-0.001
	c-6.92-0.015-12.66,4.995-13.808,11.583l0.005,0c0.179,0.252,0.354,0.507,0.545,0.75c0.07-0.087,0.141-0.173,0.213-0.258
	c2-2.38,5.341-2.931,8.183-1.671C25.034,10.787,25.992,11,27,11C29.942,11,32.456,9.182,33.492,6.61z"/>
<rect x="18" y="34" style="fill:#424A60;" width="4" height="8"/>
<rect x="36" y="34" style="fill:#424A60;" width="4" height="8"/>
<path style="fill:#556080;" d="M14,50.383v3.44C18.377,56.474,23.51,58,29,58s10.623-1.526,15-4.177v-3.44V42H14V50.383z"/>
<g>
</g>
<g>
</g>
<g>
</g>
<g>
</g>
<g>
</g>
<g>
</g>
<g>
</g>
<g>
</g>
<g>
</g>
<g>
</g>
<g>
</g>
<g>
</g>
<g>
</g>
<g>
</g>
<g>
</g>
</svg>
