<?xml version="1.0" encoding="iso-8859-1"?>
<!-- Generator: Adobe Illustrator 19.0.0, SVG Export Plug-In . SVG Version: 6.00 Build 0)  -->
<svg version="1.1" id="Capa_1" xmlns="http://www.w3.org/2000/svg" xmlns:xlink="http://www.w3.org/1999/xlink" x="0px" y="0px"
	 viewBox="0 0 58 58" style="enable-background:new 0 0 58 58;" xml:space="preserve">
<circle style="fill:#F76363;" cx="29" cy="29" r="29"/>
<path style="fill:#F7B563;" d="M52.932,45.376C52.275,38.985,46.876,34,40.311,34h-5.946C33.611,34,33,33.389,33,32.635V31.99
	c0-0.583,0.379-1.082,0.925-1.287c5.804-2.182,9.778-11.704,8.971-18.433C42.134,5.919,36.97,0.801,30.614,0.09
	c-0.517-0.058-1.029-0.086-1.535-0.088c-0.016,0-0.032-0.001-0.048-0.001C21.285-0.016,15,6.258,15,14
	c0,6.024,3.807,14.755,9.145,16.729C24.668,30.922,25,31.442,25,32v0.635C25,33.389,24.389,34,23.635,34h-5.946
	c-6.565,0-11.964,4.985-12.621,11.376C10.293,52.998,19.061,58,29,58S47.707,52.998,52.932,45.376z"/>
<path style="fill:#F7E714;" d="M33.492,6.61c3.715,1.021,7.213,3.306,9.453,6.322c-0.016-0.221-0.023-0.447-0.049-0.663
	C42.134,5.919,36.97,0.801,30.614,0.09c-0.517-0.058-1.029-0.086-1.535-0.088c-0.016,0-0.032-0.001-0.048-0.001
	c-6.92-0.015-12.66,4.995-13.808,11.583l0.005,0c0.179,0.252,0.354,0.507,0.545,0.75c0.07-0.087,0.141-0.173,0.213-0.258
	c2-2.38,5.341-2.931,8.183-1.671C25.034,10.787,25.992,11,27,11C29.942,11,32.456,9.182,33.492,6.61z"/>
<g>
	<path style="fill:#F7E714;" d="M33.925,30.703C33.379,30.908,33,31.407,33,31.99v0.645C33,33.389,33.611,34,34.365,34h5.946
		c0.923,0,1.822,0.104,2.689,0.292V14h-0.012C43.002,20.24,39.236,28.706,33.925,30.703z"/>
	<path style="fill:#F7E714;" d="M17.689,34h5.946C24.389,34,25,33.389,25,32.635V32c0-0.558-0.332-1.078-0.855-1.271
		C18.807,28.755,15,20.024,15,14v20.292C15.867,34.104,16.766,34,17.689,34z"/>
</g>
<path style="fill:#D39450;" d="M38,40c-3.961,0-7.382,2.322-9,5.67C27.382,42.322,23.961,40,20,40c-0.553,0-1,0.447-1,1s0.447,1,1,1
	c4.411,0,8,3.589,8,8v3h2v-3c0-4.411,3.589-8,8-8c0.553,0,1-0.447,1-1S38.553,40,38,40z"/>
<path style="fill:#25AE88;" d="M52.932,45.376c-0.383-3.726-2.385-6.965-5.283-9.026L29,53L10.35,36.35
	c-2.898,2.061-4.899,5.3-5.283,9.026C10.293,52.998,19.061,58,29,58S47.707,52.998,52.932,45.376z"/>
<g>
	<path style="fill:#229974;" d="M43,47v7.392c0.685-0.379,1.35-0.789,2-1.22V47H43z"/>
	<path style="fill:#229974;" d="M13,53.172c0.65,0.431,1.315,0.841,2,1.22V47h-2V53.172z"/>
</g>
<g>
</g>
<g>
</g>
<g>
</g>
<g>
</g>
<g>
</g>
<g>
</g>
<g>
</g>
<g>
</g>
<g>
</g>
<g>
</g>
<g>
</g>
<g>
</g>
<g>
</g>
<g>
</g>
<g>
</g>
</svg>
