<?xml version="1.0" encoding="iso-8859-1"?>
<!-- Generator: Adobe Illustrator 19.0.0, SVG Export Plug-In . SVG Version: 6.00 Build 0)  -->
<svg version="1.1" id="Capa_1" xmlns="http://www.w3.org/2000/svg" xmlns:xlink="http://www.w3.org/1999/xlink" x="0px" y="0px"
	 viewBox="0 0 58 58" style="enable-background:new 0 0 58 58;" xml:space="preserve">
<path style="fill:#9777A8;" d="M51,50.957c0-3.038-1.717-5.816-4.434-7.174l-11.027-4.776c-0.603-0.302-1.095-0.943-1.441-1.64
	C33.787,36.739,34.253,36,34.954,36h7.766c0,0,2.848,0.273,5.044-0.67c1.286-0.553,1.73-2.167,0.925-3.313
	c-2.353-3.349-7.215-11.234-7.373-19.379c0,0-0.27-12.536-12.638-12.638c-7.215,0.06-10.623,4.306-12.21,7.835
	c-0.885,1.969-1.265,4.115-1.407,6.269c-0.513,7.763-4.466,15.092-6.308,18.126c-0.625,1.029-0.323,2.4,0.711,3.017
	C11.158,36.26,13.231,36,13.231,36h7.949c0.775,0,1.117,0.979,0.509,1.459c-0.496,0.391-0.969,0.745-1.225,0.884L11.18,43.72
	C8.603,45.125,7,47.826,7,50.761V52c0,0,0,0.657,0,1c0,2.761,9.85,5,22,5s22-2.239,22-5c0-0.343,0-1,0-1V50.957z"/>
<g>
</g>
<g>
</g>
<g>
</g>
<g>
</g>
<g>
</g>
<g>
</g>
<g>
</g>
<g>
</g>
<g>
</g>
<g>
</g>
<g>
</g>
<g>
</g>
<g>
</g>
<g>
</g>
<g>
</g>
</svg>
