<?xml version="1.0" encoding="iso-8859-1"?>
<!-- Generator: Adobe Illustrator 19.0.0, SVG Export Plug-In . SVG Version: 6.00 Build 0)  -->
<svg version="1.1" id="Capa_1" xmlns="http://www.w3.org/2000/svg" xmlns:xlink="http://www.w3.org/1999/xlink" x="0px" y="0px"
	 viewBox="0 0 53 53" style="enable-background:new 0 0 53 53;" xml:space="preserve">
<line style="fill:none;stroke:#7383BF;stroke-width:2;stroke-linecap:round;stroke-miterlimit:10;" x1="20.132" y1="33.5" x2="12.711" y2="49.5"/>
<line style="fill:none;stroke:#7383BF;stroke-width:2;stroke-linecap:round;stroke-miterlimit:10;" x1="20.132" y1="33.5" x2="27.553" y2="49.5"/>
<path style="fill:#EFCE4A;" d="M50.02,31.428L37.511,19.474c-0.696-0.703-0.679-1.847,0.038-2.528L50.058,5.4
	C51.172,4.342,53,5.139,53,6.683V18.19v11.993C53,31.752,51.12,32.537,50.02,31.428z"/>
<path style="fill:#363E4B;" d="M34.827,33.5H3.791C1.697,33.5,0,31.803,0,29.709V6.444C0,4.275,1.775,2.5,3.944,2.5h31.112
	C37.234,2.5,39,4.266,39,6.444v22.883C39,31.622,37.122,33.5,34.827,33.5z"/>
<circle style="fill:#EFCE4A;" cx="11.5" cy="14" r="5.5"/>
<line style="fill:none;stroke:#FFFFFF;stroke-width:2;stroke-linecap:round;stroke-miterlimit:10;" x1="13" y1="14.5" x2="18" y2="19.5"/>
<g>
</g>
<g>
</g>
<g>
</g>
<g>
</g>
<g>
</g>
<g>
</g>
<g>
</g>
<g>
</g>
<g>
</g>
<g>
</g>
<g>
</g>
<g>
</g>
<g>
</g>
<g>
</g>
<g>
</g>
</svg>
