<?xml version="1.0" encoding="iso-8859-1"?>
<!-- Generator: Adobe Illustrator 19.0.0, SVG Export Plug-In . SVG Version: 6.00 Build 0)  -->
<svg version="1.1" id="Capa_1" xmlns="http://www.w3.org/2000/svg" xmlns:xlink="http://www.w3.org/1999/xlink" x="0px" y="0px"
	 viewBox="0 0 56 56" style="enable-background:new 0 0 56 56;" xml:space="preserve">
<rect x="10" y="6" style="fill:#424A60;" width="36" height="44"/>
<path style="fill:#343B49;" d="M46,29H10c-0.552,0-1-0.447-1-1s0.448-1,1-1h36c0.552,0,1,0.447,1,1S46.552,29,46,29z"/>
<path style="fill:#343B49;" d="M46,8H10C9.448,8,9,7.553,9,7s0.448-1,1-1h36c0.552,0,1,0.447,1,1S46.552,8,46,8z"/>
<path style="fill:#343B49;" d="M46,50H10c-0.552,0-1-0.447-1-1s0.448-1,1-1h36c0.552,0,1,0.447,1,1S46.552,50,46,50z"/>
<path style="fill:#556080;" d="M46,39v11h10V39H46z M53,47h-4v-5h4V47z"/>
<path style="fill:#38454F;" d="M46,28v11h10V28H46z M53,36h-4v-5h4V36z"/>
<path style="fill:#556080;" d="M46,17v11h10V17H46z M53,25h-4v-5h4V25z"/>
<path style="fill:#38454F;" d="M46,6v11h10V6H46z M53,14h-4V9h4V14z"/>
<path style="fill:#556080;" d="M0,39v11h10V39H0z M7,47H3v-5h4V47z"/>
<path style="fill:#38454F;" d="M0,28v11h10V28H0z M7,36H3v-5h4V36z"/>
<path style="fill:#556080;" d="M0,17v11h10V17H0z M7,25H3v-5h4V25z"/>
<path style="fill:#38454F;" d="M0,6v11h10V6H0z M7,14H3V9h4V14z"/>
<g>
</g>
<g>
</g>
<g>
</g>
<g>
</g>
<g>
</g>
<g>
</g>
<g>
</g>
<g>
</g>
<g>
</g>
<g>
</g>
<g>
</g>
<g>
</g>
<g>
</g>
<g>
</g>
<g>
</g>
</svg>
