<?xml version="1.0" encoding="iso-8859-1"?>
<!-- Generator: Adobe Illustrator 19.0.0, SVG Export Plug-In . SVG Version: 6.00 Build 0)  -->
<svg version="1.1" id="Capa_1" xmlns="http://www.w3.org/2000/svg" xmlns:xlink="http://www.w3.org/1999/xlink" x="0px" y="0px"
	 viewBox="0 0 58 58" style="enable-background:new 0 0 58 58;" xml:space="preserve">
<path style="fill:#4B5F99;" d="M58,14H0V3.412C0,2.632,0.632,2,1.412,2h55.176C57.368,2,58,2.632,58,3.412V14z"/>
<path style="fill:#6379B7;" d="M3,14v38.59C3,54.473,4.527,56,6.41,56h45.18c1.883,0,3.41-1.527,3.41-3.41V14H3z"/>
<path style="fill:#4B5F99;" d="M13,56H6.41C4.527,56,3,54.473,3,52.59V46h0C8.523,46,13,50.477,13,56L13,56z"/>
<path style="fill:#4B5F99;" d="M51.59,56H45v0c0-5.523,4.477-10,10-10h0v6.59C55,54.473,53.473,56,51.59,56z"/>
<path style="fill:#E7ECED;" d="M34.495,30h-10.99C21.572,30,20,28.428,20,26.495V25c0-0.553,0.447-1,1-1s1,0.447,1,1v1.495
	C22,27.325,22.675,28,23.505,28h10.99C35.325,28,36,27.325,36,26.495V25c0-0.553,0.447-1,1-1s1,0.447,1,1v1.495
	C38,28.428,36.428,30,34.495,30z"/>
<rect x="3" y="14" style="fill:#5F77AA;" width="52" height="6"/>
<g>
</g>
<g>
</g>
<g>
</g>
<g>
</g>
<g>
</g>
<g>
</g>
<g>
</g>
<g>
</g>
<g>
</g>
<g>
</g>
<g>
</g>
<g>
</g>
<g>
</g>
<g>
</g>
<g>
</g>
</svg>
