<?xml version="1.0" encoding="iso-8859-1"?>
<!-- Generator: Adobe Illustrator 19.0.0, SVG Export Plug-In . SVG Version: 6.00 Build 0)  -->
<svg version="1.1" id="Capa_1" xmlns="http://www.w3.org/2000/svg" xmlns:xlink="http://www.w3.org/1999/xlink" x="0px" y="0px"
	 viewBox="0 0 52.965 52.965" style="enable-background:new 0 0 52.965 52.965;" xml:space="preserve">
<path style="fill:none;stroke:#D5354E;stroke-width:2;stroke-linecap:round;stroke-miterlimit:10;" d="M24.008,13.401L33.2,4.208
	c4.278-4.278,11.278-4.278,15.556,0l0,0c4.278,4.278,4.278,11.278,0,15.556L36.735,31.786c-4.278,4.278-11.278,4.278-15.556,0l0,0"
	/>
<path style="fill:none;stroke:#D5354E;stroke-width:2;stroke-linecap:round;stroke-miterlimit:10;" d="M27.543,40.978l-7.778,7.778
	c-4.278,4.278-11.278,4.278-15.556,0l0,0c-4.278-4.278-4.278-11.278,0-15.556l11.314-11.314c4.278-4.278,11.278-4.278,15.556,0l0,0"
	/>
<line style="fill:none;stroke:#D5354E;stroke-width:2;stroke-linecap:round;stroke-miterlimit:10;" x1="33.965" y1="45" x2="33.965" y2="51"/>
<line style="fill:none;stroke:#D5354E;stroke-width:2;stroke-linecap:round;stroke-miterlimit:10;" x1="37.722" y1="43" x2="41.965" y2="47.243"/>
<line style="fill:none;stroke:#D5354E;stroke-width:2;stroke-linecap:round;stroke-miterlimit:10;" x1="38.965" y1="39" x2="44.965" y2="39"/>
<line style="fill:none;stroke:#D5354E;stroke-width:2;stroke-linecap:round;stroke-miterlimit:10;" x1="15.965" y1="10" x2="15.965" y2="4"/>
<line style="fill:none;stroke:#D5354E;stroke-width:2;stroke-linecap:round;stroke-miterlimit:10;" x1="12.207" y1="12" x2="7.965" y2="7.757"/>
<line style="fill:none;stroke:#D5354E;stroke-width:2;stroke-linecap:round;stroke-miterlimit:10;" x1="10.965" y1="16" x2="4.965" y2="16"/>
<g>
</g>
<g>
</g>
<g>
</g>
<g>
</g>
<g>
</g>
<g>
</g>
<g>
</g>
<g>
</g>
<g>
</g>
<g>
</g>
<g>
</g>
<g>
</g>
<g>
</g>
<g>
</g>
<g>
</g>
</svg>
