<?xml version="1.0" encoding="iso-8859-1"?>
<!-- Generator: Adobe Illustrator 19.0.0, SVG Export Plug-In . SVG Version: 6.00 Build 0)  -->
<svg version="1.1" id="Capa_1" xmlns="http://www.w3.org/2000/svg" xmlns:xlink="http://www.w3.org/1999/xlink" x="0px" y="0px"
	 viewBox="0 0 58 58" style="enable-background:new 0 0 58 58;" xml:space="preserve">
<path style="fill:#DDCCB6;" d="M49.586,58H8.414C7.357,58,6.5,57.143,6.5,56.086V1.914C6.5,0.857,7.357,0,8.414,0h41.171
	C50.643,0,51.5,0.857,51.5,1.914v54.171C51.5,57.143,50.643,58,49.586,58z"/>
<rect x="11.5" y="44" style="fill:#F2ECBF;" width="9" height="9"/>
<rect x="24.5" y="44" style="fill:#F2ECBF;" width="9" height="9"/>
<rect x="37.5" y="31" style="fill:#DC691D;" width="9" height="22"/>
<rect x="11.5" y="31" style="fill:#F2ECBF;" width="9" height="9"/>
<rect x="24.5" y="31" style="fill:#F2ECBF;" width="9" height="9"/>
<rect x="11.5" y="18" style="fill:#F2ECBF;" width="9" height="9"/>
<rect x="24.5" y="18" style="fill:#F2ECBF;" width="9" height="9"/>
<rect x="37.5" y="18" style="fill:#424A60;" width="9" height="9"/>
<rect x="11.5" y="5" style="fill:#74972F;" width="35" height="8"/>
<g>
</g>
<g>
</g>
<g>
</g>
<g>
</g>
<g>
</g>
<g>
</g>
<g>
</g>
<g>
</g>
<g>
</g>
<g>
</g>
<g>
</g>
<g>
</g>
<g>
</g>
<g>
</g>
<g>
</g>
</svg>
