<?xml version="1.0" encoding="iso-8859-1"?>
<!-- Generator: Adobe Illustrator 19.0.0, SVG Export Plug-In . SVG Version: 6.00 Build 0)  -->
<svg version="1.1" id="Capa_1" xmlns="http://www.w3.org/2000/svg" xmlns:xlink="http://www.w3.org/1999/xlink" x="0px" y="0px"
	 viewBox="0 0 59 59" style="enable-background:new 0 0 59 59;" xml:space="preserve">
<rect x="1.5" y="16" style="fill:#A7AFC6;" width="56" height="42"/>
<polygon style="fill:#424A60;" points="42.5,5 16.5,5 0.5,5 0.5,15 58.5,15 58.5,5 "/>
<circle style="fill:#262B38;" cx="20.5" cy="9" r="2"/>
<circle style="fill:#262B38;" cx="26.5" cy="9" r="2"/>
<circle style="fill:#262B38;" cx="32.5" cy="9" r="2"/>
<circle style="fill:#262B38;" cx="38.5" cy="9" r="2"/>
<path style="fill:#AFB6BB;" d="M38.5,0c-1.13,0-2.162,0.391-3,1.025c0.534,0.405,0.979,0.912,1.315,1.495
	C37.296,2.192,37.876,2,38.5,2c1.654,0,3,1.346,3,3s-1.346,3-3,3c-0.553,0-1,0.447-1,1s0.447,1,1,1c2.757,0,5-2.243,5-5
	S41.257,0,38.5,0z"/>
<path style="fill:#839594;" d="M34.185,2.52C33.761,3.254,33.5,4.093,33.5,5h2C35.5,3.97,34.978,3.061,34.185,2.52z"/>
<path style="fill:#839594;" d="M28.185,2.52C27.761,3.254,27.5,4.093,27.5,5h2C29.5,3.97,28.978,3.061,28.185,2.52z"/>
<path style="fill:#AFB6BB;" d="M36.815,2.52c-0.337-0.583-0.781-1.09-1.315-1.495C34.662,0.391,33.63,0,32.5,0s-2.162,0.391-3,1.025
	c0.534,0.405,0.979,0.912,1.315,1.495C31.296,2.192,31.876,2,32.5,2s1.204,0.192,1.685,0.52C34.978,3.061,35.5,3.97,35.5,5
	c0,1.654-1.346,3-3,3c-0.553,0-1,0.447-1,1s0.447,1,1,1c2.757,0,5-2.243,5-5C37.5,4.093,37.239,3.254,36.815,2.52z"/>
<path style="fill:#839594;" d="M22.185,2.52C21.761,3.254,21.5,4.093,21.5,5h2C23.5,3.97,22.978,3.061,22.185,2.52z"/>
<path style="fill:#AFB6BB;" d="M30.815,2.52c-0.337-0.583-0.781-1.09-1.315-1.495C28.662,0.391,27.63,0,26.5,0s-2.162,0.391-3,1.025
	c0.534,0.405,0.979,0.912,1.315,1.495C25.296,2.192,25.876,2,26.5,2s1.204,0.192,1.685,0.52C28.978,3.061,29.5,3.97,29.5,5
	c0,1.654-1.346,3-3,3c-0.553,0-1,0.447-1,1s0.447,1,1,1c2.757,0,5-2.243,5-5C31.5,4.093,31.239,3.254,30.815,2.52z"/>
<path style="fill:#AFB6BB;" d="M24.815,2.52c-0.337-0.583-0.781-1.09-1.315-1.495C22.662,0.391,21.63,0,20.5,0c-2.757,0-5,2.243-5,5
	h2c0-1.654,1.346-3,3-3c0.624,0,1.204,0.192,1.685,0.52C22.978,3.061,23.5,3.97,23.5,5c0,1.654-1.346,3-3,3c-0.553,0-1,0.447-1,1
	s0.447,1,1,1c2.757,0,5-2.243,5-5C25.5,4.093,25.239,3.254,24.815,2.52z"/>
<rect x="29.5" y="30" style="fill:none;stroke:#1081E0;stroke-width:2;stroke-linecap:round;stroke-miterlimit:10;" width="14" height="14"/>
<path style="fill:#556080;" d="M44.5,15h-2h-12h-2h-12h-2h-14v14v2v12v2v14h14h2h12h2h12h2h14V45v-2V31v-2V15H44.5z M30.5,17h12v12
	h-12V17z M42.5,43h-12V31h12V43z M16.5,31h12v12h-12V31z M16.5,17h12v12h-12V17z M2.5,17h12v12h-12V17z M2.5,31h12v12h-12V31z
	 M14.5,57h-12V45h12V57z M28.5,57h-12V45h12V57z M42.5,57h-12V45h12V57z M56.5,57h-12V45h12V57z M56.5,43h-12V31h12V43z M44.5,29V17
	h12v12H44.5z"/>
<rect x="30.5" y="31" style="fill:#EBBA16;" width="12" height="12"/>
<path style="fill:#EFCE4A;" d="M37.914,37l3.293-3.293c0.391-0.391,0.391-1.023,0-1.414s-1.023-0.391-1.414,0L36.5,35.586
	l-3.293-3.293c-0.391-0.391-1.023-0.391-1.414,0s-0.391,1.023,0,1.414L35.086,37l-3.293,3.293c-0.391,0.391-0.391,1.023,0,1.414
	C31.988,41.902,32.244,42,32.5,42s0.512-0.098,0.707-0.293l3.293-3.293l3.293,3.293C39.988,41.902,40.244,42,40.5,42
	s0.512-0.098,0.707-0.293c0.391-0.391,0.391-1.023,0-1.414L37.914,37z"/>
<g>
</g>
<g>
</g>
<g>
</g>
<g>
</g>
<g>
</g>
<g>
</g>
<g>
</g>
<g>
</g>
<g>
</g>
<g>
</g>
<g>
</g>
<g>
</g>
<g>
</g>
<g>
</g>
<g>
</g>
</svg>
