<?xml version="1.0" encoding="iso-8859-1"?>
<!-- Generator: Adobe Illustrator 19.0.0, SVG Export Plug-In . SVG Version: 6.00 Build 0)  -->
<svg version="1.1" id="Capa_1" xmlns="http://www.w3.org/2000/svg" xmlns:xlink="http://www.w3.org/1999/xlink" x="0px" y="0px"
	 viewBox="0 0 60 60" style="enable-background:new 0 0 60 60;" xml:space="preserve">
<rect style="fill:#E7ECED;" width="60" height="60"/>
<path style="fill:#556080;" d="M56,4v52H4V4H56 M60,0H0v60h60V0L60,0z"/>
<g>
	<path style="fill:#7383BF;" d="M30,7c-0.552,0-1,0.447-1,1v1c0,0.553,0.448,1,1,1s1-0.447,1-1V8C31,7.447,30.552,7,30,7z"/>
	<path style="fill:#7383BF;" d="M30,50c-0.552,0-1,0.447-1,1v1c0,0.553,0.448,1,1,1s1-0.447,1-1v-1C31,50.447,30.552,50,30,50z"/>
	<path style="fill:#7383BF;" d="M52,29h-1c-0.552,0-1,0.447-1,1s0.448,1,1,1h1c0.552,0,1-0.447,1-1S52.552,29,52,29z"/>
	<path style="fill:#7383BF;" d="M10,30c0-0.553-0.448-1-1-1H8c-0.552,0-1,0.447-1,1s0.448,1,1,1h1C9.552,31,10,30.553,10,30z"/>
	<path style="fill:#7383BF;" d="M50.293,10.707c0.256,0,0.512-0.098,0.707-0.293l0.707-0.707c0.391-0.391,0.391-1.023,0-1.414
		s-1.023-0.391-1.414,0L49.586,9c-0.391,0.391-0.391,1.023,0,1.414C49.781,10.609,50.037,10.707,50.293,10.707z"/>
	<path style="fill:#7383BF;" d="M9.146,49.439l-0.707,0.707c-0.391,0.391-0.391,1.023,0,1.414c0.195,0.195,0.451,0.293,0.707,0.293
		s0.512-0.098,0.707-0.293l0.707-0.707c0.391-0.391,0.391-1.023,0-1.414S9.537,49.049,9.146,49.439z"/>
	<path style="fill:#7383BF;" d="M50.854,49.439c-0.391-0.391-1.023-0.391-1.414,0s-0.391,1.023,0,1.414l0.707,0.707
		c0.195,0.195,0.451,0.293,0.707,0.293s0.512-0.098,0.707-0.293c0.391-0.391,0.391-1.023,0-1.414L50.854,49.439z"/>
	<path style="fill:#7383BF;" d="M8.793,10.207C8.988,10.402,9.244,10.5,9.5,10.5s0.512-0.098,0.707-0.293
		c0.391-0.391,0.391-1.023,0-1.414L9.5,8.086c-0.391-0.391-1.023-0.391-1.414,0s-0.391,1.023,0,1.414L8.793,10.207z"/>
</g>
<line style="fill:none;stroke:#EFCE4A;stroke-width:2;stroke-linecap:round;stroke-linejoin:round;stroke-miterlimit:10;" x1="27" y1="30" x2="19" y2="30"/>
<line style="fill:none;stroke:#556080;stroke-width:2;stroke-linecap:round;stroke-linejoin:round;stroke-miterlimit:10;" x1="30" y1="27" x2="30" y2="16"/>
<circle style="fill:none;stroke:#556080;stroke-width:2;stroke-linecap:round;stroke-linejoin:round;stroke-miterlimit:10;" cx="30" cy="30" r="3"/>
<g>
</g>
<g>
</g>
<g>
</g>
<g>
</g>
<g>
</g>
<g>
</g>
<g>
</g>
<g>
</g>
<g>
</g>
<g>
</g>
<g>
</g>
<g>
</g>
<g>
</g>
<g>
</g>
<g>
</g>
</svg>
