<?xml version="1.0" encoding="iso-8859-1"?>
<!-- Generator: Adobe Illustrator 19.0.0, SVG Export Plug-In . SVG Version: 6.00 Build 0)  -->
<svg version="1.1" id="Capa_1" xmlns="http://www.w3.org/2000/svg" xmlns:xlink="http://www.w3.org/1999/xlink" x="0px" y="0px"
	 viewBox="0 0 60 60" style="enable-background:new 0 0 60 60;" xml:space="preserve">
<path style="fill:#7FABDA;stroke:#7383BF;stroke-width:2;stroke-linecap:round;stroke-miterlimit:10;" d="M50.003,20.5
	c-0.115-8.699-7.193-16-15.919-16c-5.559,0-10.779,3.005-13.661,7.336C19.157,10.993,17.636,10.5,16,10.5c-4.418,0-8,3.582-8,8
	c0,0.153,0.014,0.302,0.023,0.454C8.013,19.136,8,19.32,8,19.5c-3.988,1.912-7,6.457-7,11.155C1,37.17,6.33,42.5,12.845,42.5h24.507
	c0.138,0,0.272-0.016,0.408-0.021c0.137,0.005,0.271,0.021,0.408,0.021h9.803C54.037,42.5,59,37.537,59,31.472
	C59,26.101,55.106,21.461,50.003,20.5z"/>
<path style="fill:#7FABDA;stroke:#7383BF;stroke-width:2;stroke-linecap:round;stroke-miterlimit:10;" d="M50.003,20.5
	c0,0-2.535-0.375-5.003,0"/>
<path style="fill:#7FABDA;stroke:#7383BF;stroke-width:2;stroke-linecap:round;stroke-miterlimit:10;" d="M8,18.5
	c0-4.418,3.582-8,8-8s8,3.582,8,8"/>
<line style="fill:#7FABDA;stroke:#424A60;stroke-width:2;stroke-linecap:round;stroke-miterlimit:10;" x1="31" y1="25.5" x2="31" y2="55.5"/>
<line style="fill:none;stroke:#424A60;stroke-width:2;stroke-linecap:round;stroke-miterlimit:10;" x1="31" y1="55.5" x2="23" y2="47.5"/>
<line style="fill:none;stroke:#424A60;stroke-width:2;stroke-linecap:round;stroke-miterlimit:10;" x1="39" y1="47.5" x2="31" y2="55.5"/>
<line style="fill:none;stroke:#424A60;stroke-width:2;stroke-linecap:round;stroke-miterlimit:10;" x1="31" y1="25.5" x2="39" y2="33.5"/>
<line style="fill:none;stroke:#424A60;stroke-width:2;stroke-linecap:round;stroke-miterlimit:10;" x1="23" y1="33.5" x2="31" y2="25.5"/>
<g>
</g>
<g>
</g>
<g>
</g>
<g>
</g>
<g>
</g>
<g>
</g>
<g>
</g>
<g>
</g>
<g>
</g>
<g>
</g>
<g>
</g>
<g>
</g>
<g>
</g>
<g>
</g>
<g>
</g>
</svg>
