<?xml version="1.0" encoding="iso-8859-1"?>
<!-- Generator: Adobe Illustrator 19.0.0, SVG Export Plug-In . SVG Version: 6.00 Build 0)  -->
<svg version="1.1" id="Capa_1" xmlns="http://www.w3.org/2000/svg" xmlns:xlink="http://www.w3.org/1999/xlink" x="0px" y="0px"
	 viewBox="0 0 60 60" style="enable-background:new 0 0 60 60;" xml:space="preserve">
<path style="fill:#7FABDA;stroke:#7383BF;stroke-width:2;stroke-linecap:round;stroke-miterlimit:10;" d="M50.003,22
	c-0.115-8.699-7.193-16-15.919-16c-5.559,0-10.779,3.005-13.661,7.336C19.157,12.493,17.636,12,16,12c-4.418,0-8,3.582-8,8
	c0,0.153,0.014,0.302,0.023,0.454C8.013,20.636,8,20.82,8,21c-3.988,1.912-7,6.457-7,11.155C1,38.67,6.33,44,12.845,44h24.507
	c0.138,0,0.272-0.016,0.408-0.021C37.897,43.984,38.031,44,38.169,44h9.803C54.037,44,59,39.037,59,32.972
	C59,27.601,55.106,22.961,50.003,22z"/>
<path style="fill:#7FABDA;stroke:#7383BF;stroke-width:2;stroke-linecap:round;stroke-miterlimit:10;" d="M50.003,22
	c0,0-2.535-0.375-5.003,0"/>
<path style="fill:#7FABDA;stroke:#7383BF;stroke-width:2;stroke-linecap:round;stroke-miterlimit:10;" d="M8,20c0-4.418,3.582-8,8-8
	s8,3.582,8,8"/>
<polygon style="fill:#EBBA16;" points="15.586,55 30,30.357 44.414,55 "/>
<line style="fill:none;stroke:#FFFFFF;stroke-width:2;stroke-linecap:round;stroke-miterlimit:10;" x1="30" y1="38" x2="30" y2="46"/>
<line style="fill:none;stroke:#FFFFFF;stroke-width:2;stroke-linecap:round;stroke-miterlimit:10;" x1="30" y1="50" x2="30" y2="51"/>
<g>
</g>
<g>
</g>
<g>
</g>
<g>
</g>
<g>
</g>
<g>
</g>
<g>
</g>
<g>
</g>
<g>
</g>
<g>
</g>
<g>
</g>
<g>
</g>
<g>
</g>
<g>
</g>
<g>
</g>
</svg>
