<?xml version="1.0" encoding="iso-8859-1"?>
<!-- Generator: Adobe Illustrator 19.0.0, SVG Export Plug-In . SVG Version: 6.00 Build 0)  -->
<svg version="1.1" id="Capa_1" xmlns="http://www.w3.org/2000/svg" xmlns:xlink="http://www.w3.org/1999/xlink" x="0px" y="0px"
	 viewBox="0 0 60 60" style="enable-background:new 0 0 60 60;" xml:space="preserve">
<path style="fill:#7FABDA;stroke:#7383BF;stroke-width:2;stroke-linecap:round;stroke-miterlimit:10;" d="M50.003,20
	c-0.115-8.699-7.193-16-15.919-16c-5.559,0-10.779,3.005-13.661,7.336C19.157,10.493,17.636,10,16,10c-4.418,0-8,3.582-8,8
	c0,0.153,0.014,0.302,0.023,0.454C8.013,18.636,8,18.82,8,19c-3.988,1.912-7,6.457-7,11.155C1,36.67,6.33,42,12.845,42h24.507
	c0.138,0,0.272-0.016,0.408-0.021C37.897,41.984,38.031,42,38.169,42h9.803C54.037,42,59,37.037,59,30.972
	C59,25.601,55.106,20.961,50.003,20z"/>
<path style="fill:#7FABDA;stroke:#7383BF;stroke-width:2;stroke-linecap:round;stroke-miterlimit:10;" d="M50.003,20
	c0,0-2.535-0.375-5.003,0"/>
<path style="fill:#7FABDA;stroke:#7383BF;stroke-width:2;stroke-linecap:round;stroke-miterlimit:10;" d="M8,18c0-4.418,3.582-8,8-8
	s8,3.582,8,8"/>
<circle style="fill:#556080;" cx="31" cy="41" r="16"/>
<path style="fill:#FFFFFF;" d="M41,41c-0.552,0-1,0.447-1,1c0,4.963-4.038,9-9,9s-9-4.037-9-9s4.038-9,9-9c3,0,5.677,1.506,7.311,4
	H32c-0.552,0-1,0.447-1,1s0.448,1,1,1h8c0.002,0,0.003-0.001,0.005-0.001c0.07,0,0.14-0.027,0.21-0.042
	c0.06-0.014,0.125-0.015,0.181-0.039c0.002-0.001,0.004,0,0.005-0.001c0.034-0.015,0.056-0.043,0.087-0.061
	c0.081-0.046,0.162-0.093,0.227-0.159c0.044-0.046,0.07-0.103,0.104-0.155c0.036-0.055,0.08-0.104,0.105-0.166
	c0.034-0.084,0.043-0.175,0.054-0.265C40.982,38.072,41,38.039,41,38v-0.011v-0.002V30c0-0.553-0.448-1-1-1s-1,0.447-1,1v4.6
	c-2.014-2.272-4.864-3.6-8-3.6c-6.065,0-11,4.935-11,11s4.935,11,11,11s11-4.935,11-11C42,41.447,41.552,41,41,41z"/>
<g>
</g>
<g>
</g>
<g>
</g>
<g>
</g>
<g>
</g>
<g>
</g>
<g>
</g>
<g>
</g>
<g>
</g>
<g>
</g>
<g>
</g>
<g>
</g>
<g>
</g>
<g>
</g>
<g>
</g>
</svg>
