<?xml version="1.0" encoding="iso-8859-1"?>
<!-- Generator: Adobe Illustrator 19.0.0, SVG Export Plug-In . SVG Version: 6.00 Build 0)  -->
<svg version="1.1" id="Capa_1" xmlns="http://www.w3.org/2000/svg" xmlns:xlink="http://www.w3.org/1999/xlink" x="0px" y="0px"
	 viewBox="0 0 60 60" style="enable-background:new 0 0 60 60;" xml:space="preserve">
<path style="fill:#7FABDA;stroke:#7383BF;stroke-width:2;stroke-linecap:round;stroke-miterlimit:10;" d="M50.003,20
	c-0.115-8.699-7.193-16-15.919-16c-5.559,0-10.779,3.005-13.661,7.336C19.157,10.493,17.636,10,16,10c-4.418,0-8,3.582-8,8
	c0,0.153,0.014,0.302,0.023,0.454C8.013,18.636,8,18.82,8,19c-3.988,1.912-7,6.457-7,11.155C1,36.67,6.33,42,12.845,42h24.507
	c0.138,0,0.272-0.016,0.408-0.021C37.897,41.984,38.031,42,38.169,42h9.803C54.037,42,59,37.037,59,30.972
	C59,25.601,55.106,20.961,50.003,20z"/>
<path style="fill:#7FABDA;stroke:#7383BF;stroke-width:2;stroke-linecap:round;stroke-miterlimit:10;" d="M50.003,20
	c0,0-2.535-0.375-5.003,0"/>
<path style="fill:#7FABDA;stroke:#7383BF;stroke-width:2;stroke-linecap:round;stroke-miterlimit:10;" d="M8,18c0-4.418,3.582-8,8-8
	s8,3.582,8,8"/>
<circle style="fill:#E7ECED;stroke:#424A60;stroke-width:2;stroke-linecap:round;stroke-miterlimit:10;" cx="31" cy="39" r="10"/>
<line style="fill:none;stroke:#424A60;stroke-width:2;stroke-linecap:round;stroke-miterlimit:10;" x1="38.071" y1="46.071" x2="48" y2="56"/>
<g>
</g>
<g>
</g>
<g>
</g>
<g>
</g>
<g>
</g>
<g>
</g>
<g>
</g>
<g>
</g>
<g>
</g>
<g>
</g>
<g>
</g>
<g>
</g>
<g>
</g>
<g>
</g>
<g>
</g>
</svg>
