<?xml version="1.0" encoding="iso-8859-1"?>
<!-- Generator: Adobe Illustrator 19.0.0, SVG Export Plug-In . SVG Version: 6.00 Build 0)  -->
<svg version="1.1" id="Capa_1" xmlns="http://www.w3.org/2000/svg" xmlns:xlink="http://www.w3.org/1999/xlink" x="0px" y="0px"
	 viewBox="0 0 56 56" style="enable-background:new 0 0 56 56;" xml:space="preserve">
<path style="fill:#424A60;" d="M47.799,8.201c-10.935-10.935-28.663-10.935-39.598,0c-10.935,10.935-10.935,28.663,0,39.598
	c10.935,10.935,28.663,10.935,39.598,0C58.734,36.864,58.734,19.136,47.799,8.201z M32.95,32.95c-2.734,2.734-7.166,2.734-9.899,0
	c-2.734-2.734-2.734-7.166,0-9.899s7.166-2.734,9.899,0S35.683,30.216,32.95,32.95z"/>
<path style="fill:#E7ECED;" d="M35.778,20.222c-4.296-4.296-11.261-4.296-15.556,0c-4.296,4.296-4.296,11.261,0,15.556
	c4.296,4.296,11.261,4.296,15.556,0C40.074,31.482,40.074,24.518,35.778,20.222z M30.121,30.121c-1.172,1.172-3.071,1.172-4.243,0
	s-1.172-3.071,0-4.243s3.071-1.172,4.243,0S31.293,28.95,30.121,30.121z"/>
<g>
	<path style="fill:#7383BF;" d="M35.778,35.778c-0.76,0.76-1.607,1.378-2.504,1.87l8.157,14.92c2.284-1.25,4.434-2.835,6.368-4.769
		c1.934-1.934,3.519-4.084,4.769-6.368l-14.92-8.157C37.157,34.172,36.538,35.018,35.778,35.778z"/>
	<path style="fill:#7383BF;" d="M20.222,20.222c0.76-0.76,1.607-1.378,2.504-1.87l-8.157-14.92c-2.284,1.25-4.434,2.835-6.368,4.769
		s-3.519,4.084-4.769,6.368l14.92,8.157C18.843,21.828,19.462,20.982,20.222,20.222z"/>
</g>
<g>
</g>
<g>
</g>
<g>
</g>
<g>
</g>
<g>
</g>
<g>
</g>
<g>
</g>
<g>
</g>
<g>
</g>
<g>
</g>
<g>
</g>
<g>
</g>
<g>
</g>
<g>
</g>
<g>
</g>
</svg>
