<?xml version="1.0" encoding="iso-8859-1"?>
<!-- Generator: Adobe Illustrator 19.0.0, SVG Export Plug-In . SVG Version: 6.00 Build 0)  -->
<svg version="1.1" id="Capa_1" xmlns="http://www.w3.org/2000/svg" xmlns:xlink="http://www.w3.org/1999/xlink" x="0px" y="0px"
	 viewBox="0 0 60 60" style="enable-background:new 0 0 60 60;" xml:space="preserve">
<path style="fill:#E7ECED;" d="M30,1C13.984,1,1,13.984,1,30c0,16.016,12.984,29,29,29s29-12.984,29-29C59,13.984,46.016,1,30,1z
	 M30,39c-4.971,0-9-4.029-9-9s4.029-9,9-9s9,4.029,9,9S34.971,39,30,39z"/>
<path style="fill:#BDCAEF;" d="M4.373,16.425l14.808,8.095c0.534-0.977,1.208-1.898,2.035-2.725c0.827-0.827,1.749-1.5,2.725-2.035
	L15.738,4.753C10.926,7.477,6.97,11.533,4.373,16.425z"/>
<path style="fill:#BDCAEF;" d="M55.259,44.242L40.182,36c-0.534,0.977-1.208,1.898-2.035,2.726c-0.827,0.827-1.749,1.5-2.726,2.035
	l8.133,14.877C48.462,53.037,52.531,49.07,55.259,44.242z"/>
<path style="fill:#FFFFFF;" d="M30,15c-8.284,0-15,6.716-15,15s6.716,15,15,15s15-6.716,15-15S38.284,15,30,15z M30,37.5
	c-4.142,0-7.5-3.358-7.5-7.5s3.358-7.5,7.5-7.5s7.5,3.358,7.5,7.5S34.142,37.5,30,37.5z"/>
<path style="fill:#E7ECED;" d="M30,19.167c-5.983,0-10.833,4.85-10.833,10.833S24.017,40.833,30,40.833S40.833,35.983,40.833,30
	S35.983,19.167,30,19.167z M30,35.833c-3.222,0-5.833-2.612-5.833-5.833s2.612-5.833,5.833-5.833s5.833,2.612,5.833,5.833
	S33.222,35.833,30,35.833z"/>
<path style="fill:#7383BF;" d="M30,0C13.458,0,0,13.458,0,30s13.458,30,30,30s30-13.458,30-30S46.542,0,30,0z M30,58
	C14.561,58,2,45.439,2,30S14.561,2,30,2s28,12.561,28,28S45.439,58,30,58z"/>
<g>
</g>
<g>
</g>
<g>
</g>
<g>
</g>
<g>
</g>
<g>
</g>
<g>
</g>
<g>
</g>
<g>
</g>
<g>
</g>
<g>
</g>
<g>
</g>
<g>
</g>
<g>
</g>
<g>
</g>
</svg>
