<?xml version="1.0" encoding="iso-8859-1"?>
<!-- Generator: Adobe Illustrator 19.0.0, SVG Export Plug-In . SVG Version: 6.00 Build 0)  -->
<svg version="1.1" id="Capa_1" xmlns="http://www.w3.org/2000/svg" xmlns:xlink="http://www.w3.org/1999/xlink" x="0px" y="0px"
	 viewBox="0 0 58 58" style="enable-background:new 0 0 58 58;" xml:space="preserve">
<polygon style="fill:#EDEADA;" points="51.5,14 37.5,0 6.5,0 6.5,58 51.5,58 "/>
<polygon style="fill:#CEC9AE;" points="37.5,0 37.5,14 51.5,14 "/>
<g>
	<path style="fill:#CEC9AE;" d="M15.5,16h9c0.552,0,1-0.447,1-1s-0.448-1-1-1h-9c-0.552,0-1,0.447-1,1S14.948,16,15.5,16z"/>
	<path style="fill:#CEC9AE;" d="M32.5,36h-17c-0.552,0-1,0.447-1,1s0.448,1,1,1h17c0.552,0,1-0.447,1-1S33.052,36,32.5,36z"/>
	<path style="fill:#CEC9AE;" d="M42.5,29h-7c-0.552,0-1,0.447-1,1s0.448,1,1,1h7c0.552,0,1-0.447,1-1S43.052,29,42.5,29z"/>
	<path style="fill:#CEC9AE;" d="M15.5,24h5c0.552,0,1-0.447,1-1s-0.448-1-1-1h-5c-0.552,0-1,0.447-1,1S14.948,24,15.5,24z"/>
	<path style="fill:#CEC9AE;" d="M30.5,24h7c0.552,0,1-0.447,1-1s-0.448-1-1-1h-7c-0.552,0-1,0.447-1,1S29.948,24,30.5,24z"/>
	<path style="fill:#CEC9AE;" d="M24.5,23c0,0.26,0.11,0.52,0.29,0.71C24.98,23.89,25.24,24,25.5,24c0.26,0,0.52-0.11,0.71-0.29
		c0.18-0.19,0.29-0.45,0.29-0.71c0-0.261-0.11-0.521-0.29-0.71c-0.37-0.37-1.04-0.37-1.42,0C24.61,22.479,24.5,22.739,24.5,23z"/>
	<path style="fill:#CEC9AE;" d="M20.5,29c-0.552,0-1,0.447-1,1s0.448,1,1,1h10c0.552,0,1-0.447,1-1s-0.448-1-1-1H20.5z"/>
	<path style="fill:#CEC9AE;" d="M15.5,31c0.26,0,0.52-0.11,0.71-0.29c0.18-0.19,0.29-0.45,0.29-0.71c0-0.261-0.11-0.521-0.29-0.71
		c-0.37-0.37-1.05-0.37-1.42,0c-0.18,0.189-0.29,0.439-0.29,0.71c0,0.26,0.11,0.52,0.29,0.71C14.98,30.89,15.24,31,15.5,31z"/>
	<path style="fill:#CEC9AE;" d="M42.5,43h-7c-0.552,0-1,0.447-1,1s0.448,1,1,1h7c0.552,0,1-0.447,1-1S43.052,43,42.5,43z"/>
	<path style="fill:#CEC9AE;" d="M30.5,43h-10c-0.552,0-1,0.447-1,1s0.448,1,1,1h10c0.552,0,1-0.447,1-1S31.052,43,30.5,43z"/>
	<path style="fill:#CEC9AE;" d="M14.79,43.29c-0.18,0.18-0.29,0.439-0.29,0.71c0,0.27,0.1,0.52,0.29,0.71
		C14.98,44.89,15.24,45,15.5,45c0.27,0,0.52-0.11,0.71-0.29c0.18-0.19,0.29-0.45,0.29-0.71c0-0.271-0.11-0.521-0.29-0.7
		C15.84,42.92,15.17,42.92,14.79,43.29z"/>
	<path style="fill:#CEC9AE;" d="M42.5,24c0.26,0,0.52-0.11,0.71-0.29c0.19-0.19,0.29-0.45,0.29-0.71c0-0.261-0.1-0.521-0.29-0.71
		c-0.38-0.37-1.04-0.37-1.42,0c-0.18,0.189-0.29,0.449-0.29,0.71c0,0.26,0.11,0.52,0.29,0.71C41.98,23.89,42.24,24,42.5,24z"/>
	<path style="fill:#CEC9AE;" d="M38.21,37.71c0.18-0.19,0.29-0.45,0.29-0.71c0-0.261-0.11-0.521-0.29-0.71
		c-0.38-0.37-1.05-0.37-1.42,0c-0.18,0.189-0.29,0.449-0.29,0.71c0,0.26,0.11,0.52,0.29,0.71C36.98,37.899,37.23,38,37.5,38
		S38.02,37.89,38.21,37.71z"/>
	<path style="fill:#CEC9AE;" d="M41.79,36.29c-0.18,0.189-0.29,0.449-0.29,0.71c0,0.26,0.11,0.52,0.29,0.71
		C41.98,37.89,42.23,38,42.5,38s0.52-0.11,0.71-0.29c0.18-0.19,0.29-0.45,0.29-0.71c0-0.261-0.11-0.521-0.29-0.71
		C42.84,35.92,42.16,35.92,41.79,36.29z"/>
</g>
<g>
</g>
<g>
</g>
<g>
</g>
<g>
</g>
<g>
</g>
<g>
</g>
<g>
</g>
<g>
</g>
<g>
</g>
<g>
</g>
<g>
</g>
<g>
</g>
<g>
</g>
<g>
</g>
<g>
</g>
</svg>
