<?xml version="1.0" encoding="iso-8859-1"?>
<!-- Generator: Adobe Illustrator 19.0.0, SVG Export Plug-In . SVG Version: 6.00 Build 0)  -->
<svg version="1.1" id="Capa_1" xmlns="http://www.w3.org/2000/svg" xmlns:xlink="http://www.w3.org/1999/xlink" x="0px" y="0px"
	 viewBox="0 0 58 58" style="enable-background:new 0 0 58 58;" xml:space="preserve">
<circle style="fill:#694F87;" cx="29" cy="29" r="29"/>
<g>
	<polygon style="fill:#FFFFFF;" points="29,11 44,33 29.273,33 14,33 	"/>
	<path style="fill:#FFFFFF;" d="M44.02,34c-0.004,0-0.012,0.001-0.02,0H14c-0.371,0-0.711-0.205-0.884-0.533
		c-0.174-0.327-0.151-0.724,0.058-1.03l15-22c0.373-0.547,1.279-0.547,1.652,0l14.904,21.86c0.179,0.181,0.289,0.429,0.289,0.703
		C45.02,33.553,44.572,34,44.02,34z M15.893,32h26.215L29,12.775L15.893,32z"/>
</g>
<g>
	<rect x="14" y="38" style="fill:#FFFFFF;" width="30" height="5"/>
	<path style="fill:#FFFFFF;" d="M45,44H13v-7h32V44z M15,42h28v-3H15V42z"/>
</g>
<g>
</g>
<g>
</g>
<g>
</g>
<g>
</g>
<g>
</g>
<g>
</g>
<g>
</g>
<g>
</g>
<g>
</g>
<g>
</g>
<g>
</g>
<g>
</g>
<g>
</g>
<g>
</g>
<g>
</g>
</svg>
