<?xml version="1.0" encoding="iso-8859-1"?>
<!-- Generator: Adobe Illustrator 19.0.0, SVG Export Plug-In . SVG Version: 6.00 Build 0)  -->
<svg version="1.1" id="Capa_1" xmlns="http://www.w3.org/2000/svg" xmlns:xlink="http://www.w3.org/1999/xlink" x="0px" y="0px"
	 viewBox="0 0 60 60" style="enable-background:new 0 0 60 60;" xml:space="preserve">
<rect x="16.5" y="31" style="fill:#871B1B;" width="10" height="6"/>
<path style="fill:#424A60;" d="M3.5,0c-0.552,0-1,0.447-1,1v3v55c0,0.553,0.448,1,1,1s1-0.447,1-1V4V1C4.5,0.447,4.052,0,3.5,0z"/>
<rect x="4.5" y="4" style="fill:#DD352E;" width="22" height="29"/>
<path style="fill:#C03A2B;" d="M26.5,9v24h-6c-2.209,0-4,1.791-4,4c0,2.209,1.791,4,4,4h4h33l-11-16l11-16H26.5z"/>
<path style="fill:#B02721;" d="M16.5,37c0,2.209,1.791,4,4,4h4h2v-8h-6C18.291,33,16.5,34.791,16.5,37z"/>
<g>
</g>
<g>
</g>
<g>
</g>
<g>
</g>
<g>
</g>
<g>
</g>
<g>
</g>
<g>
</g>
<g>
</g>
<g>
</g>
<g>
</g>
<g>
</g>
<g>
</g>
<g>
</g>
<g>
</g>
</svg>
