<?xml version="1.0" encoding="iso-8859-1"?>
<!-- Generator: Adobe Illustrator 19.0.0, SVG Export Plug-In . SVG Version: 6.00 Build 0)  -->
<svg version="1.1" id="Capa_1" xmlns="http://www.w3.org/2000/svg" xmlns:xlink="http://www.w3.org/1999/xlink" x="0px" y="0px"
	 viewBox="0 0 58 58" style="enable-background:new 0 0 58 58;" xml:space="preserve">
<polygon style="fill:#7383BF;" points="20,3.5 25,10.5 58,10.5 58,3.5 "/>
<polygon style="fill:#424A60;" points="25,10.5 20,3.5 0,3.5 0,10.5 0,54.5 58,54.5 58,17.5 30,17.5 "/>
<polygon style="fill:#71C3A9;" points="30,17.5 58,17.5 58,10.5 25,10.5 "/>
<rect x="34" y="37.5" style="fill:#E6E6E6;" width="19" height="12"/>
<g>
	<path style="fill:#7383BF;" d="M38,42.5h4c0.552,0,1-0.447,1-1s-0.448-1-1-1h-4c-0.552,0-1,0.447-1,1S37.448,42.5,38,42.5z"/>
	<path style="fill:#7383BF;" d="M46,42.5h1c0.552,0,1-0.447,1-1s-0.448-1-1-1h-1c-0.552,0-1,0.447-1,1S45.448,42.5,46,42.5z"/>
	<path style="fill:#7383BF;" d="M49,44.5H38c-0.552,0-1,0.447-1,1s0.448,1,1,1h11c0.552,0,1-0.447,1-1S49.552,44.5,49,44.5z"/>
</g>
<g>
</g>
<g>
</g>
<g>
</g>
<g>
</g>
<g>
</g>
<g>
</g>
<g>
</g>
<g>
</g>
<g>
</g>
<g>
</g>
<g>
</g>
<g>
</g>
<g>
</g>
<g>
</g>
<g>
</g>
</svg>
