<?xml version="1.0" encoding="iso-8859-1"?>
<!-- Generator: Adobe Illustrator 19.0.0, SVG Export Plug-In . SVG Version: 6.00 Build 0)  -->
<svg version="1.1" id="Capa_1" xmlns="http://www.w3.org/2000/svg" xmlns:xlink="http://www.w3.org/1999/xlink" x="0px" y="0px"
	 viewBox="0 0 56.372 56.372" style="enable-background:new 0 0 56.372 56.372;" xml:space="preserve">
<path style="fill:#E7ECED;" d="M56.372,28.564l-7.234,7.234c-11.517,11.517-30.19,11.517-41.707,0L0,28.367l7.234-7.234
	c11.517-11.517,30.19-11.517,41.707,0L56.372,28.564z"/>
<circle style="fill:#3083C9;" cx="28.158" cy="28.436" r="12"/>
<line style="fill:none;stroke:#EBBA16;stroke-width:2;stroke-linecap:round;stroke-miterlimit:10;" x1="6.052" y1="51.436" x2="52.552" y2="4.936"/>
<path style="fill:#FFFFFF;" d="M21.372,28.436c-0.552,0-1-0.448-1-1c0-3.86,3.14-7,7-7c0.552,0,1,0.448,1,1s-0.448,1-1,1
	c-2.757,0-5,2.243-5,5C22.372,27.988,21.924,28.436,21.372,28.436z"/>
<g>
</g>
<g>
</g>
<g>
</g>
<g>
</g>
<g>
</g>
<g>
</g>
<g>
</g>
<g>
</g>
<g>
</g>
<g>
</g>
<g>
</g>
<g>
</g>
<g>
</g>
<g>
</g>
<g>
</g>
</svg>
