<?xml version="1.0" encoding="iso-8859-1"?>
<!-- Generator: Adobe Illustrator 19.0.0, SVG Export Plug-In . SVG Version: 6.00 Build 0)  -->
<svg version="1.1" id="Capa_1" xmlns="http://www.w3.org/2000/svg" xmlns:xlink="http://www.w3.org/1999/xlink" x="0px" y="0px"
	 viewBox="0 0 57.066 57.066" style="enable-background:new 0 0 57.066 57.066;" xml:space="preserve">
<path style="fill:#F7B563;" d="M30.797,10v15.5c0,0.828-0.672,1.5-1.5,1.5h0c-0.828,0-1.5-0.672-1.5-1.5V3c0-1.657-1.343-3-3-3h0
	c-1.657,0-3,1.343-3,3v22.5c0,0.828-0.672,1.5-1.5,1.5h0c-0.828,0-1.5-0.672-1.5-1.5v-18c0-1.381-1.119-2.5-2.5-2.5h0
	c-1.381,0-2.5,1.119-2.5,2.5v20c0,0.828-0.672,1.5-1.5,1.5h0c-0.828,0-1.5-0.672-1.5-1.5V15c0-1.381-1.119-2.5-2.5-2.5h-0.01
	c-1.381,0-2.5,1.119-2.5,2.5v27.128c0.836,12.08,7.46,14.938,16.81,14.938c6.667,0,12.416-3.409,15.177-8.351
	c1.161-1.874,8.194-12.825,8.798-13.969c0.704-1.334,1.735-2.94,3.035-4.002c0.693-0.566,1.154-1.318,1.581-2.105
	c0.109-0.202,0.426-2.646-1.391-2.639c-1.576,0.006-3.375,0.67-4.68,1.552c-1.463,0.989-3.362,2.696-4.984,5.531
	c-0.527,0.922-1.471,1.564-2.532,1.588c-1.001,0.023-0.742-0.468-0.804-2.536l0,0v-2.988V10c0-1.657-1.343-3-3-3h0
	C32.14,7,30.797,8.343,30.797,10z"/>
<g>
</g>
<g>
</g>
<g>
</g>
<g>
</g>
<g>
</g>
<g>
</g>
<g>
</g>
<g>
</g>
<g>
</g>
<g>
</g>
<g>
</g>
<g>
</g>
<g>
</g>
<g>
</g>
<g>
</g>
</svg>
