<?xml version="1.0" encoding="iso-8859-1"?>
<!-- Generator: Adobe Illustrator 19.0.0, SVG Export Plug-In . SVG Version: 6.00 Build 0)  -->
<svg version="1.1" id="Capa_1" xmlns="http://www.w3.org/2000/svg" xmlns:xlink="http://www.w3.org/1999/xlink" x="0px" y="0px"
	 viewBox="0 0 60 60" style="enable-background:new 0 0 60 60;" xml:space="preserve">
<path style="fill:#7383BF;" d="M41.857,22.096C43.82,20.786,45,18.582,45,16.222V5H15v11.222c0,2.36,1.18,4.564,3.143,5.874
	L28,28.667v2.667l-9.857,6.571C16.18,39.214,15,41.418,15,43.778V55h30V43.778c0-2.36-1.18-4.564-3.143-5.874L32,31.333v-2.667
	L41.857,22.096z"/>
<path style="fill:#424A60;" d="M40.192,19.6C41.324,18.845,42,17.582,42,16.223v0c0-1.306-0.889-2.445-2.156-2.762L24.791,9.698
	C21.342,8.835,18,11.444,18,15v1.223c0,1.359,0.676,2.622,1.808,3.377L29,26.346v15.877c0,3.63-3.764,6.036-7.058,4.511l0,0
	c-1.774-0.821-3.922,0.394-3.941,2.349c0,0.014,0,0.027,0,0.041V55h24V43.777c0-0.014,0-0.027,0-0.041
	c-0.019-1.931-1.889-3.322-3.791-2.991l-2.049,0.357C33.466,41.571,31,39.497,31,36.763V26.346L40.192,19.6z"/>
<rect x="10" y="55" style="fill:#424A60;" width="40" height="4"/>
<path style="fill:#556080;" d="M54,58h-3v-4H9v4H6c-0.552,0-1,0.447-1,1s0.448,1,1,1h3h1h40h1h3c0.552,0,1-0.447,1-1
	S54.552,58,54,58z M11,56h38v2H11V56z"/>
<rect x="10" y="1" style="fill:#424A60;" width="40" height="4"/>
<path style="fill:#556080;" d="M54,0h-3h-1H10H9H6C5.448,0,5,0.447,5,1s0.448,1,1,1h3v4h42V2h3c0.552,0,1-0.447,1-1S54.552,0,54,0z
	 M49,4H11V2h38V4z"/>
<path style="fill:#7FABDA;" d="M24.999,24c-0.19,0-0.383-0.055-0.554-0.168l-4.638-3.092C18.676,19.986,18,18.724,18,17.362v-2.222
	c0-0.553,0.448-1,1-1s1,0.447,1,1v2.222c0,0.69,0.343,1.331,0.917,1.714l4.638,3.092c0.459,0.307,0.583,0.927,0.277,1.387
	C25.639,23.844,25.322,24,24.999,24z"/>
<path style="fill:#7FABDA;" d="M41,46c-0.552,0-1-0.447-1-1v-2.222c0-0.69-0.343-1.331-0.917-1.714l-4.638-3.092
	c-0.459-0.307-0.583-0.927-0.277-1.387c0.307-0.46,0.926-0.584,1.387-0.277l4.638,3.092C41.324,40.154,42,41.417,42,42.778V45
	C42,45.553,41.552,46,41,46z"/>
<g>
</g>
<g>
</g>
<g>
</g>
<g>
</g>
<g>
</g>
<g>
</g>
<g>
</g>
<g>
</g>
<g>
</g>
<g>
</g>
<g>
</g>
<g>
</g>
<g>
</g>
<g>
</g>
<g>
</g>
</svg>
