<?xml version="1.0" encoding="iso-8859-1"?>
<!-- Generator: Adobe Illustrator 19.0.0, SVG Export Plug-In . SVG Version: 6.00 Build 0)  -->
<svg version="1.1" id="Capa_1" xmlns="http://www.w3.org/2000/svg" xmlns:xlink="http://www.w3.org/1999/xlink" x="0px" y="0px"
	 viewBox="0 0 58 58" style="enable-background:new 0 0 58 58;" xml:space="preserve">
<path style="fill:#23A24D;" d="M49,4H9C7.895,4,7,3.105,7,2v0c0-1.105,0.895-2,2-2h40c1.105,0,2,0.895,2,2v0C51,3.105,50.105,4,49,4
	z"/>
<path style="fill:#23A24D;" d="M49,58H9c-1.105,0-2-0.895-2-2v0c0-1.105,0.895-2,2-2h40c1.105,0,2,0.895,2,2v0
	C51,57.105,50.105,58,49,58z"/>
<path style="fill:#7FABDA;" d="M43,11V4H15v7c0,6.979,3.72,13.351,9.628,16.817c0.9,0.528,0.9,1.838,0,2.366
	C18.72,33.649,15,40.021,15,47v7h28v-7c0-6.979-3.72-13.351-9.628-16.817c-0.9-0.528-0.9-1.838,0-2.366
	C39.28,24.351,43,17.979,43,11z"/>
<path style="fill:#7296B7;" d="M29,54h14v-7c0-6.979-3.72-13.351-9.628-16.817c-0.9-0.528-0.9-1.838,0-2.366
	C39.28,24.351,43,17.979,43,11V4H29V54z"/>
<g>
	<circle style="fill:#E7ECED;" cx="17" cy="53" r="1"/>
	<circle style="fill:#E7ECED;" cx="21" cy="53" r="1"/>
	<circle style="fill:#E7ECED;" cx="25" cy="53" r="1"/>
	<circle style="fill:#E7ECED;" cx="29" cy="53" r="1"/>
	<circle style="fill:#E7ECED;" cx="33" cy="53" r="1"/>
	<circle style="fill:#E7ECED;" cx="37" cy="53" r="1"/>
	<circle style="fill:#E7ECED;" cx="41" cy="53" r="1"/>
	<circle style="fill:#E7ECED;" cx="19" cy="51" r="1"/>
	<circle style="fill:#E7ECED;" cx="23" cy="51" r="1"/>
	<circle style="fill:#E7ECED;" cx="27" cy="51" r="1"/>
	<circle style="fill:#E7ECED;" cx="31" cy="51" r="1"/>
	<circle style="fill:#E7ECED;" cx="35" cy="51" r="1"/>
	<circle style="fill:#E7ECED;" cx="39" cy="51" r="1"/>
	<circle style="fill:#E7ECED;" cx="21" cy="49" r="1"/>
	<circle style="fill:#E7ECED;" cx="25" cy="49" r="1"/>
	<circle style="fill:#E7ECED;" cx="29" cy="32" r="1"/>
	<circle style="fill:#E7ECED;" cx="23" cy="21" r="1"/>
	<circle style="fill:#E7ECED;" cx="27" cy="21" r="1"/>
	<circle style="fill:#E7ECED;" cx="31" cy="21" r="1"/>
	<circle style="fill:#E7ECED;" cx="35" cy="21" r="1"/>
	<circle style="fill:#E7ECED;" cx="33" cy="19" r="1"/>
	<circle style="fill:#E7ECED;" cx="35" cy="17" r="1"/>
	<circle style="fill:#E7ECED;" cx="25" cy="19" r="1"/>
	<circle style="fill:#E7ECED;" cx="29" cy="19" r="1"/>
	<circle style="fill:#E7ECED;" cx="23" cy="17" r="1"/>
	<circle style="fill:#E7ECED;" cx="25" cy="23" r="1"/>
	<circle style="fill:#E7ECED;" cx="27" cy="25" r="1"/>
	<circle style="fill:#E7ECED;" cx="31" cy="25" r="1"/>
	<circle style="fill:#E7ECED;" cx="29" cy="23" r="1"/>
	<circle style="fill:#E7ECED;" cx="33" cy="23" r="1"/>
	<circle style="fill:#E7ECED;" cx="29" cy="35" r="1"/>
	<circle style="fill:#E7ECED;" cx="29" cy="38" r="1"/>
	<circle style="fill:#E7ECED;" cx="29" cy="41" r="1"/>
	<circle style="fill:#E7ECED;" cx="29" cy="44" r="1"/>
	<circle style="fill:#E7ECED;" cx="29" cy="47" r="1"/>
	<circle style="fill:#E7ECED;" cx="33" cy="49" r="1"/>
	<circle style="fill:#E7ECED;" cx="37" cy="49" r="1"/>
</g>
<g>
</g>
<g>
</g>
<g>
</g>
<g>
</g>
<g>
</g>
<g>
</g>
<g>
</g>
<g>
</g>
<g>
</g>
<g>
</g>
<g>
</g>
<g>
</g>
<g>
</g>
<g>
</g>
<g>
</g>
</svg>
