<?xml version="1.0" encoding="iso-8859-1"?>
<!-- Generator: Adobe Illustrator 19.0.0, SVG Export Plug-In . SVG Version: 6.00 Build 0)  -->
<svg version="1.1" id="Capa_1" xmlns="http://www.w3.org/2000/svg" xmlns:xlink="http://www.w3.org/1999/xlink" x="0px" y="0px"
	 viewBox="0 0 58 58" style="enable-background:new 0 0 58 58;" xml:space="preserve">
<rect style="fill:#EDEADA;" width="58" height="58"/>
<polygon style="fill:#EBBA16;" points="13.929,10 15.143,12.46 17.858,12.855 15.894,14.77 16.357,17.474 13.929,16.197 
	11.501,17.474 11.965,14.77 10,12.855 12.715,12.46 "/>
<polygon style="fill:#EBBA16;" points="13.929,25.083 15.143,27.543 17.858,27.938 15.894,29.853 16.357,32.557 13.929,31.28 
	11.501,32.557 11.965,29.853 10,27.938 12.715,27.543 "/>
<polygon style="fill:#EBBA16;" points="13.929,40.526 15.143,42.987 17.858,43.381 15.894,45.296 16.357,48 13.929,46.723 
	11.501,48 11.965,45.296 10,43.381 12.715,42.987 "/>
<path style="fill:#7383BF;" d="M46,16H22.429c-0.552,0-1-0.447-1-1s0.448-1,1-1H46c0.552,0,1,0.447,1,1S46.552,16,46,16z"/>
<path style="fill:#7383BF;" d="M46,31H22.429c-0.552,0-1-0.447-1-1s0.448-1,1-1H46c0.552,0,1,0.447,1,1S46.552,31,46,31z"/>
<path style="fill:#7383BF;" d="M46,46H22.429c-0.552,0-1-0.447-1-1s0.448-1,1-1H46c0.552,0,1,0.447,1,1S46.552,46,46,46z"/>
<g>
</g>
<g>
</g>
<g>
</g>
<g>
</g>
<g>
</g>
<g>
</g>
<g>
</g>
<g>
</g>
<g>
</g>
<g>
</g>
<g>
</g>
<g>
</g>
<g>
</g>
<g>
</g>
<g>
</g>
</svg>
