<?xml version="1.0" encoding="iso-8859-1"?>
<!-- Generator: Adobe Illustrator 19.0.0, SVG Export Plug-In . SVG Version: 6.00 Build 0)  -->
<svg version="1.1" id="Capa_1" xmlns="http://www.w3.org/2000/svg" xmlns:xlink="http://www.w3.org/1999/xlink" x="0px" y="0px"
	 viewBox="0 0 57 57" style="enable-background:new 0 0 57 57;" xml:space="preserve">
<path style="fill:none;stroke:#556080;stroke-width:2;stroke-linecap:round;stroke-miterlimit:10;" d="M43.5,28v6
	c0,8.271-6.729,15-15,15s-15-6.729-15-15v-6"/>
<path style="fill:#4E3787;" d="M28.5,44L28.5,44c-5.5,0-10-4.5-10-10V10c0-5.5,4.5-10,10-10h0c5.5,0,10,4.5,10,10v24
	C38.5,39.5,34,44,28.5,44z"/>
<line style="fill:none;stroke:#556080;stroke-width:2;stroke-linecap:round;stroke-miterlimit:10;" x1="28.5" y1="49" x2="28.5" y2="56"/>
<polyline style="fill:none;stroke:#556080;stroke-width:2;stroke-linecap:round;stroke-miterlimit:10;" points="34.5,56 28.5,56 
	22.5,56 "/>
<g>
	<circle style="fill:#DDB7DE;" cx="28.5" cy="3" r="1"/>
	<circle style="fill:#DDB7DE;" cx="25.5" cy="6" r="1"/>
	<circle style="fill:#DDB7DE;" cx="19.5" cy="12" r="1"/>
	<circle style="fill:#DDB7DE;" cx="25.5" cy="12" r="1"/>
	<circle style="fill:#DDB7DE;" cx="22.5" cy="9" r="1"/>
	<circle style="fill:#DDB7DE;" cx="28.5" cy="9" r="1"/>
	<circle style="fill:#DDB7DE;" cx="22.5" cy="15" r="1"/>
	<circle style="fill:#DDB7DE;" cx="28.5" cy="15" r="1"/>
	<circle style="fill:#DDB7DE;" cx="31.5" cy="6" r="1"/>
	<circle style="fill:#DDB7DE;" cx="31.5" cy="12" r="1"/>
	<circle style="fill:#DDB7DE;" cx="34.5" cy="9" r="1"/>
	<circle style="fill:#DDB7DE;" cx="34.5" cy="15" r="1"/>
	<circle style="fill:#DDB7DE;" cx="19.5" cy="18" r="1"/>
	<circle style="fill:#DDB7DE;" cx="25.5" cy="18" r="1"/>
	<circle style="fill:#DDB7DE;" cx="19.5" cy="24" r="1"/>
	<circle style="fill:#DDB7DE;" cx="25.5" cy="24" r="1"/>
	<circle style="fill:#DDB7DE;" cx="22.5" cy="21" r="1"/>
	<circle style="fill:#DDB7DE;" cx="28.5" cy="21" r="1"/>
	<circle style="fill:#DDB7DE;" cx="22.5" cy="27" r="1"/>
	<circle style="fill:#DDB7DE;" cx="28.5" cy="27" r="1"/>
	<circle style="fill:#DDB7DE;" cx="31.5" cy="18" r="1"/>
	<circle style="fill:#DDB7DE;" cx="31.5" cy="24" r="1"/>
	<circle style="fill:#DDB7DE;" cx="34.5" cy="21" r="1"/>
	<circle style="fill:#DDB7DE;" cx="34.5" cy="27" r="1"/>
	<circle style="fill:#DDB7DE;" cx="19.5" cy="30" r="1"/>
	<circle style="fill:#DDB7DE;" cx="25.5" cy="30" r="1"/>
	<circle style="fill:#DDB7DE;" cx="37.5" cy="12" r="1"/>
	<circle style="fill:#DDB7DE;" cx="37.5" cy="18" r="1"/>
	<circle style="fill:#DDB7DE;" cx="37.5" cy="24" r="1"/>
	<circle style="fill:#DDB7DE;" cx="37.5" cy="30" r="1"/>
	<circle style="fill:#DDB7DE;" cx="25.5" cy="36" r="1"/>
	<circle style="fill:#DDB7DE;" cx="22.5" cy="33" r="1"/>
	<circle style="fill:#DDB7DE;" cx="28.5" cy="33" r="1"/>
	<circle style="fill:#DDB7DE;" cx="22.5" cy="39" r="1"/>
	<circle style="fill:#DDB7DE;" cx="28.5" cy="39" r="1"/>
	<circle style="fill:#DDB7DE;" cx="31.5" cy="30" r="1"/>
	<circle style="fill:#DDB7DE;" cx="31.5" cy="36" r="1"/>
	<circle style="fill:#DDB7DE;" cx="34.5" cy="33" r="1"/>
	<circle style="fill:#DDB7DE;" cx="34.5" cy="39" r="1"/>
	<circle style="fill:#DDB7DE;" cx="25.5" cy="42" r="1"/>
	<circle style="fill:#DDB7DE;" cx="31.5" cy="42" r="1"/>
</g>
<g>
</g>
<g>
</g>
<g>
</g>
<g>
</g>
<g>
</g>
<g>
</g>
<g>
</g>
<g>
</g>
<g>
</g>
<g>
</g>
<g>
</g>
<g>
</g>
<g>
</g>
<g>
</g>
<g>
</g>
</svg>
