<?xml version="1.0" encoding="iso-8859-1"?>
<!-- Generator: Adobe Illustrator 19.0.0, SVG Export Plug-In . SVG Version: 6.00 Build 0)  -->
<svg version="1.1" id="Capa_1" xmlns="http://www.w3.org/2000/svg" xmlns:xlink="http://www.w3.org/1999/xlink" x="0px" y="0px"
	 viewBox="0 0 56 56" style="enable-background:new 0 0 56 56;" xml:space="preserve">
<rect x="19" y="6" style="fill:#226BAC;" width="19" height="4"/>
<path style="fill:#57ABC1;" d="M53.63,50H2.37C1.061,50,0,48.939,0,47.63V12.37C0,11.061,1.061,10,2.37,10h51.26
	c1.309,0,2.37,1.061,2.37,2.37v35.26C56,48.939,54.939,50,53.63,50z"/>
<circle style="fill:#424A60;" cx="29" cy="30" r="16"/>
<circle style="fill:#7383BF;" cx="29" cy="30" r="14"/>
<path style="fill:#879AD8;" d="M32.818,30c0,4.576,1.804,8.626,4.582,11.181C40.795,38.626,43,34.576,43,30s-2.205-8.626-5.6-11.181
	C34.622,21.374,32.818,25.424,32.818,30z"/>
<path style="fill:#879AD8;" d="M15,30c0,4.576,2.205,8.626,5.6,11.181c2.778-2.555,4.582-6.605,4.582-11.181
	s-1.804-8.626-4.582-11.181C17.205,21.374,15,25.424,15,30z"/>
<circle style="fill:#BCCEF7;" cx="23.909" cy="24.909" r="2.545"/>
<g>
</g>
<g>
</g>
<g>
</g>
<g>
</g>
<g>
</g>
<g>
</g>
<g>
</g>
<g>
</g>
<g>
</g>
<g>
</g>
<g>
</g>
<g>
</g>
<g>
</g>
<g>
</g>
<g>
</g>
</svg>
