<?xml version="1.0" encoding="iso-8859-1"?>
<!-- Generator: Adobe Illustrator 19.0.0, SVG Export Plug-In . SVG Version: 6.00 Build 0)  -->
<svg version="1.1" id="Capa_1" xmlns="http://www.w3.org/2000/svg" xmlns:xlink="http://www.w3.org/1999/xlink" x="0px" y="0px"
	 viewBox="0 0 58 58" style="enable-background:new 0 0 58 58;" xml:space="preserve">
<polygon style="fill:#EFCE4A;" points="48,37 39.564,37 29.177,52 18.79,37 10,37 0,58 58,58 "/>
<path style="fill:#9777A8;" d="M42.03,5.324L42.03,5.324c-7.098-7.098-18.607-7.098-25.706,0h0C9.928,11.72,9.208,23.763,14.636,31
	l14.541,21l14.541-21C49.146,23.763,48.426,11.72,42.03,5.324z M29.354,24c-3.314,0-6-2.686-6-6s2.686-6,6-6s6,2.686,6,6
	S32.667,24,29.354,24z"/>
<g>
</g>
<g>
</g>
<g>
</g>
<g>
</g>
<g>
</g>
<g>
</g>
<g>
</g>
<g>
</g>
<g>
</g>
<g>
</g>
<g>
</g>
<g>
</g>
<g>
</g>
<g>
</g>
<g>
</g>
</svg>
