<?xml version="1.0" encoding="iso-8859-1"?>
<!-- Generator: Adobe Illustrator 19.0.0, SVG Export Plug-In . SVG Version: 6.00 Build 0)  -->
<svg version="1.1" id="Capa_1" xmlns="http://www.w3.org/2000/svg" xmlns:xlink="http://www.w3.org/1999/xlink" x="0px" y="0px"
	 viewBox="0 0 60 60" style="enable-background:new 0 0 60 60;" xml:space="preserve">
<g>
	<circle style="fill:#DD352E;" cx="13" cy="30" r="12"/>
	<path style="fill:#B02721;" d="M13,43C5.832,43,0,37.168,0,30s5.832-13,13-13s13,5.832,13,13S20.168,43,13,43z M13,19
		C6.935,19,2,23.935,2,30s4.935,11,11,11s11-4.935,11-11S19.065,19,13,19z"/>
</g>
<g>
	<circle style="fill:#DD352E;" cx="47" cy="30" r="12"/>
	<path style="fill:#B02721;" d="M47,43c-7.168,0-13-5.832-13-13s5.832-13,13-13s13,5.832,13,13S54.168,43,47,43z M47,19
		c-6.065,0-11,4.935-11,11s4.935,11,11,11s11-4.935,11-11S53.065,19,47,19z"/>
</g>
<path style="fill:#B02721;" d="M47,43H13c-0.553,0-1-0.448-1-1s0.447-1,1-1h34c0.553,0,1,0.448,1,1S47.553,43,47,43z"/>
<g>
</g>
<g>
</g>
<g>
</g>
<g>
</g>
<g>
</g>
<g>
</g>
<g>
</g>
<g>
</g>
<g>
</g>
<g>
</g>
<g>
</g>
<g>
</g>
<g>
</g>
<g>
</g>
<g>
</g>
</svg>
