<?xml version="1.0" encoding="iso-8859-1"?>
<!-- Generator: Adobe Illustrator 19.0.0, SVG Export Plug-In . SVG Version: 6.00 Build 0)  -->
<svg version="1.1" id="Capa_1" xmlns="http://www.w3.org/2000/svg" xmlns:xlink="http://www.w3.org/1999/xlink" x="0px" y="0px"
	 viewBox="0 0 58 58" style="enable-background:new 0 0 58 58;" xml:space="preserve">
<path style="fill:#424A60;" d="M41.595,58H16.405C14.525,58,13,56.475,13,54.595V3.405C13,1.525,14.525,0,16.405,0h25.189
	C43.475,0,45,1.525,45,3.405v51.189C45,56.475,43.475,58,41.595,58z"/>
<rect x="13" y="6" style="fill:#E7ECED;" width="32" height="40"/>
<circle style="fill:#262B35;" cx="29" cy="52" r="3"/>
<path style="fill:#262B35;" d="M29,4h-4c-0.553,0-1-0.447-1-1s0.447-1,1-1h4c0.553,0,1,0.447,1,1S29.553,4,29,4z"/>
<path style="fill:#262B35;" d="M33,4h-1c-0.553,0-1-0.447-1-1s0.447-1,1-1h1c0.553,0,1,0.447,1,1S33.553,4,33,4z"/>
<path style="fill:#48A0DC;" d="M37,11H21c-2.209,0-4,1.791-4,4v2v2v4l4-4h16c2.209,0,4-1.791,4-4v0C41,12.791,39.209,11,37,11z"/>
<path style="fill:#61B872;" d="M21,28h16c2.209,0,4,1.791,4,4v2v2v4l-4-4H21c-2.209,0-4-1.791-4-4v0C17,29.791,18.791,28,21,28z"/>
<g>
</g>
<g>
</g>
<g>
</g>
<g>
</g>
<g>
</g>
<g>
</g>
<g>
</g>
<g>
</g>
<g>
</g>
<g>
</g>
<g>
</g>
<g>
</g>
<g>
</g>
<g>
</g>
<g>
</g>
</svg>
