<?xml version="1.0" encoding="iso-8859-1"?>
<!-- Generator: Adobe Illustrator 19.0.0, SVG Export Plug-In . SVG Version: 6.00 Build 0)  -->
<svg version="1.1" id="Capa_1" xmlns="http://www.w3.org/2000/svg" xmlns:xlink="http://www.w3.org/1999/xlink" x="0px" y="0px"
	 viewBox="0 0 58 58" style="enable-background:new 0 0 58 58;" xml:space="preserve">
<path style="fill:#7FABDA;" d="M27,3.405V26h27.594C56.475,26,58,27.525,58,29.405v-26C58,1.525,56.475,0,54.594,0L30.405,0
	C28.525,0,27,1.525,27,3.405z"/>
<path style="fill:none;stroke:#88C057;stroke-width:2;stroke-linecap:round;stroke-miterlimit:10;" d="M14,7C7.367,7,2,12.367,2,19"
	/>
<line style="fill:none;stroke:#88C057;stroke-width:2;stroke-linecap:round;stroke-miterlimit:10;" x1="13" y1="13" x2="19" y2="7"/>
<line style="fill:none;stroke:#88C057;stroke-width:2;stroke-linecap:round;stroke-miterlimit:10;" x1="19" y1="7" x2="13" y2="1"/>
<line style="fill:none;stroke:#88C057;stroke-width:2;stroke-linecap:round;stroke-miterlimit:10;" x1="19" y1="7" x2="14" y2="7"/>
<path style="fill:#E7ECED;" d="M58,29.405v25.189C58,56.475,56.475,58,54.595,58H3.405C1.525,58,0,56.475,0,54.595l0-25.189
	C0,27.525,1.525,26,3.405,26h51.189C56.475,26,58,27.525,58,29.405z"/>
<circle style="fill:#FFFFFF;" cx="53" cy="42" r="3"/>
<path style="fill:#424A60;" d="M4,42v4c0,0.553-0.447,1-1,1s-1-0.447-1-1v-4c0-0.553,0.447-1,1-1S4,41.447,4,42z"/>
<path style="fill:#424A60;" d="M4,38v1c0,0.553-0.447,1-1,1s-1-0.447-1-1v-1c0-0.553,0.447-1,1-1S4,37.447,4,38z"/>
<rect x="6" y="26" style="fill:#424A60;" width="42" height="32"/>
<path style="fill:#E7ECED;" d="M27,3.405V6h31V3.405C58,1.525,56.476,0,54.595,0L30.405,0C28.524,0,27,1.525,27,3.405z"/>
<g>
</g>
<g>
</g>
<g>
</g>
<g>
</g>
<g>
</g>
<g>
</g>
<g>
</g>
<g>
</g>
<g>
</g>
<g>
</g>
<g>
</g>
<g>
</g>
<g>
</g>
<g>
</g>
<g>
</g>
</svg>
