<?xml version="1.0" encoding="iso-8859-1"?>
<!-- Generator: Adobe Illustrator 19.0.0, SVG Export Plug-In . SVG Version: 6.00 Build 0)  -->
<svg version="1.1" id="Capa_1" xmlns="http://www.w3.org/2000/svg" xmlns:xlink="http://www.w3.org/1999/xlink" x="0px" y="0px"
	 viewBox="0 0 58 58" style="enable-background:new 0 0 58 58;" xml:space="preserve">
<ellipse style="fill:#7383BF;" cx="12.5" cy="5.5" rx="12.5" ry="5.5"/>
<ellipse style="fill:#7383BF;" cx="45.5" cy="5.5" rx="12.5" ry="5.5"/>
<g>
	<path style="fill:#556080;" d="M45.5,11C38.596,11,33,8.538,33,5.5c0-0.169,0.024-0.335,0.057-0.5H33L0,58L57,8l0.188-0.564
		C55.406,9.517,50.852,11,45.5,11z"/>
</g>
<g>
	<g>
		<path style="fill:#424A60;" d="M20.488,25.095L29,11.424L25,5h-0.057C24.976,5.165,25,5.331,25,5.5c0,3.038-5.596,5.5-12.5,5.5
			C7.148,11,2.594,9.517,0.812,7.436L1,8L20.488,25.095z"/>
		<polygon style="fill:#424A60;" points="29,32.562 58,58 37.512,25.095 		"/>
	</g>
</g>
<g>
</g>
<g>
</g>
<g>
</g>
<g>
</g>
<g>
</g>
<g>
</g>
<g>
</g>
<g>
</g>
<g>
</g>
<g>
</g>
<g>
</g>
<g>
</g>
<g>
</g>
<g>
</g>
<g>
</g>
</svg>
