<?xml version="1.0" encoding="iso-8859-1"?>
<!-- Generator: Adobe Illustrator 19.0.0, SVG Export Plug-In . SVG Version: 6.00 Build 0)  -->
<svg version="1.1" id="Capa_1" xmlns="http://www.w3.org/2000/svg" xmlns:xlink="http://www.w3.org/1999/xlink" x="0px" y="0px"
	 viewBox="0 0 58 58" style="enable-background:new 0 0 58 58;" xml:space="preserve">
<g>
	<path style="fill:#556080;" d="M29,0C12.984,0,0,12.984,0,29c0,8.629,3.778,16.366,9.761,21.677C15.033,46.501,21.692,44,28.939,44
		c7.281,0,13.967,2.524,19.251,6.734C54.203,45.42,58,37.656,58,29C58,12.984,45.016,0,29,0z"/>
</g>
<g>
	<path style="fill:#7383BF;" d="M29,3c-0.553,0-1,0.447-1,1v2c0,0.553,0.447,1,1,1s1-0.447,1-1V4C30,3.447,29.553,3,29,3z"/>
	<path style="fill:#7383BF;" d="M54.5,28h-2c-0.553,0-1,0.447-1,1s0.447,1,1,1h2c0.553,0,1-0.447,1-1S55.053,28,54.5,28z"/>
	<path style="fill:#7383BF;" d="M6.5,29c0-0.553-0.447-1-1-1h-2c-0.553,0-1,0.447-1,1s0.447,1,1,1h2C6.053,30,6.5,29.552,6.5,29z"/>
	<path style="fill:#7383BF;" d="M42.25,6.551c-0.479-0.276-1.09-0.113-1.366,0.366l-1,1.731c-0.276,0.479-0.112,1.09,0.366,1.366
		c0.157,0.091,0.329,0.134,0.499,0.134c0.346,0,0.682-0.179,0.867-0.5l1-1.731C42.893,7.438,42.729,6.827,42.25,6.551z"/>
	<path style="fill:#7383BF;" d="M51.584,41.384l-1.732-1c-0.478-0.276-1.091-0.112-1.366,0.366c-0.276,0.479-0.112,1.09,0.366,1.366
		l1.732,1c0.157,0.091,0.329,0.134,0.499,0.134c0.346,0,0.682-0.18,0.867-0.5C52.227,42.271,52.063,41.66,51.584,41.384z"/>
	<path style="fill:#7383BF;" d="M9.148,16.884l-1.732-1c-0.478-0.276-1.09-0.112-1.366,0.366s-0.112,1.09,0.366,1.366l1.732,1
		c0.157,0.091,0.329,0.134,0.499,0.134c0.346,0,0.682-0.18,0.867-0.5C9.791,17.771,9.627,17.16,9.148,16.884z"/>
	<path style="fill:#7383BF;" d="M17.111,6.883c-0.276-0.479-0.89-0.643-1.366-0.366c-0.479,0.276-0.643,0.888-0.366,1.366l1,1.732
		c0.186,0.32,0.521,0.5,0.867,0.5c0.17,0,0.342-0.043,0.499-0.134c0.479-0.276,0.643-0.888,0.366-1.366L17.111,6.883z"/>
	<path style="fill:#7383BF;" d="M49.099,18.284c0.17,0,0.342-0.043,0.499-0.134l1.731-1c0.479-0.276,0.643-0.888,0.366-1.366
		c-0.277-0.479-0.89-0.644-1.366-0.366l-1.731,1c-0.479,0.276-0.643,0.888-0.366,1.366C48.417,18.105,48.753,18.284,49.099,18.284z"
		/>
	<path style="fill:#7383BF;" d="M7.894,39.918l-1.731,1c-0.479,0.276-0.643,0.888-0.366,1.366c0.186,0.321,0.521,0.5,0.867,0.5
		c0.17,0,0.342-0.043,0.499-0.134l1.731-1c0.479-0.276,0.643-0.888,0.366-1.366C8.982,39.804,8.37,39.641,7.894,39.918z"/>
</g>
<path style="fill:#38454F;" d="M9.752,50.683C14.873,55.232,21.612,58,29,58c7.361,0,14.076-2.748,19.19-7.266
	C42.906,46.524,36.22,44,28.939,44C21.688,44,15.025,46.504,9.752,50.683z"/>
<path style="fill:#404960;" d="M42.021,17.172c-0.391-0.391-1.023-0.391-1.414,0l-8.387,8.388c-1.537-0.997-3.725-0.833-5.048,0.491
	C26.416,26.805,26,27.81,26,28.879s0.416,2.073,1.172,2.828c0.755,0.756,1.76,1.172,2.828,1.172s2.073-0.416,2.828-1.172
	C33.584,30.952,34,29.947,34,28.879c0-0.645-0.168-1.259-0.455-1.816l8.476-8.477C42.411,18.195,42.411,17.562,42.021,17.172z
	 M31.414,30.293c-0.756,0.756-2.072,0.756-2.828,0C28.208,29.915,28,29.413,28,28.879s0.208-1.036,0.586-1.414
	s0.88-0.586,1.414-0.586s1.036,0.208,1.414,0.586S32,28.344,32,28.879S31.792,29.915,31.414,30.293z"/>
<path style="fill:#FFFFFF;" d="M41.021,16.172c-0.391-0.391-1.023-0.391-1.414,0l-8.387,8.388c-1.537-0.997-3.725-0.833-5.048,0.491
	C25.416,25.805,25,26.81,25,27.879s0.416,2.073,1.172,2.828c0.755,0.756,1.76,1.172,2.828,1.172s2.073-0.416,2.828-1.172
	C32.584,29.952,33,28.947,33,27.879c0-0.645-0.168-1.259-0.455-1.816l8.476-8.477C41.411,17.195,41.411,16.562,41.021,16.172z
	 M30.414,29.293c-0.756,0.756-2.072,0.756-2.828,0C27.208,28.915,27,28.413,27,27.879s0.208-1.036,0.586-1.414
	s0.88-0.586,1.414-0.586s1.036,0.208,1.414,0.586S31,27.344,31,27.879S30.792,28.915,30.414,29.293z"/>
<g>
</g>
<g>
</g>
<g>
</g>
<g>
</g>
<g>
</g>
<g>
</g>
<g>
</g>
<g>
</g>
<g>
</g>
<g>
</g>
<g>
</g>
<g>
</g>
<g>
</g>
<g>
</g>
<g>
</g>
</svg>
