<?xml version="1.0" encoding="iso-8859-1"?>
<!-- Generator: Adobe Illustrator 19.0.0, SVG Export Plug-In . SVG Version: 6.00 Build 0)  -->
<svg version="1.1" id="Capa_1" xmlns="http://www.w3.org/2000/svg" xmlns:xlink="http://www.w3.org/1999/xlink" x="0px" y="0px"
	 viewBox="0 0 58 58" style="enable-background:new 0 0 58 58;" xml:space="preserve">
<path style="fill:#556080;" d="M29,51c-0.552,0-1-0.447-1-1V24c0-0.553,0.448-1,1-1s1,0.447,1,1v26C30,50.553,29.552,51,29,51z"/>
<rect x="21" y="54" style="fill:#556080;" width="16" height="4"/>
<rect x="24" y="50" style="fill:#7383BF;" width="10" height="4"/>
<path style="fill:#556080;" d="M29,13c-0.552,0-1-0.447-1-1V8c0-0.553,0.448-1,1-1s1,0.447,1,1v4C30,12.553,29.552,13,29,13z"/>
<circle style="fill:#7383BF;" cx="29" cy="4" r="4"/>
<path style="fill:#556080;" d="M42,24H16c-3.3,0-6-2.7-6-6v0c0-3.3,2.7-6,6-6h26c3.3,0,6,2.7,6,6v0C48,21.3,45.3,24,42,24z"/>
<path style="fill:#FFFFFF;" d="M34,17H24c-0.552,0-1-0.447-1-1s0.448-1,1-1h10c0.552,0,1,0.447,1,1S34.552,17,34,17z"/>
<path style="fill:#FFFFFF;" d="M43,21H16c-0.552,0-1-0.447-1-1s0.448-1,1-1h27c0.552,0,1,0.447,1,1S43.552,21,43,21z"/>
<g>
</g>
<g>
</g>
<g>
</g>
<g>
</g>
<g>
</g>
<g>
</g>
<g>
</g>
<g>
</g>
<g>
</g>
<g>
</g>
<g>
</g>
<g>
</g>
<g>
</g>
<g>
</g>
<g>
</g>
</svg>
