<?xml version="1.0" encoding="iso-8859-1"?>
<!-- Generator: Adobe Illustrator 19.0.0, SVG Export Plug-In . SVG Version: 6.00 Build 0)  -->
<svg version="1.1" id="Capa_1" xmlns="http://www.w3.org/2000/svg" xmlns:xlink="http://www.w3.org/1999/xlink" x="0px" y="0px"
	 viewBox="0 0 54 54" style="enable-background:new 0 0 54 54;" xml:space="preserve">
<rect y="15" style="fill:#694F87;" width="54" height="37"/>
<line style="fill:none;stroke:#556080;stroke-width:2;stroke-linecap:round;stroke-miterlimit:10;" x1="2" y1="11" x2="52" y2="11"/>
<line style="fill:none;stroke:#556080;stroke-width:2;stroke-linecap:round;stroke-miterlimit:10;" x1="5" y1="7" x2="49" y2="7"/>
<line style="fill:none;stroke:#556080;stroke-width:2;stroke-linecap:round;stroke-miterlimit:10;" x1="8" y1="3" x2="46" y2="3"/>
<g>
	<circle style="fill:#BF4D90;" cx="45" cy="18" r="1"/>
	<circle style="fill:#BF4D90;" cx="45" cy="24" r="1"/>
	<circle style="fill:#BF4D90;" cx="48" cy="21" r="1"/>
	<circle style="fill:#BF4D90;" cx="48" cy="27" r="1"/>
	<circle style="fill:#BF4D90;" cx="51" cy="18" r="1"/>
	<circle style="fill:#BF4D90;" cx="51" cy="24" r="1"/>
	<circle style="fill:#BF4D90;" cx="45" cy="30" r="1"/>
	<circle style="fill:#BF4D90;" cx="45" cy="36" r="1"/>
	<circle style="fill:#BF4D90;" cx="48" cy="33" r="1"/>
	<circle style="fill:#BF4D90;" cx="48" cy="39" r="1"/>
	<circle style="fill:#BF4D90;" cx="51" cy="30" r="1"/>
	<circle style="fill:#BF4D90;" cx="51" cy="36" r="1"/>
	<circle style="fill:#BF4D90;" cx="45" cy="42" r="1"/>
	<circle style="fill:#BF4D90;" cx="45" cy="48" r="1"/>
	<circle style="fill:#BF4D90;" cx="48" cy="45" r="1"/>
	<circle style="fill:#BF4D90;" cx="48" cy="51" r="1"/>
	<circle style="fill:#BF4D90;" cx="51" cy="42" r="1"/>
	<circle style="fill:#BF4D90;" cx="51" cy="48" r="1"/>
	<circle style="fill:#BF4D90;" cx="27" cy="18" r="1"/>
	<circle style="fill:#BF4D90;" cx="27" cy="24" r="1"/>
	<circle style="fill:#BF4D90;" cx="30" cy="21" r="1"/>
	<circle style="fill:#BF4D90;" cx="30" cy="27" r="1"/>
	<circle style="fill:#BF4D90;" cx="33" cy="18" r="1"/>
	<circle style="fill:#BF4D90;" cx="39" cy="18" r="1"/>
	<circle style="fill:#BF4D90;" cx="33" cy="24" r="1"/>
	<circle style="fill:#BF4D90;" cx="39" cy="24" r="1"/>
	<circle style="fill:#BF4D90;" cx="36" cy="21" r="1"/>
	<circle style="fill:#BF4D90;" cx="42" cy="21" r="1"/>
	<circle style="fill:#BF4D90;" cx="36" cy="27" r="1"/>
	<circle style="fill:#BF4D90;" cx="42" cy="27" r="1"/>
	<circle style="fill:#BF4D90;" cx="27" cy="30" r="1"/>
	<circle style="fill:#BF4D90;" cx="27" cy="36" r="1"/>
	<circle style="fill:#BF4D90;" cx="30" cy="33" r="1"/>
	<circle style="fill:#BF4D90;" cx="30" cy="39" r="1"/>
	<circle style="fill:#BF4D90;" cx="33" cy="30" r="1"/>
	<circle style="fill:#BF4D90;" cx="39" cy="30" r="1"/>
	<circle style="fill:#BF4D90;" cx="33" cy="36" r="1"/>
	<circle style="fill:#BF4D90;" cx="39" cy="36" r="1"/>
	<circle style="fill:#BF4D90;" cx="36" cy="33" r="1"/>
	<circle style="fill:#BF4D90;" cx="42" cy="33" r="1"/>
	<circle style="fill:#BF4D90;" cx="36" cy="39" r="1"/>
	<circle style="fill:#BF4D90;" cx="42" cy="39" r="1"/>
	<circle style="fill:#BF4D90;" cx="27" cy="42" r="1"/>
	<circle style="fill:#BF4D90;" cx="27" cy="48" r="1"/>
	<circle style="fill:#BF4D90;" cx="30" cy="45" r="1"/>
	<circle style="fill:#BF4D90;" cx="30" cy="51" r="1"/>
	<circle style="fill:#BF4D90;" cx="33" cy="42" r="1"/>
	<circle style="fill:#BF4D90;" cx="39" cy="42" r="1"/>
	<circle style="fill:#BF4D90;" cx="33" cy="48" r="1"/>
	<circle style="fill:#BF4D90;" cx="39" cy="48" r="1"/>
	<circle style="fill:#BF4D90;" cx="36" cy="45" r="1"/>
	<circle style="fill:#BF4D90;" cx="42" cy="45" r="1"/>
	<circle style="fill:#BF4D90;" cx="36" cy="51" r="1"/>
	<circle style="fill:#BF4D90;" cx="42" cy="51" r="1"/>
	<circle style="fill:#BF4D90;" cx="21" cy="18" r="1"/>
	<circle style="fill:#BF4D90;" cx="21" cy="24" r="1"/>
	<circle style="fill:#BF4D90;" cx="24" cy="21" r="1"/>
	<circle style="fill:#BF4D90;" cx="24" cy="27" r="1"/>
	<circle style="fill:#BF4D90;" cx="21" cy="30" r="1"/>
	<circle style="fill:#BF4D90;" cx="21" cy="36" r="1"/>
	<circle style="fill:#BF4D90;" cx="24" cy="33" r="1"/>
	<circle style="fill:#BF4D90;" cx="24" cy="39" r="1"/>
	<circle style="fill:#BF4D90;" cx="21" cy="42" r="1"/>
	<circle style="fill:#BF4D90;" cx="21" cy="48" r="1"/>
	<circle style="fill:#BF4D90;" cx="24" cy="45" r="1"/>
	<circle style="fill:#BF4D90;" cx="24" cy="51" r="1"/>
	<circle style="fill:#BF4D90;" cx="3" cy="18" r="1"/>
	<circle style="fill:#BF4D90;" cx="3" cy="24" r="1"/>
	<circle style="fill:#BF4D90;" cx="6" cy="21" r="1"/>
	<circle style="fill:#BF4D90;" cx="6" cy="27" r="1"/>
	<circle style="fill:#BF4D90;" cx="9" cy="18" r="1"/>
	<circle style="fill:#BF4D90;" cx="15" cy="18" r="1"/>
	<circle style="fill:#BF4D90;" cx="9" cy="24" r="1"/>
	<circle style="fill:#BF4D90;" cx="15" cy="24" r="1"/>
	<circle style="fill:#BF4D90;" cx="12" cy="21" r="1"/>
	<circle style="fill:#BF4D90;" cx="18" cy="21" r="1"/>
	<circle style="fill:#BF4D90;" cx="12" cy="27" r="1"/>
	<circle style="fill:#BF4D90;" cx="18" cy="27" r="1"/>
	<circle style="fill:#BF4D90;" cx="3" cy="30" r="1"/>
	<circle style="fill:#BF4D90;" cx="3" cy="36" r="1"/>
	<circle style="fill:#BF4D90;" cx="6" cy="33" r="1"/>
	<circle style="fill:#BF4D90;" cx="6" cy="39" r="1"/>
	<circle style="fill:#BF4D90;" cx="9" cy="30" r="1"/>
	<circle style="fill:#BF4D90;" cx="15" cy="30" r="1"/>
	<circle style="fill:#BF4D90;" cx="9" cy="36" r="1"/>
	<circle style="fill:#BF4D90;" cx="15" cy="36" r="1"/>
	<circle style="fill:#BF4D90;" cx="12" cy="33" r="1"/>
	<circle style="fill:#BF4D90;" cx="18" cy="33" r="1"/>
	<circle style="fill:#BF4D90;" cx="12" cy="39" r="1"/>
	<circle style="fill:#BF4D90;" cx="18" cy="39" r="1"/>
	<circle style="fill:#BF4D90;" cx="3" cy="42" r="1"/>
	<circle style="fill:#BF4D90;" cx="3" cy="48" r="1"/>
	<circle style="fill:#BF4D90;" cx="6" cy="45" r="1"/>
	<circle style="fill:#BF4D90;" cx="6" cy="51" r="1"/>
	<circle style="fill:#BF4D90;" cx="9" cy="42" r="1"/>
	<circle style="fill:#BF4D90;" cx="15" cy="42" r="1"/>
	<circle style="fill:#BF4D90;" cx="9" cy="48" r="1"/>
	<circle style="fill:#BF4D90;" cx="15" cy="48" r="1"/>
	<circle style="fill:#BF4D90;" cx="12" cy="45" r="1"/>
	<circle style="fill:#BF4D90;" cx="18" cy="45" r="1"/>
	<circle style="fill:#BF4D90;" cx="12" cy="51" r="1"/>
	<circle style="fill:#BF4D90;" cx="18" cy="51" r="1"/>
</g>
<g>
</g>
<g>
</g>
<g>
</g>
<g>
</g>
<g>
</g>
<g>
</g>
<g>
</g>
<g>
</g>
<g>
</g>
<g>
</g>
<g>
</g>
<g>
</g>
<g>
</g>
<g>
</g>
<g>
</g>
</svg>
