<?xml version="1.0" encoding="iso-8859-1"?>
<!-- Generator: Adobe Illustrator 19.0.0, SVG Export Plug-In . SVG Version: 6.00 Build 0)  -->
<svg version="1.1" id="Capa_1" xmlns="http://www.w3.org/2000/svg" xmlns:xlink="http://www.w3.org/1999/xlink" x="0px" y="0px"
	 viewBox="0 0 58 58" style="enable-background:new 0 0 58 58;" xml:space="preserve">
<rect y="6" style="fill:#556080;" width="58" height="38"/>
<rect x="49" y="10" style="fill:#61B872;" width="4" height="4"/>
<path style="fill:#FBCE9D;" d="M39.326,34.814c0.162-0.11,0.329-0.211,0.488-0.325c-0.289-0.255-0.609-0.479-0.964-0.656
	l-4.664-3.018c-0.693-0.346-2-0.225-2-1V27.71c0.151-0.171,1.323-0.885,1.507-1.145c0.731-1.032,1.476-2.168,1.86-3.359
	c0.688-0.212,1.633-0.847,1.633-1.602v-2.246c0-0.195-0.102-0.382-0.248-0.556c-0.464-0.556-0.752-1.237-0.752-1.961v-1.027
	c0,0-0.158-6-7-6s-7,6-7,6v1.027c0,0.724-0.288,1.406-0.752,1.961c-0.145,0.174-0.248,0.361-0.248,0.556v2.246
	c0,0.592,0.75,1.112,1.215,1.413c0.561,2.443,3.785,4.201,3.785,4.201v2.052c0,0.748-1.838,1.437-2.495,1.796l-4.707,2.732
	c-0.342,0.187-0.648,0.42-0.925,0.68c0.163,0.118,0.337,0.224,0.504,0.337H39.326z"/>
<rect x="5" y="34" style="fill:#EBBA16;" width="5" height="5"/>
<polygon style="fill:#424A60;" points="31,49 31,44 27,44 27,49 22,49 22,52 36,52 36,49 "/>
<rect x="14" y="34" style="fill:#D75A4A;" width="39" height="5"/>
<g>
</g>
<g>
</g>
<g>
</g>
<g>
</g>
<g>
</g>
<g>
</g>
<g>
</g>
<g>
</g>
<g>
</g>
<g>
</g>
<g>
</g>
<g>
</g>
<g>
</g>
<g>
</g>
<g>
</g>
</svg>
