<?xml version="1.0" encoding="iso-8859-1"?>
<!-- Generator: Adobe Illustrator 19.0.0, SVG Export Plug-In . SVG Version: 6.00 Build 0)  -->
<svg version="1.1" id="Capa_1" xmlns="http://www.w3.org/2000/svg" xmlns:xlink="http://www.w3.org/1999/xlink" x="0px" y="0px"
	 viewBox="0 0 58 58" style="enable-background:new 0 0 58 58;" xml:space="preserve">
<circle style="fill:#48A0DC;" cx="29" cy="29" r="29"/>
<path style="fill:#EFCE4A;" d="M0,29c0,0.295,0.013,0.586,0.022,0.879H29V0C12.984,0,0,12.984,0,29z"/>
<path style="fill:#4393BF;" d="M29,6.879c-0.552,0-1,0.447-1,1v23H13c-0.552,0-1,0.447-1,1s0.448,1,1,1h16c0.552,0,1-0.447,1-1v-24
	C30,7.326,29.552,6.879,29,6.879z"/>
<path style="fill:#424A60;" d="M29,5c-0.552,0-1,0.447-1,1v23H13c-0.552,0-1,0.447-1,1s0.448,1,1,1h16c0.552,0,1-0.447,1-1V6
	C30,5.447,29.552,5,29,5z"/>
<g>
</g>
<g>
</g>
<g>
</g>
<g>
</g>
<g>
</g>
<g>
</g>
<g>
</g>
<g>
</g>
<g>
</g>
<g>
</g>
<g>
</g>
<g>
</g>
<g>
</g>
<g>
</g>
<g>
</g>
</svg>
