<?xml version="1.0" encoding="iso-8859-1"?>
<!-- Generator: Adobe Illustrator 19.0.0, SVG Export Plug-In . SVG Version: 6.00 Build 0)  -->
<svg version="1.1" id="Capa_1" xmlns="http://www.w3.org/2000/svg" xmlns:xlink="http://www.w3.org/1999/xlink" x="0px" y="0px"
	 viewBox="0 0 53 53" style="enable-background:new 0 0 53 53;" xml:space="preserve">
<path style="fill:#E7ECED;" d="M11.487,44.641l9.113-3.908c0.494-0.247,0.896-1.045,1.179-1.614c0.255-0.514-0.126-1.119-0.7-1.119
	h-6.445c0,0-2.33-0.228-4.127-1c-1.053-0.452-1.415-1.049-0.757-1.986c1.925-2.74,5.904-9.192,6.033-15.855
	c0,0,0.221-10.257,10.34-10.34c5.903,0.049,8.691,3.523,9.99,6.41c0.724,1.611,1.035,3.367,1.151,5.129
	c0.42,6.351,3.654,12.16,5.161,14.642c0.511,0.842,0.264,1.963-0.581,2.469C40.458,38.298,38.761,38,38.761,38h-6.488
	c-0.634,0-0.914,0.886-0.416,1.279c0.406,0.32,0.793,0.609,1.002,0.723l7.58,4.587c1.094,0.597,1.967,1.483,2.561,2.529
	C38.451,50.795,32.664,53,26.359,53c-6.574,0-12.585-2.399-17.216-6.363C9.748,45.812,10.537,45.116,11.487,44.641z"/>
<g>
	<path style="fill:#556080;" d="M26.5,0C11.864,0,0,11.865,0,26.5c0,8.022,3.57,15.206,9.202,20.066
		c0.598-0.793,1.364-1.464,2.286-1.925l9.113-3.908c0.494-0.247,0.896-1.045,1.179-1.614c0.255-0.514-0.126-1.119-0.7-1.119h-6.445
		c0,0-2.33-0.228-4.127-1c-1.053-0.452-1.415-1.049-0.757-1.986c1.925-2.74,5.904-9.192,6.033-15.855c0,0,0.221-10.257,10.34-10.34
		c5.903,0.049,8.691,3.523,9.99,6.41c0.724,1.611,1.035,3.367,1.151,5.129c0.42,6.351,3.654,12.16,5.161,14.642
		c0.511,0.842,0.264,1.963-0.581,2.469C40.458,38.298,38.761,38,38.761,38h-6.488c-0.634,0-0.914,0.886-0.416,1.279
		c0.406,0.32,0.793,0.609,1.002,0.723l7.58,4.587c1.086,0.592,1.952,1.469,2.545,2.505c0.026,0.025,0.055,0.048,0.08,0.075
		C49.117,42.313,53,34.864,53,26.5C53,11.865,41.136,0,26.5,0z"/>
</g>
<g>
</g>
<g>
</g>
<g>
</g>
<g>
</g>
<g>
</g>
<g>
</g>
<g>
</g>
<g>
</g>
<g>
</g>
<g>
</g>
<g>
</g>
<g>
</g>
<g>
</g>
<g>
</g>
<g>
</g>
</svg>
