<?xml version="1.0" encoding="iso-8859-1"?>
<!-- Generator: Adobe Illustrator 19.0.0, SVG Export Plug-In . SVG Version: 6.00 Build 0)  -->
<svg version="1.1" id="Capa_1" xmlns="http://www.w3.org/2000/svg" xmlns:xlink="http://www.w3.org/1999/xlink" x="0px" y="0px"
	 viewBox="0 0 56 56" style="enable-background:new 0 0 56 56;" xml:space="preserve">
<path style="fill:#424A60;" d="M40.693,47.277H3.307C2.033,47.277,1,46.244,1,44.97V19.584c0-1.274,1.033-2.307,2.307-2.307h37.386
	c1.274,0,2.307,1.033,2.307,2.307V44.97C43,46.244,41.967,47.277,40.693,47.277z"/>
<path style="fill:#556080;" d="M52.074,47.465L43,43.277v-22l9.074-4.188C53.907,16.243,56,17.582,56,19.601v25.352
	C56,46.972,53.907,48.311,52.074,47.465z"/>
<path style="fill:none;stroke:#424A60;stroke-width:2;stroke-linecap:round;stroke-miterlimit:10;" d="M1,9.277h32c1.1,0,2,0.9,2,2
	v6"/>
<g>
</g>
<g>
</g>
<g>
</g>
<g>
</g>
<g>
</g>
<g>
</g>
<g>
</g>
<g>
</g>
<g>
</g>
<g>
</g>
<g>
</g>
<g>
</g>
<g>
</g>
<g>
</g>
<g>
</g>
</svg>
