<?xml version="1.0" encoding="iso-8859-1"?>
<!-- Generator: Adobe Illustrator 19.0.0, SVG Export Plug-In . SVG Version: 6.00 Build 0)  -->
<svg version="1.1" id="Capa_1" xmlns="http://www.w3.org/2000/svg" xmlns:xlink="http://www.w3.org/1999/xlink" x="0px" y="0px"
	 viewBox="0 0 53 53" style="enable-background:new 0 0 53 53;" xml:space="preserve">
<rect x="0.5" style="fill:#556080;" width="52" height="53"/>
<polygon style="fill:#FFFFFF;" points="23.5,25 23.5,17.954 23.5,11 34.5,18 "/>
<rect x="0.5" y="34.941" style="fill:#424A60;" width="52" height="18.059"/>
<path style="fill:#2A303D;" d="M46.5,45h-30c-0.553,0-1-0.447-1-1s0.447-1,1-1h30c0.553,0,1,0.447,1,1S47.053,45,46.5,45z"/>
<path style="fill:#FFFFFF;" d="M6.5,48c-0.553,0-1-0.447-1-1v-6c0-0.553,0.447-1,1-1s1,0.447,1,1v6C7.5,47.553,7.053,48,6.5,48z"/>
<path style="fill:#FFFFFF;" d="M10.5,48c-0.553,0-1-0.447-1-1v-6c0-0.553,0.447-1,1-1s1,0.447,1,1v6C11.5,47.553,11.053,48,10.5,48z
	"/>
<path style="fill:#DD352E;" d="M21.5,43h-5c-0.553,0-1,0.447-1,1s0.447,1,1,1h5V43z"/>
<path style="fill:#FFFFFF;" d="M21.5,48c-0.553,0-1-0.447-1-1v-6c0-0.553,0.447-1,1-1s1,0.447,1,1v6C22.5,47.553,22.053,48,21.5,48z
	"/>
<g>
</g>
<g>
</g>
<g>
</g>
<g>
</g>
<g>
</g>
<g>
</g>
<g>
</g>
<g>
</g>
<g>
</g>
<g>
</g>
<g>
</g>
<g>
</g>
<g>
</g>
<g>
</g>
<g>
</g>
</svg>
