<?xml version="1.0" encoding="iso-8859-1"?>
<!-- Generator: Adobe Illustrator 19.0.0, SVG Export Plug-In . SVG Version: 6.00 Build 0)  -->
<svg version="1.1" id="Capa_1" xmlns="http://www.w3.org/2000/svg" xmlns:xlink="http://www.w3.org/1999/xlink" x="0px" y="0px"
	 viewBox="0 0 54.908 54.908" style="enable-background:new 0 0 54.908 54.908;" xml:space="preserve">
<path style="fill:#424A60;" d="M53.908,20.83c-0.256,0-0.512-0.098-0.707-0.293C46.335,13.67,37.191,9.889,27.454,9.889
	S8.573,13.67,1.707,20.537c-0.391,0.391-1.023,0.391-1.414,0s-0.391-1.023,0-1.414c7.244-7.244,16.89-11.233,27.161-11.233
	s19.918,3.989,27.161,11.233c0.391,0.391,0.391,1.023,0,1.414C54.42,20.732,54.164,20.83,53.908,20.83z"/>
<path style="fill:#9777A8;" d="M6.878,26.708c-0.256,0-0.512-0.098-0.707-0.293c-0.391-0.391-0.391-1.023,0-1.414
	c11.736-11.736,30.831-11.734,42.565,0c0.391,0.391,0.391,1.023,0,1.414s-1.023,0.391-1.414,0
	c-10.956-10.956-28.782-10.956-39.737,0C7.39,26.61,7.134,26.708,6.878,26.708z"/>
<path style="fill:#7FABDA;" d="M42.151,32.586c-0.256,0-0.512-0.098-0.707-0.293c-3.73-3.73-8.699-5.785-13.99-5.785
	c-5.291,0-10.259,2.055-13.99,5.785c-0.391,0.391-1.023,0.391-1.414,0s-0.391-1.023,0-1.414c4.108-4.108,9.579-6.371,15.404-6.371
	c5.825,0,11.295,2.263,15.404,6.371c0.391,0.391,0.391,1.023,0,1.414C42.663,32.489,42.407,32.586,42.151,32.586z"/>
<path style="fill:#7FABDA;" d="M27.454,33.916c-3.612,0-6.551,2.939-6.551,6.552s2.939,6.552,6.551,6.552
	c3.613,0,6.552-2.939,6.552-6.552S31.067,33.916,27.454,33.916z"/>
<g>
</g>
<g>
</g>
<g>
</g>
<g>
</g>
<g>
</g>
<g>
</g>
<g>
</g>
<g>
</g>
<g>
</g>
<g>
</g>
<g>
</g>
<g>
</g>
<g>
</g>
<g>
</g>
<g>
</g>
</svg>
