<?xml version="1.0" encoding="iso-8859-1"?>
<!-- Generator: Adobe Illustrator 19.0.0, SVG Export Plug-In . SVG Version: 6.00 Build 0)  -->
<svg version="1.1" id="Capa_1" xmlns="http://www.w3.org/2000/svg" xmlns:xlink="http://www.w3.org/1999/xlink" x="0px" y="0px"
	 viewBox="0 0 58 58" style="enable-background:new 0 0 58 58;" xml:space="preserve">
<rect x="14" y="20" style="fill:#EBBA16;" width="44" height="32"/>
<polygon style="fill:#DC691D;" points="7,13 7,38 0,38 0,6 44,6 44,13 "/>
<polygon style="fill:#ED8A19;" points="14,20 14,45 7,45 7,13 51,13 51,20 "/>
<g>
	<circle style="fill:#EFCE4A;" cx="33" cy="15" r="1"/>
	<circle style="fill:#EFCE4A;" cx="36" cy="18" r="1"/>
	<circle style="fill:#EFCE4A;" cx="39" cy="15" r="1"/>
	<circle style="fill:#EFCE4A;" cx="45" cy="15" r="1"/>
	<circle style="fill:#EFCE4A;" cx="42" cy="18" r="1"/>
	<circle style="fill:#EFCE4A;" cx="48" cy="18" r="1"/>
	<circle style="fill:#EFCE4A;" cx="27" cy="15" r="1"/>
	<circle style="fill:#EFCE4A;" cx="30" cy="18" r="1"/>
	<circle style="fill:#EFCE4A;" cx="9" cy="15" r="1"/>
	<circle style="fill:#EFCE4A;" cx="9" cy="21" r="1"/>
	<circle style="fill:#EFCE4A;" cx="12" cy="18" r="1"/>
	<circle style="fill:#EFCE4A;" cx="12" cy="24" r="1"/>
	<circle style="fill:#EFCE4A;" cx="15" cy="15" r="1"/>
	<circle style="fill:#EFCE4A;" cx="21" cy="15" r="1"/>
	<circle style="fill:#EFCE4A;" cx="18" cy="18" r="1"/>
	<circle style="fill:#EFCE4A;" cx="24" cy="18" r="1"/>
	<circle style="fill:#EFCE4A;" cx="9" cy="27" r="1"/>
	<circle style="fill:#EFCE4A;" cx="9" cy="33" r="1"/>
	<circle style="fill:#EFCE4A;" cx="12" cy="30" r="1"/>
	<circle style="fill:#EFCE4A;" cx="12" cy="36" r="1"/>
	<circle style="fill:#EFCE4A;" cx="9" cy="39" r="1"/>
	<circle style="fill:#EFCE4A;" cx="12" cy="42" r="1"/>
</g>
<g>
</g>
<g>
</g>
<g>
</g>
<g>
</g>
<g>
</g>
<g>
</g>
<g>
</g>
<g>
</g>
<g>
</g>
<g>
</g>
<g>
</g>
<g>
</g>
<g>
</g>
<g>
</g>
<g>
</g>
</svg>
