<?xml version="1.0" encoding="utf-8"?>
<!-- Generator: Adobe Illustrator 17.1.0, SVG Export Plug-In . SVG Version: 6.00 Build 0)  -->
<!DOCTYPE svg PUBLIC "-//W3C//DTD SVG 1.1//EN" "http://www.w3.org/Graphics/SVG/1.1/DTD/svg11.dtd">
<svg version="1.1" id="Layer_1" xmlns="http://www.w3.org/2000/svg" xmlns:xlink="http://www.w3.org/1999/xlink" x="0px" y="0px"
	 viewBox="0 0 68 68" enable-background="new 0 0 68 68" xml:space="preserve">
<g>
	<path d="M0,34c0,21.9,30,34,34,34c4,0,34-12.1,34-34V0H0V34z M45.4,50.3H22.6v-6.5h22.8V50.3z M21.6,16.2
		c0,0,6.5,2.4,9.2,4.1c-0.6-2.6-1.2-10-1.2-10h8.6c0,0-0.6,7.8-1.2,10c1.2-0.6,9.4-4.1,9.4-4.1l2.7,8.3c0,0-7.5,1.8-10.1,1.9
		c1.8,1.4,6.7,7.4,6.7,7.4l-7,5.3c0,0-3.8-6.3-5-8.9c-1.2,2.9-5,8.9-5,8.9l-7.2-5.3c0,0,5.7-6.3,7.1-7.4c-1.4-0.1-9.9-1.9-9.9-1.9
		L21.6,16.2z"/>
</g>
</svg>
